<svg id="Layer_1" data-name="Layer 1" xmlns="http://www.w3.org/2000/svg" width="190" height="60.359" viewBox="0 0 190 60.359">
  <title>aba</title>
  <g>
    <path d="M23.357,28.436h4.393l.927-3.094h4.173l.949,3.094h4.371l-5.431-15.8h-3.93Zm5.961-5.988,1.457-4.9,1.391,4.9Z" fill="#3e3b7e"/>
    <path d="M50.775,20.734a9.072,9.072,0,0,0-.11-1.336,4,4,0,0,0-.475-1.38,3.023,3.023,0,0,0-1.06-1.08,3.544,3.544,0,0,0-1.888-.434,6.4,6.4,0,0,0-2.638.5,3.916,3.916,0,0,0-1.733,1.458V16.727H39.1V28.436h4.195V21.869a2.78,2.78,0,0,1,.883-1.2A1.863,1.863,0,0,1,45.3,20.2a1.224,1.224,0,0,1,.894.39,1.736,1.736,0,0,1,.386,1.258v6.589h4.195Z" fill="#3e3b7e"/>
    <path d="M60.008,24.451a4.808,4.808,0,0,1-.795.278,2.931,2.931,0,0,1-.706.1.915.915,0,0,1-.662-.234,1.1,1.1,0,0,1-.243-.812V19.91h2.274V16.727H57.6V13.054H53.407v3.673H51.972V19.91h1.435v5.365a4.081,4.081,0,0,0,.276,1.6,2.755,2.755,0,0,0,.751,1.046,2.91,2.91,0,0,0,1.115.579,5.006,5.006,0,0,0,1.347.178,7.994,7.994,0,0,0,1.976-.256,12.784,12.784,0,0,0,1.888-.634Z" fill="#3e3b7e"/>
    <path d="M66.145,28.436V16.727H61.95V28.436Zm0-12.688V12.186H61.95v3.562Z" fill="#3e3b7e"/>
    <rect x="68.286" y="20.4" width="6.91" height="3.784" fill="#3e3b7e"/>
    <path d="M90.379,21.724a4.138,4.138,0,0,0-2.13-1.391,3.547,3.547,0,0,0,1.689-1.525,4.313,4.313,0,0,0,.563-2.126,4.447,4.447,0,0,0-.254-1.48,4.249,4.249,0,0,0-.718-1.291,3.7,3.7,0,0,0-1.126-.924,3.076,3.076,0,0,0-1.479-.356h-9.1v15.8h7.705a9.776,9.776,0,0,0,2.175-.234,5.694,5.694,0,0,0,1.8-.723,3.46,3.46,0,0,0,1.656-3.094A4.171,4.171,0,0,0,90.379,21.724Zm-3.952,2.727a1.275,1.275,0,0,1-.894.334h-3.4V22.136h3.554a.971.971,0,0,1,.795.39,1.51,1.51,0,0,1,.309.968A1.233,1.233,0,0,1,86.427,24.451ZM85.2,16.327a1.055,1.055,0,0,1,.729.278,1.193,1.193,0,0,1,.309.924,1.106,1.106,0,0,1-.364.979,1.412,1.412,0,0,1-.806.245H82.133V16.327Z" fill="#3e3b7e"/>
    <path d="M98.985,28.18a4.731,4.731,0,0,0,1.943-1.569l.088.423q.331,1.625,2.473,1.625a9.171,9.171,0,0,0,1.766-.223V24.874a.84.84,0,0,1-.618-.278,1.442,1.442,0,0,1-.177-.835V16.727h-4.195v7.168a2.593,2.593,0,0,1-1.016.979,2.464,2.464,0,0,1-.993.223,1.141,1.141,0,0,1-.938-.423,1.865,1.865,0,0,1-.342-1.2V16.727H92.781v7.7a4.708,4.708,0,0,0,.927,3.15,3.355,3.355,0,0,0,2.693,1.08A6.555,6.555,0,0,0,98.985,28.18Z" fill="#3e3b7e"/>
    <path d="M106.873,25.275a3.323,3.323,0,0,0,.905,2.515,3.584,3.584,0,0,0,2.583.868,8.526,8.526,0,0,0,1.777-.2,7.662,7.662,0,0,0,1.689-.556l-.53-3.116a2.469,2.469,0,0,1-.574.245,2.079,2.079,0,0,1-.574.089q-1.082,0-1.082-1.336v-11.6h-4.195Z" fill="#3e3b7e"/>
    <path d="M114.507,25.275a3.323,3.323,0,0,0,.905,2.515,3.584,3.584,0,0,0,2.583.868,8.526,8.526,0,0,0,1.777-.2,7.662,7.662,0,0,0,1.689-.556l-.53-3.116a2.47,2.47,0,0,1-.574.245,2.079,2.079,0,0,1-.574.089q-1.082,0-1.082-1.336v-11.6h-4.195Z" fill="#3e3b7e"/>
    <path d="M121.587,33.222a5.683,5.683,0,0,0,2.164.423,5.436,5.436,0,0,0,1.7-.267,5.178,5.178,0,0,0,1.49-.768,5.124,5.124,0,0,0,1.159-1.2,5.618,5.618,0,0,0,.751-1.569l3.93-13.111h-3.908l-1.788,8.125-2.208-8.125h-4.305l4.217,11.709q-.132,1.558-1.479,1.558a5.1,5.1,0,0,1-1.722-.378Z" fill="#3e3b7e"/>
    <path d="M137.893,28.436V16.727H133.7V28.436Zm0-12.688V12.186H133.7v3.562Z" fill="#3e3b7e"/>
    <path d="M151.67,20.734a9.071,9.071,0,0,0-.11-1.336,4,4,0,0,0-.475-1.38,3.023,3.023,0,0,0-1.06-1.08,3.544,3.544,0,0,0-1.888-.434,6.4,6.4,0,0,0-2.638.5,3.916,3.916,0,0,0-1.733,1.458V16.727h-3.775V28.436h4.195V21.869a2.78,2.78,0,0,1,.883-1.2,1.863,1.863,0,0,1,1.126-.467,1.224,1.224,0,0,1,.894.39,1.736,1.736,0,0,1,.386,1.258v6.589h4.195Z" fill="#3e3b7e"/>
    <path d="M160.224,27.991a3.149,3.149,0,0,0,1.446-1.38v.757a3.465,3.465,0,0,1-.232,1.336,2.386,2.386,0,0,1-.629.9,2.464,2.464,0,0,1-.916.5,3.789,3.789,0,0,1-1.093.156,4.512,4.512,0,0,1-1.91-.412,5.712,5.712,0,0,1-1.534-1.013l-2.208,2.315a7.353,7.353,0,0,0,2.429,1.669,8.238,8.238,0,0,0,3.223.579,9.11,9.11,0,0,0,2.892-.434,6.735,6.735,0,0,0,2.23-1.213,5.333,5.333,0,0,0,1.435-1.892,5.94,5.94,0,0,0,.508-2.493V16.727h-3.643v1.736a3.7,3.7,0,0,0-1.5-1.458,4.664,4.664,0,0,0-2.208-.5,5.128,5.128,0,0,0-3.9,1.714,5.711,5.711,0,0,0-1.115,1.914,7.572,7.572,0,0,0-.033,4.741,5.745,5.745,0,0,0,1.027,1.859,4.8,4.8,0,0,0,1.6,1.247,4.654,4.654,0,0,0,2.064.456A4.751,4.751,0,0,0,160.224,27.991Zm-2.2-3.562a2.434,2.434,0,0,1-.64-1.759,3.273,3.273,0,0,1,.155-1.013,2.445,2.445,0,0,1,.442-.824,2.317,2.317,0,0,1,.673-.556,1.7,1.7,0,0,1,.828-.211,2.054,2.054,0,0,1,1.269.467,2.856,2.856,0,0,1,.916,1.269v2.092a3.234,3.234,0,0,1-.894.9,2.041,2.041,0,0,1-1.115.3A2.165,2.165,0,0,1,158.028,24.429Z" fill="#3e3b7e"/>
    <g id="Anti-Bullying_Alliance" data-name="Anti-Bullying Alliance">
      <path d="M56.011,33.235l-5.453,15.8h4.393l.927-3.094h4.173L61,49.04h4.371l-5.431-15.8Zm.508,9.817,1.457-4.9,1.391,4.9Zm15.456,2.582a2.08,2.08,0,0,1-.574.089q-1.082,0-1.082-1.336V32.79H66.124V45.879a3.323,3.323,0,0,0,.905,2.515,3.584,3.584,0,0,0,2.583.868,8.527,8.527,0,0,0,1.777-.2,7.661,7.661,0,0,0,1.689-.557l-.53-3.116A2.469,2.469,0,0,1,71.975,45.634Zm7.634,0a2.08,2.08,0,0,1-.574.089q-1.082,0-1.082-1.336V32.79H73.759V45.879a3.323,3.323,0,0,0,.905,2.515,3.584,3.584,0,0,0,2.583.868,8.527,8.527,0,0,0,1.777-.2,7.661,7.661,0,0,0,1.689-.557l-.53-3.116A2.469,2.469,0,0,1,79.609,45.634Zm1.947,3.406h4.195V37.331H81.556Zm0-12.688h4.195V32.79H81.556Zm17.22,8.013V42.095a4.582,4.582,0,0,0-1.5-3.74,6.536,6.536,0,0,0-4.283-1.247A9.394,9.394,0,0,0,87.76,38.6l1.214,2.627a9.007,9.007,0,0,1,1.766-.946,5.067,5.067,0,0,1,1.832-.323,2.368,2.368,0,0,1,1.534.4,1.513,1.513,0,0,1,.475,1.224v.356a5.4,5.4,0,0,0-2.34-.445,6.687,6.687,0,0,0-2.02.289,4.775,4.775,0,0,0-1.578.824,3.89,3.89,0,0,0-1.038,1.269A3.517,3.517,0,0,0,87.23,45.5a3.619,3.619,0,0,0,1.159,2.682,3.982,3.982,0,0,0,1.292.79,4.446,4.446,0,0,0,1.612.289,4.663,4.663,0,0,0,2.164-.523,5.356,5.356,0,0,0,1.788-1.525l.088.423a1.92,1.92,0,0,0,.762,1.213,2.963,2.963,0,0,0,1.711.412,6.734,6.734,0,0,0,.806-.056q.452-.056.96-.167V45.478a.84.84,0,0,1-.618-.278A1.442,1.442,0,0,1,98.777,44.365Zm-4.195.6a.729.729,0,0,1-.155.434,1.811,1.811,0,0,1-.4.39,2.812,2.812,0,0,1-.706.323,2.616,2.616,0,0,1-.773.122,1.513,1.513,0,0,1-.982-.312.983.983,0,0,1-.386-.8,1.149,1.149,0,0,1,.508-.957,2.084,2.084,0,0,1,1.28-.378,4.086,4.086,0,0,1,.795.089,5.98,5.98,0,0,1,.817.223Zm17.669-6.344a3.023,3.023,0,0,0-1.06-1.08,3.544,3.544,0,0,0-1.888-.434,6.4,6.4,0,0,0-2.638.5,3.916,3.916,0,0,0-1.733,1.458V37.331h-3.775V49.04h4.195V42.473a2.781,2.781,0,0,1,.883-1.2,1.863,1.863,0,0,1,1.126-.467,1.224,1.224,0,0,1,.894.39,1.736,1.736,0,0,1,.386,1.258V49.04h4.195v-7.7a9.072,9.072,0,0,0-.11-1.336A4,4,0,0,0,112.25,38.622Zm8.321,2.048a1.86,1.86,0,0,1,1.612.868l4.084-1.247A5.713,5.713,0,0,0,124.137,38a6.568,6.568,0,0,0-3.543-.89,7.017,7.017,0,0,0-2.738.5,5.923,5.923,0,0,0-2,1.336,5.648,5.648,0,0,0-1.225,1.937,6.536,6.536,0,0,0,0,4.608,5.647,5.647,0,0,0,1.225,1.937,5.921,5.921,0,0,0,2,1.336,7.016,7.016,0,0,0,2.738.5,6.565,6.565,0,0,0,3.543-.89,5.711,5.711,0,0,0,2.13-2.293l-4.084-1.247a1.86,1.86,0,0,1-1.612.868,1.893,1.893,0,0,1-1.457-.657,3.2,3.2,0,0,1,0-3.717A1.894,1.894,0,0,1,120.571,40.67Zm18.459.211a5.524,5.524,0,0,0-1.214-1.937,5.927,5.927,0,0,0-2-1.336,7.762,7.762,0,0,0-5.486,0,5.864,5.864,0,0,0-1.987,1.347,5.567,5.567,0,0,0-1.214,1.981,7.043,7.043,0,0,0-.408,2.4,6.094,6.094,0,0,0,.419,2.248,5.6,5.6,0,0,0,1.225,1.892,5.741,5.741,0,0,0,2,1.3,7.244,7.244,0,0,0,2.716.479,6.844,6.844,0,0,0,3.61-.89,5.628,5.628,0,0,0,2.175-2.293l-3.554-1.024a1.561,1.561,0,0,1-.806.868,2.787,2.787,0,0,1-1.292.312,2.378,2.378,0,0,1-1.347-.412,1.649,1.649,0,0,1-.684-1.347h8.147q.044-.267.077-.612t.033-.679A6.578,6.578,0,0,0,139.03,40.882Zm-7.937,1.057a2.179,2.179,0,0,1,.618-1.336,1.977,1.977,0,0,1,2.605,0,2.183,2.183,0,0,1,.618,1.336Z" fill="#3e3b7e" fill-rule="evenodd"/>
    </g>
    <path d="M17.152,10.091a1.515,1.515,0,0,1,1.515-1.515h5.9V0H8.576A8.576,8.576,0,0,0,0,8.576V51.783a8.576,8.576,0,0,0,8.576,8.576H24.565V51.783h-5.9a1.515,1.515,0,0,1-1.515-1.515Z" fill="#e10c61"/>
    <path d="M172.848,50.268a1.515,1.515,0,0,1-1.515,1.515h-5.9v8.576h15.989A8.576,8.576,0,0,0,190,51.783V8.576A8.576,8.576,0,0,0,181.424,0H165.435V8.576h5.9a1.515,1.515,0,0,1,1.515,1.515Z" fill="#e10c61"/>
  </g>
</svg>
