<?xml version="1.0" encoding="utf-8"?>
<!-- Generator: Adobe Illustrator 15.1.0, SVG Export Plug-In . SVG Version: 6.00 Build 0)  -->
<!DOCTYPE svg PUBLIC "-//W3C//DTD SVG 1.1//EN" "http://www.w3.org/Graphics/SVG/1.1/DTD/svg11.dtd">
<svg version="1.1" id="Layer_1" xmlns="http://www.w3.org/2000/svg" xmlns:xlink="http://www.w3.org/1999/xlink" x="0px" y="0px"
	 width="32px" height="32px" viewBox="0 0 32 32" enable-background="new 0 0 32 32" xml:space="preserve">
<path fill="#2FA9E0" d="M13.697,7.45c-0.173-0.102-0.35-0.205-0.531-0.308c-0.18-0.103-0.363-0.206-0.549-0.31
	c-0.185-0.104-0.372-0.207-0.563-0.312l-0.001-0.001c-0.001,0-0.002-0.001-0.003-0.002s-0.002-0.001-0.003-0.001
	c-0.001,0-0.003-0.001-0.004-0.002c-0.035-0.019-0.062-0.041-0.083-0.062c-0.021-0.022-0.034-0.044-0.039-0.067
	c-0.007-0.023-0.006-0.046,0-0.07c0.006-0.023,0.017-0.047,0.034-0.072c0,0,0,0,0,0v0l0,0c0,0,0,0,0,0
	c0.002-0.004,0.005-0.008,0.009-0.012c0.003-0.004,0.005-0.008,0.008-0.012c0.005-0.004,0.007-0.009,0.011-0.013
	c0.005-0.004,0.008-0.009,0.011-0.013c0.048-0.053,0.118-0.104,0.198-0.156c0.081-0.05,0.172-0.1,0.268-0.145
	c0.095-0.043,0.193-0.084,0.287-0.121c0.093-0.035,0.182-0.064,0.258-0.087c0.005-0.001,0.009-0.002,0.013-0.003
	c0.004-0.001,0.009-0.001,0.014-0.003c0.004-0.001,0.009-0.003,0.013-0.004c0.005-0.001,0.009-0.002,0.013-0.003
	c0,0,0.001,0,0.002,0c0.002-0.001,0.002-0.001,0.003-0.001c0,0,0.001,0,0.002,0c0,0,0.001,0,0.002,0
	c0.003,0,0.007-0.001,0.008-0.002c0.004-0.001,0.006-0.001,0.01-0.002c0.002,0,0.005-0.002,0.008-0.002
	c0.003-0.001,0.005-0.001,0.008-0.002l0.005-0.001c0.002-0.001,0.003-0.001,0.005-0.002l0.004,0c0.001,0,0.003,0,0.005,0
	c0,0,0.001,0,0.003-0.001c0.001,0,0.002,0,0.003,0c0.001,0,0.002,0,0.004,0c0.001,0,0.002,0,0.002,0
	c0.003-0.001,0.005-0.002,0.008-0.003c0.002,0,0.004-0.001,0.006-0.001c0.002,0,0.005-0.001,0.007-0.003
	c0.002,0,0.004-0.001,0.006-0.002c-0.075,0.016-0.149,0.034-0.224,0.052c-0.077,0.019-0.15,0.04-0.223,0.062
	C12.643,5.779,12.57,5.803,12.5,5.827c-0.071,0.026-0.141,0.054-0.208,0.083c-0.045,0.015-0.102,0.039-0.163,0.069
	C12.066,6.008,12,6.043,11.936,6.08c-0.064,0.04-0.127,0.081-0.182,0.123c-0.054,0.042-0.099,0.086-0.126,0.126
	c-0.007,0.007-0.01,0.015-0.015,0.023c-0.005,0.007-0.008,0.015-0.011,0.022c-0.002,0.007-0.005,0.014-0.006,0.021
	c-0.001,0.007-0.002,0.015-0.002,0.021c-0.005,0.208-0.011,0.42-0.021,0.633c-0.008,0.217-0.019,0.435-0.034,0.648
	c-0.014,0.215-0.034,0.426-0.055,0.628c-0.023,0.203-0.05,0.397-0.083,0.577c-0.01,0.043-0.021,0.084-0.031,0.127
	c-0.012,0.042-0.022,0.083-0.034,0.125c-0.012,0.041-0.023,0.083-0.034,0.123C11.29,9.32,11.278,9.36,11.267,9.402l-0.003,0.011
	l-0.042,0.093c-0.008,0.018-0.017,0.036-0.025,0.053c-0.009,0.017-0.019,0.034-0.029,0.051c-0.008,0.016-0.019,0.033-0.029,0.049
	c-0.009,0.016-0.02,0.034-0.03,0.049l-0.003,0.006l-0.039,0.052c-0.004,0.005-0.01,0.014-0.018,0.024
	c-0.007,0.01-0.017,0.021-0.026,0.033c-0.008,0.01-0.018,0.022-0.026,0.033c-0.009,0.011-0.018,0.02-0.023,0.028l-0.08,0.068
	l-0.036,0.022c-0.005,0.002-0.009,0.005-0.015,0.009c-0.004,0.002-0.01,0.006-0.017,0.009C10.82,9.997,10.813,10,10.809,10.003
	c-0.007,0.004-0.013,0.007-0.019,0.01l-0.146,0.062l-0.031,0.012l-0.029,0.009c-0.023,0.01-0.047,0.019-0.071,0.028
	c-0.024,0.008-0.048,0.017-0.073,0.025c-0.025,0.008-0.05,0.016-0.075,0.025c-0.026,0.008-0.052,0.016-0.078,0.024l-0.047,0.014
	l-0.072,0.019c-0.028,0.006-0.058,0.014-0.087,0.02s-0.06,0.014-0.09,0.021c-0.03,0.006-0.061,0.012-0.091,0.02
	c-0.031,0.006-0.062,0.014-0.093,0.02l-0.375,0.09l-0.038,0.008l-0.18,0.034c-0.3,0.058-0.604,0.116-0.916,0.174
	c-0.082,0.015-0.162,0.031-0.244,0.045c-0.234,0.044-0.474,0.088-0.718,0.133c-0.331,0.06-0.67,0.12-1.021,0.182
	c-0.352,0.062-0.716,0.123-1.094,0.188c-0.131,0.021-0.257,0.061-0.378,0.117c-0.123,0.057-0.241,0.127-0.353,0.208
	c-0.113,0.082-0.22,0.174-0.32,0.273c-0.101,0.101-0.193,0.207-0.279,0.314c-0.058,0.074-0.112,0.149-0.16,0.223
	c-0.049,0.075-0.095,0.148-0.134,0.219c-0.04,0.072-0.075,0.142-0.104,0.208c-0.029,0.066-0.053,0.129-0.071,0.187
	c-0.022,0.046-0.043,0.107-0.061,0.178c-0.018,0.071-0.033,0.152-0.041,0.237c-0.009,0.084-0.011,0.173-0.004,0.258
	c0.006,0.087,0.021,0.17,0.047,0.244c0.013,0.036,0.027,0.069,0.044,0.1c0.018,0.03,0.038,0.058,0.061,0.083
	c0.024,0.025,0.05,0.045,0.079,0.063c0.03,0.018,0.062,0.031,0.098,0.039c0.028,0.006,0.059,0.011,0.091,0.012
	c0.033,0,0.067-0.002,0.105-0.008c0.036-0.006,0.076-0.016,0.118-0.029s0.086-0.03,0.134-0.051c0.342-0.149,0.679-0.293,1.007-0.434
	c0.326-0.139,0.645-0.273,0.955-0.404c0.308-0.128,0.609-0.252,0.898-0.371c0.289-0.118,0.569-0.231,0.838-0.337
	c0.121-0.049,0.239-0.096,0.355-0.142c0.116-0.045,0.229-0.09,0.343-0.133c0.111-0.042,0.22-0.084,0.327-0.125
	c0.108-0.041,0.212-0.08,0.315-0.118c0.334-0.125,0.644-0.239,0.931-0.344c0.021-0.008,0.041-0.015,0.062-0.023
	c0.262-0.095,0.505-0.187,0.73-0.273c0.243-0.095,0.464-0.184,0.668-0.274c0.203-0.091,0.387-0.181,0.555-0.275
	c0.135-0.077,0.258-0.16,0.373-0.252s0.219-0.19,0.32-0.301c0.099-0.109,0.194-0.229,0.287-0.36c0.091-0.13,0.183-0.271,0.275-0.426
	c0.021-0.035,0.042-0.072,0.063-0.107c0.021-0.037,0.042-0.074,0.063-0.112c0.022-0.038,0.042-0.076,0.064-0.115
	c0.022-0.038,0.044-0.078,0.067-0.118c0.048-0.093,0.098-0.189,0.147-0.29c0.051-0.099,0.101-0.201,0.153-0.306
	c0.05-0.104,0.103-0.21,0.155-0.32c0.052-0.109,0.104-0.22,0.158-0.332C14.039,7.651,13.87,7.552,13.697,7.45z"/>
<path fill="#F8B427" d="M10.563,23.371c0-0.418,0.001-0.819,0.004-1.206c0.002-0.381,0.008-0.749,0.014-1.1
	c0.007-0.349,0.015-0.683,0.025-1.001c0.011-0.315,0.021-0.615,0.036-0.901c0.007-0.124,0.014-0.244,0.021-0.365
	c0.007-0.118,0.015-0.233,0.022-0.347c0.008-0.113,0.017-0.222,0.025-0.327c0.009-0.107,0.018-0.212,0.029-0.312
	c0.029-0.335,0.063-0.639,0.092-0.915c0.014-0.132,0.027-0.256,0.039-0.376c0.013-0.133,0.024-0.258,0.033-0.379
	c0.017-0.228,0.026-0.436,0.021-0.626c-0.005-0.191-0.023-0.366-0.061-0.529c-0.032-0.163-0.09-0.31-0.175-0.449
	c-0.083-0.139-0.194-0.27-0.332-0.399c-0.138-0.129-0.301-0.259-0.494-0.395c-0.191-0.135-0.409-0.275-0.657-0.429
	c-0.103-0.063-0.211-0.127-0.323-0.193c-0.111-0.065-0.226-0.133-0.345-0.201c-0.118-0.069-0.24-0.138-0.365-0.209
	c-0.125-0.07-0.252-0.142-0.381-0.213c-0.27,0.106-0.55,0.219-0.838,0.337c-0.29,0.118-0.59,0.243-0.898,0.371
	c-0.31,0.131-0.629,0.265-0.955,0.404c-0.328,0.141-0.665,0.284-1.007,0.434c-0.047,0.021-0.092,0.038-0.134,0.051
	s-0.082,0.022-0.118,0.029c-0.038,0.005-0.072,0.008-0.105,0.008c-0.032-0.001-0.062-0.005-0.091-0.012
	c-0.036-0.008-0.068-0.021-0.098-0.039c-0.029-0.018-0.055-0.038-0.079-0.063c-0.023-0.025-0.043-0.053-0.061-0.083
	c-0.017-0.03-0.032-0.064-0.044-0.1c0.009,0.038,0.021,0.076,0.036,0.11c0.015,0.033,0.032,0.065,0.053,0.094
	c0.021,0.027,0.046,0.051,0.074,0.07c0.028,0.017,0.06,0.031,0.095,0.038c0.349,0.069,0.703,0.139,1.055,0.211
	c0.354,0.071,0.705,0.145,1.042,0.22c0.341,0.075,0.67,0.15,0.976,0.227c0.309,0.077,0.595,0.154,0.848,0.232
	c0.06,0.021,0.12,0.041,0.18,0.061c0.061,0.021,0.122,0.041,0.181,0.061s0.117,0.041,0.172,0.062
	c0.057,0.021,0.111,0.042,0.163,0.064l0.014,0.005l0.112,0.062l0.244,0.148l0.008,0.004l0.056,0.045
	c0.007,0.005,0.015,0.015,0.025,0.022c0.009,0.01,0.019,0.021,0.029,0.031c0.011,0.012,0.021,0.023,0.031,0.033
	c0.01,0.011,0.019,0.021,0.026,0.028l0.046,0.089l0.009,0.036c0.001,0.004,0.002,0.012,0.002,0.015c0,0.006,0.001,0.011,0.002,0.019
	c0.002,0.004,0.003,0.012,0.003,0.018c0.001,0.008,0.002,0.014,0.003,0.021l0,0.138l0.001,0.029l-0.003,0.027
	c-0.003,0.021-0.007,0.044-0.01,0.068c-0.004,0.024-0.009,0.049-0.013,0.072c-0.004,0.018-0.008,0.038-0.013,0.057
	c-0.001,0.006-0.002,0.013-0.004,0.017c-0.005,0.025-0.01,0.051-0.016,0.076L8.78,16.39l-0.023,0.067
	c-0.008,0.027-0.019,0.056-0.03,0.085c-0.011,0.027-0.022,0.057-0.033,0.085c-0.012,0.03-0.023,0.06-0.033,0.087
	C8.65,16.742,8.64,16.771,8.633,16.8c-0.009,0.029-0.02,0.058-0.029,0.087s-0.021,0.06-0.031,0.09
	c-0.011,0.028-0.023,0.06-0.034,0.092c-0.012,0.029-0.022,0.063-0.035,0.094l-0.014,0.037l-0.077,0.175
	c-0.125,0.292-0.256,0.591-0.394,0.903c-0.14,0.316-0.287,0.646-0.442,0.988c-0.157,0.349-0.323,0.713-0.498,1.094
	c-0.179,0.388-0.366,0.796-0.567,1.224c-0.121,0.253-0.136,0.506-0.077,0.75c0.059,0.249,0.193,0.488,0.37,0.703
	c0.179,0.22,0.402,0.414,0.634,0.573c0.233,0.162,0.477,0.286,0.692,0.359c0.078,0.041,0.198,0.085,0.345,0.123
	c0.147,0.038,0.32,0.07,0.502,0.09c0.184,0.019,0.376,0.027,0.562,0.013c0.187-0.013,0.365-0.048,0.52-0.107
	c0.003-0.001,0.007-0.002,0.009-0.004c0.003,0,0.006-0.002,0.01-0.003c0.002-0.003,0.005-0.004,0.008-0.005
	c0.004-0.001,0.006-0.001,0.01-0.003c0.042-0.019,0.083-0.04,0.121-0.062c0.039-0.023,0.074-0.048,0.107-0.075
	c0.032-0.028,0.063-0.057,0.09-0.091c0.026-0.032,0.05-0.07,0.07-0.107c0.001-0.002,0.001-0.003,0.002-0.004
	c0-0.001,0.001-0.003,0.001-0.003c0-0.002,0.001-0.003,0.002-0.005l0.002-0.005c0.002-0.005,0.005-0.011,0.007-0.015
	c0.003-0.006,0.005-0.013,0.008-0.018c0.002-0.005,0.004-0.012,0.007-0.017c0.002-0.007,0.005-0.012,0.006-0.019
	c0.007-0.021,0.014-0.042,0.019-0.062c0.006-0.023,0.011-0.047,0.014-0.07c0.003-0.022,0.006-0.046,0.008-0.072
	C10.564,23.422,10.564,23.396,10.563,23.371z"/>
<path fill="#F06025" d="M26.39,19.588c-0.018-0.08-0.044-0.155-0.088-0.222c-0.043-0.066-0.1-0.126-0.173-0.175
	c-0.076-0.05-0.169-0.089-0.281-0.115c-0.007-0.003-0.016-0.004-0.023-0.005c-0.007,0-0.014-0.002-0.023-0.003
	c-0.007-0.004-0.014-0.005-0.024-0.006c-0.007-0.002-0.015-0.003-0.022-0.004c-0.438-0.078-0.864-0.155-1.28-0.231
	c-0.411-0.076-0.811-0.153-1.2-0.229c-0.385-0.076-0.757-0.149-1.114-0.224c-0.358-0.073-0.7-0.146-1.03-0.217
	c-0.152-0.034-0.304-0.068-0.451-0.102c-0.146-0.034-0.289-0.067-0.43-0.1c-0.14-0.032-0.275-0.066-0.408-0.1
	c-0.132-0.033-0.264-0.063-0.389-0.095c-0.399-0.1-0.764-0.193-1.1-0.279c-0.336-0.09-0.642-0.169-0.926-0.237
	c-0.028-0.01-0.056-0.015-0.087-0.021c-0.249-0.058-0.482-0.107-0.702-0.144c-0.245-0.041-0.477-0.063-0.699-0.07
	c-0.224-0.011-0.445-0.001-0.671,0.036c-0.227,0.036-0.46,0.095-0.711,0.18c-0.251,0.086-0.521,0.196-0.819,0.331
	c-0.299,0.136-0.626,0.296-0.995,0.482c-0.151,0.076-0.308,0.158-0.471,0.245c-0.164,0.086-0.334,0.176-0.509,0.27
	c-0.177,0.094-0.357,0.194-0.542,0.294c-0.188,0.103-0.38,0.206-0.577,0.314c-0.014,0.286-0.025,0.586-0.036,0.901
	c-0.011,0.318-0.019,0.652-0.025,1.001c-0.006,0.351-0.012,0.719-0.014,1.1c-0.003,0.387-0.004,0.788-0.004,1.206
	c0.001,0.025,0,0.051-0.001,0.076c-0.001,0.026-0.005,0.05-0.008,0.072c-0.003,0.023-0.008,0.047-0.014,0.07
	c-0.005,0.021-0.012,0.042-0.019,0.062c-0.001,0.007-0.004,0.012-0.006,0.019c-0.003,0.005-0.005,0.012-0.007,0.017
	c-0.003,0.005-0.005,0.012-0.008,0.018c-0.002,0.004-0.005,0.01-0.007,0.015l-0.002,0.005c-0.001,0.002-0.002,0.003-0.002,0.005
	c0,0-0.001,0.002-0.001,0.003c-0.001,0.001-0.001,0.002-0.002,0.004c-0.02,0.037-0.044,0.075-0.071,0.107
	c-0.026,0.034-0.057,0.062-0.09,0.091c-0.033,0.027-0.068,0.052-0.107,0.075c-0.038,0.022-0.078,0.044-0.121,0.062
	c-0.003,0.002-0.006,0.002-0.01,0.003c-0.002,0.001-0.006,0.002-0.008,0.005c-0.004,0.001-0.007,0.003-0.01,0.003
	c-0.002,0.002-0.006,0.003-0.009,0.004c0.03-0.011,0.06-0.021,0.087-0.033c0.028-0.012,0.054-0.026,0.081-0.041
	c0.025-0.014,0.048-0.029,0.07-0.047s0.043-0.036,0.06-0.056c0.365-0.39,0.731-0.774,1.088-1.152
	c0.354-0.371,0.701-0.735,1.035-1.075c0.33-0.338,0.648-0.657,0.948-0.946c0.296-0.288,0.577-0.548,0.835-0.773
	c0.064-0.055,0.126-0.11,0.19-0.163c0.062-0.054,0.124-0.104,0.186-0.155c0.061-0.049,0.121-0.099,0.182-0.146
	c0.06-0.046,0.119-0.091,0.176-0.134l0.017-0.011l0.146-0.09l0.331-0.193l0.011-0.008l0.089-0.039
	c0.011-0.003,0.026-0.011,0.044-0.016c0.018-0.006,0.038-0.013,0.058-0.021c0.021-0.006,0.041-0.012,0.062-0.018
	c0.02-0.007,0.037-0.013,0.051-0.018l0.142-0.021l0.054,0.002c0.007,0,0.013,0,0.022,0.001c0.007,0,0.015,0.001,0.023,0.001
	c0.01,0,0.019,0.001,0.026,0.001c0.009,0,0.02,0,0.028,0l0.014,0.004l0.172,0.021l0.038,0.004l0.034,0.011
	c0.029,0.009,0.059,0.016,0.089,0.026c0.03,0.008,0.06,0.019,0.09,0.028c0.03,0.009,0.059,0.019,0.089,0.031
	c0.031,0.01,0.062,0.021,0.093,0.033l0.058,0.023l0.078,0.035c0.032,0.016,0.065,0.03,0.098,0.043
	c0.031,0.016,0.063,0.029,0.095,0.043c0.035,0.015,0.064,0.026,0.099,0.042c0.034,0.013,0.066,0.028,0.1,0.043l0.421,0.2l0.043,0.02
	l0.195,0.11c0.321,0.165,0.654,0.342,0.999,0.525c0.349,0.187,0.711,0.383,1.086,0.588c0.378,0.208,0.772,0.429,1.186,0.659
	c0.413,0.233,0.848,0.475,1.301,0.729c0.267,0.155,0.571,0.214,0.887,0.201c0.317-0.014,0.644-0.096,0.952-0.22
	c0.309-0.122,0.602-0.287,0.852-0.465c0.247-0.174,0.454-0.363,0.594-0.536c0.051-0.044,0.107-0.106,0.169-0.186
	c0.06-0.076,0.121-0.17,0.179-0.271c0.059-0.101,0.114-0.21,0.16-0.323c0.046-0.112,0.082-0.229,0.105-0.344
	c0.004-0.013,0.007-0.028,0.009-0.041c0.003-0.017,0.005-0.031,0.008-0.046c0.003-0.014,0.004-0.029,0.005-0.041
	c0.002-0.016,0.003-0.029,0.005-0.045C26.408,19.754,26.403,19.667,26.39,19.588z"/>
<g>
	<path fill="#ED4296" d="M27.614,10.302c-0.023-0.132-0.07-0.266-0.131-0.395c-0.061-0.127-0.135-0.25-0.217-0.36
		c-0.079-0.109-0.165-0.208-0.247-0.286c-0.026-0.034-0.096-0.111-0.197-0.211c-0.099-0.101-0.228-0.226-0.371-0.359
		c-0.142-0.131-0.3-0.271-0.462-0.403c-0.159-0.129-0.32-0.252-0.476-0.352c0.01,0.008,0.019,0.019,0.025,0.027
		c0.01,0.009,0.019,0.019,0.025,0.026C25.572,8,25.581,8.009,25.59,8.018c0.009,0.009,0.015,0.018,0.024,0.028
		c0.005,0.005,0.01,0.012,0.014,0.018c0.007,0.007,0.013,0.012,0.018,0.02c0.004,0.005,0.01,0.013,0.017,0.02
		c0.005,0.006,0.01,0.013,0.015,0.02c0.04,0.054,0.081,0.112,0.116,0.172c0.036,0.061,0.067,0.126,0.094,0.189
		c0.025,0.065,0.046,0.13,0.055,0.195c0.012,0.064,0.013,0.128,0.001,0.188c-0.001,0.002-0.001,0.007-0.002,0.01
		c0,0.003-0.002,0.006-0.002,0.01c0,0.004-0.001,0.006-0.002,0.009c-0.001,0.003-0.001,0.007-0.002,0.01
		c-0.001,0.001-0.001,0.001-0.001,0.002c0,0.001,0,0.002-0.001,0.004c0,0.001-0.001,0.001-0.001,0.002s0,0.002-0.001,0.003
		C25.916,8.96,25.897,9,25.868,9.036c-0.027,0.038-0.064,0.071-0.109,0.101c-0.047,0.03-0.103,0.054-0.166,0.074
		c-0.063,0.02-0.14,0.035-0.228,0.044c-0.066,0.008-0.133,0.018-0.2,0.024c-0.067,0.008-0.133,0.018-0.197,0.024
		c-0.068,0.009-0.136,0.017-0.201,0.024c-0.067,0.008-0.133,0.017-0.198,0.023c-0.208,0.239-0.397,0.462-0.577,0.672
		c-0.181,0.214-0.352,0.415-0.521,0.608c-0.169,0.195-0.338,0.382-0.512,0.564c-0.176,0.185-0.355,0.364-0.553,0.543
		c-0.221,0.208-0.431,0.399-0.627,0.577c-0.197,0.18-0.384,0.346-0.549,0.505c-0.168,0.159-0.318,0.311-0.447,0.458
		c-0.129,0.147-0.235,0.293-0.318,0.439c-0.014,0.023-0.027,0.045-0.041,0.069c-0.012,0.024-0.025,0.046-0.036,0.07
		c-0.014,0.024-0.023,0.047-0.033,0.071c-0.012,0.024-0.021,0.047-0.029,0.071c-0.049,0.131-0.079,0.267-0.093,0.413
		c-0.014,0.147-0.011,0.307,0.009,0.479c0.017,0.175,0.052,0.367,0.099,0.579c0.03,0.138,0.068,0.29,0.11,0.448
		c0.022,0.085,0.046,0.172,0.071,0.265c0.038,0.136,0.08,0.278,0.125,0.427c0.045,0.151,0.093,0.31,0.144,0.474
		c0.049,0.166,0.105,0.337,0.162,0.518c0.056,0.179,0.116,0.364,0.177,0.558c0.33,0.07,0.672,0.144,1.03,0.217
		c0.357,0.074,0.729,0.147,1.114,0.224c0.39,0.075,0.789,0.152,1.2,0.229c0.416,0.076,0.842,0.153,1.28,0.231
		c0.008,0.001,0.016,0.002,0.022,0.004c0.011,0.001,0.018,0.002,0.024,0.006c0.01,0.001,0.017,0.003,0.023,0.003
		c0.008,0.001,0.017,0.002,0.023,0.005c0.112,0.026,0.205,0.065,0.281,0.115c0.073,0.049,0.13,0.108,0.173,0.175
		c0.044,0.066,0.07,0.142,0.088,0.222c0.014,0.079,0.019,0.166,0.011,0.253c0.001-0.002,0.002-0.007,0.003-0.011
		c0-0.004,0-0.008,0.002-0.013c0.003-0.004,0.003-0.009,0.004-0.013s0.003-0.009,0.003-0.012c0.012-0.057,0.02-0.112,0.025-0.168
		c0.003-0.054,0.003-0.108-0.002-0.158c-0.009-0.053-0.02-0.101-0.039-0.144c-0.018-0.046-0.044-0.085-0.076-0.123
		c-0.322-0.353-0.642-0.706-0.95-1.048c-0.303-0.337-0.595-0.666-0.87-0.98c-0.27-0.31-0.521-0.604-0.748-0.878
		c-0.071-0.089-0.143-0.176-0.209-0.259c-0.141-0.176-0.267-0.34-0.378-0.493c-0.041-0.058-0.084-0.111-0.12-0.167
		c-0.04-0.055-0.078-0.11-0.113-0.162c-0.034-0.053-0.067-0.106-0.1-0.156c-0.033-0.051-0.063-0.102-0.092-0.151l-0.007-0.013
		l-0.051-0.118c-0.008-0.022-0.018-0.044-0.026-0.067c-0.01-0.022-0.02-0.045-0.029-0.068c-0.01-0.022-0.021-0.045-0.03-0.067
		c-0.009-0.021-0.018-0.043-0.025-0.065L22.569,14.5l-0.016-0.069c-0.001-0.008-0.002-0.02-0.004-0.033
		c-0.001-0.013-0.002-0.028-0.003-0.043c0-0.015,0-0.03,0-0.043c-0.001-0.015-0.001-0.028-0.001-0.039l0.022-0.097l0.018-0.035
		c0.002-0.004,0.005-0.008,0.007-0.013c0.002-0.004,0.004-0.01,0.007-0.016c0.004-0.006,0.006-0.011,0.008-0.018
		c0.002-0.006,0.003-0.012,0.008-0.018l0.081-0.114l0.018-0.024l0.021-0.021c0.018-0.016,0.035-0.034,0.055-0.05
		c0.018-0.018,0.036-0.034,0.057-0.051c0.021-0.017,0.038-0.033,0.061-0.05c0.021-0.017,0.041-0.034,0.061-0.051l0.042-0.03
		l0.062-0.042l0.285-0.205c0.024-0.017,0.052-0.034,0.077-0.052c0.025-0.019,0.053-0.036,0.081-0.054
		c0.026-0.017,0.054-0.035,0.082-0.053c0.027-0.017,0.057-0.035,0.083-0.054l0.033-0.021l0.164-0.094
		c0.25-0.155,0.509-0.311,0.777-0.47c0.27-0.159,0.546-0.32,0.83-0.483c0.283-0.165,0.575-0.332,0.873-0.502
		c0.295-0.168,0.598-0.343,0.905-0.519c0.051-0.028,0.096-0.06,0.136-0.093c0.039-0.032,0.074-0.069,0.103-0.106
		c0.028-0.039,0.053-0.078,0.073-0.12c0.018-0.042,0.032-0.086,0.042-0.131C27.644,10.565,27.641,10.435,27.614,10.302z"/>
</g>
<path fill="#6AA643" d="M25.941,8.678c-0.009-0.064-0.029-0.13-0.055-0.195c-0.026-0.063-0.058-0.128-0.094-0.189
	c-0.035-0.06-0.076-0.118-0.116-0.172c-0.005-0.006-0.01-0.013-0.015-0.02c-0.007-0.007-0.013-0.014-0.017-0.02
	c-0.005-0.007-0.011-0.013-0.018-0.02c-0.004-0.006-0.009-0.013-0.014-0.018c-0.01-0.01-0.016-0.019-0.024-0.028
	C25.581,8.009,25.572,8,25.564,7.99c-0.007-0.008-0.016-0.018-0.025-0.026c-0.007-0.008-0.016-0.019-0.025-0.027
	c-0.063-0.068-0.137-0.136-0.211-0.201c-0.076-0.064-0.157-0.126-0.242-0.185c-0.086-0.058-0.177-0.114-0.271-0.165
	c-0.096-0.05-0.194-0.096-0.3-0.138c-0.049-0.025-0.125-0.055-0.212-0.086c-0.088-0.031-0.188-0.062-0.289-0.085
	c-0.101-0.024-0.207-0.041-0.304-0.047C23.59,7.026,23.5,7.034,23.43,7.06c-0.325,0.114-0.653,0.229-0.981,0.342
	c-0.331,0.113-0.657,0.225-0.978,0.33c-0.319,0.106-0.632,0.207-0.931,0.298c-0.027,0.008-0.055,0.016-0.081,0.024
	c-0.268,0.082-0.523,0.157-0.759,0.221c-0.063,0.015-0.127,0.03-0.188,0.044c-0.061,0.015-0.121,0.027-0.181,0.042
	c-0.062,0.013-0.122,0.026-0.182,0.039c-0.061,0.014-0.12,0.027-0.18,0.042l-0.014,0.002l-0.141,0.021
	c-0.027,0.003-0.053,0.006-0.079,0.008C18.71,8.478,18.686,8.48,18.66,8.482c-0.025,0.001-0.051,0.004-0.077,0.005
	c-0.024,0.003-0.049,0.004-0.073,0.006H18.5l-0.081,0.001c-0.01,0-0.021,0-0.036,0c-0.017,0-0.032,0-0.053,0
	c-0.017,0-0.036-0.001-0.049-0.001c-0.019,0-0.035,0-0.046-0.001l-0.112-0.018l-0.038-0.013c-0.005-0.001-0.009-0.003-0.013-0.005
	c-0.009-0.001-0.014-0.003-0.02-0.005c-0.005-0.002-0.012-0.004-0.019-0.007c-0.006-0.002-0.012-0.004-0.019-0.006l-0.116-0.062
	l-0.025-0.013l-0.021-0.013c-0.017-0.01-0.034-0.021-0.052-0.032s-0.035-0.022-0.051-0.034c-0.018-0.012-0.035-0.023-0.053-0.035
	c-0.017-0.012-0.034-0.024-0.05-0.037l-0.032-0.023l-0.04-0.035c-0.016-0.015-0.032-0.031-0.048-0.045
	c-0.017-0.015-0.031-0.03-0.049-0.047c-0.013-0.015-0.031-0.031-0.047-0.046C17.417,8,17.399,7.985,17.383,7.97
	c-0.019-0.014-0.032-0.029-0.051-0.044c-0.017-0.015-0.032-0.03-0.05-0.046c-0.017-0.016-0.034-0.031-0.05-0.047
	c-0.019-0.015-0.034-0.031-0.051-0.047l-0.02-0.019l-0.085-0.093c-0.143-0.151-0.282-0.305-0.423-0.461
	c-0.141-0.154-0.28-0.311-0.421-0.472c-0.139-0.158-0.281-0.321-0.424-0.487c-0.141-0.164-0.284-0.332-0.431-0.505
	c-0.08-0.099-0.22-0.166-0.394-0.208c-0.172-0.041-0.38-0.059-0.597-0.058c-0.216,0.001-0.442,0.02-0.655,0.049
	c-0.212,0.029-0.41,0.069-0.57,0.113c-0.001,0.001-0.003,0.002-0.006,0.002c-0.002,0.001-0.005,0.002-0.007,0.003
	c-0.002,0-0.004,0-0.006,0.001C13.14,5.65,13.138,5.65,13.135,5.652c0,0-0.001,0-0.002,0c-0.001,0-0.003,0-0.004,0
	c0,0-0.002,0-0.003,0c-0.001,0-0.002,0-0.003,0.001c-0.002,0-0.004,0-0.005,0l-0.004,0c-0.002,0-0.003,0.001-0.005,0.002
	l-0.005,0.001c-0.003,0-0.005,0.001-0.008,0.002c-0.003,0-0.006,0.002-0.008,0.002c-0.004,0.001-0.006,0.001-0.01,0.002
	c-0.001,0-0.005,0.001-0.008,0.002c-0.001,0-0.002,0-0.002,0c-0.001,0-0.001,0-0.002,0c0,0-0.001,0-0.003,0.001c0,0-0.001,0-0.002,0
	c-0.004,0.001-0.008,0.002-0.013,0.003c-0.004,0.001-0.009,0.003-0.013,0.004c-0.004,0.001-0.009,0.002-0.014,0.003
	c-0.004,0.001-0.008,0.002-0.013,0.003c-0.076,0.022-0.165,0.052-0.258,0.087c-0.094,0.036-0.192,0.077-0.287,0.121
	c-0.096,0.045-0.187,0.095-0.268,0.145c-0.081,0.051-0.15,0.103-0.198,0.156c-0.003,0.004-0.006,0.008-0.011,0.013
	c-0.003,0.003-0.006,0.008-0.011,0.013c-0.003,0.004-0.005,0.007-0.008,0.012c-0.003,0.004-0.007,0.008-0.009,0.012c0,0,0,0,0,0l0,0
	v0c0,0,0,0,0,0c-0.017,0.025-0.028,0.049-0.034,0.072c-0.006,0.024-0.006,0.047,0,0.07c0.005,0.022,0.019,0.045,0.039,0.067
	c0.021,0.021,0.048,0.043,0.083,0.062c0.001,0.001,0.003,0.001,0.004,0.002c0.001,0,0.002,0.001,0.003,0.001
	s0.002,0.001,0.003,0.002l0.001,0.001c0.191,0.104,0.378,0.208,0.563,0.312c0.186,0.104,0.369,0.208,0.549,0.31
	c0.181,0.104,0.358,0.207,0.531,0.308c0.173,0.102,0.341,0.202,0.506,0.302c0.086,0.053,0.171,0.104,0.255,0.156
	c0.084,0.052,0.167,0.104,0.247,0.154c0.08,0.051,0.159,0.103,0.235,0.152c0.076,0.05,0.151,0.099,0.224,0.147
	c0.215,0.144,0.414,0.277,0.602,0.404c0.189,0.128,0.367,0.246,0.538,0.354c0.174,0.11,0.338,0.208,0.503,0.297
	c0.166,0.089,0.33,0.167,0.499,0.233c0.168,0.066,0.346,0.116,0.539,0.151c0.192,0.035,0.402,0.056,0.636,0.065
	c0.231,0.009,0.486,0.007,0.771-0.003c0.282-0.01,0.596-0.029,0.944-0.052c0.291-0.026,0.609-0.054,0.943-0.086
	c0.086-0.007,0.168-0.016,0.253-0.025c0.261-0.025,0.528-0.051,0.808-0.081c0.371-0.038,0.756-0.08,1.151-0.124
	c0.397-0.045,0.804-0.092,1.218-0.143c0.065-0.006,0.131-0.015,0.198-0.023c0.065-0.007,0.133-0.015,0.201-0.024
	c0.064-0.007,0.13-0.016,0.197-0.024c0.067-0.007,0.134-0.017,0.2-0.024c0.088-0.009,0.164-0.024,0.228-0.044
	c0.063-0.021,0.119-0.044,0.166-0.074c0.044-0.03,0.082-0.063,0.109-0.101C25.897,9,25.916,8.96,25.931,8.917l0.003-0.01
	c0-0.001,0-0.001,0.001-0.002c0.001-0.003,0.001-0.007,0.002-0.01c0.001-0.003,0.002-0.005,0.002-0.009
	c0-0.003,0.002-0.007,0.002-0.01c0.001-0.003,0.001-0.007,0.002-0.01C25.954,8.806,25.953,8.743,25.941,8.678z"/>
<g>
	<g>
		<path fill="#00C1F2" d="M10.146,7.574c-0.062-0.195-0.184-0.366-0.354-0.503C9.623,6.934,9.407,6.827,9.153,6.763
			C8.9,6.699,8.611,6.675,8.293,6.701C7.977,6.727,7.631,6.802,7.265,6.94c-0.156,0.058-0.303,0.124-0.44,0.195
			c-0.138,0.072-0.267,0.148-0.387,0.23C6.319,7.447,6.21,7.534,6.111,7.623c-0.099,0.09-0.188,0.183-0.265,0.277
			C5.805,7.949,5.768,8,5.734,8.052c-0.053,0.08-0.1,0.158-0.135,0.236C5.538,8.419,5.501,8.548,5.49,8.673
			C5.48,8.798,5.497,8.918,5.542,9.029c0.045,0.111,0.119,0.213,0.225,0.301c0.183,0.157,0.417,0.271,0.68,0.348
			c0.149,0.044,0.31,0.076,0.473,0.097c0.128,0.017,0.26,0.027,0.393,0.031c0.305,0.009,0.617-0.014,0.915-0.063
			c0.298-0.048,0.58-0.123,0.826-0.216c0.105-0.041,0.203-0.085,0.294-0.136C9.438,9.343,9.522,9.29,9.599,9.232
			c0.076-0.057,0.146-0.117,0.208-0.181c0.062-0.064,0.118-0.13,0.166-0.2c0.066-0.095,0.117-0.192,0.156-0.296
			c0.04-0.102,0.067-0.207,0.081-0.315c0.014-0.108,0.016-0.218,0.005-0.33C10.203,7.799,10.181,7.687,10.146,7.574z"/>
	</g>
	<g>
		<path fill="#EC2225" d="M20.096,24.836c-0.027-0.502-0.155-0.969-0.352-1.39c-0.192-0.413-0.45-0.782-0.744-1.102
			c-0.291-0.312-0.617-0.576-0.954-0.782c-0.336-0.201-0.682-0.351-1.013-0.435c-0.333-0.073-0.662-0.076-0.981-0.017
			c-0.14,0.025-0.278,0.066-0.414,0.115c-0.176,0.066-0.35,0.15-0.52,0.255c-0.303,0.186-0.593,0.433-0.869,0.74
			c-0.278,0.306-0.54,0.677-0.781,1.104c-0.016,0.027-0.032,0.056-0.047,0.087c-0.015,0.027-0.031,0.058-0.045,0.086
			c-0.016,0.031-0.03,0.06-0.043,0.089c-0.014,0.03-0.028,0.06-0.041,0.089c-0.182,0.415-0.289,0.853-0.315,1.288
			c-0.024,0.442,0.034,0.884,0.184,1.292c0.153,0.416,0.401,0.802,0.75,1.122c0.354,0.326,0.811,0.586,1.375,0.744
			c0.514,0.151,1.035,0.185,1.537,0.125c0.502-0.061,0.981-0.217,1.412-0.444c0.01-0.007,0.021-0.013,0.03-0.021
			c0.416-0.224,0.78-0.516,1.074-0.854c0.296-0.344,0.52-0.733,0.646-1.146c0.024-0.076,0.042-0.155,0.059-0.232
			c0.017-0.078,0.029-0.155,0.038-0.235c0.01-0.08,0.018-0.159,0.018-0.239C20.103,24.995,20.102,24.916,20.096,24.836z"/>
	</g>
	<g>
		<path fill="#F6912F" d="M6.597,16.481c-0.096-0.129-0.225-0.239-0.382-0.334c-0.21-0.129-0.474-0.225-0.782-0.288
			c-0.308-0.062-0.659-0.097-1.052-0.095c-0.296,0.001-0.601,0.039-0.902,0.11c-0.302,0.07-0.603,0.175-0.89,0.31
			c-0.288,0.136-0.562,0.301-0.812,0.495c-0.251,0.197-0.479,0.419-0.668,0.671c-0.059,0.078-0.113,0.16-0.165,0.241
			c-0.051,0.083-0.098,0.169-0.141,0.255c-0.044,0.089-0.083,0.18-0.117,0.273c-0.035,0.093-0.064,0.189-0.089,0.287
			c-0.111,0.426-0.094,0.812,0.022,1.147c0.12,0.339,0.342,0.625,0.637,0.835c0.083,0.058,0.17,0.11,0.262,0.154
			c0.244,0.124,0.522,0.203,0.822,0.233c0.414,0.041,0.865-0.017,1.316-0.184c0.303-0.11,0.591-0.247,0.859-0.405
			c0.268-0.157,0.516-0.338,0.743-0.528c0.226-0.188,0.429-0.391,0.609-0.597c0.179-0.203,0.334-0.414,0.464-0.62
			c0.065-0.104,0.125-0.207,0.176-0.307c0.053-0.1,0.098-0.202,0.138-0.297c0.039-0.097,0.071-0.192,0.097-0.284
			s0.044-0.181,0.056-0.265c0.03-0.253-0.011-0.477-0.11-0.666C6.662,16.575,6.631,16.526,6.597,16.481z"/>
	</g>
	<g>
		<path fill="#ED4296" d="M31.434,14.841c-0.107-0.287-0.277-0.563-0.498-0.809c-0.218-0.244-0.486-0.458-0.788-0.631
			c-0.302-0.172-0.641-0.302-1.004-0.376c-0.438-0.095-0.867-0.127-1.274-0.112c-0.406,0.016-0.794,0.08-1.145,0.177
			c-0.354,0.098-0.674,0.231-0.948,0.385c-0.272,0.155-0.498,0.332-0.66,0.517c-0.029,0.036-0.056,0.07-0.08,0.106
			c-0.023,0.036-0.045,0.072-0.064,0.109c-0.021,0.036-0.037,0.073-0.053,0.113c-0.014,0.037-0.027,0.076-0.038,0.115
			c-0.047,0.173-0.049,0.356-0.006,0.544c0.011,0.053,0.026,0.106,0.046,0.16c0.049,0.14,0.118,0.282,0.213,0.426
			c0.131,0.201,0.306,0.407,0.525,0.614c0.22,0.208,0.485,0.417,0.792,0.626c0.374,0.252,0.798,0.451,1.243,0.587
			c0.448,0.139,0.915,0.207,1.366,0.199c0.453-0.01,0.887-0.097,1.266-0.272c0.356-0.165,0.661-0.405,0.89-0.729
			c0.015-0.021,0.031-0.04,0.042-0.061c0.043-0.062,0.08-0.125,0.113-0.191c0.03-0.064,0.061-0.129,0.085-0.195
			s0.042-0.133,0.06-0.198c0.016-0.067,0.027-0.136,0.034-0.201C31.587,15.44,31.543,15.133,31.434,14.841z"/>
	</g>
	<g>
		<path fill="#6AA643" d="M21.977,5.248c-0.062-0.112-0.151-0.222-0.274-0.325c-0.121-0.101-0.275-0.194-0.462-0.28
			c-0.296-0.134-0.632-0.217-0.972-0.254C20.182,4.38,20.091,4.373,20,4.369c-0.252-0.011-0.507,0.002-0.749,0.036
			c-0.33,0.046-0.643,0.13-0.909,0.247c-0.269,0.119-0.493,0.27-0.641,0.452c-0.017,0.02-0.03,0.039-0.046,0.058
			c-0.016,0.019-0.029,0.038-0.042,0.057c-0.014,0.019-0.025,0.04-0.038,0.059c-0.011,0.02-0.023,0.039-0.034,0.058
			c-0.092,0.169-0.136,0.341-0.142,0.509c-0.004,0.17,0.03,0.336,0.098,0.493c0.068,0.16,0.168,0.308,0.291,0.439
			c0.126,0.133,0.274,0.248,0.438,0.337c0.188,0.103,0.4,0.168,0.632,0.2c0.232,0.033,0.484,0.032,0.745-0.002
			c0.213-0.028,0.432-0.076,0.65-0.142c0.052-0.016,0.103-0.032,0.154-0.05c0.271-0.093,0.543-0.214,0.808-0.361
			c0.099-0.055,0.19-0.115,0.274-0.176c0.083-0.062,0.157-0.128,0.225-0.194c0.066-0.068,0.125-0.137,0.174-0.209
			c0.049-0.071,0.088-0.144,0.118-0.216c0.05-0.119,0.074-0.24,0.07-0.361C22.07,5.48,22.04,5.363,21.977,5.248z"/>
	</g>
</g>
<g>
	<path fill="#ED4296" d="M27.614,10.302c-0.023-0.132-0.07-0.266-0.131-0.395c-0.061-0.127-0.135-0.25-0.217-0.36
		c-0.079-0.109-0.165-0.208-0.247-0.286c-0.026-0.034-0.096-0.111-0.197-0.211c-0.099-0.101-0.228-0.226-0.371-0.359
		c-0.142-0.131-0.3-0.271-0.462-0.403c-0.159-0.129-0.32-0.252-0.476-0.352c0.01,0.008,0.019,0.019,0.025,0.027
		c0.01,0.009,0.019,0.019,0.025,0.026C25.572,8,25.581,8.009,25.59,8.018c0.009,0.009,0.015,0.018,0.024,0.028
		c0.005,0.005,0.01,0.012,0.014,0.018c0.007,0.007,0.013,0.012,0.018,0.02c0.004,0.005,0.01,0.013,0.017,0.02
		c0.005,0.006,0.01,0.013,0.015,0.02c0.04,0.054,0.081,0.112,0.116,0.172c0.036,0.061,0.067,0.126,0.094,0.189
		c0.025,0.065,0.046,0.13,0.055,0.195c0.012,0.064,0.013,0.128,0.001,0.188c-0.001,0.002-0.001,0.007-0.002,0.01
		c0,0.003-0.002,0.006-0.002,0.01c0,0.004-0.001,0.006-0.002,0.009c-0.001,0.003-0.001,0.007-0.002,0.01
		c-0.001,0.001-0.001,0.001-0.001,0.002c0,0.001,0,0.002-0.001,0.004c0,0.001-0.001,0.001-0.001,0.002s0,0.002-0.001,0.003
		C25.916,8.96,25.897,9,25.868,9.036c-0.027,0.038-0.064,0.071-0.109,0.101c-0.047,0.03-0.103,0.054-0.166,0.074
		c-0.063,0.02-0.14,0.035-0.228,0.044c-0.066,0.008-0.133,0.018-0.2,0.024c-0.067,0.008-0.133,0.018-0.197,0.024
		c-0.068,0.009-0.136,0.017-0.201,0.024c-0.067,0.008-0.133,0.017-0.198,0.023c-0.208,0.239-0.397,0.462-0.577,0.672
		c-0.181,0.214-0.352,0.415-0.521,0.608c-0.169,0.195-0.338,0.382-0.512,0.564c-0.176,0.185-0.355,0.364-0.553,0.543
		c-0.221,0.208-0.431,0.399-0.627,0.577c-0.197,0.18-0.384,0.346-0.549,0.505c-0.168,0.159-0.318,0.311-0.447,0.458
		c-0.129,0.147-0.235,0.293-0.318,0.439c-0.014,0.023-0.027,0.045-0.041,0.069c-0.012,0.024-0.025,0.046-0.036,0.07
		c-0.014,0.024-0.023,0.047-0.033,0.071c-0.012,0.024-0.021,0.047-0.029,0.071c-0.049,0.131-0.079,0.267-0.093,0.413
		c-0.014,0.147-0.011,0.307,0.009,0.479c0.017,0.175,0.052,0.367,0.099,0.579c0.03,0.138,0.068,0.29,0.11,0.448
		c1.008-0.138,2.073-0.087,3.093,0.117c-0.141-0.176-0.267-0.34-0.378-0.493c-0.041-0.058-0.084-0.111-0.12-0.167
		c-0.04-0.055-0.078-0.11-0.113-0.162c-0.034-0.053-0.067-0.106-0.1-0.156c-0.033-0.051-0.063-0.102-0.092-0.151l-0.007-0.013
		l-0.051-0.118c-0.008-0.022-0.018-0.044-0.026-0.067c-0.01-0.022-0.02-0.045-0.029-0.068c-0.01-0.022-0.021-0.045-0.03-0.067
		c-0.009-0.021-0.018-0.043-0.025-0.065L22.569,14.5l-0.016-0.069c-0.001-0.008-0.002-0.02-0.004-0.033
		c-0.001-0.013-0.002-0.028-0.003-0.043c0-0.015,0-0.03,0-0.043c-0.001-0.015-0.001-0.028-0.001-0.039l0.022-0.097l0.018-0.035
		c0.002-0.004,0.005-0.008,0.007-0.013c0.002-0.004,0.004-0.01,0.007-0.016c0.004-0.006,0.006-0.011,0.008-0.018
		c0.002-0.006,0.003-0.012,0.008-0.018l0.081-0.114l0.018-0.024l0.021-0.021c0.018-0.016,0.035-0.034,0.055-0.05
		c0.018-0.018,0.036-0.034,0.057-0.051c0.021-0.017,0.038-0.033,0.061-0.05c0.021-0.017,0.041-0.034,0.061-0.051l0.042-0.03
		l0.062-0.042l0.285-0.205c0.024-0.017,0.052-0.034,0.077-0.052c0.025-0.019,0.053-0.036,0.081-0.054
		c0.026-0.017,0.054-0.035,0.082-0.053c0.027-0.017,0.057-0.035,0.083-0.054l0.033-0.021l0.164-0.094
		c0.25-0.155,0.509-0.311,0.777-0.47c0.27-0.159,0.546-0.32,0.83-0.483c0.283-0.165,0.575-0.332,0.873-0.502
		c0.295-0.168,0.598-0.343,0.905-0.519c0.051-0.028,0.096-0.06,0.136-0.093c0.039-0.032,0.074-0.069,0.103-0.106
		c0.028-0.039,0.053-0.078,0.073-0.12c0.018-0.042,0.032-0.086,0.042-0.131C27.644,10.565,27.641,10.435,27.614,10.302z"/>
</g>
<g>
	<path fill="#EE5DA1" d="M26.436,19.467c-0.009-0.053-0.02-0.101-0.039-0.144c-0.018-0.046-0.044-0.085-0.076-0.123
		c-0.322-0.353-0.642-0.706-0.95-1.048c-0.303-0.337-0.595-0.666-0.87-0.98c-0.27-0.31-0.521-0.604-0.748-0.878
		c-0.071-0.089-0.143-0.176-0.209-0.259c-1.02-0.204-2.085-0.255-3.093-0.117c0.022,0.085,0.046,0.172,0.071,0.265
		c0.038,0.136,0.08,0.278,0.125,0.427c0.045,0.151,0.093,0.31,0.144,0.474c0.049,0.166,0.105,0.337,0.162,0.518
		c0.056,0.179,0.116,0.364,0.177,0.558c0.33,0.07,0.672,0.144,1.03,0.217c0.357,0.074,0.729,0.147,1.114,0.224
		c0.39,0.075,0.789,0.152,1.2,0.229c0.416,0.076,0.842,0.153,1.28,0.231c0.008,0.001,0.016,0.002,0.022,0.004
		c0.011,0.001,0.018,0.002,0.024,0.006c0.01,0.001,0.017,0.003,0.023,0.003c0.008,0.001,0.017,0.002,0.023,0.005
		c0.112,0.026,0.205,0.065,0.281,0.115c0.073,0.049,0.13,0.108,0.173,0.175c0.044,0.066,0.07,0.142,0.088,0.222
		c0.014,0.079,0.019,0.166,0.011,0.253c0.001-0.002,0.002-0.007,0.003-0.011c0-0.004,0-0.008,0.002-0.013
		c0.003-0.004,0.003-0.009,0.004-0.013s0.003-0.009,0.003-0.012c0.012-0.057,0.02-0.112,0.025-0.168
		C26.44,19.571,26.44,19.517,26.436,19.467z"/>
</g>
<g>
	<path fill="#EE5DA1" d="M25.405,15.027c-0.141,0.021-0.322,0.037-0.484,0.111c0.049,0.14,0.118,0.282,0.213,0.426
		c0.131,0.201,0.306,0.407,0.525,0.614c0.22,0.208,0.485,0.417,0.792,0.626c0.374,0.252,0.798,0.451,1.243,0.587
		c0.448,0.139,0.915,0.207,1.366,0.199c0.453-0.01,0.887-0.097,1.266-0.272c0.356-0.165,0.661-0.405,0.89-0.729
		C29.504,15.533,27.468,14.955,25.405,15.027z"/>
</g>
<g>
	<path fill="#ED4296" d="M31.371,16.338c0.03-0.064,0.061-0.129,0.085-0.195s0.042-0.133,0.06-0.198
		c0.016-0.067,0.027-0.136,0.034-0.201c0.037-0.303-0.007-0.61-0.116-0.902c-0.107-0.287-0.277-0.563-0.498-0.809
		c-0.218-0.244-0.486-0.458-0.788-0.631c-0.302-0.172-0.641-0.302-1.004-0.376c-0.438-0.095-0.867-0.127-1.274-0.112
		c-0.406,0.016-0.794,0.08-1.145,0.177c-0.354,0.098-0.674,0.231-0.948,0.385c-0.272,0.155-0.498,0.332-0.66,0.517
		c-0.029,0.036-0.056,0.07-0.08,0.106c-0.023,0.036-0.045,0.072-0.064,0.109c-0.021,0.036-0.037,0.073-0.053,0.113
		c-0.014,0.037-0.027,0.076-0.038,0.115c-0.047,0.173-0.049,0.356-0.006,0.544c0.011,0.053,0.026,0.106,0.046,0.16
		c0.162-0.074,0.344-0.09,0.484-0.111c2.062-0.073,4.099,0.506,5.811,1.562c0.015-0.021,0.031-0.04,0.042-0.061
		C31.301,16.467,31.338,16.404,31.371,16.338z"/>
</g>
<g>
	<path fill="#EC2225" d="M26.39,19.588c-0.018-0.08-0.044-0.155-0.088-0.222c-0.043-0.066-0.1-0.126-0.173-0.175
		c-0.076-0.05-0.169-0.089-0.281-0.115c-0.007-0.003-0.016-0.004-0.023-0.005c-0.007,0-0.014-0.002-0.023-0.003
		c-0.007-0.004-0.014-0.005-0.024-0.006c-0.007-0.002-0.015-0.003-0.022-0.004c-0.438-0.078-0.864-0.155-1.28-0.231
		c-0.411-0.076-0.811-0.153-1.2-0.229c-0.385-0.076-0.757-0.149-1.114-0.224c-0.358-0.073-0.7-0.146-1.03-0.217
		c-0.152-0.034-0.304-0.068-0.451-0.102c-0.146-0.034-0.289-0.067-0.43-0.1c-0.14-0.032-0.275-0.066-0.408-0.1
		c-0.132-0.033-0.264-0.063-0.389-0.095c-0.399-0.1-0.764-0.193-1.1-0.279c-0.336-0.09-0.642-0.169-0.926-0.237
		c-0.028-0.01-0.056-0.015-0.087-0.021c-0.518,0.45-0.94,1.018-1.223,1.717l0.172,0.021l0.038,0.004l0.034,0.011
		c0.029,0.009,0.059,0.016,0.089,0.026c0.03,0.008,0.06,0.019,0.09,0.028c0.03,0.009,0.059,0.019,0.089,0.031
		c0.031,0.01,0.062,0.021,0.093,0.033l0.058,0.023l0.078,0.035c0.032,0.016,0.065,0.03,0.098,0.043
		c0.031,0.016,0.063,0.029,0.095,0.043c0.035,0.015,0.064,0.026,0.099,0.042c0.034,0.013,0.066,0.028,0.1,0.043l0.421,0.2
		l0.043,0.02l0.195,0.11c0.321,0.165,0.654,0.342,0.999,0.525c0.349,0.187,0.711,0.383,1.086,0.588
		c0.378,0.208,0.772,0.429,1.186,0.659c0.413,0.233,0.848,0.475,1.301,0.729c0.267,0.155,0.571,0.214,0.887,0.201
		c0.317-0.014,0.644-0.096,0.952-0.22c0.309-0.122,0.602-0.287,0.852-0.465c0.247-0.174,0.454-0.363,0.594-0.536
		c0.051-0.044,0.107-0.106,0.169-0.186c0.06-0.076,0.121-0.17,0.179-0.271c0.059-0.101,0.114-0.21,0.16-0.323
		c0.046-0.112,0.082-0.229,0.105-0.344c0.004-0.013,0.007-0.028,0.009-0.041c0.003-0.017,0.005-0.031,0.008-0.046
		c0.003-0.014,0.004-0.029,0.005-0.041c0.002-0.016,0.003-0.029,0.005-0.045C26.408,19.754,26.403,19.667,26.39,19.588z"/>
</g>
<g>
	<path fill="#F06025" d="M15.938,17.011c-0.224-0.011-0.445-0.001-0.671,0.036c-0.227,0.036-0.46,0.095-0.711,0.18
		c-0.251,0.086-0.521,0.196-0.819,0.331c-0.299,0.136-0.626,0.296-0.995,0.482c-0.151,0.076-0.308,0.158-0.471,0.245
		c-0.164,0.086-0.334,0.176-0.509,0.27c-0.177,0.094-0.357,0.194-0.542,0.294c-0.188,0.103-0.38,0.206-0.577,0.314
		c-0.014,0.286-0.025,0.586-0.036,0.901c-0.011,0.318-0.019,0.652-0.025,1.001c-0.006,0.351-0.012,0.719-0.014,1.1
		c-0.003,0.387-0.004,0.788-0.004,1.206c0.001,0.025,0,0.051-0.001,0.076c-0.001,0.026-0.005,0.05-0.008,0.072
		c-0.003,0.023-0.008,0.047-0.014,0.07c-0.005,0.021-0.012,0.042-0.019,0.062c-0.001,0.007-0.004,0.012-0.006,0.019
		c-0.003,0.005-0.005,0.012-0.007,0.017c-0.003,0.005-0.005,0.012-0.008,0.018c-0.002,0.004-0.005,0.01-0.007,0.015
		c0,0.001-0.001,0.002-0.002,0.005c-0.001,0.002-0.002,0.003-0.002,0.005c0,0-0.001,0.002-0.001,0.003
		c-0.001,0.001-0.001,0.002-0.002,0.004c-0.02,0.037-0.044,0.075-0.071,0.107c-0.026,0.034-0.057,0.062-0.09,0.091
		c-0.033,0.027-0.068,0.052-0.107,0.075c-0.038,0.022-0.078,0.044-0.121,0.062c-0.003,0.002-0.006,0.002-0.01,0.003
		c-0.002,0.001-0.006,0.002-0.008,0.005c-0.004,0.001-0.007,0.003-0.01,0.003c-0.002,0.002-0.006,0.003-0.009,0.004
		c0.03-0.011,0.06-0.021,0.087-0.033c0.028-0.012,0.054-0.026,0.081-0.041c0.025-0.014,0.048-0.029,0.07-0.047
		s0.043-0.036,0.06-0.056c0.365-0.39,0.731-0.774,1.088-1.152c0.354-0.371,0.701-0.735,1.035-1.075
		c0.33-0.338,0.648-0.657,0.948-0.946c0.296-0.288,0.577-0.548,0.835-0.773c0.064-0.055,0.126-0.11,0.19-0.163
		c0.062-0.054,0.124-0.104,0.186-0.155c0.061-0.049,0.121-0.099,0.182-0.146c0.06-0.046,0.119-0.091,0.176-0.134l0.017-0.011
		l0.146-0.09l0.331-0.193l0.011-0.008l0.089-0.039c0.011-0.003,0.026-0.011,0.044-0.016c0.018-0.006,0.038-0.013,0.058-0.021
		c0.021-0.006,0.041-0.012,0.062-0.018c0.02-0.007,0.037-0.013,0.051-0.018l0.142-0.021l0.054,0.002c0.007,0,0.013,0,0.022,0.001
		c0.007,0,0.015,0.001,0.023,0.001c0.01,0,0.019,0.001,0.026,0.001c0.009,0,0.02,0,0.028,0l0.014,0.004
		c0.283-0.699,0.705-1.267,1.223-1.717c-0.249-0.058-0.482-0.107-0.702-0.144C16.392,17.04,16.161,17.018,15.938,17.011z"/>
</g>
<g>
	<path fill="#EC2225" d="M20.096,24.836c-0.027-0.502-0.155-0.969-0.352-1.39c-0.192-0.413-0.45-0.782-0.744-1.102
		c-0.291-0.312-0.617-0.576-0.954-0.782c-0.336-0.201-0.682-0.351-1.013-0.435c-0.333-0.073-0.662-0.076-0.981-0.017
		c-0.14,0.025-0.278,0.066-0.414,0.115c-0.02,2.307,1.217,4.623,2.628,6.557c0.416-0.224,0.78-0.516,1.074-0.854
		c0.296-0.344,0.52-0.733,0.646-1.146c0.024-0.076,0.042-0.155,0.059-0.232c0.017-0.078,0.029-0.155,0.038-0.235
		c0.01-0.08,0.018-0.159,0.018-0.239C20.103,24.995,20.102,24.916,20.096,24.836z"/>
</g>
<g>
	<path fill="#F06025" d="M15.119,21.481c-0.303,0.186-0.593,0.433-0.869,0.74c-0.278,0.306-0.54,0.677-0.781,1.104
		c-0.016,0.027-0.032,0.056-0.047,0.087c-0.015,0.027-0.031,0.058-0.045,0.086c-0.016,0.031-0.03,0.06-0.043,0.089
		c-0.014,0.03-0.028,0.06-0.041,0.089c-0.182,0.415-0.289,0.853-0.315,1.288c-0.024,0.442,0.034,0.884,0.184,1.292
		c0.153,0.416,0.401,0.802,0.75,1.122c0.354,0.326,0.811,0.586,1.375,0.744c0.514,0.151,1.035,0.185,1.537,0.125
		c0.502-0.061,0.981-0.217,1.412-0.444c0.01-0.007,0.021-0.013,0.03-0.021c-1.411-1.934-2.648-4.25-2.628-6.557
		C15.462,21.293,15.289,21.377,15.119,21.481z"/>
</g>
<g>
	<path fill="#F6912F" d="M9.238,16.234c-0.14,0.005-0.283,0.012-0.426,0.017c-0.001,0.006-0.002,0.013-0.004,0.017
		c-0.005,0.025-0.01,0.051-0.016,0.076L8.78,16.39l-0.023,0.067c-0.008,0.027-0.019,0.056-0.03,0.085
		c-0.011,0.027-0.022,0.057-0.033,0.085c-0.012,0.03-0.023,0.06-0.033,0.087C8.65,16.742,8.64,16.771,8.633,16.8
		c-0.009,0.029-0.02,0.058-0.029,0.087s-0.021,0.06-0.031,0.09c-0.011,0.028-0.023,0.06-0.034,0.092
		c-0.012,0.029-0.022,0.063-0.035,0.094l-0.014,0.037l-0.077,0.175c-0.125,0.292-0.256,0.591-0.394,0.903
		c-0.14,0.316-0.287,0.646-0.442,0.988c-0.157,0.349-0.323,0.713-0.498,1.094c-0.179,0.388-0.366,0.796-0.567,1.224
		c-0.121,0.253-0.136,0.506-0.077,0.75c0.059,0.249,0.193,0.488,0.37,0.703c0.179,0.22,0.402,0.414,0.634,0.573
		c0.233,0.162,0.477,0.286,0.692,0.359c0.078,0.041,0.198,0.085,0.345,0.123c0.147,0.038,0.32,0.07,0.502,0.09
		c0.184,0.019,0.376,0.027,0.562,0.013c0.187-0.013,0.365-0.048,0.52-0.107c0.003-0.001,0.007-0.002,0.009-0.004
		c0.003,0,0.006-0.002,0.01-0.003c0.002-0.003,0.005-0.004,0.008-0.005c0.004-0.001,0.006-0.001,0.01-0.003
		c0.042-0.019,0.083-0.04,0.121-0.062c0.039-0.023,0.074-0.048,0.107-0.075c0.032-0.028,0.063-0.057,0.09-0.091
		c0.026-0.032,0.05-0.07,0.07-0.107c0.001-0.002,0.001-0.003,0.002-0.004c0-0.001,0.001-0.003,0.001-0.003
		c0-0.002,0.001-0.003,0.002-0.005c0-0.003,0.001-0.004,0.002-0.005c0.002-0.005,0.005-0.011,0.007-0.015
		c0.003-0.006,0.005-0.013,0.008-0.018c0.002-0.005,0.004-0.012,0.007-0.017c0.002-0.007,0.005-0.012,0.006-0.019
		c0.007-0.021,0.014-0.042,0.019-0.062c0.006-0.023,0.011-0.047,0.014-0.07c0.003-0.022,0.006-0.046,0.008-0.072
		c0.001-0.025,0.002-0.051,0.001-0.076c0-0.418,0.001-0.819,0.004-1.206c0.002-0.381,0.008-0.749,0.014-1.1
		c0.007-0.349,0.015-0.683,0.025-1.001c0.011-0.315,0.021-0.615,0.036-0.901c0.007-0.124,0.014-0.244,0.021-0.365
		c0.007-0.118,0.015-0.233,0.022-0.347c0.008-0.113,0.017-0.222,0.025-0.327c0.009-0.107,0.018-0.212,0.029-0.312
		c0.029-0.335,0.063-0.639,0.092-0.915c0.014-0.132,0.027-0.256,0.039-0.376C10.331,16.413,9.787,16.231,9.238,16.234z"/>
</g>
<g>
	<path fill="#F8B427" d="M10.924,15.516c-0.005-0.191-0.023-0.366-0.061-0.529c-0.032-0.163-0.09-0.31-0.175-0.449
		c-0.083-0.139-0.194-0.27-0.332-0.399c-0.138-0.129-0.301-0.259-0.494-0.395c-0.191-0.135-0.409-0.275-0.657-0.429
		c-0.103-0.063-0.211-0.127-0.323-0.193c-0.111-0.065-0.226-0.133-0.345-0.201c-0.118-0.069-0.24-0.138-0.365-0.209
		c-0.125-0.07-0.252-0.142-0.381-0.213c-0.27,0.106-0.55,0.219-0.838,0.337c-0.29,0.118-0.59,0.243-0.898,0.371
		c-0.31,0.131-0.629,0.265-0.955,0.404c-0.328,0.141-0.665,0.284-1.007,0.434c-0.047,0.021-0.092,0.038-0.134,0.051
		s-0.082,0.022-0.118,0.029c-0.038,0.005-0.072,0.008-0.105,0.008c-0.032-0.001-0.062-0.005-0.091-0.012
		c-0.036-0.008-0.068-0.021-0.098-0.039c-0.029-0.018-0.055-0.038-0.079-0.063c-0.023-0.025-0.043-0.053-0.061-0.083
		c-0.017-0.03-0.032-0.064-0.044-0.1c0.009,0.038,0.021,0.076,0.036,0.11c0.015,0.033,0.032,0.065,0.053,0.094
		c0.021,0.027,0.046,0.051,0.074,0.07c0.028,0.017,0.06,0.031,0.095,0.038c0.349,0.069,0.703,0.139,1.055,0.211
		c0.354,0.071,0.705,0.145,1.042,0.22c0.341,0.075,0.67,0.15,0.976,0.227c0.309,0.077,0.595,0.154,0.848,0.232
		c0.06,0.021,0.12,0.041,0.18,0.061c0.061,0.021,0.122,0.041,0.181,0.061s0.117,0.041,0.172,0.062
		c0.057,0.021,0.111,0.042,0.163,0.064l0.014,0.005l0.112,0.062l0.244,0.148l0.008,0.004l0.056,0.045
		c0.007,0.005,0.015,0.015,0.025,0.022c0.009,0.01,0.019,0.021,0.029,0.031c0.011,0.012,0.021,0.023,0.031,0.033
		c0.01,0.011,0.019,0.021,0.026,0.028l0.046,0.089l0.009,0.036c0.001,0.004,0.002,0.012,0.002,0.015
		c0,0.006,0.001,0.011,0.002,0.019c0.002,0.004,0.003,0.012,0.003,0.018c0.001,0.008,0.002,0.014,0.003,0.021l0,0.138l0.001,0.029
		l-0.003,0.027c-0.003,0.021-0.007,0.044-0.01,0.068c-0.004,0.024-0.009,0.049-0.013,0.072c-0.004,0.018-0.008,0.038-0.013,0.057
		c0.143-0.005,0.286-0.012,0.426-0.017c0.548-0.003,1.092,0.179,1.632,0.287c0.013-0.133,0.024-0.258,0.033-0.379
		C10.92,15.915,10.93,15.707,10.924,15.516z"/>
</g>
<g>
	<path fill="#F6912F" d="M1.724,19.702c-0.125,0.268-0.188,0.55-0.206,0.842c0.244,0.124,0.522,0.203,0.822,0.233
		c0.414,0.041,0.865-0.017,1.316-0.184c0.303-0.11,0.591-0.247,0.859-0.405c0.268-0.157,0.516-0.338,0.743-0.528
		c0.226-0.188,0.429-0.391,0.609-0.597c0.179-0.203,0.334-0.414,0.464-0.62c0.065-0.104,0.125-0.207,0.176-0.307
		c0.053-0.1,0.098-0.202,0.138-0.297c0.039-0.097,0.071-0.192,0.097-0.284s0.044-0.181,0.056-0.265
		c0.03-0.253-0.011-0.477-0.11-0.666c-0.026-0.05-0.057-0.099-0.091-0.144C4.538,16.843,2.6,17.697,1.724,19.702z"/>
</g>
<g>
	<path fill="#F8B427" d="M6.214,16.147c-0.21-0.129-0.474-0.225-0.782-0.288c-0.308-0.062-0.659-0.097-1.052-0.095
		c-0.296,0.001-0.601,0.039-0.902,0.11c-0.302,0.07-0.603,0.175-0.89,0.31c-0.288,0.136-0.562,0.301-0.812,0.495
		c-0.251,0.197-0.479,0.419-0.668,0.671c-0.059,0.078-0.113,0.16-0.165,0.241c-0.051,0.083-0.098,0.169-0.141,0.255
		c-0.044,0.089-0.083,0.18-0.117,0.273c-0.035,0.093-0.064,0.189-0.089,0.287c-0.111,0.426-0.094,0.812,0.022,1.147
		c0.12,0.339,0.342,0.625,0.637,0.835c0.083,0.058,0.17,0.11,0.262,0.154c0.019-0.292,0.082-0.574,0.206-0.842
		c0.876-2.005,2.813-2.859,4.873-3.221C6.5,16.353,6.372,16.242,6.214,16.147z"/>
</g>
<g>
	<path fill="#00C1F2" d="M10.855,11.34c0.243-0.095,0.464-0.184,0.668-0.274c0.203-0.091,0.387-0.181,0.555-0.275
		c0.135-0.077,0.258-0.16,0.373-0.252s0.219-0.19,0.32-0.301c0.099-0.109,0.194-0.229,0.287-0.36
		c0.091-0.13,0.183-0.271,0.275-0.426c0.021-0.035,0.042-0.072,0.063-0.107c0.021-0.037,0.042-0.074,0.063-0.112
		c0.022-0.038,0.042-0.076,0.064-0.115c0.022-0.038,0.044-0.078,0.067-0.118c0.048-0.093,0.098-0.189,0.147-0.29
		c0.051-0.099,0.101-0.201,0.153-0.306c0.05-0.104,0.103-0.21,0.155-0.32c0.052-0.109,0.104-0.22,0.158-0.332
		c-0.165-0.1-0.333-0.2-0.506-0.302c-0.173-0.102-0.35-0.205-0.531-0.308c-0.18-0.103-0.363-0.206-0.549-0.31
		c-0.185-0.104-0.372-0.207-0.563-0.312c0,0-0.001-0.001-0.001-0.001c-0.001,0-0.002-0.001-0.003-0.002s-0.002-0.001-0.003-0.001
		c-0.001,0-0.003-0.001-0.004-0.002c-0.035-0.019-0.062-0.041-0.083-0.062c-0.021-0.022-0.034-0.044-0.039-0.067
		c-0.007-0.023-0.006-0.046,0-0.07c0.006-0.023,0.017-0.047,0.034-0.072c0,0,0,0,0,0v0l0,0c0,0,0,0,0,0
		c0.002-0.004,0.005-0.008,0.009-0.012c0.003-0.004,0.005-0.008,0.008-0.012c0.005-0.004,0.007-0.009,0.011-0.013
		c0.005-0.004,0.008-0.009,0.011-0.013c0.048-0.053,0.118-0.104,0.198-0.156c0.081-0.05,0.172-0.1,0.268-0.145
		c0.095-0.043,0.193-0.084,0.287-0.121c0.093-0.035,0.182-0.064,0.258-0.087c0.005-0.001,0.009-0.002,0.013-0.003
		c0.004-0.001,0.009-0.001,0.014-0.003c0.004-0.001,0.009-0.003,0.013-0.004c0.005-0.001,0.009-0.002,0.013-0.003
		c0,0,0.001,0,0.002,0c0.002-0.001,0.002-0.001,0.003-0.001c0,0,0.001,0,0.002,0c0,0,0.001,0,0.002,0
		c0.003,0,0.007-0.001,0.008-0.002c0.004-0.001,0.006-0.001,0.01-0.002c0.002,0,0.005-0.002,0.008-0.002
		c0.003-0.001,0.005-0.001,0.008-0.002c0.001,0,0.003-0.001,0.005-0.001c0.002-0.001,0.003-0.001,0.005-0.002
		c0.001,0,0.003,0,0.004,0c0.001,0,0.003,0,0.005,0c0,0,0.001,0,0.003-0.001c0.001,0,0.002,0,0.003,0c0.001,0,0.002,0,0.004,0
		c0.001,0,0.002,0,0.002,0c0.003-0.001,0.005-0.002,0.008-0.003c0.002,0,0.004-0.001,0.006-0.001c0.002,0,0.005-0.001,0.007-0.003
		c0.002,0,0.004-0.001,0.006-0.002c-0.075,0.016-0.149,0.034-0.224,0.052c-0.077,0.019-0.15,0.04-0.223,0.062
		C12.643,5.779,12.57,5.803,12.5,5.827c-0.071,0.026-0.141,0.054-0.208,0.083c-0.045,0.015-0.102,0.039-0.163,0.069
		C12.066,6.008,12,6.043,11.936,6.08c-0.064,0.04-0.127,0.081-0.182,0.123c-0.054,0.042-0.099,0.086-0.126,0.126
		c-0.007,0.007-0.01,0.015-0.015,0.023c-0.005,0.007-0.008,0.015-0.011,0.022c-0.002,0.007-0.005,0.014-0.006,0.021
		c-0.001,0.007-0.002,0.015-0.002,0.021c-0.005,0.208-0.011,0.42-0.021,0.633c-0.008,0.217-0.019,0.435-0.034,0.648
		c-0.014,0.215-0.034,0.426-0.055,0.628c-0.023,0.203-0.05,0.397-0.083,0.577c-0.01,0.043-0.021,0.084-0.031,0.127
		c-0.012,0.042-0.022,0.083-0.034,0.125c-0.012,0.041-0.023,0.083-0.034,0.123C11.29,9.32,11.278,9.36,11.267,9.402l-0.003,0.011
		l-0.042,0.093c-0.008,0.018-0.017,0.036-0.025,0.053c-0.009,0.017-0.019,0.034-0.029,0.051c-0.008,0.016-0.019,0.033-0.029,0.049
		c-0.009,0.016-0.02,0.034-0.03,0.049l-0.003,0.006l-0.039,0.052c-0.004,0.005-0.01,0.014-0.018,0.024
		c-0.007,0.01-0.017,0.021-0.026,0.033c-0.008,0.01-0.018,0.022-0.026,0.033c-0.009,0.011-0.018,0.02-0.023,0.028l-0.08,0.068
		l-0.036,0.022c-0.005,0.002-0.009,0.005-0.015,0.009c-0.004,0.002-0.01,0.006-0.017,0.009C10.82,9.997,10.813,10,10.809,10.003
		c-0.007,0.004-0.013,0.007-0.019,0.01l-0.146,0.062l-0.031,0.012l-0.029,0.009c-0.023,0.01-0.047,0.019-0.071,0.028
		c-0.024,0.008-0.048,0.017-0.073,0.025c-0.025,0.008-0.05,0.016-0.075,0.025c-0.026,0.008-0.052,0.016-0.078,0.024l-0.047,0.014
		l-0.072,0.019c-0.028,0.006-0.058,0.014-0.087,0.02s-0.06,0.014-0.09,0.021c-0.03,0.006-0.061,0.012-0.091,0.02
		c-0.031,0.006-0.062,0.014-0.093,0.02l-0.375,0.09l-0.038,0.008l-0.18,0.034c-0.3,0.058-0.604,0.116-0.916,0.174
		c-0.082,0.015-0.162,0.031-0.244,0.045c0.639,0.401,1.339,0.703,2.072,0.948C10.388,11.518,10.63,11.426,10.855,11.34z"/>
</g>
<g>
	<path fill="#2FA9E0" d="M6.314,10.979c-0.352,0.062-0.716,0.123-1.094,0.188c-0.131,0.021-0.257,0.061-0.378,0.117
		c-0.123,0.057-0.241,0.127-0.353,0.208c-0.113,0.082-0.22,0.174-0.32,0.273c-0.101,0.101-0.193,0.207-0.279,0.314
		c-0.058,0.074-0.112,0.149-0.16,0.223c-0.049,0.075-0.095,0.148-0.134,0.219c-0.04,0.072-0.075,0.142-0.104,0.208
		c-0.029,0.066-0.053,0.129-0.071,0.187c-0.022,0.046-0.043,0.107-0.061,0.178c-0.018,0.071-0.033,0.152-0.041,0.237
		c-0.009,0.084-0.011,0.173-0.004,0.258c0.006,0.087,0.021,0.17,0.047,0.244c0.013,0.036,0.027,0.069,0.044,0.1
		c0.018,0.03,0.038,0.058,0.061,0.083c0.024,0.025,0.05,0.045,0.079,0.063c0.03,0.018,0.062,0.031,0.098,0.039
		c0.028,0.006,0.059,0.011,0.091,0.012c0.033,0,0.067-0.002,0.105-0.008c0.036-0.006,0.076-0.016,0.118-0.029
		s0.086-0.03,0.134-0.051c0.342-0.149,0.679-0.293,1.007-0.434c0.326-0.139,0.645-0.273,0.955-0.404
		c0.308-0.128,0.609-0.252,0.898-0.371c0.289-0.118,0.569-0.231,0.838-0.337c0.121-0.049,0.239-0.096,0.355-0.142
		c0.116-0.045,0.229-0.09,0.343-0.133c0.111-0.042,0.22-0.084,0.327-0.125c0.108-0.041,0.212-0.08,0.315-0.118
		c0.334-0.125,0.644-0.239,0.931-0.344c0.021-0.008,0.041-0.015,0.062-0.023c-0.733-0.245-1.433-0.547-2.072-0.948
		c-0.234,0.044-0.474,0.088-0.718,0.133C7.004,10.857,6.666,10.917,6.314,10.979z"/>
</g>
<g>
	<path fill="#00C1F2" d="M6.919,9.775c0.128,0.017,0.26,0.027,0.393,0.031c0.305,0.009,0.617-0.014,0.915-0.063
		c0.298-0.048,0.58-0.123,0.826-0.216c0.105-0.041,0.203-0.085,0.294-0.136C9.438,9.343,9.522,9.29,9.599,9.232
		c0.076-0.057,0.146-0.117,0.208-0.181c0.062-0.064,0.118-0.13,0.166-0.2c0.066-0.095,0.117-0.192,0.156-0.296
		c0.04-0.102,0.067-0.207,0.081-0.315c0.014-0.108,0.016-0.218,0.005-0.33c-0.011-0.111-0.032-0.224-0.067-0.336
		c-0.062-0.195-0.184-0.366-0.354-0.503C9.623,6.934,9.407,6.827,9.153,6.763C8.9,6.699,8.611,6.675,8.293,6.701
		C7.977,6.727,7.631,6.802,7.265,6.94c-0.156,0.058-0.303,0.124-0.44,0.195c-0.138,0.072-0.267,0.148-0.387,0.23
		C6.319,7.447,6.21,7.534,6.111,7.623c-0.099,0.09-0.188,0.183-0.265,0.277C5.805,7.949,5.768,8,5.734,8.052
		c0.026,0.135,0.082,0.273,0.17,0.415C6.2,8.972,6.542,9.403,6.919,9.775z"/>
</g>
<g>
	<path fill="#2FA9E0" d="M5.49,8.673C5.48,8.798,5.497,8.918,5.542,9.029c0.045,0.111,0.119,0.213,0.225,0.301
		c0.183,0.157,0.417,0.271,0.68,0.348c0.149,0.044,0.31,0.076,0.473,0.097C6.542,9.403,6.2,8.972,5.904,8.467
		c-0.089-0.142-0.144-0.28-0.17-0.415c-0.053,0.08-0.1,0.158-0.135,0.236C5.538,8.419,5.501,8.548,5.49,8.673z"/>
</g>
<g>
	<path fill="#85B840" d="M25.941,8.678c-0.009-0.064-0.029-0.13-0.055-0.195c-0.026-0.063-0.058-0.128-0.094-0.189
		c-0.035-0.06-0.076-0.118-0.116-0.172c-0.005-0.006-0.01-0.013-0.015-0.02c-0.007-0.007-0.013-0.014-0.017-0.02
		c-0.005-0.007-0.011-0.013-0.018-0.02c-0.004-0.006-0.009-0.013-0.014-0.018c-0.01-0.01-0.016-0.019-0.024-0.028
		C25.581,8.009,25.572,8,25.564,7.99c-0.007-0.008-0.016-0.018-0.025-0.026c-0.007-0.008-0.016-0.019-0.025-0.027
		c-0.063-0.068-0.137-0.136-0.211-0.201c-0.076-0.064-0.157-0.126-0.242-0.185c-0.086-0.058-0.177-0.114-0.271-0.165
		c-0.096-0.05-0.194-0.096-0.3-0.138c-0.049-0.025-0.125-0.055-0.212-0.086c-0.088-0.031-0.188-0.062-0.289-0.085
		c-0.101-0.024-0.207-0.041-0.304-0.047C23.59,7.026,23.5,7.034,23.43,7.06c-0.325,0.114-0.653,0.229-0.981,0.342
		c-0.331,0.113-0.657,0.225-0.978,0.33c-0.319,0.106-0.632,0.207-0.931,0.298c-0.027,0.008-0.055,0.016-0.081,0.024
		c0.216,0.583,0.54,1.143,0.933,1.644c0.261-0.025,0.528-0.051,0.808-0.081c0.371-0.038,0.756-0.08,1.151-0.124
		c0.397-0.045,0.804-0.092,1.218-0.143c0.065-0.006,0.131-0.015,0.198-0.023c0.065-0.007,0.133-0.015,0.201-0.024
		c0.064-0.007,0.13-0.016,0.197-0.024c0.067-0.007,0.134-0.017,0.2-0.024c0.088-0.009,0.164-0.024,0.228-0.044
		c0.063-0.021,0.119-0.044,0.166-0.074c0.044-0.03,0.082-0.063,0.109-0.101C25.897,9,25.916,8.96,25.931,8.917
		c0.001-0.001,0.001-0.002,0.001-0.003s0.001-0.001,0.001-0.002c0.001-0.001,0.001-0.002,0.001-0.004c0-0.001,0-0.001,0.001-0.002
		c0.001-0.003,0.001-0.007,0.002-0.01c0.001-0.003,0.002-0.005,0.002-0.009c0-0.003,0.002-0.007,0.002-0.01
		c0.001-0.003,0.001-0.007,0.002-0.01C25.954,8.806,25.953,8.743,25.941,8.678z"/>
</g>
<g>
	<path fill="#6AA643" d="M19.7,8.275c-0.063,0.015-0.127,0.03-0.188,0.044c-0.061,0.015-0.121,0.027-0.181,0.042
		c-0.062,0.013-0.122,0.026-0.182,0.039c-0.061,0.014-0.12,0.027-0.18,0.042l-0.014,0.002l-0.141,0.021
		c-0.027,0.003-0.053,0.006-0.079,0.008C18.71,8.478,18.686,8.48,18.66,8.482c-0.025,0.001-0.051,0.004-0.077,0.005
		c-0.024,0.003-0.049,0.004-0.073,0.006H18.5l-0.081,0.001c-0.01,0-0.021,0-0.036,0c-0.017,0-0.032,0-0.053,0
		c-0.017,0-0.036-0.001-0.049-0.001c-0.019,0-0.035,0-0.046-0.001l-0.112-0.018l-0.038-0.013c-0.005-0.001-0.009-0.003-0.013-0.005
		c-0.009-0.001-0.014-0.003-0.02-0.005c-0.005-0.002-0.012-0.004-0.019-0.007c-0.006-0.002-0.012-0.004-0.019-0.006l-0.116-0.062
		l-0.025-0.013l-0.021-0.013c-0.017-0.01-0.034-0.021-0.052-0.032s-0.035-0.022-0.051-0.034c-0.018-0.012-0.035-0.023-0.053-0.035
		c-0.017-0.012-0.034-0.024-0.05-0.037l-0.032-0.023l-0.04-0.035c-0.016-0.015-0.032-0.031-0.048-0.045
		c-0.017-0.015-0.031-0.03-0.049-0.047c-0.013-0.015-0.031-0.031-0.047-0.046C17.417,8,17.399,7.985,17.383,7.97
		c-0.019-0.014-0.032-0.029-0.051-0.044c-0.017-0.015-0.032-0.03-0.05-0.046c-0.017-0.016-0.034-0.031-0.05-0.047
		c-0.019-0.015-0.034-0.031-0.051-0.047l-0.02-0.019l-0.085-0.093c-0.143-0.151-0.282-0.305-0.423-0.461
		c-0.141-0.154-0.28-0.311-0.421-0.472c-0.139-0.158-0.281-0.321-0.424-0.487c-0.141-0.164-0.284-0.332-0.431-0.505
		c-0.08-0.099-0.22-0.166-0.394-0.208c-0.172-0.041-0.38-0.059-0.597-0.058c-0.216,0.001-0.442,0.02-0.655,0.049
		c-0.212,0.029-0.41,0.069-0.57,0.113c-0.001,0.001-0.003,0.002-0.006,0.002c-0.002,0.001-0.005,0.002-0.007,0.003
		c-0.002,0-0.004,0-0.006,0.001C13.14,5.65,13.138,5.65,13.135,5.652c0,0-0.001,0-0.002,0c-0.001,0-0.003,0-0.004,0
		c0,0-0.002,0-0.003,0c-0.001,0-0.002,0-0.003,0.001c-0.002,0-0.004,0-0.005,0c-0.001,0-0.002,0-0.004,0
		c-0.002,0-0.003,0.001-0.005,0.002c-0.002,0-0.003,0.001-0.005,0.001c-0.003,0-0.005,0.001-0.008,0.002
		c-0.003,0-0.006,0.002-0.008,0.002c-0.004,0.001-0.006,0.001-0.01,0.002c-0.001,0-0.005,0.001-0.008,0.002
		c-0.001,0-0.002,0-0.002,0c-0.001,0-0.001,0-0.002,0c0,0-0.001,0-0.003,0.001c0,0-0.001,0-0.002,0
		c-0.004,0.001-0.008,0.002-0.013,0.003c-0.004,0.001-0.009,0.003-0.013,0.004c-0.004,0.001-0.009,0.002-0.014,0.003
		c-0.004,0.001-0.008,0.002-0.013,0.003c-0.076,0.022-0.165,0.052-0.258,0.087c-0.094,0.036-0.192,0.077-0.287,0.121
		c-0.096,0.045-0.187,0.095-0.268,0.145c-0.081,0.051-0.15,0.103-0.198,0.156c-0.003,0.004-0.006,0.008-0.011,0.013
		c-0.003,0.003-0.006,0.008-0.011,0.013c-0.003,0.004-0.005,0.007-0.008,0.012c-0.003,0.004-0.007,0.008-0.009,0.012c0,0,0,0,0,0
		l0,0v0c0,0,0,0,0,0c-0.017,0.025-0.028,0.049-0.034,0.072c-0.006,0.024-0.006,0.047,0,0.07c0.005,0.022,0.019,0.045,0.039,0.067
		c0.021,0.021,0.048,0.043,0.083,0.062c0.001,0.001,0.003,0.001,0.004,0.002c0.001,0,0.002,0.001,0.003,0.001
		s0.002,0.001,0.003,0.002c0,0,0.001,0.001,0.001,0.001c0.191,0.104,0.378,0.208,0.563,0.312c0.186,0.104,0.369,0.208,0.549,0.31
		c0.181,0.104,0.358,0.207,0.531,0.308c0.173,0.102,0.341,0.202,0.506,0.302c0.086,0.053,0.171,0.104,0.255,0.156
		c0.084,0.052,0.167,0.104,0.247,0.154c0.08,0.051,0.159,0.103,0.235,0.152c0.076,0.05,0.151,0.099,0.224,0.147
		c0.215,0.144,0.414,0.277,0.602,0.404c0.189,0.128,0.367,0.246,0.538,0.354c0.174,0.11,0.338,0.208,0.503,0.297
		c0.166,0.089,0.33,0.167,0.499,0.233c0.168,0.066,0.346,0.116,0.539,0.151c0.192,0.035,0.402,0.056,0.636,0.065
		c0.231,0.009,0.486,0.007,0.771-0.003c0.282-0.01,0.596-0.029,0.944-0.052c0.291-0.026,0.609-0.054,0.943-0.086
		c0.086-0.007,0.168-0.016,0.253-0.025c-0.393-0.501-0.717-1.06-0.933-1.644C20.191,8.136,19.936,8.211,19.7,8.275z"/>
</g>
<g>
	<path fill="#6AA643" d="M20,4.369c-0.252-0.011-0.507,0.002-0.749,0.036c-0.33,0.046-0.643,0.13-0.909,0.247
		c-0.269,0.119-0.493,0.27-0.641,0.452c-0.017,0.02-0.03,0.039-0.046,0.058c-0.016,0.019-0.029,0.038-0.042,0.057
		c-0.014,0.019-0.025,0.04-0.038,0.059c-0.011,0.02-0.023,0.039-0.034,0.058c-0.092,0.169-0.136,0.341-0.142,0.509
		c-0.004,0.17,0.03,0.336,0.098,0.493c0.068,0.16,0.168,0.308,0.291,0.439c0.126,0.133,0.274,0.248,0.438,0.337
		c0.188,0.103,0.4,0.168,0.632,0.2c0.232,0.033,0.484,0.032,0.745-0.002c0.213-0.028,0.432-0.076,0.65-0.142
		c-0.058-0.832,0.169-1.76-0.115-2.511C20.101,4.555,20.053,4.458,20,4.369z"/>
</g>
<g>
	<path fill="#85B840" d="M21.215,6.757c0.099-0.055,0.19-0.115,0.274-0.176c0.083-0.062,0.157-0.128,0.225-0.194
		c0.066-0.068,0.125-0.137,0.174-0.209c0.049-0.071,0.088-0.144,0.118-0.216c0.05-0.119,0.074-0.24,0.07-0.361
		c-0.006-0.12-0.036-0.237-0.1-0.353c-0.062-0.112-0.151-0.222-0.274-0.325c-0.121-0.101-0.275-0.194-0.462-0.28
		c-0.296-0.134-0.632-0.217-0.972-0.254C20.182,4.38,20.091,4.373,20,4.369c0.053,0.09,0.101,0.186,0.138,0.289
		c0.284,0.75,0.058,1.679,0.115,2.511c0.052-0.016,0.103-0.032,0.154-0.05C20.678,7.025,20.95,6.904,21.215,6.757z"/>
</g>
</svg>
