<?xml version="1.0" encoding="utf-8"?>
<!-- Generator: Adobe Illustrator 15.1.0, SVG Export Plug-In . SVG Version: 6.00 Build 0)  -->
<!DOCTYPE svg PUBLIC "-//W3C//DTD SVG 1.1//EN" "http://www.w3.org/Graphics/SVG/1.1/DTD/svg11.dtd">
<svg version="1.1" id="Layer_1" xmlns="http://www.w3.org/2000/svg" xmlns:xlink="http://www.w3.org/1999/xlink" x="0px" y="0px"
	 width="275px" height="64px" viewBox="0 0 275 64" enable-background="new 0 0 275 64" xml:space="preserve">
<style type="text/css">
	.st0{fill:#2FA9E0;}
	.st1{fill:#F8B427;}
	.st2{fill:#F06025;}
	.st3{fill:#ED4296;}
	.st4{fill:#6AA643;}
	.st5{fill:#00C1F2;}
	.st6{fill:#EC2225;}
	.st7{fill:#F6912F;}
	.st8{fill:#EE5DA1;}
	.st9{fill:#85B840;}
	.st10{fill:#11304F;stroke:#11304F;stroke-width:0.75;stroke-miterlimit:10;}
	.st11{fill:#11304F;}
</style>
<g>
	<path class="st0" d="M38.4,11.7c-0.4-0.2-0.7-0.4-1.1-0.7c-0.4-0.2-0.8-0.4-1.2-0.7c-0.4-0.2-0.8-0.4-1.2-0.7l0,0c0,0,0,0,0,0
		c0,0,0,0,0,0c0,0,0,0,0,0c-0.1,0-0.1-0.1-0.2-0.1c0,0-0.1-0.1-0.1-0.1c0-0.1,0-0.1,0-0.1c0-0.1,0-0.1,0.1-0.2c0,0,0,0,0,0v0
		c0,0,0,0,0,0l0,0c0,0,0,0,0,0c0,0,0,0,0,0c0,0,0,0,0,0c0,0,0,0,0,0c0.1-0.1,0.3-0.2,0.4-0.3c0.2-0.1,0.4-0.2,0.6-0.3
		c0.2-0.1,0.4-0.2,0.6-0.3C36.6,8,36.8,7.9,37,7.9c0,0,0,0,0,0c0,0,0,0,0,0c0,0,0,0,0,0c0,0,0,0,0,0c0,0,0,0,0,0c0,0,0,0,0,0
		c0,0,0,0,0,0c0,0,0,0,0,0c0,0,0,0,0,0c0,0,0,0,0,0c0,0,0,0,0,0c0,0,0,0,0,0l0,0c0,0,0,0,0,0l0,0c0,0,0,0,0,0c0,0,0,0,0,0
		c0,0,0,0,0,0s0,0,0,0c0,0,0,0,0,0c0,0,0,0,0,0c0,0,0,0,0,0c0,0,0,0,0,0c0,0,0,0,0,0c-0.2,0-0.3,0.1-0.5,0.1c-0.2,0-0.3,0.1-0.5,0.1
		c-0.2,0-0.3,0.1-0.5,0.2c-0.2,0.1-0.3,0.1-0.4,0.2c-0.1,0-0.2,0.1-0.3,0.1c-0.1,0.1-0.3,0.1-0.4,0.2c-0.1,0.1-0.3,0.2-0.4,0.3
		c-0.1,0.1-0.2,0.2-0.3,0.3c0,0,0,0,0,0c0,0,0,0,0,0c0,0,0,0,0,0s0,0,0,0c0,0.4,0,0.9,0,1.4c0,0.5,0,0.9-0.1,1.4
		c0,0.5-0.1,0.9-0.1,1.3c0,0.4-0.1,0.9-0.2,1.2c0,0.1,0,0.2-0.1,0.3c0,0.1,0,0.2-0.1,0.3c0,0.1,0,0.2-0.1,0.3c0,0.1,0,0.2-0.1,0.3
		l0,0l-0.1,0.2c0,0,0,0.1-0.1,0.1c0,0,0,0.1-0.1,0.1c0,0,0,0.1-0.1,0.1s0,0.1-0.1,0.1l0,0l-0.1,0.1c0,0,0,0,0,0.1s0,0-0.1,0.1
		s0,0-0.1,0.1c0,0,0,0-0.1,0.1L32.5,17l-0.1,0c0,0,0,0,0,0c0,0,0,0,0,0c0,0,0,0,0,0c0,0,0,0,0,0l-0.3,0.1l-0.1,0l-0.1,0
		c0,0-0.1,0-0.2,0.1c-0.1,0-0.1,0-0.2,0.1c-0.1,0-0.1,0-0.2,0.1c-0.1,0-0.1,0-0.2,0.1l-0.1,0l-0.2,0c-0.1,0-0.1,0-0.2,0
		c-0.1,0-0.1,0-0.2,0c-0.1,0-0.1,0-0.2,0c-0.1,0-0.1,0-0.2,0L29.3,18l-0.1,0l-0.4,0.1c-0.6,0.1-1.3,0.2-2,0.4
		c-0.2,0-0.3,0.1-0.5,0.1c-0.5,0.1-1,0.2-1.5,0.3c-0.7,0.1-1.4,0.3-2.2,0.4c-0.8,0.1-1.5,0.3-2.3,0.4c-0.3,0-0.5,0.1-0.8,0.3
		c-0.3,0.1-0.5,0.3-0.8,0.4c-0.2,0.2-0.5,0.4-0.7,0.6c-0.2,0.2-0.4,0.4-0.6,0.7c-0.1,0.2-0.2,0.3-0.3,0.5c-0.1,0.2-0.2,0.3-0.3,0.5
		c-0.1,0.2-0.2,0.3-0.2,0.4c-0.1,0.1-0.1,0.3-0.2,0.4c0,0.1-0.1,0.2-0.1,0.4c0,0.2-0.1,0.3-0.1,0.5c0,0.2,0,0.4,0,0.6
		c0,0.2,0,0.4,0.1,0.5c0,0.1,0.1,0.1,0.1,0.2c0,0.1,0.1,0.1,0.1,0.2c0.1,0.1,0.1,0.1,0.2,0.1c0.1,0,0.1,0.1,0.2,0.1
		c0.1,0,0.1,0,0.2,0c0.1,0,0.1,0,0.2,0c0.1,0,0.2,0,0.3-0.1c0.1,0,0.2-0.1,0.3-0.1c0.7-0.3,1.5-0.6,2.2-0.9c0.7-0.3,1.4-0.6,2-0.9
		c0.7-0.3,1.3-0.5,1.9-0.8c0.6-0.3,1.2-0.5,1.8-0.7c0.3-0.1,0.5-0.2,0.8-0.3c0.2-0.1,0.5-0.2,0.7-0.3c0.2-0.1,0.5-0.2,0.7-0.3
		c0.2-0.1,0.5-0.2,0.7-0.3c0.7-0.3,1.4-0.5,2-0.7c0,0,0.1,0,0.1,0c0.6-0.2,1.1-0.4,1.6-0.6c0.5-0.2,1-0.4,1.4-0.6
		c0.4-0.2,0.8-0.4,1.2-0.6c0.3-0.2,0.6-0.3,0.8-0.5c0.2-0.2,0.5-0.4,0.7-0.6c0.2-0.2,0.4-0.5,0.6-0.8c0.2-0.3,0.4-0.6,0.6-0.9
		c0-0.1,0.1-0.2,0.1-0.2c0-0.1,0.1-0.2,0.1-0.2c0-0.1,0.1-0.2,0.1-0.2c0-0.1,0.1-0.2,0.1-0.3c0.1-0.2,0.2-0.4,0.3-0.6
		c0.1-0.2,0.2-0.4,0.3-0.7c0.1-0.2,0.2-0.5,0.3-0.7c0.1-0.2,0.2-0.5,0.3-0.7C39.2,12.1,38.8,11.9,38.4,11.7z"/>
	<path class="st1" d="M31.7,45.7c0-0.9,0-1.8,0-2.6c0-0.8,0-1.6,0-2.4c0-0.7,0-1.5,0.1-2.1c0-0.7,0-1.3,0.1-1.9c0-0.3,0-0.5,0-0.8
		c0-0.2,0-0.5,0-0.7c0-0.2,0-0.5,0.1-0.7c0-0.2,0-0.4,0.1-0.7c0.1-0.7,0.1-1.4,0.2-2c0-0.3,0.1-0.5,0.1-0.8c0-0.3,0.1-0.6,0.1-0.8
		c0-0.5,0.1-0.9,0-1.3c0-0.4,0-0.8-0.1-1.1c-0.1-0.3-0.2-0.7-0.4-1c-0.2-0.3-0.4-0.6-0.7-0.9c-0.3-0.3-0.6-0.6-1.1-0.8
		c-0.4-0.3-0.9-0.6-1.4-0.9c-0.2-0.1-0.5-0.3-0.7-0.4c-0.2-0.1-0.5-0.3-0.7-0.4c-0.3-0.1-0.5-0.3-0.8-0.4c-0.3-0.2-0.5-0.3-0.8-0.5
		c-0.6,0.2-1.2,0.5-1.8,0.7c-0.6,0.3-1.3,0.5-1.9,0.8c-0.7,0.3-1.3,0.6-2,0.9c-0.7,0.3-1.4,0.6-2.2,0.9c-0.1,0-0.2,0.1-0.3,0.1
		c-0.1,0-0.2,0-0.3,0.1c-0.1,0-0.2,0-0.2,0s-0.1,0-0.2,0c-0.1,0-0.1,0-0.2-0.1c-0.1,0-0.1-0.1-0.2-0.1c0-0.1-0.1-0.1-0.1-0.2
		c0-0.1-0.1-0.1-0.1-0.2c0,0.1,0,0.2,0.1,0.2c0,0.1,0.1,0.1,0.1,0.2c0,0.1,0.1,0.1,0.2,0.2c0.1,0,0.1,0.1,0.2,0.1
		c0.7,0.1,1.5,0.3,2.3,0.5c0.8,0.2,1.5,0.3,2.2,0.5c0.7,0.2,1.4,0.3,2.1,0.5c0.7,0.2,1.3,0.3,1.8,0.5c0.1,0,0.3,0.1,0.4,0.1
		c0.1,0,0.3,0.1,0.4,0.1c0.1,0,0.2,0.1,0.4,0.1c0.1,0,0.2,0.1,0.3,0.1l0,0l0.2,0.1l0.5,0.3l0,0l0.1,0.1c0,0,0,0,0.1,0
		c0,0,0,0,0.1,0.1c0,0,0,0,0.1,0.1c0,0,0,0,0.1,0.1l0.1,0.2l0,0.1c0,0,0,0,0,0c0,0,0,0,0,0c0,0,0,0,0,0c0,0,0,0,0,0l0,0.3l0,0.1
		l0,0.1c0,0,0,0.1,0,0.1c0,0,0,0.1,0,0.2c0,0,0,0.1,0,0.1c0,0,0,0,0,0c0,0.1,0,0.1,0,0.2l0,0.1l0,0.1c0,0.1,0,0.1-0.1,0.2
		c0,0.1,0,0.1-0.1,0.2c0,0.1,0,0.1-0.1,0.2c0,0.1,0,0.1-0.1,0.2c0,0.1,0,0.1-0.1,0.2c0,0.1,0,0.1-0.1,0.2c0,0.1,0,0.1-0.1,0.2
		c0,0.1,0,0.1-0.1,0.2l0,0.1l-0.2,0.4c-0.3,0.6-0.5,1.3-0.8,1.9c-0.3,0.7-0.6,1.4-0.9,2.1c-0.3,0.7-0.7,1.5-1.1,2.3
		c-0.4,0.8-0.8,1.7-1.2,2.6c-0.3,0.5-0.3,1.1-0.2,1.6c0.1,0.5,0.4,1,0.8,1.5c0.4,0.5,0.9,0.9,1.4,1.2c0.5,0.3,1,0.6,1.5,0.8
		c0.2,0.1,0.4,0.2,0.7,0.3c0.3,0.1,0.7,0.2,1.1,0.2c0.4,0,0.8,0.1,1.2,0c0.4,0,0.8-0.1,1.1-0.2c0,0,0,0,0,0c0,0,0,0,0,0c0,0,0,0,0,0
		c0,0,0,0,0,0c0.1,0,0.2-0.1,0.3-0.1c0.1,0,0.2-0.1,0.2-0.2c0.1-0.1,0.1-0.1,0.2-0.2c0.1-0.1,0.1-0.1,0.1-0.2c0,0,0,0,0,0
		c0,0,0,0,0,0c0,0,0,0,0,0l0,0c0,0,0,0,0,0s0,0,0,0c0,0,0,0,0,0c0,0,0,0,0,0c0,0,0-0.1,0-0.1c0,0,0-0.1,0-0.1c0,0,0-0.1,0-0.2
		C31.7,45.8,31.7,45.8,31.7,45.7z"/>
	<path class="st2" d="M65.6,37.6c0-0.2-0.1-0.3-0.2-0.5c-0.1-0.1-0.2-0.3-0.4-0.4c-0.2-0.1-0.4-0.2-0.6-0.2c0,0,0,0,0,0c0,0,0,0,0,0
		c0,0,0,0-0.1,0c0,0,0,0-0.1,0c-0.9-0.2-1.8-0.3-2.7-0.5c-0.9-0.2-1.7-0.3-2.6-0.5c-0.8-0.2-1.6-0.3-2.4-0.5
		c-0.8-0.2-1.5-0.3-2.2-0.5c-0.3-0.1-0.6-0.1-1-0.2c-0.3-0.1-0.6-0.1-0.9-0.2c-0.3-0.1-0.6-0.1-0.9-0.2c-0.3-0.1-0.6-0.1-0.8-0.2
		c-0.9-0.2-1.6-0.4-2.4-0.6c-0.7-0.2-1.4-0.4-2-0.5c-0.1,0-0.1,0-0.2,0c-0.5-0.1-1-0.2-1.5-0.3c-0.5-0.1-1-0.1-1.5-0.1
		c-0.5,0-1,0-1.4,0.1c-0.5,0.1-1,0.2-1.5,0.4c-0.5,0.2-1.1,0.4-1.8,0.7c-0.6,0.3-1.3,0.6-2.1,1c-0.3,0.2-0.7,0.3-1,0.5
		c-0.4,0.2-0.7,0.4-1.1,0.6c-0.4,0.2-0.8,0.4-1.2,0.6c-0.4,0.2-0.8,0.4-1.2,0.7c0,0.6-0.1,1.3-0.1,1.9c0,0.7,0,1.4-0.1,2.1
		c0,0.8,0,1.5,0,2.4c0,0.8,0,1.7,0,2.6c0,0.1,0,0.1,0,0.2c0,0.1,0,0.1,0,0.2c0,0.1,0,0.1,0,0.1c0,0,0,0.1,0,0.1c0,0,0,0,0,0
		c0,0,0,0,0,0c0,0,0,0,0,0c0,0,0,0,0,0l0,0c0,0,0,0,0,0c0,0,0,0,0,0c0,0,0,0,0,0c0,0.1-0.1,0.2-0.1,0.2c-0.1,0.1-0.1,0.1-0.2,0.2
		C31.2,47,31.1,47,31,47.1c-0.1,0-0.2,0.1-0.3,0.1c0,0,0,0,0,0c0,0,0,0,0,0c0,0,0,0,0,0c0,0,0,0,0,0c0.1,0,0.1,0,0.2-0.1
		c0.1,0,0.1-0.1,0.2-0.1c0.1,0,0.1-0.1,0.2-0.1c0,0,0.1-0.1,0.1-0.1c0.8-0.8,1.6-1.7,2.3-2.5c0.8-0.8,1.5-1.6,2.2-2.3
		c0.7-0.7,1.4-1.4,2-2c0.6-0.6,1.2-1.2,1.8-1.7c0.1-0.1,0.3-0.2,0.4-0.3c0.1-0.1,0.3-0.2,0.4-0.3c0.1-0.1,0.3-0.2,0.4-0.3
		c0.1-0.1,0.3-0.2,0.4-0.3l0,0l0.3-0.2l0.7-0.4l0,0l0.2-0.1c0,0,0.1,0,0.1,0c0,0,0.1,0,0.1,0c0,0,0.1,0,0.1,0c0,0,0.1,0,0.1,0l0.3,0
		l0.1,0c0,0,0,0,0,0c0,0,0,0,0.1,0c0,0,0,0,0.1,0c0,0,0,0,0.1,0l0,0l0.4,0l0.1,0l0.1,0c0.1,0,0.1,0,0.2,0.1c0.1,0,0.1,0,0.2,0.1
		c0.1,0,0.1,0,0.2,0.1c0.1,0,0.1,0,0.2,0.1l0.1,0l0.2,0.1c0.1,0,0.1,0.1,0.2,0.1c0.1,0,0.1,0.1,0.2,0.1c0.1,0,0.1,0.1,0.2,0.1
		c0.1,0,0.1,0.1,0.2,0.1l0.9,0.4l0.1,0l0.4,0.2c0.7,0.4,1.4,0.7,2.1,1.1c0.7,0.4,1.5,0.8,2.3,1.3c0.8,0.4,1.7,0.9,2.5,1.4
		c0.9,0.5,1.8,1,2.8,1.6c0.6,0.3,1.2,0.5,1.9,0.4c0.7,0,1.4-0.2,2-0.5c0.7-0.3,1.3-0.6,1.8-1c0.5-0.4,1-0.8,1.3-1.1
		c0.1-0.1,0.2-0.2,0.4-0.4c0.1-0.2,0.3-0.4,0.4-0.6c0.1-0.2,0.2-0.4,0.3-0.7s0.2-0.5,0.2-0.7c0,0,0-0.1,0-0.1c0,0,0-0.1,0-0.1
		c0,0,0-0.1,0-0.1s0-0.1,0-0.1C65.6,38,65.6,37.8,65.6,37.6z"/>
	<g>
		<path class="st3" d="M68.2,17.8c-0.1-0.3-0.2-0.6-0.3-0.8c-0.1-0.3-0.3-0.5-0.5-0.8c-0.2-0.2-0.4-0.4-0.5-0.6
			c-0.1-0.1-0.2-0.2-0.4-0.5c-0.2-0.2-0.5-0.5-0.8-0.8c-0.3-0.3-0.6-0.6-1-0.9c-0.3-0.3-0.7-0.5-1-0.8c0,0,0,0,0.1,0.1
			c0,0,0,0,0.1,0.1c0,0,0,0,0.1,0.1c0,0,0,0,0.1,0.1c0,0,0,0,0,0c0,0,0,0,0,0c0,0,0,0,0,0c0,0,0,0,0,0c0.1,0.1,0.2,0.2,0.2,0.4
			c0.1,0.1,0.1,0.3,0.2,0.4s0.1,0.3,0.1,0.4c0,0.1,0,0.3,0,0.4c0,0,0,0,0,0c0,0,0,0,0,0c0,0,0,0,0,0c0,0,0,0,0,0c0,0,0,0,0,0
			c0,0,0,0,0,0c0,0,0,0,0,0c0,0,0,0,0,0c0,0.1-0.1,0.2-0.1,0.3c-0.1,0.1-0.1,0.2-0.2,0.2c-0.1,0.1-0.2,0.1-0.4,0.2
			c-0.1,0-0.3,0.1-0.5,0.1c-0.1,0-0.3,0-0.4,0.1c-0.1,0-0.3,0-0.4,0.1c-0.1,0-0.3,0-0.4,0.1c-0.1,0-0.3,0-0.4,0.1
			c-0.4,0.5-0.8,1-1.2,1.4c-0.4,0.5-0.8,0.9-1.1,1.3c-0.4,0.4-0.7,0.8-1.1,1.2c-0.4,0.4-0.8,0.8-1.2,1.2c-0.5,0.4-0.9,0.9-1.3,1.2
			c-0.4,0.4-0.8,0.7-1.2,1.1c-0.4,0.3-0.7,0.7-1,1c-0.3,0.3-0.5,0.6-0.7,0.9c0,0-0.1,0.1-0.1,0.1c0,0-0.1,0.1-0.1,0.1
			c0,0,0,0.1-0.1,0.1c0,0.1,0,0.1-0.1,0.2c-0.1,0.3-0.2,0.6-0.2,0.9c0,0.3,0,0.7,0,1c0,0.4,0.1,0.8,0.2,1.2c0.1,0.3,0.1,0.6,0.2,1
			c0,0.2,0.1,0.4,0.2,0.6c0.1,0.3,0.2,0.6,0.3,0.9c0.1,0.3,0.2,0.7,0.3,1c0.1,0.4,0.2,0.7,0.3,1.1c0.1,0.4,0.2,0.8,0.4,1.2
			c0.7,0.2,1.4,0.3,2.2,0.5c0.8,0.2,1.6,0.3,2.4,0.5c0.8,0.2,1.7,0.3,2.6,0.5c0.9,0.2,1.8,0.3,2.7,0.5c0,0,0,0,0.1,0c0,0,0,0,0.1,0
			c0,0,0,0,0,0c0,0,0,0,0,0c0.2,0.1,0.4,0.1,0.6,0.2c0.2,0.1,0.3,0.2,0.4,0.4s0.2,0.3,0.2,0.5c0,0.2,0,0.4,0,0.5c0,0,0,0,0,0
			c0,0,0,0,0,0c0,0,0,0,0,0c0,0,0,0,0,0c0-0.1,0-0.2,0.1-0.4c0-0.1,0-0.2,0-0.3c0-0.1,0-0.2-0.1-0.3c0-0.1-0.1-0.2-0.2-0.3
			c-0.7-0.8-1.4-1.5-2-2.2c-0.6-0.7-1.3-1.4-1.9-2.1c-0.6-0.7-1.1-1.3-1.6-1.9c-0.2-0.2-0.3-0.4-0.4-0.6c-0.3-0.4-0.6-0.7-0.8-1.1
			c-0.1-0.1-0.2-0.2-0.3-0.4c-0.1-0.1-0.2-0.2-0.2-0.3c-0.1-0.1-0.1-0.2-0.2-0.3c-0.1-0.1-0.1-0.2-0.2-0.3l0,0l-0.1-0.3
			c0,0,0-0.1-0.1-0.1c0,0,0-0.1-0.1-0.1c0,0,0-0.1-0.1-0.1c0,0,0-0.1-0.1-0.1l0,0l0-0.1c0,0,0,0,0-0.1c0,0,0-0.1,0-0.1
			c0,0,0-0.1,0-0.1c0,0,0-0.1,0-0.1l0-0.2l0-0.1c0,0,0,0,0,0c0,0,0,0,0,0c0,0,0,0,0,0c0,0,0,0,0,0l0.2-0.2l0-0.1l0,0
			c0,0,0.1-0.1,0.1-0.1c0,0,0.1-0.1,0.1-0.1c0,0,0.1-0.1,0.1-0.1c0,0,0.1-0.1,0.1-0.1l0.1-0.1l0.1-0.1l0.6-0.4
			c0.1,0,0.1-0.1,0.2-0.1c0.1,0,0.1-0.1,0.2-0.1c0.1,0,0.1-0.1,0.2-0.1c0.1,0,0.1-0.1,0.2-0.1l0.1,0l0.4-0.2c0.5-0.3,1.1-0.7,1.7-1
			c0.6-0.3,1.2-0.7,1.8-1c0.6-0.4,1.2-0.7,1.9-1.1c0.6-0.4,1.3-0.7,1.9-1.1c0.1-0.1,0.2-0.1,0.3-0.2c0.1-0.1,0.2-0.1,0.2-0.2
			c0.1-0.1,0.1-0.2,0.2-0.3c0-0.1,0.1-0.2,0.1-0.3C68.3,18.3,68.3,18,68.2,17.8z"/>
	</g>
	<path class="st4" d="M64.6,14.3c0-0.1-0.1-0.3-0.1-0.4c-0.1-0.1-0.1-0.3-0.2-0.4c-0.1-0.1-0.2-0.3-0.2-0.4c0,0,0,0,0,0c0,0,0,0,0,0
		c0,0,0,0,0,0c0,0,0,0,0,0c0,0,0,0-0.1-0.1c0,0,0,0-0.1-0.1c0,0,0,0-0.1-0.1c0,0,0,0-0.1-0.1c-0.1-0.1-0.3-0.3-0.5-0.4
		c-0.2-0.1-0.3-0.3-0.5-0.4c-0.2-0.1-0.4-0.2-0.6-0.4c-0.2-0.1-0.4-0.2-0.6-0.3c-0.1-0.1-0.3-0.1-0.5-0.2c-0.2-0.1-0.4-0.1-0.6-0.2
		c-0.2-0.1-0.4-0.1-0.6-0.1c-0.2,0-0.4,0-0.5,0.1c-0.7,0.2-1.4,0.5-2.1,0.7c-0.7,0.2-1.4,0.5-2.1,0.7c-0.7,0.2-1.4,0.4-2,0.6
		c-0.1,0-0.1,0-0.2,0.1c-0.6,0.2-1.1,0.3-1.6,0.5c-0.1,0-0.3,0.1-0.4,0.1c-0.1,0-0.3,0.1-0.4,0.1c-0.1,0-0.3,0.1-0.4,0.1
		c-0.1,0-0.3,0.1-0.4,0.1l0,0l-0.3,0c-0.1,0-0.1,0-0.2,0s-0.1,0-0.2,0c-0.1,0-0.1,0-0.2,0c-0.1,0-0.1,0-0.2,0h0l-0.2,0
		c0,0,0,0-0.1,0c0,0-0.1,0-0.1,0c0,0-0.1,0-0.1,0c0,0-0.1,0-0.1,0l-0.2,0l-0.1,0c0,0,0,0,0,0c0,0,0,0,0,0s0,0,0,0c0,0,0,0,0,0
		l-0.2-0.1l-0.1,0l0,0c0,0-0.1,0-0.1-0.1c0,0-0.1,0-0.1-0.1c0,0-0.1,0-0.1-0.1c0,0-0.1-0.1-0.1-0.1l-0.1-0.1l-0.1-0.1
		c0,0-0.1-0.1-0.1-0.1c0,0-0.1-0.1-0.1-0.1s-0.1-0.1-0.1-0.1c0,0-0.1-0.1-0.1-0.1c0,0-0.1-0.1-0.1-0.1c0,0-0.1-0.1-0.1-0.1
		S46,12.5,46,12.5c0,0-0.1-0.1-0.1-0.1l0,0l-0.2-0.2c-0.3-0.3-0.6-0.7-0.9-1c-0.3-0.3-0.6-0.7-0.9-1c-0.3-0.3-0.6-0.7-0.9-1
		C42.7,8.7,42.4,8.4,42,8c-0.2-0.2-0.5-0.4-0.8-0.4c-0.4-0.1-0.8-0.1-1.3-0.1c-0.5,0-0.9,0-1.4,0.1c-0.5,0.1-0.9,0.1-1.2,0.2
		c0,0,0,0,0,0c0,0,0,0,0,0c0,0,0,0,0,0c0,0,0,0,0,0c0,0,0,0,0,0c0,0,0,0,0,0c0,0,0,0,0,0c0,0,0,0,0,0c0,0,0,0,0,0l0,0c0,0,0,0,0,0
		l0,0c0,0,0,0,0,0c0,0,0,0,0,0c0,0,0,0,0,0c0,0,0,0,0,0c0,0,0,0,0,0c0,0,0,0,0,0c0,0,0,0,0,0c0,0,0,0,0,0c0,0,0,0,0,0c0,0,0,0,0,0
		c0,0,0,0,0,0c0,0,0,0,0,0c-0.2,0-0.4,0.1-0.6,0.2c-0.2,0.1-0.4,0.2-0.6,0.3c-0.2,0.1-0.4,0.2-0.6,0.3c-0.2,0.1-0.3,0.2-0.4,0.3
		c0,0,0,0,0,0c0,0,0,0,0,0c0,0,0,0,0,0c0,0,0,0,0,0l0,0c0,0,0,0,0,0v0c0,0,0,0,0,0c0,0.1-0.1,0.1-0.1,0.2c0,0.1,0,0.1,0,0.1
		c0,0,0,0.1,0.1,0.1c0,0,0.1,0.1,0.2,0.1c0,0,0,0,0,0c0,0,0,0,0,0c0,0,0,0,0,0l0,0c0.4,0.2,0.8,0.4,1.2,0.7c0.4,0.2,0.8,0.4,1.2,0.7
		c0.4,0.2,0.8,0.4,1.1,0.7c0.4,0.2,0.7,0.4,1.1,0.6c0.2,0.1,0.4,0.2,0.5,0.3c0.2,0.1,0.4,0.2,0.5,0.3c0.2,0.1,0.3,0.2,0.5,0.3
		c0.2,0.1,0.3,0.2,0.5,0.3c0.5,0.3,0.9,0.6,1.3,0.9c0.4,0.3,0.8,0.5,1.2,0.8c0.4,0.2,0.7,0.4,1.1,0.6c0.4,0.2,0.7,0.4,1.1,0.5
		c0.4,0.1,0.7,0.2,1.2,0.3c0.4,0.1,0.9,0.1,1.4,0.1c0.5,0,1,0,1.6,0c0.6,0,1.3-0.1,2-0.1c0.6-0.1,1.3-0.1,2-0.2c0.2,0,0.4,0,0.5-0.1
		c0.6-0.1,1.1-0.1,1.7-0.2c0.8-0.1,1.6-0.2,2.5-0.3c0.8-0.1,1.7-0.2,2.6-0.3c0.1,0,0.3,0,0.4-0.1c0.1,0,0.3,0,0.4-0.1
		c0.1,0,0.3,0,0.4-0.1c0.1,0,0.3,0,0.4-0.1c0.2,0,0.3-0.1,0.5-0.1c0.1,0,0.3-0.1,0.4-0.2c0.1-0.1,0.2-0.1,0.2-0.2
		c0.1-0.1,0.1-0.2,0.1-0.3l0,0c0,0,0,0,0,0c0,0,0,0,0,0c0,0,0,0,0,0c0,0,0,0,0,0c0,0,0,0,0,0C64.7,14.6,64.7,14.4,64.6,14.3z"/>
	<g>
		<g>
			<path class="st5" d="M30.9,11.9c-0.1-0.4-0.4-0.8-0.8-1.1c-0.4-0.3-0.8-0.5-1.4-0.7c-0.5-0.1-1.2-0.2-1.8-0.1
				c-0.7,0.1-1.4,0.2-2.2,0.5c-0.3,0.1-0.6,0.3-0.9,0.4c-0.3,0.2-0.6,0.3-0.8,0.5c-0.3,0.2-0.5,0.4-0.7,0.6
				c-0.2,0.2-0.4,0.4-0.6,0.6c-0.1,0.1-0.2,0.2-0.2,0.3c-0.1,0.2-0.2,0.3-0.3,0.5c-0.1,0.3-0.2,0.6-0.2,0.8c0,0.3,0,0.5,0.1,0.8
				c0.1,0.2,0.3,0.5,0.5,0.6c0.4,0.3,0.9,0.6,1.5,0.7c0.3,0.1,0.7,0.2,1,0.2c0.3,0,0.6,0.1,0.8,0.1c0.7,0,1.3,0,2-0.1
				c0.6-0.1,1.2-0.3,1.8-0.5c0.2-0.1,0.4-0.2,0.6-0.3c0.2-0.1,0.4-0.2,0.5-0.3s0.3-0.2,0.4-0.4c0.1-0.1,0.3-0.3,0.4-0.4
				c0.1-0.2,0.2-0.4,0.3-0.6c0.1-0.2,0.1-0.4,0.2-0.7c0-0.2,0-0.5,0-0.7C31,12.4,30.9,12.2,30.9,11.9z"/>
		</g>
		<g>
			<path class="st6" d="M52.1,48.9c-0.1-1.1-0.3-2.1-0.8-3c-0.4-0.9-1-1.7-1.6-2.4c-0.6-0.7-1.3-1.2-2-1.7c-0.7-0.4-1.5-0.7-2.2-0.9
				c-0.7-0.2-1.4-0.2-2.1,0c-0.3,0.1-0.6,0.1-0.9,0.2c-0.4,0.1-0.8,0.3-1.1,0.5c-0.6,0.4-1.3,0.9-1.9,1.6c-0.6,0.7-1.2,1.4-1.7,2.4
				c0,0.1-0.1,0.1-0.1,0.2c0,0.1-0.1,0.1-0.1,0.2c0,0.1-0.1,0.1-0.1,0.2c0,0.1-0.1,0.1-0.1,0.2c-0.4,0.9-0.6,1.8-0.7,2.8
				c-0.1,0.9,0.1,1.9,0.4,2.8c0.3,0.9,0.9,1.7,1.6,2.4c0.8,0.7,1.7,1.2,2.9,1.6c1.1,0.3,2.2,0.4,3.3,0.3c1.1-0.1,2.1-0.5,3-1
				c0,0,0,0,0.1,0c0.9-0.5,1.7-1.1,2.3-1.8c0.6-0.7,1.1-1.6,1.4-2.5c0.1-0.2,0.1-0.3,0.1-0.5c0-0.2,0.1-0.3,0.1-0.5
				c0-0.2,0-0.3,0-0.5C52.2,49.2,52.1,49,52.1,48.9z"/>
		</g>
		<g>
			<path class="st7" d="M23.3,31c-0.2-0.3-0.5-0.5-0.8-0.7c-0.5-0.3-1-0.5-1.7-0.6c-0.7-0.1-1.4-0.2-2.2-0.2c-0.6,0-1.3,0.1-1.9,0.2
				c-0.6,0.2-1.3,0.4-1.9,0.7c-0.6,0.3-1.2,0.6-1.7,1.1c-0.5,0.4-1,0.9-1.4,1.4c-0.1,0.2-0.2,0.3-0.4,0.5c-0.1,0.2-0.2,0.4-0.3,0.5
				c-0.1,0.2-0.2,0.4-0.2,0.6c-0.1,0.2-0.1,0.4-0.2,0.6c-0.2,0.9-0.2,1.7,0,2.5c0.3,0.7,0.7,1.3,1.4,1.8c0.2,0.1,0.4,0.2,0.6,0.3
				c0.5,0.3,1.1,0.4,1.8,0.5c0.9,0.1,1.9,0,2.8-0.4c0.6-0.2,1.3-0.5,1.8-0.9c0.6-0.3,1.1-0.7,1.6-1.1c0.5-0.4,0.9-0.8,1.3-1.3
				c0.4-0.4,0.7-0.9,1-1.3c0.1-0.2,0.3-0.4,0.4-0.7c0.1-0.2,0.2-0.4,0.3-0.6c0.1-0.2,0.2-0.4,0.2-0.6c0.1-0.2,0.1-0.4,0.1-0.6
				c0.1-0.5,0-1-0.2-1.4C23.4,31.2,23.3,31.1,23.3,31z"/>
		</g>
		<g>
			<path class="st3" d="M76.4,27.5c-0.2-0.6-0.6-1.2-1.1-1.7c-0.5-0.5-1-1-1.7-1.4c-0.6-0.4-1.4-0.6-2.1-0.8
				c-0.9-0.2-1.9-0.3-2.7-0.2c-0.9,0-1.7,0.2-2.4,0.4c-0.8,0.2-1.4,0.5-2,0.8c-0.6,0.3-1.1,0.7-1.4,1.1c-0.1,0.1-0.1,0.2-0.2,0.2
				c-0.1,0.1-0.1,0.2-0.1,0.2c0,0.1-0.1,0.2-0.1,0.2c0,0.1-0.1,0.2-0.1,0.2c-0.1,0.4-0.1,0.8,0,1.2c0,0.1,0.1,0.2,0.1,0.3
				c0.1,0.3,0.3,0.6,0.5,0.9c0.3,0.4,0.7,0.9,1.1,1.3c0.5,0.4,1,0.9,1.7,1.3c0.8,0.5,1.7,1,2.7,1.3c1,0.3,2,0.4,2.9,0.4
				c1,0,1.9-0.2,2.7-0.6c0.8-0.4,1.4-0.9,1.9-1.6c0,0,0.1-0.1,0.1-0.1c0.1-0.1,0.2-0.3,0.2-0.4c0.1-0.1,0.1-0.3,0.2-0.4
				c0.1-0.1,0.1-0.3,0.1-0.4s0.1-0.3,0.1-0.4C76.7,28.8,76.6,28.1,76.4,27.5z"/>
		</g>
		<g>
			<path class="st4" d="M56.2,7c-0.1-0.2-0.3-0.5-0.6-0.7c-0.3-0.2-0.6-0.4-1-0.6c-0.6-0.3-1.3-0.5-2.1-0.5c-0.2,0-0.4,0-0.6,0
				c-0.5,0-1.1,0-1.6,0.1c-0.7,0.1-1.4,0.3-1.9,0.5c-0.6,0.3-1.1,0.6-1.4,1c0,0-0.1,0.1-0.1,0.1c0,0-0.1,0.1-0.1,0.1
				c0,0-0.1,0.1-0.1,0.1c0,0,0,0.1-0.1,0.1c-0.2,0.4-0.3,0.7-0.3,1.1c0,0.4,0.1,0.7,0.2,1.1c0.1,0.3,0.4,0.7,0.6,0.9
				c0.3,0.3,0.6,0.5,0.9,0.7c0.4,0.2,0.9,0.4,1.4,0.4c0.5,0.1,1,0.1,1.6,0c0.5-0.1,0.9-0.2,1.4-0.3c0.1,0,0.2-0.1,0.3-0.1
				c0.6-0.2,1.2-0.5,1.7-0.8c0.2-0.1,0.4-0.2,0.6-0.4c0.2-0.1,0.3-0.3,0.5-0.4c0.1-0.1,0.3-0.3,0.4-0.4c0.1-0.2,0.2-0.3,0.3-0.5
				c0.1-0.3,0.2-0.5,0.1-0.8C56.4,7.4,56.3,7.2,56.2,7z"/>
		</g>
	</g>
	<g>
		<path class="st3" d="M68.2,17.8c-0.1-0.3-0.2-0.6-0.3-0.8c-0.1-0.3-0.3-0.5-0.5-0.8c-0.2-0.2-0.4-0.4-0.5-0.6
			c-0.1-0.1-0.2-0.2-0.4-0.5c-0.2-0.2-0.5-0.5-0.8-0.8c-0.3-0.3-0.6-0.6-1-0.9c-0.3-0.3-0.7-0.5-1-0.8c0,0,0,0,0.1,0.1
			c0,0,0,0,0.1,0.1c0,0,0,0,0.1,0.1c0,0,0,0,0.1,0.1c0,0,0,0,0,0c0,0,0,0,0,0c0,0,0,0,0,0c0,0,0,0,0,0c0.1,0.1,0.2,0.2,0.2,0.4
			c0.1,0.1,0.1,0.3,0.2,0.4s0.1,0.3,0.1,0.4c0,0.1,0,0.3,0,0.4c0,0,0,0,0,0c0,0,0,0,0,0c0,0,0,0,0,0c0,0,0,0,0,0c0,0,0,0,0,0
			c0,0,0,0,0,0c0,0,0,0,0,0c0,0,0,0,0,0c0,0.1-0.1,0.2-0.1,0.3c-0.1,0.1-0.1,0.2-0.2,0.2c-0.1,0.1-0.2,0.1-0.4,0.2
			c-0.1,0-0.3,0.1-0.5,0.1c-0.1,0-0.3,0-0.4,0.1c-0.1,0-0.3,0-0.4,0.1c-0.1,0-0.3,0-0.4,0.1c-0.1,0-0.3,0-0.4,0.1
			c-0.4,0.5-0.8,1-1.2,1.4c-0.4,0.5-0.8,0.9-1.1,1.3c-0.4,0.4-0.7,0.8-1.1,1.2c-0.4,0.4-0.8,0.8-1.2,1.2c-0.5,0.4-0.9,0.9-1.3,1.2
			c-0.4,0.4-0.8,0.7-1.2,1.1c-0.4,0.3-0.7,0.7-1,1c-0.3,0.3-0.5,0.6-0.7,0.9c0,0-0.1,0.1-0.1,0.1c0,0-0.1,0.1-0.1,0.1
			c0,0,0,0.1-0.1,0.1c0,0.1,0,0.1-0.1,0.2c-0.1,0.3-0.2,0.6-0.2,0.9c0,0.3,0,0.7,0,1c0,0.4,0.1,0.8,0.2,1.2c0.1,0.3,0.1,0.6,0.2,1
			c2.2-0.3,4.4-0.2,6.6,0.2c-0.3-0.4-0.6-0.7-0.8-1.1c-0.1-0.1-0.2-0.2-0.3-0.4c-0.1-0.1-0.2-0.2-0.2-0.3c-0.1-0.1-0.1-0.2-0.2-0.3
			c-0.1-0.1-0.1-0.2-0.2-0.3l0,0l-0.1-0.3c0,0,0-0.1-0.1-0.1c0,0,0-0.1-0.1-0.1c0,0,0-0.1-0.1-0.1c0,0,0-0.1-0.1-0.1l0,0l0-0.1
			c0,0,0,0,0-0.1c0,0,0-0.1,0-0.1c0,0,0-0.1,0-0.1c0,0,0-0.1,0-0.1l0-0.2l0-0.1c0,0,0,0,0,0c0,0,0,0,0,0c0,0,0,0,0,0c0,0,0,0,0,0
			l0.2-0.2l0-0.1l0,0c0,0,0.1-0.1,0.1-0.1c0,0,0.1-0.1,0.1-0.1c0,0,0.1-0.1,0.1-0.1c0,0,0.1-0.1,0.1-0.1l0.1-0.1l0.1-0.1l0.6-0.4
			c0.1,0,0.1-0.1,0.2-0.1c0.1,0,0.1-0.1,0.2-0.1c0.1,0,0.1-0.1,0.2-0.1c0.1,0,0.1-0.1,0.2-0.1l0.1,0l0.4-0.2c0.5-0.3,1.1-0.7,1.7-1
			c0.6-0.3,1.2-0.7,1.8-1c0.6-0.4,1.2-0.7,1.9-1.1c0.6-0.4,1.3-0.7,1.9-1.1c0.1-0.1,0.2-0.1,0.3-0.2c0.1-0.1,0.2-0.1,0.2-0.2
			c0.1-0.1,0.1-0.2,0.2-0.3c0-0.1,0.1-0.2,0.1-0.3C68.3,18.3,68.3,18,68.2,17.8z"/>
	</g>
	<g>
		<path class="st8" d="M65.7,37.4c0-0.1,0-0.2-0.1-0.3c0-0.1-0.1-0.2-0.2-0.3c-0.7-0.8-1.4-1.5-2-2.2c-0.6-0.7-1.3-1.4-1.9-2.1
			c-0.6-0.7-1.1-1.3-1.6-1.9c-0.2-0.2-0.3-0.4-0.4-0.6c-2.2-0.4-4.5-0.5-6.6-0.2c0,0.2,0.1,0.4,0.2,0.6c0.1,0.3,0.2,0.6,0.3,0.9
			c0.1,0.3,0.2,0.7,0.3,1c0.1,0.4,0.2,0.7,0.3,1.1c0.1,0.4,0.2,0.8,0.4,1.2c0.7,0.2,1.4,0.3,2.2,0.5c0.8,0.2,1.6,0.3,2.4,0.5
			c0.8,0.2,1.7,0.3,2.6,0.5c0.9,0.2,1.8,0.3,2.7,0.5c0,0,0,0,0.1,0c0,0,0,0,0.1,0c0,0,0,0,0,0c0,0,0,0,0,0c0.2,0.1,0.4,0.1,0.6,0.2
			c0.2,0.1,0.3,0.2,0.4,0.4s0.2,0.3,0.2,0.5c0,0.2,0,0.4,0,0.5c0,0,0,0,0,0c0,0,0,0,0,0c0,0,0,0,0,0c0,0,0,0,0,0
			c0-0.1,0-0.2,0.1-0.4C65.7,37.6,65.7,37.5,65.7,37.4z"/>
	</g>
	<g>
		<path class="st8" d="M63.8,27.4c-0.3,0.1-0.8,0.1-1.2,0.3c0.1,0.3,0.3,0.7,0.5,1.1c0.3,0.5,0.8,1,1.3,1.5c0.5,0.5,1.2,1,2,1.5
			c0.9,0.6,2,1.1,3.1,1.5c1.1,0.3,2.3,0.5,3.4,0.5c1.1,0,2.2-0.2,3.1-0.7c0.9-0.4,1.6-1,2.2-1.8C74,28.7,68.9,27.3,63.8,27.4z"/>
	</g>
	<g>
		<path class="st3" d="M78.6,30.7c0.1-0.2,0.2-0.3,0.2-0.5c0.1-0.2,0.1-0.3,0.1-0.5s0.1-0.3,0.1-0.5c0.1-0.7,0-1.5-0.3-2.2
			c-0.3-0.7-0.7-1.4-1.2-2c-0.5-0.6-1.2-1.1-1.9-1.6c-0.7-0.4-1.6-0.7-2.5-0.9c-1.1-0.2-2.1-0.3-3.2-0.3c-1,0-2,0.2-2.8,0.4
			c-0.9,0.2-1.7,0.6-2.3,1c-0.7,0.4-1.2,0.8-1.6,1.3C63,25,63,25.1,62.9,25.1c-0.1,0.1-0.1,0.2-0.2,0.3c0,0.1-0.1,0.2-0.1,0.3
			c0,0.1-0.1,0.2-0.1,0.3c-0.1,0.4-0.1,0.9,0,1.3c0,0.1,0.1,0.3,0.1,0.4c0.4-0.2,0.9-0.2,1.2-0.3c5.1-0.2,10.1,1.3,14.4,3.9
			c0,0,0.1-0.1,0.1-0.1C78.4,31,78.5,30.8,78.6,30.7z"/>
	</g>
	<g>
		<path class="st6" d="M65.6,37.6c0-0.2-0.1-0.3-0.2-0.5c-0.1-0.1-0.2-0.3-0.4-0.4c-0.2-0.1-0.4-0.2-0.6-0.2c0,0,0,0,0,0
			c0,0,0,0,0,0c0,0,0,0-0.1,0c0,0,0,0-0.1,0c-0.9-0.2-1.8-0.3-2.7-0.5c-0.9-0.2-1.7-0.3-2.6-0.5c-0.8-0.2-1.6-0.3-2.4-0.5
			c-0.8-0.2-1.5-0.3-2.2-0.5c-0.3-0.1-0.6-0.1-1-0.2c-0.3-0.1-0.6-0.1-0.9-0.2c-0.3-0.1-0.6-0.1-0.9-0.2c-0.3-0.1-0.6-0.1-0.8-0.2
			c-0.9-0.2-1.6-0.4-2.4-0.6c-0.7-0.2-1.4-0.4-2-0.5c-0.1,0-0.1,0-0.2,0c-1.1,1-2,2.2-2.6,3.7l0.4,0l0.1,0l0.1,0
			c0.1,0,0.1,0,0.2,0.1c0.1,0,0.1,0,0.2,0.1c0.1,0,0.1,0,0.2,0.1c0.1,0,0.1,0,0.2,0.1l0.1,0l0.2,0.1c0.1,0,0.1,0.1,0.2,0.1
			c0.1,0,0.1,0.1,0.2,0.1c0.1,0,0.1,0.1,0.2,0.1c0.1,0,0.1,0.1,0.2,0.1l0.9,0.4l0.1,0l0.4,0.2c0.7,0.4,1.4,0.7,2.1,1.1
			c0.7,0.4,1.5,0.8,2.3,1.3c0.8,0.4,1.7,0.9,2.5,1.4c0.9,0.5,1.8,1,2.8,1.6c0.6,0.3,1.2,0.5,1.9,0.4c0.7,0,1.4-0.2,2-0.5
			c0.7-0.3,1.3-0.6,1.8-1c0.5-0.4,1-0.8,1.3-1.1c0.1-0.1,0.2-0.2,0.4-0.4c0.1-0.2,0.3-0.4,0.4-0.6c0.1-0.2,0.2-0.4,0.3-0.7
			c0.1-0.2,0.2-0.5,0.2-0.7c0,0,0-0.1,0-0.1c0,0,0-0.1,0-0.1c0,0,0-0.1,0-0.1c0,0,0-0.1,0-0.1C65.6,38,65.6,37.8,65.6,37.6z"/>
	</g>
	<g>
		<path class="st2" d="M43.2,32.1c-0.5,0-1,0-1.4,0.1c-0.5,0.1-1,0.2-1.5,0.4c-0.5,0.2-1.1,0.4-1.8,0.7c-0.6,0.3-1.3,0.6-2.1,1
			c-0.3,0.2-0.7,0.3-1,0.5c-0.4,0.2-0.7,0.4-1.1,0.6c-0.4,0.2-0.8,0.4-1.2,0.6c-0.4,0.2-0.8,0.4-1.2,0.7c0,0.6-0.1,1.3-0.1,1.9
			c0,0.7,0,1.4-0.1,2.1c0,0.8,0,1.5,0,2.4c0,0.8,0,1.7,0,2.6c0,0.1,0,0.1,0,0.2c0,0.1,0,0.1,0,0.2c0,0.1,0,0.1,0,0.1
			c0,0,0,0.1,0,0.1c0,0,0,0,0,0c0,0,0,0,0,0c0,0,0,0,0,0c0,0,0,0,0,0c0,0,0,0,0,0c0,0,0,0,0,0c0,0,0,0,0,0c0,0,0,0,0,0
			c0,0.1-0.1,0.2-0.1,0.2c-0.1,0.1-0.1,0.1-0.2,0.2C31.2,47,31.1,47,31,47.1c-0.1,0-0.2,0.1-0.3,0.1c0,0,0,0,0,0c0,0,0,0,0,0
			c0,0,0,0,0,0c0,0,0,0,0,0c0.1,0,0.1,0,0.2-0.1c0.1,0,0.1-0.1,0.2-0.1c0.1,0,0.1-0.1,0.2-0.1c0,0,0.1-0.1,0.1-0.1
			c0.8-0.8,1.6-1.7,2.3-2.5c0.8-0.8,1.5-1.6,2.2-2.3c0.7-0.7,1.4-1.4,2-2c0.6-0.6,1.2-1.2,1.8-1.7c0.1-0.1,0.3-0.2,0.4-0.3
			c0.1-0.1,0.3-0.2,0.4-0.3c0.1-0.1,0.3-0.2,0.4-0.3c0.1-0.1,0.3-0.2,0.4-0.3l0,0l0.3-0.2l0.7-0.4l0,0l0.2-0.1c0,0,0.1,0,0.1,0
			c0,0,0.1,0,0.1,0c0,0,0.1,0,0.1,0c0,0,0.1,0,0.1,0l0.3,0l0.1,0c0,0,0,0,0,0c0,0,0,0,0.1,0c0,0,0,0,0.1,0c0,0,0,0,0.1,0l0,0
			c0.6-1.5,1.5-2.7,2.6-3.7c-0.5-0.1-1-0.2-1.5-0.3C44.2,32.2,43.7,32.1,43.2,32.1z"/>
	</g>
	<g>
		<path class="st6" d="M52.1,48.9c-0.1-1.1-0.3-2.1-0.8-3c-0.4-0.9-1-1.7-1.6-2.4c-0.6-0.7-1.3-1.2-2-1.7c-0.7-0.4-1.5-0.7-2.2-0.9
			c-0.7-0.2-1.4-0.2-2.1,0c-0.3,0.1-0.6,0.1-0.9,0.2c0,4.9,2.6,9.9,5.6,14c0.9-0.5,1.7-1.1,2.3-1.8c0.6-0.7,1.1-1.6,1.4-2.5
			c0.1-0.2,0.1-0.3,0.1-0.5c0-0.2,0.1-0.3,0.1-0.5c0-0.2,0-0.3,0-0.5C52.2,49.2,52.1,49,52.1,48.9z"/>
	</g>
	<g>
		<path class="st2" d="M41.5,41.7c-0.6,0.4-1.3,0.9-1.9,1.6c-0.6,0.7-1.2,1.4-1.7,2.4c0,0.1-0.1,0.1-0.1,0.2c0,0.1-0.1,0.1-0.1,0.2
			c0,0.1-0.1,0.1-0.1,0.2c0,0.1-0.1,0.1-0.1,0.2c-0.4,0.9-0.6,1.8-0.7,2.8c-0.1,0.9,0.1,1.9,0.4,2.8c0.3,0.9,0.9,1.7,1.6,2.4
			c0.8,0.7,1.7,1.2,2.9,1.6c1.1,0.3,2.2,0.4,3.3,0.3c1.1-0.1,2.1-0.5,3-1c0,0,0,0,0.1,0c-3-4.1-5.7-9.1-5.6-14
			C42.2,41.3,41.9,41.5,41.5,41.7z"/>
	</g>
	<g>
		<path class="st7" d="M28.9,30.5c-0.3,0-0.6,0-0.9,0c0,0,0,0,0,0c0,0.1,0,0.1,0,0.2l0,0.1l0,0.1c0,0.1,0,0.1-0.1,0.2
			c0,0.1,0,0.1-0.1,0.2c0,0.1,0,0.1-0.1,0.2c0,0.1,0,0.1-0.1,0.2c0,0.1,0,0.1-0.1,0.2c0,0.1,0,0.1-0.1,0.2c0,0.1,0,0.1-0.1,0.2
			c0,0.1,0,0.1-0.1,0.2l0,0.1l-0.2,0.4c-0.3,0.6-0.5,1.3-0.8,1.9c-0.3,0.7-0.6,1.4-0.9,2.1c-0.3,0.7-0.7,1.5-1.1,2.3
			c-0.4,0.8-0.8,1.7-1.2,2.6c-0.3,0.5-0.3,1.1-0.2,1.6c0.1,0.5,0.4,1,0.8,1.5c0.4,0.5,0.9,0.9,1.4,1.2c0.5,0.3,1,0.6,1.5,0.8
			c0.2,0.1,0.4,0.2,0.7,0.3c0.3,0.1,0.7,0.2,1.1,0.2c0.4,0,0.8,0.1,1.2,0c0.4,0,0.8-0.1,1.1-0.2c0,0,0,0,0,0c0,0,0,0,0,0
			c0,0,0,0,0,0c0,0,0,0,0,0c0.1,0,0.2-0.1,0.3-0.1c0.1,0,0.2-0.1,0.2-0.2c0.1-0.1,0.1-0.1,0.2-0.2c0.1-0.1,0.1-0.1,0.1-0.2
			c0,0,0,0,0,0c0,0,0,0,0,0c0,0,0,0,0,0c0,0,0,0,0,0c0,0,0,0,0,0s0,0,0,0c0,0,0,0,0,0c0,0,0,0,0,0c0,0,0-0.1,0-0.1c0,0,0-0.1,0-0.1
			c0,0,0-0.1,0-0.2c0-0.1,0-0.1,0-0.2c0-0.9,0-1.8,0-2.6c0-0.8,0-1.6,0-2.4c0-0.7,0-1.5,0.1-2.1c0-0.7,0-1.3,0.1-1.9
			c0-0.3,0-0.5,0-0.8c0-0.2,0-0.5,0-0.7c0-0.2,0-0.5,0.1-0.7c0-0.2,0-0.4,0.1-0.7c0.1-0.7,0.1-1.4,0.2-2c0-0.3,0.1-0.5,0.1-0.8
			C31.2,30.8,30.1,30.4,28.9,30.5z"/>
	</g>
	<g>
		<path class="st1" d="M32.5,28.9c0-0.4,0-0.8-0.1-1.1c-0.1-0.3-0.2-0.7-0.4-1c-0.2-0.3-0.4-0.6-0.7-0.9c-0.3-0.3-0.6-0.6-1.1-0.8
			c-0.4-0.3-0.9-0.6-1.4-0.9c-0.2-0.1-0.5-0.3-0.7-0.4c-0.2-0.1-0.5-0.3-0.7-0.4c-0.3-0.1-0.5-0.3-0.8-0.4c-0.3-0.2-0.5-0.3-0.8-0.5
			c-0.6,0.2-1.2,0.5-1.8,0.7c-0.6,0.3-1.3,0.5-1.9,0.8c-0.7,0.3-1.3,0.6-2,0.9c-0.7,0.3-1.4,0.6-2.2,0.9c-0.1,0-0.2,0.1-0.3,0.1
			c-0.1,0-0.2,0-0.3,0.1c-0.1,0-0.2,0-0.2,0s-0.1,0-0.2,0c-0.1,0-0.1,0-0.2-0.1c-0.1,0-0.1-0.1-0.2-0.1c0-0.1-0.1-0.1-0.1-0.2
			c0-0.1-0.1-0.1-0.1-0.2c0,0.1,0,0.2,0.1,0.2c0,0.1,0.1,0.1,0.1,0.2c0,0.1,0.1,0.1,0.2,0.2c0.1,0,0.1,0.1,0.2,0.1
			c0.7,0.1,1.5,0.3,2.3,0.5c0.8,0.2,1.5,0.3,2.2,0.5c0.7,0.2,1.4,0.3,2.1,0.5c0.7,0.2,1.3,0.3,1.8,0.5c0.1,0,0.3,0.1,0.4,0.1
			c0.1,0,0.3,0.1,0.4,0.1c0.1,0,0.2,0.1,0.4,0.1c0.1,0,0.2,0.1,0.3,0.1l0,0l0.2,0.1l0.5,0.3l0,0l0.1,0.1c0,0,0,0,0.1,0
			c0,0,0,0,0.1,0.1c0,0,0,0,0.1,0.1c0,0,0,0,0.1,0.1l0.1,0.2l0,0.1c0,0,0,0,0,0c0,0,0,0,0,0c0,0,0,0,0,0c0,0,0,0,0,0l0,0.3l0,0.1
			l0,0.1c0,0,0,0.1,0,0.1c0,0,0,0.1,0,0.2c0,0,0,0.1,0,0.1c0.3,0,0.6,0,0.9,0c1.2,0,2.3,0.4,3.5,0.6c0-0.3,0.1-0.6,0.1-0.8
			C32.5,29.8,32.5,29.3,32.5,28.9z"/>
	</g>
	<g>
		<path class="st7" d="M12.8,37.9c-0.3,0.6-0.4,1.2-0.4,1.8c0.5,0.3,1.1,0.4,1.8,0.5c0.9,0.1,1.8,0,2.8-0.4c0.6-0.2,1.3-0.5,1.8-0.9
			c0.6-0.3,1.1-0.7,1.6-1.1c0.5-0.4,0.9-0.8,1.3-1.3c0.4-0.4,0.7-0.9,1-1.3c0.1-0.2,0.3-0.4,0.4-0.7c0.1-0.2,0.2-0.4,0.3-0.6
			c0.1-0.2,0.2-0.4,0.2-0.6c0.1-0.2,0.1-0.4,0.1-0.6c0.1-0.5,0-1-0.2-1.4c-0.1-0.1-0.1-0.2-0.2-0.3C18.9,31.8,14.7,33.6,12.8,37.9z"
			/>
	</g>
	<g>
		<path class="st1" d="M22.4,30.3c-0.5-0.3-1-0.5-1.7-0.6c-0.7-0.1-1.4-0.2-2.2-0.2c-0.6,0-1.3,0.1-1.9,0.2
			c-0.6,0.2-1.3,0.4-1.9,0.7c-0.6,0.3-1.2,0.6-1.7,1.1c-0.5,0.4-1,0.9-1.4,1.4c-0.1,0.2-0.2,0.3-0.4,0.5c-0.1,0.2-0.2,0.4-0.3,0.5
			c-0.1,0.2-0.2,0.4-0.2,0.6c-0.1,0.2-0.1,0.4-0.2,0.6c-0.2,0.9-0.2,1.7,0,2.5c0.3,0.7,0.7,1.3,1.4,1.8c0.2,0.1,0.4,0.2,0.6,0.3
			c0-0.6,0.2-1.2,0.4-1.8c1.9-4.3,6-6.1,10.4-6.9C23.1,30.7,22.8,30.5,22.4,30.3z"/>
	</g>
	<g>
		<path class="st5" d="M32.4,20c0.5-0.2,1-0.4,1.4-0.6s0.8-0.4,1.2-0.6c0.3-0.2,0.6-0.3,0.8-0.5c0.2-0.2,0.5-0.4,0.7-0.6
			c0.2-0.2,0.4-0.5,0.6-0.8c0.2-0.3,0.4-0.6,0.6-0.9c0-0.1,0.1-0.2,0.1-0.2c0-0.1,0.1-0.2,0.1-0.2c0-0.1,0.1-0.2,0.1-0.2
			c0-0.1,0.1-0.2,0.1-0.3c0.1-0.2,0.2-0.4,0.3-0.6c0.1-0.2,0.2-0.4,0.3-0.7c0.1-0.2,0.2-0.5,0.3-0.7c0.1-0.2,0.2-0.5,0.3-0.7
			c-0.3-0.2-0.7-0.4-1.1-0.6c-0.4-0.2-0.7-0.4-1.1-0.7c-0.4-0.2-0.8-0.4-1.2-0.7c-0.4-0.2-0.8-0.4-1.2-0.7c0,0,0,0,0,0c0,0,0,0,0,0
			c0,0,0,0,0,0c0,0,0,0,0,0c-0.1,0-0.1-0.1-0.2-0.1c0,0-0.1-0.1-0.1-0.1c0-0.1,0-0.1,0-0.1c0-0.1,0-0.1,0.1-0.2c0,0,0,0,0,0
			c0,0,0,0,0,0c0,0,0,0,0,0l0,0c0,0,0,0,0,0c0,0,0,0,0,0c0,0,0,0,0,0c0,0,0,0,0,0c0.1-0.1,0.3-0.2,0.4-0.3c0.2-0.1,0.4-0.2,0.6-0.3
			c0.2-0.1,0.4-0.2,0.6-0.3C36.6,8,36.8,7.9,37,7.9c0,0,0,0,0,0c0,0,0,0,0,0c0,0,0,0,0,0c0,0,0,0,0,0c0,0,0,0,0,0c0,0,0,0,0,0
			c0,0,0,0,0,0c0,0,0,0,0,0c0,0,0,0,0,0c0,0,0,0,0,0c0,0,0,0,0,0c0,0,0,0,0,0c0,0,0,0,0,0c0,0,0,0,0,0c0,0,0,0,0,0c0,0,0,0,0,0
			c0,0,0,0,0,0c0,0,0,0,0,0s0,0,0,0c0,0,0,0,0,0c0,0,0,0,0,0c0,0,0,0,0,0c0,0,0,0,0,0c0,0,0,0,0,0c-0.2,0-0.3,0.1-0.5,0.1
			c-0.2,0-0.3,0.1-0.5,0.1c-0.2,0-0.3,0.1-0.5,0.2c-0.2,0.1-0.3,0.1-0.4,0.2c-0.1,0-0.2,0.1-0.3,0.1c-0.1,0.1-0.3,0.1-0.4,0.2
			c-0.1,0.1-0.3,0.2-0.4,0.3c-0.1,0.1-0.2,0.2-0.3,0.3c0,0,0,0,0,0c0,0,0,0,0,0c0,0,0,0,0,0s0,0,0,0c0,0.4,0,0.9,0,1.4
			c0,0.5,0,0.9-0.1,1.4c0,0.5-0.1,0.9-0.1,1.3c0,0.4-0.1,0.9-0.2,1.2c0,0.1,0,0.2-0.1,0.3c0,0.1,0,0.2-0.1,0.3c0,0.1,0,0.2-0.1,0.3
			c0,0.1,0,0.2-0.1,0.3l0,0l-0.1,0.2c0,0,0,0.1-0.1,0.1c0,0,0,0.1-0.1,0.1c0,0,0,0.1-0.1,0.1s0,0.1-0.1,0.1l0,0l-0.1,0.1
			c0,0,0,0,0,0.1s0,0-0.1,0.1s0,0-0.1,0.1c0,0,0,0-0.1,0.1L32.5,17l-0.1,0c0,0,0,0,0,0c0,0,0,0,0,0c0,0,0,0,0,0c0,0,0,0,0,0
			l-0.3,0.1l-0.1,0l-0.1,0c0,0-0.1,0-0.2,0.1c-0.1,0-0.1,0-0.2,0.1c-0.1,0-0.1,0-0.2,0.1c-0.1,0-0.1,0-0.2,0.1l-0.1,0l-0.2,0
			c-0.1,0-0.1,0-0.2,0c-0.1,0-0.1,0-0.2,0c-0.1,0-0.1,0-0.2,0c-0.1,0-0.1,0-0.2,0L29.3,18l-0.1,0l-0.4,0.1c-0.6,0.1-1.3,0.2-2,0.4
			c-0.2,0-0.3,0.1-0.5,0.1c1.4,0.9,2.9,1.5,4.4,2C31.4,20.4,31.9,20.2,32.4,20z"/>
	</g>
	<g>
		<path class="st0" d="M22.7,19.2c-0.8,0.1-1.5,0.3-2.3,0.4c-0.3,0-0.5,0.1-0.8,0.3c-0.3,0.1-0.5,0.3-0.8,0.4
			c-0.2,0.2-0.5,0.4-0.7,0.6c-0.2,0.2-0.4,0.4-0.6,0.7c-0.1,0.2-0.2,0.3-0.3,0.5c-0.1,0.2-0.2,0.3-0.3,0.5c-0.1,0.2-0.2,0.3-0.2,0.4
			c-0.1,0.1-0.1,0.3-0.2,0.4c0,0.1-0.1,0.2-0.1,0.4c0,0.2-0.1,0.3-0.1,0.5c0,0.2,0,0.4,0,0.6c0,0.2,0,0.4,0.1,0.5
			c0,0.1,0.1,0.1,0.1,0.2c0,0.1,0.1,0.1,0.1,0.2c0.1,0.1,0.1,0.1,0.2,0.1c0.1,0,0.1,0.1,0.2,0.1c0.1,0,0.1,0,0.2,0
			c0.1,0,0.1,0,0.2,0c0.1,0,0.2,0,0.3-0.1c0.1,0,0.2-0.1,0.3-0.1c0.7-0.3,1.5-0.6,2.2-0.9c0.7-0.3,1.4-0.6,2-0.9
			c0.7-0.3,1.3-0.5,1.9-0.8c0.6-0.3,1.2-0.5,1.8-0.7c0.3-0.1,0.5-0.2,0.8-0.3c0.2-0.1,0.5-0.2,0.7-0.3c0.2-0.1,0.5-0.2,0.7-0.3
			c0.2-0.1,0.5-0.2,0.7-0.3c0.7-0.3,1.4-0.5,2-0.7c0,0,0.1,0,0.1,0c-1.6-0.5-3.1-1.2-4.4-2c-0.5,0.1-1,0.2-1.5,0.3
			C24.1,19,23.4,19.1,22.7,19.2z"/>
	</g>
	<g>
		<path class="st5" d="M24,16.6c0.3,0,0.6,0.1,0.8,0.1c0.7,0,1.3,0,2-0.1c0.6-0.1,1.2-0.3,1.8-0.5c0.2-0.1,0.4-0.2,0.6-0.3
			c0.2-0.1,0.4-0.2,0.5-0.3c0.2-0.1,0.3-0.2,0.4-0.4c0.1-0.1,0.3-0.3,0.4-0.4c0.1-0.2,0.2-0.4,0.3-0.6c0.1-0.2,0.1-0.4,0.2-0.7
			c0-0.2,0-0.5,0-0.7c0-0.2-0.1-0.5-0.1-0.7c-0.1-0.4-0.4-0.8-0.8-1.1c-0.4-0.3-0.8-0.5-1.4-0.7c-0.5-0.1-1.2-0.2-1.8-0.1
			c-0.7,0.1-1.4,0.2-2.2,0.5c-0.3,0.1-0.6,0.3-0.9,0.4c-0.3,0.2-0.6,0.3-0.8,0.5c-0.3,0.2-0.5,0.4-0.7,0.6c-0.2,0.2-0.4,0.4-0.6,0.6
			c-0.1,0.1-0.2,0.2-0.2,0.3c0.1,0.3,0.2,0.6,0.4,0.9C22.4,14.9,23.1,15.8,24,16.6z"/>
	</g>
	<g>
		<path class="st0" d="M20.9,14.3c0,0.3,0,0.5,0.1,0.8c0.1,0.2,0.3,0.5,0.5,0.6c0.4,0.3,0.9,0.6,1.5,0.7c0.3,0.1,0.7,0.2,1,0.2
			c-0.8-0.8-1.5-1.7-2.2-2.8c-0.2-0.3-0.3-0.6-0.4-0.9c-0.1,0.2-0.2,0.3-0.3,0.5C21,13.7,20.9,14,20.9,14.3z"/>
	</g>
	<g>
		<path class="st9" d="M64.6,14.3c0-0.1-0.1-0.3-0.1-0.4c-0.1-0.1-0.1-0.3-0.2-0.4c-0.1-0.1-0.2-0.3-0.2-0.4c0,0,0,0,0,0
			c0,0,0,0,0,0c0,0,0,0,0,0c0,0,0,0,0,0c0,0,0,0-0.1-0.1c0,0,0,0-0.1-0.1c0,0,0,0-0.1-0.1c0,0,0,0-0.1-0.1c-0.1-0.1-0.3-0.3-0.5-0.4
			c-0.2-0.1-0.3-0.3-0.5-0.4c-0.2-0.1-0.4-0.2-0.6-0.4c-0.2-0.1-0.4-0.2-0.6-0.3c-0.1-0.1-0.3-0.1-0.5-0.2c-0.2-0.1-0.4-0.1-0.6-0.2
			c-0.2-0.1-0.4-0.1-0.6-0.1c-0.2,0-0.4,0-0.5,0.1c-0.7,0.2-1.4,0.5-2.1,0.7c-0.7,0.2-1.4,0.5-2.1,0.7c-0.7,0.2-1.4,0.4-2,0.6
			c-0.1,0-0.1,0-0.2,0.1c0.5,1.2,1.2,2.4,2,3.5c0.6-0.1,1.1-0.1,1.7-0.2c0.8-0.1,1.6-0.2,2.5-0.3c0.8-0.1,1.7-0.2,2.6-0.3
			c0.1,0,0.3,0,0.4-0.1c0.1,0,0.3,0,0.4-0.1c0.1,0,0.3,0,0.4-0.1c0.1,0,0.3,0,0.4-0.1c0.2,0,0.3-0.1,0.5-0.1c0.1,0,0.3-0.1,0.4-0.2
			c0.1-0.1,0.2-0.1,0.2-0.2c0.1-0.1,0.1-0.2,0.1-0.3c0,0,0,0,0,0c0,0,0,0,0,0c0,0,0,0,0,0c0,0,0,0,0,0c0,0,0,0,0,0c0,0,0,0,0,0
			c0,0,0,0,0,0s0,0,0,0C64.7,14.6,64.7,14.4,64.6,14.3z"/>
	</g>
	<g>
		<path class="st4" d="M51.3,13.4c-0.1,0-0.3,0.1-0.4,0.1c-0.1,0-0.3,0.1-0.4,0.1c-0.1,0-0.3,0.1-0.4,0.1c-0.1,0-0.3,0.1-0.4,0.1
			l0,0l-0.3,0c-0.1,0-0.1,0-0.2,0s-0.1,0-0.2,0c-0.1,0-0.1,0-0.2,0c-0.1,0-0.1,0-0.2,0h0l-0.2,0c0,0,0,0-0.1,0c0,0-0.1,0-0.1,0
			c0,0-0.1,0-0.1,0c0,0-0.1,0-0.1,0l-0.2,0l-0.1,0c0,0,0,0,0,0c0,0,0,0,0,0s0,0,0,0c0,0,0,0,0,0l-0.2-0.1l-0.1,0l0,0
			c0,0-0.1,0-0.1-0.1c0,0-0.1,0-0.1-0.1c0,0-0.1,0-0.1-0.1c0,0-0.1-0.1-0.1-0.1l-0.1-0.1l-0.1-0.1c0,0-0.1-0.1-0.1-0.1
			c0,0-0.1-0.1-0.1-0.1s-0.1-0.1-0.1-0.1c0,0-0.1-0.1-0.1-0.1c0,0-0.1-0.1-0.1-0.1c0,0-0.1-0.1-0.1-0.1S46,12.5,46,12.5
			c0,0-0.1-0.1-0.1-0.1l0,0l-0.2-0.2c-0.3-0.3-0.6-0.7-0.9-1c-0.3-0.3-0.6-0.7-0.9-1c-0.3-0.3-0.6-0.7-0.9-1C42.7,8.7,42.4,8.4,42,8
			c-0.2-0.2-0.5-0.4-0.8-0.4c-0.4-0.1-0.8-0.1-1.3-0.1c-0.5,0-0.9,0-1.4,0.1c-0.5,0.1-0.9,0.1-1.2,0.2c0,0,0,0,0,0c0,0,0,0,0,0
			c0,0,0,0,0,0c0,0,0,0,0,0c0,0,0,0,0,0c0,0,0,0,0,0c0,0,0,0,0,0c0,0,0,0,0,0c0,0,0,0,0,0c0,0,0,0,0,0c0,0,0,0,0,0c0,0,0,0,0,0
			c0,0,0,0,0,0c0,0,0,0,0,0c0,0,0,0,0,0c0,0,0,0,0,0c0,0,0,0,0,0c0,0,0,0,0,0c0,0,0,0,0,0c0,0,0,0,0,0c0,0,0,0,0,0c0,0,0,0,0,0
			c0,0,0,0,0,0c0,0,0,0,0,0c-0.2,0-0.4,0.1-0.6,0.2c-0.2,0.1-0.4,0.2-0.6,0.3c-0.2,0.1-0.4,0.2-0.6,0.3c-0.2,0.1-0.3,0.2-0.4,0.3
			c0,0,0,0,0,0c0,0,0,0,0,0c0,0,0,0,0,0c0,0,0,0,0,0l0,0c0,0,0,0,0,0c0,0,0,0,0,0s0,0,0,0c0,0.1-0.1,0.1-0.1,0.2c0,0.1,0,0.1,0,0.1
			c0,0,0,0.1,0.1,0.1c0,0,0.1,0.1,0.2,0.1c0,0,0,0,0,0c0,0,0,0,0,0c0,0,0,0,0,0c0,0,0,0,0,0c0.4,0.2,0.8,0.4,1.2,0.7
			c0.4,0.2,0.8,0.4,1.2,0.7c0.4,0.2,0.8,0.4,1.1,0.7c0.4,0.2,0.7,0.4,1.1,0.6c0.2,0.1,0.4,0.2,0.5,0.3c0.2,0.1,0.4,0.2,0.5,0.3
			c0.2,0.1,0.3,0.2,0.5,0.3c0.2,0.1,0.3,0.2,0.5,0.3c0.5,0.3,0.9,0.6,1.3,0.9c0.4,0.3,0.8,0.5,1.2,0.8c0.4,0.2,0.7,0.4,1.1,0.6
			c0.4,0.2,0.7,0.4,1.1,0.5c0.4,0.1,0.7,0.2,1.2,0.3c0.4,0.1,0.9,0.1,1.4,0.1c0.5,0,1,0,1.6,0c0.6,0,1.3-0.1,2-0.1
			c0.6-0.1,1.3-0.1,2-0.2c0.2,0,0.4,0,0.5-0.1c-0.8-1.1-1.5-2.3-2-3.5C52.3,13.1,51.8,13.3,51.3,13.4z"/>
	</g>
	<g>
		<path class="st4" d="M51.9,5.1c-0.5,0-1.1,0-1.6,0.1c-0.7,0.1-1.4,0.3-1.9,0.5c-0.6,0.3-1.1,0.6-1.4,1c0,0-0.1,0.1-0.1,0.1
			c0,0-0.1,0.1-0.1,0.1c0,0-0.1,0.1-0.1,0.1c0,0,0,0.1-0.1,0.1c-0.2,0.4-0.3,0.7-0.3,1.1c0,0.4,0.1,0.7,0.2,1.1
			c0.1,0.3,0.4,0.7,0.6,0.9c0.3,0.3,0.6,0.5,0.9,0.7c0.4,0.2,0.9,0.4,1.4,0.4c0.5,0.1,1,0.1,1.6,0c0.5-0.1,0.9-0.2,1.4-0.3
			c-0.1-1.8,0.4-3.8-0.2-5.4C52.1,5.5,52,5.3,51.9,5.1z"/>
	</g>
	<g>
		<path class="st9" d="M54.5,10.2c0.2-0.1,0.4-0.2,0.6-0.4c0.2-0.1,0.3-0.3,0.5-0.4c0.1-0.1,0.3-0.3,0.4-0.4
			c0.1-0.2,0.2-0.3,0.3-0.5c0.1-0.3,0.2-0.5,0.1-0.8c0-0.3-0.1-0.5-0.2-0.8c-0.1-0.2-0.3-0.5-0.6-0.7c-0.3-0.2-0.6-0.4-1-0.6
			c-0.6-0.3-1.3-0.5-2.1-0.5c-0.2,0-0.4,0-0.6,0c0.1,0.2,0.2,0.4,0.3,0.6c0.6,1.6,0.1,3.6,0.2,5.4c0.1,0,0.2-0.1,0.3-0.1
			C53.4,10.8,54,10.5,54.5,10.2z"/>
	</g>
</g>
<g>
	<g>
		<g>
			<path class="st10" d="M101.2,44c0,1-0.2,1.8-0.5,2.6c-0.4,0.8-0.9,1.4-1.5,2c-0.6,0.6-1.4,1-2.2,1.3c-0.8,0.3-1.7,0.4-2.7,0.4h-3
				v3.6c0,0.1-0.1,0.3-0.2,0.4c-0.1,0.1-0.2,0.2-0.4,0.2c-0.1,0-0.3-0.1-0.4-0.2c-0.1-0.1-0.2-0.2-0.2-0.4v-16c0-0.1,0-0.1,0-0.2
				c0-0.1,0-0.1,0-0.2c0-0.1,0.1-0.1,0.1-0.1c0.1,0,0.2,0,0.4,0h3.6c0.9,0,1.8,0.2,2.7,0.5c0.8,0.3,1.6,0.8,2.2,1.4
				c0.6,0.6,1.1,1.3,1.5,2.1C101,42.2,101.2,43.1,101.2,44z M100.1,44c0-0.8-0.2-1.5-0.5-2.2c-0.3-0.7-0.7-1.3-1.2-1.7
				c-0.5-0.5-1.1-0.9-1.8-1.1c-0.7-0.3-1.5-0.4-2.2-0.4h-3v10.7h3c0.8,0,1.5-0.1,2.2-0.4c0.7-0.2,1.3-0.6,1.8-1
				c0.5-0.5,0.9-1,1.2-1.6C99.9,45.5,100.1,44.8,100.1,44z"/>
			<path class="st10" d="M90.8,54.9c-0.2,0-0.5-0.1-0.7-0.3c-0.2-0.2-0.3-0.4-0.3-0.7v-16c0,0,0-0.1,0-0.1c0-0.1,0-0.3,0-0.4
				c0.1-0.2,0.2-0.3,0.4-0.4c0.1,0,0.3-0.1,0.5-0.1h3.6c1,0,1.9,0.2,2.8,0.5c0.9,0.4,1.7,0.8,2.3,1.5c0.7,0.6,1.2,1.4,1.6,2.2
				c0.4,0.9,0.6,1.8,0.6,2.8c0,1-0.2,1.9-0.6,2.8c-0.4,0.8-0.9,1.5-1.6,2.1c-0.7,0.6-1.4,1-2.3,1.4c-0.9,0.3-1.8,0.5-2.8,0.5h-2.6
				v3.2c0,0.2-0.1,0.5-0.3,0.7C91.3,54.8,91.1,54.9,90.8,54.9z M90.7,37.8c0,0,0,0.1,0,0.1v16c0,0,0,0.1,0,0.1
				c0.1,0.1,0.1,0.1,0.2,0c0,0,0-0.1,0-0.1v-4h3.4c0.9,0,1.7-0.1,2.5-0.4c0.8-0.3,1.5-0.7,2.1-1.2c0.6-0.5,1-1.1,1.4-1.9
				c0.3-0.7,0.5-1.5,0.5-2.4c0-0.9-0.2-1.7-0.5-2.5c-0.3-0.8-0.8-1.4-1.4-2c-0.6-0.5-1.3-1-2.1-1.3c-0.8-0.3-1.6-0.5-2.5-0.5
				L90.7,37.8C90.7,37.8,90.7,37.8,90.7,37.8z M90.6,37.6C90.6,37.6,90.6,37.6,90.6,37.6C90.6,37.6,90.6,37.6,90.6,37.6z M94.3,49.6
				h-3.4V38.1h3.4c0.8,0,1.6,0.2,2.4,0.4c0.7,0.3,1.4,0.7,2,1.2c0.6,0.5,1,1.1,1.3,1.9c0.3,0.7,0.5,1.5,0.5,2.4
				c0,0.8-0.2,1.6-0.5,2.3c-0.3,0.7-0.8,1.3-1.3,1.8c-0.6,0.5-1.2,0.9-2,1.1C95.9,49.5,95.2,49.6,94.3,49.6z M91.7,48.8h2.6
				c0.7,0,1.5-0.1,2.1-0.3c0.7-0.2,1.2-0.6,1.7-1c0.5-0.4,0.9-0.9,1.1-1.5c0.3-0.6,0.4-1.3,0.4-2c0-0.7-0.1-1.4-0.4-2
				c-0.3-0.6-0.7-1.2-1.2-1.6c-0.5-0.5-1.1-0.8-1.7-1.1c-0.7-0.3-1.4-0.4-2.1-0.4h-2.6V48.8z"/>
		</g>
		<g>
			<path class="st10" d="M105,44.8c0.1-0.3,0.3-0.6,0.6-1c0.3-0.4,0.7-0.8,1.1-1.1c0.5-0.3,1-0.6,1.6-0.9c0.6-0.2,1.3-0.4,2-0.4
				c0.3,0,0.5,0,0.7,0.1c0.2,0,0.4,0.1,0.6,0.1c0.3,0.1,0.5,0.3,0.5,0.6c0,0.2-0.1,0.3-0.2,0.4c-0.1,0.1-0.3,0.1-0.4,0.1
				c-0.2,0-0.4-0.1-0.6-0.2c-0.2-0.1-0.4-0.1-0.7-0.1c-0.7,0-1.4,0.1-2,0.4c-0.6,0.3-1.2,0.7-1.6,1.2c-0.5,0.5-0.9,1.1-1.1,1.8
				c-0.3,0.7-0.4,1.4-0.4,2.1v5.9c0,0.2,0,0.3-0.1,0.4c-0.1,0.1-0.2,0.2-0.4,0.2c-0.2,0-0.3-0.1-0.4-0.2c-0.1-0.1-0.1-0.2-0.1-0.4
				V41.7c0-0.2,0.1-0.3,0.3-0.3c0.3,0,0.5,0.2,0.6,0.5c0.1,0.3,0.2,0.8,0.2,1.5V44.8z"/>
			<path class="st10" d="M104.5,54.9c-0.3,0-0.5-0.1-0.7-0.3c-0.2-0.2-0.3-0.4-0.3-0.7V41.7c0-0.4,0.3-0.7,0.7-0.7
				c0.3,0,0.7,0.1,1,0.7c0.1,0.4,0.2,0.9,0.2,1.6c0.3-0.4,0.7-0.7,1.1-1c0.5-0.4,1.1-0.7,1.7-0.9c0.7-0.3,1.4-0.4,2.2-0.4
				c0.3,0,0.5,0,0.8,0.1c0.3,0.1,0.5,0.1,0.6,0.2c0.5,0.2,0.8,0.5,0.8,1l0,0.1c-0.1,0.3-0.2,0.5-0.4,0.6c-0.2,0.2-0.4,0.2-0.7,0.2
				c-0.3,0-0.5-0.1-0.8-0.2c-0.1-0.1-0.3-0.1-0.5-0.1c-0.6,0-1.3,0.1-1.8,0.4c-0.6,0.3-1.1,0.7-1.5,1.1c-0.4,0.5-0.8,1-1.1,1.6
				c-0.3,0.6-0.4,1.3-0.4,2v5.9c0,0.3-0.1,0.5-0.3,0.7C105,54.8,104.8,54.9,104.5,54.9z M104.3,41.8l0,12.1c0,0.1,0,0.1,0,0.1
				c0,0,0,0,0.1,0c0.1,0,0.1,0,0.1,0c0,0,0-0.1,0-0.1V48c0-0.8,0.2-1.6,0.4-2.3c0.3-0.7,0.7-1.4,1.2-1.9c0.5-0.5,1.1-1,1.8-1.3
				c0.7-0.3,1.4-0.5,2.2-0.5c0.3,0,0.6,0.1,0.9,0.2c0.1,0.1,0.3,0.1,0.5,0.1c0.1,0,0.1,0,0.1,0c0,0,0.1-0.1,0.1-0.1
				c0-0.1,0-0.2-0.2-0.2c-0.1,0-0.3-0.1-0.6-0.1c-0.2,0-0.4-0.1-0.7-0.1c-0.7,0-1.3,0.1-1.9,0.3c-0.6,0.2-1.1,0.5-1.5,0.8
				c-0.4,0.3-0.8,0.7-1.1,1c-0.3,0.4-0.4,0.7-0.5,0.9l-0.8-0.1v-1.4c0-0.8-0.1-1.2-0.2-1.3C104.4,41.9,104.4,41.9,104.3,41.8z"/>
		</g>
		<g>
			<path class="st10" d="M114.7,38.2c0-0.2,0.1-0.4,0.2-0.6c0.1-0.2,0.3-0.2,0.5-0.2c0.2,0,0.4,0.1,0.6,0.2c0.2,0.2,0.2,0.3,0.2,0.6
				c0,0.2-0.1,0.4-0.2,0.5c-0.2,0.1-0.3,0.2-0.6,0.2c-0.2,0-0.4-0.1-0.5-0.2C114.8,38.6,114.7,38.4,114.7,38.2z M115.5,41.4
				c0.1,0,0.3,0.1,0.4,0.2c0.1,0.1,0.2,0.2,0.2,0.4v12c0,0.1-0.1,0.3-0.2,0.4c-0.1,0.1-0.2,0.2-0.4,0.2c-0.1,0-0.3-0.1-0.4-0.2
				c-0.1-0.1-0.2-0.2-0.2-0.4v-12c0-0.1,0.1-0.3,0.2-0.4C115.2,41.4,115.3,41.4,115.5,41.4z"/>
			<path class="st10" d="M115.5,54.9c-0.2,0-0.5-0.1-0.7-0.3c-0.2-0.2-0.3-0.4-0.3-0.7v-12c0-0.2,0.1-0.5,0.3-0.7
				c0.4-0.4,1-0.4,1.3,0c0.2,0.2,0.3,0.4,0.3,0.7v12c0,0.2-0.1,0.5-0.3,0.7C116,54.8,115.7,54.9,115.5,54.9z M115.5,41.8
				C115.4,41.8,115.4,41.8,115.5,41.8c-0.1,0.1-0.1,0.1-0.1,0.1v12c0,0,0,0.1,0,0.1c0.1,0.1,0.1,0.1,0.2,0c0,0,0-0.1,0-0.1v-12
				C115.6,41.9,115.6,41.9,115.5,41.8C115.5,41.8,115.5,41.8,115.5,41.8z M115.5,39.3c-0.3,0-0.6-0.1-0.8-0.3
				c-0.2-0.2-0.3-0.5-0.3-0.8c0-0.3,0.1-0.6,0.3-0.8c0.4-0.5,1.2-0.5,1.7,0c0.2,0.2,0.3,0.5,0.3,0.8c0,0.3-0.1,0.6-0.4,0.8
				C116.1,39.2,115.8,39.3,115.5,39.3z M115.5,37.8c-0.1,0-0.2,0-0.3,0.1c-0.1,0.1-0.1,0.2-0.1,0.3c0,0.1,0,0.2,0.1,0.3
				c0.1,0.1,0.4,0.1,0.5,0c0.1-0.1,0.1-0.1,0.1-0.3c0-0.1,0-0.2-0.1-0.3C115.7,37.8,115.6,37.8,115.5,37.8z"/>
		</g>
		<g>
			<path class="st10" d="M120.9,44.3c0.1-0.3,0.2-0.6,0.4-1c0.2-0.3,0.5-0.7,0.9-0.9c0.4-0.3,0.8-0.5,1.4-0.7
				c0.5-0.2,1.2-0.3,1.9-0.3c1.2,0,2.1,0.3,2.8,0.9c0.7,0.6,1.1,1.4,1.4,2.4c0.1-0.3,0.2-0.7,0.5-1.1c0.2-0.4,0.5-0.7,0.9-1.1
				c0.4-0.3,0.9-0.6,1.4-0.8c0.6-0.2,1.2-0.3,2-0.3c0.9,0,1.6,0.2,2.2,0.5c0.6,0.3,1,0.8,1.4,1.4c0.3,0.6,0.6,1.3,0.7,2.1
				c0.1,0.8,0.2,1.6,0.2,2.5v6c0,0.2,0,0.3-0.1,0.4c-0.1,0.1-0.2,0.2-0.4,0.2c-0.2,0-0.3-0.1-0.4-0.2c-0.1-0.1-0.1-0.2-0.1-0.4v-5.9
				c0-0.8,0-1.5-0.1-2.1c-0.1-0.7-0.2-1.3-0.5-1.8c-0.3-0.5-0.6-0.9-1.1-1.2c-0.5-0.3-1.1-0.4-1.8-0.4c-0.7,0-1.4,0.1-1.9,0.4
				c-0.5,0.3-1,0.7-1.3,1.2s-0.6,1.1-0.8,1.7c-0.2,0.7-0.3,1.4-0.3,2.1v6c0,0.2,0,0.3-0.1,0.4c-0.1,0.1-0.2,0.2-0.4,0.2
				c-0.2,0-0.3-0.1-0.4-0.2c-0.1-0.1-0.1-0.2-0.1-0.4v-5.9c0-0.8,0-1.5-0.1-2.1c-0.1-0.7-0.2-1.3-0.5-1.8c-0.2-0.5-0.6-0.9-1.1-1.2
				c-0.5-0.3-1.1-0.4-1.8-0.4c-0.7,0-1.4,0.2-1.9,0.5c-0.5,0.3-1,0.7-1.4,1.2c-0.4,0.5-0.6,1.1-0.8,1.8c-0.2,0.7-0.3,1.4-0.3,2.1
				v5.9c0,0.2,0,0.3-0.1,0.4c-0.1,0.1-0.2,0.2-0.4,0.2c-0.2,0-0.3-0.1-0.4-0.2c-0.1-0.1-0.1-0.2-0.1-0.4V41.7c0-0.2,0.1-0.3,0.3-0.3
				c0.3,0,0.5,0.2,0.6,0.5c0.1,0.3,0.2,0.8,0.2,1.5V44.3z"/>
			<path class="st10" d="M138.2,54.9c-0.3,0-0.5-0.1-0.7-0.3c-0.2-0.2-0.3-0.4-0.3-0.7v-5.9c0-0.7,0-1.4-0.1-2.1
				c-0.1-0.6-0.2-1.2-0.5-1.6c-0.2-0.4-0.5-0.8-0.9-1c-0.4-0.2-1-0.4-1.6-0.4c-0.7,0-1.2,0.1-1.7,0.4c-0.5,0.3-0.9,0.6-1.2,1.1
				c-0.3,0.5-0.6,1-0.7,1.6c-0.2,0.6-0.3,1.3-0.3,2v6c0,0.3-0.1,0.5-0.3,0.7c-0.4,0.4-1,0.4-1.4,0c-0.2-0.2-0.3-0.4-0.3-0.7v-5.9
				c0-0.7,0-1.4-0.1-2.1c-0.1-0.6-0.2-1.2-0.4-1.6c-0.2-0.4-0.5-0.8-0.9-1c-0.4-0.2-0.9-0.4-1.6-0.4c-0.7,0-1.3,0.1-1.7,0.4
				c-0.5,0.3-0.9,0.6-1.2,1.1c-0.3,0.5-0.6,1-0.8,1.7c-0.2,0.6-0.3,1.3-0.3,2v5.9c0,0.3-0.1,0.5-0.3,0.7c-0.4,0.4-1,0.4-1.4,0
				c-0.2-0.2-0.3-0.4-0.3-0.7V41.7c0-0.4,0.3-0.7,0.7-0.7c0.3,0,0.7,0.1,1,0.7c0.1,0.2,0.2,0.6,0.2,1c0.2-0.2,0.4-0.4,0.6-0.6
				c0.4-0.3,0.9-0.6,1.5-0.8c0.6-0.2,1.3-0.3,2-0.3c1.3,0,2.3,0.4,3,1.1c0.5,0.4,0.8,1,1.1,1.6c0-0.1,0.1-0.1,0.1-0.2
				c0.2-0.4,0.6-0.8,1-1.2c0.4-0.4,0.9-0.7,1.5-0.9c0.6-0.2,1.3-0.4,2.1-0.4c1,0,1.8,0.2,2.4,0.6c0.6,0.4,1.1,0.9,1.5,1.5
				c0.4,0.6,0.6,1.4,0.8,2.2c0.1,0.8,0.2,1.7,0.2,2.6v6c0,0.3-0.1,0.5-0.3,0.7C138.7,54.8,138.4,54.9,138.2,54.9z M134.1,42
				c0.8,0,1.5,0.2,2,0.5c0.5,0.3,0.9,0.8,1.2,1.3c0.3,0.5,0.5,1.2,0.5,1.9c0.1,0.7,0.1,1.4,0.1,2.2v5.9c0,0.1,0,0.1,0,0.1
				c0,0,0,0,0.1,0c0.1,0,0.1,0,0.1,0c0,0,0-0.1,0-0.1v-6c0-0.9-0.1-1.7-0.2-2.5c-0.1-0.7-0.3-1.4-0.7-1.9c-0.3-0.5-0.7-0.9-1.2-1.3
				c-0.5-0.3-1.2-0.5-2-0.5c-0.7,0-1.3,0.1-1.8,0.3c-0.5,0.2-1,0.5-1.3,0.8c-0.4,0.3-0.6,0.6-0.8,1c-0.2,0.4-0.3,0.7-0.4,1l-0.4,1.5
				l-0.4-1.5c-0.2-0.9-0.7-1.7-1.3-2.2c-0.6-0.5-1.4-0.8-2.5-0.8c-0.7,0-1.3,0.1-1.8,0.2c-0.5,0.2-0.9,0.4-1.2,0.6
				c-0.3,0.3-0.6,0.5-0.8,0.8c-0.2,0.3-0.3,0.6-0.3,0.8l-0.8-0.1v-0.9c0-0.8-0.1-1.2-0.2-1.3c0-0.1-0.1-0.2-0.1-0.2l0,12.1
				c0,0.1,0,0.1,0,0.1c0,0,0,0,0.1,0c0.1,0,0.1,0,0.1,0c0,0,0-0.1,0-0.1V48c0-0.8,0.1-1.5,0.3-2.2c0.2-0.7,0.5-1.4,0.9-1.9
				c0.4-0.6,0.9-1,1.5-1.3c0.6-0.3,1.3-0.5,2.1-0.5c0.8,0,1.5,0.2,2,0.5c0.5,0.3,0.9,0.8,1.2,1.4c0.3,0.5,0.4,1.2,0.5,1.9
				c0.1,0.7,0.1,1.4,0.1,2.2v5.9c0,0.1,0,0.1,0,0.1c0,0,0,0,0.1,0c0.1,0,0.1,0,0.1,0c0,0,0-0.1,0-0.1v-6c0-0.8,0.1-1.5,0.3-2.2
				c0.2-0.7,0.5-1.3,0.8-1.9c0.4-0.5,0.9-1,1.5-1.3C132.6,42.2,133.3,42,134.1,42z"/>
		</g>
		<g>
			<path class="st10" d="M153.3,51c-0.2,0.4-0.4,0.9-0.8,1.3c-0.4,0.4-0.8,0.8-1.3,1.1c-0.5,0.3-1.1,0.6-1.7,0.8
				c-0.6,0.2-1.3,0.3-1.9,0.3c-0.9,0-1.7-0.2-2.5-0.5c-0.8-0.3-1.4-0.8-2-1.4c-0.6-0.6-1-1.3-1.3-2.1c-0.3-0.8-0.5-1.6-0.5-2.5
				s0.2-1.7,0.5-2.5c0.3-0.8,0.8-1.5,1.3-2.1c0.6-0.6,1.2-1.1,2-1.4c0.8-0.3,1.6-0.5,2.5-0.5c0.7,0,1.4,0.1,2.1,0.4
				c0.6,0.2,1.2,0.5,1.7,0.9c0.5,0.4,0.9,0.7,1.3,1.1c0.3,0.4,0.6,0.8,0.7,1.1v-1.5c0-0.7,0.1-1.2,0.2-1.5c0.1-0.3,0.3-0.5,0.6-0.5
				c0.2,0,0.3,0.1,0.3,0.3v12.4c0,0.2-0.1,0.3-0.3,0.3c-0.3,0-0.5-0.2-0.6-0.5c-0.1-0.3-0.2-0.8-0.2-1.5V51z M142.5,47.9
				c0,0.8,0.1,1.5,0.4,2.1c0.2,0.7,0.6,1.3,1,1.8c0.4,0.5,1,0.9,1.6,1.2c0.6,0.3,1.3,0.4,2.1,0.4c0.8,0,1.5-0.1,2.2-0.4
				c0.7-0.3,1.3-0.7,1.8-1.2c0.5-0.5,0.9-1.1,1.2-1.8c0.3-0.7,0.5-1.4,0.5-2.1c0-0.7-0.2-1.4-0.5-2.1c-0.3-0.7-0.7-1.3-1.3-1.8
				c-0.5-0.5-1.1-0.9-1.8-1.2c-0.7-0.3-1.4-0.4-2.1-0.4c-0.8,0-1.5,0.1-2.1,0.4c-0.6,0.3-1.2,0.7-1.6,1.2c-0.5,0.5-0.8,1.1-1,1.8
				C142.6,46.5,142.5,47.2,142.5,47.9z"/>
			<path class="st10" d="M147.6,54.9c-1,0-1.8-0.2-2.7-0.5c-0.8-0.4-1.5-0.9-2.1-1.5c-0.6-0.6-1.1-1.4-1.4-2.2
				c-0.3-0.8-0.5-1.7-0.5-2.7s0.2-1.9,0.5-2.7c0.3-0.8,0.8-1.6,1.4-2.2c0.6-0.6,1.3-1.1,2.1-1.5c0.8-0.4,1.7-0.5,2.7-0.5
				c0.8,0,1.5,0.1,2.2,0.4c0.7,0.2,1.3,0.6,1.8,0.9c0.5,0.4,1,0.8,1.3,1.2v-0.1c0-0.7,0.1-1.3,0.2-1.6c0.3-0.6,0.7-0.7,1-0.7
				c0.4,0,0.7,0.3,0.7,0.7v12.4c0,0.4-0.3,0.7-0.7,0.7c-0.3,0-0.7-0.1-1-0.7c-0.1-0.4-0.2-0.9-0.2-1.6v-0.1c0,0-0.1,0.1-0.1,0.1
				c-0.4,0.4-0.9,0.8-1.4,1.2c-0.5,0.3-1.1,0.6-1.8,0.8C149,54.8,148.3,54.9,147.6,54.9z M147.6,41.8c-0.8,0-1.6,0.2-2.3,0.5
				c-0.7,0.3-1.3,0.8-1.9,1.3c-0.5,0.6-0.9,1.2-1.2,2c-0.3,0.7-0.4,1.5-0.4,2.4s0.1,1.7,0.4,2.4c0.3,0.7,0.7,1.4,1.2,2
				c0.5,0.6,1.1,1,1.9,1.3c0.7,0.3,1.5,0.5,2.3,0.5c0.6,0,1.2-0.1,1.8-0.3c0.6-0.2,1.1-0.4,1.6-0.7c0.5-0.3,0.9-0.7,1.2-1
				c0.3-0.4,0.6-0.8,0.7-1.1l0.8,0.1v1.5c0,0.8,0.1,1.2,0.2,1.3c0,0.1,0.1,0.2,0.1,0.2l0-12.2c0,0-0.1,0.1-0.1,0.2
				c-0.1,0.2-0.2,0.6-0.2,1.3v1.5L153,45c-0.1-0.3-0.3-0.6-0.6-1c-0.3-0.4-0.7-0.7-1.2-1.1c-0.5-0.3-1-0.6-1.6-0.8
				C148.9,41.9,148.3,41.8,147.6,41.8z M147.6,53.9c-0.8,0-1.6-0.2-2.2-0.5c-0.7-0.3-1.3-0.7-1.8-1.3c-0.5-0.5-0.9-1.2-1.1-1.9
				c-0.3-0.7-0.4-1.5-0.4-2.3c0-0.8,0.1-1.6,0.4-2.3c0.3-0.7,0.6-1.4,1.1-1.9c0.5-0.5,1.1-1,1.8-1.3c1.3-0.6,3.1-0.6,4.5,0
				c0.7,0.3,1.4,0.7,1.9,1.3c0.6,0.5,1,1.2,1.3,1.9c0.3,0.7,0.5,1.5,0.5,2.3c0,0.8-0.2,1.6-0.5,2.3c-0.3,0.7-0.8,1.4-1.3,1.9
				c-0.5,0.5-1.2,1-1.9,1.3C149.2,53.7,148.4,53.9,147.6,53.9z M147.6,42.8c-0.7,0-1.3,0.1-1.9,0.4c-0.6,0.3-1.1,0.6-1.5,1.1
				c-0.4,0.5-0.7,1-1,1.6c-0.2,0.6-0.3,1.3-0.3,2s0.1,1.4,0.3,2c0.2,0.6,0.5,1.2,1,1.6c0.4,0.5,0.9,0.8,1.5,1.1
				c1.2,0.5,2.7,0.5,3.9,0c0.6-0.3,1.2-0.6,1.7-1.1c0.5-0.5,0.9-1,1.1-1.7c0.3-0.6,0.4-1.3,0.4-2c0-0.7-0.1-1.3-0.4-2
				c-0.3-0.6-0.7-1.2-1.2-1.7c-0.5-0.5-1.1-0.8-1.7-1.1C149,42.9,148.3,42.8,147.6,42.8z"/>
		</g>
		<g>
			<path class="st10" d="M159.4,44.8c0.1-0.3,0.3-0.6,0.6-1c0.3-0.4,0.7-0.8,1.1-1.1c0.5-0.3,1-0.6,1.6-0.9c0.6-0.2,1.3-0.4,2-0.4
				c0.3,0,0.5,0,0.7,0.1c0.2,0,0.4,0.1,0.6,0.1c0.3,0.1,0.5,0.3,0.5,0.6c0,0.2-0.1,0.3-0.2,0.4c-0.1,0.1-0.3,0.1-0.4,0.1
				c-0.2,0-0.4-0.1-0.6-0.2c-0.2-0.1-0.4-0.1-0.7-0.1c-0.7,0-1.4,0.1-2,0.4c-0.6,0.3-1.2,0.7-1.6,1.2c-0.5,0.5-0.9,1.1-1.1,1.8
				c-0.3,0.7-0.4,1.4-0.4,2.1v5.9c0,0.2,0,0.3-0.1,0.4c-0.1,0.1-0.2,0.2-0.4,0.2c-0.2,0-0.3-0.1-0.4-0.2c-0.1-0.1-0.1-0.2-0.1-0.4
				V41.7c0-0.2,0.1-0.3,0.3-0.3c0.3,0,0.5,0.2,0.6,0.5c0.1,0.3,0.2,0.8,0.2,1.5V44.8z"/>
			<path class="st10" d="M158.8,54.9c-0.3,0-0.5-0.1-0.7-0.3c-0.2-0.2-0.3-0.4-0.3-0.7V41.7c0-0.4,0.3-0.7,0.7-0.7
				c0.3,0,0.7,0.1,1,0.7c0.1,0.4,0.2,0.9,0.2,1.6c0.3-0.4,0.7-0.7,1.1-1c0.5-0.4,1.1-0.7,1.7-0.9c0.7-0.3,1.4-0.4,2.2-0.4
				c0.3,0,0.5,0,0.8,0.1c0.3,0.1,0.5,0.1,0.6,0.2c0.5,0.2,0.8,0.5,0.8,1l0,0.1c-0.1,0.3-0.2,0.5-0.4,0.6c-0.2,0.2-0.4,0.2-0.7,0.2
				c-0.3,0-0.5-0.1-0.8-0.2c-0.1-0.1-0.3-0.1-0.5-0.1c-0.6,0-1.3,0.1-1.8,0.4c-0.6,0.3-1.1,0.7-1.5,1.1c-0.4,0.5-0.8,1-1.1,1.6
				c-0.3,0.6-0.4,1.3-0.4,2v5.9c0,0.3-0.1,0.5-0.3,0.7C159.3,54.8,159.1,54.9,158.8,54.9z M158.7,41.8l0,12.1c0,0.1,0,0.1,0,0.1
				c0,0,0,0,0.1,0c0.1,0,0.1,0,0.1,0c0,0,0-0.1,0-0.1V48c0-0.8,0.2-1.6,0.4-2.3c0.3-0.7,0.7-1.4,1.2-1.9c0.5-0.5,1.1-1,1.8-1.3
				c0.7-0.3,1.4-0.5,2.2-0.5c0.3,0,0.6,0.1,0.9,0.2c0.1,0.1,0.3,0.1,0.5,0.1c0.1,0,0.1,0,0.1,0c0,0,0.1-0.1,0.1-0.1
				c0-0.1,0-0.2-0.2-0.2c-0.1,0-0.3-0.1-0.6-0.1c-0.2,0-0.4-0.1-0.7-0.1c-0.7,0-1.3,0.1-1.9,0.3c-0.6,0.2-1.1,0.5-1.5,0.8
				c-0.4,0.3-0.8,0.7-1.1,1c-0.3,0.4-0.4,0.7-0.5,0.9l-0.8-0.1v-1.4c0-0.8-0.1-1.2-0.2-1.3C158.8,41.9,158.7,41.9,158.7,41.8z"/>
		</g>
		<g>
			<path class="st10" d="M173.1,58.8c0.1-0.1,0.2-0.2,0.3-0.3c0.1,0,0.3,0,0.4,0c0.8,0.3,1.7,0.4,2.5,0.3c0.8-0.1,1.5-0.3,2.2-0.7
				c0.6-0.4,1.2-0.9,1.5-1.6c0.4-0.7,0.6-1.5,0.6-2.5V51c-0.2,0.5-0.4,0.9-0.8,1.3c-0.4,0.4-0.8,0.8-1.3,1.1
				c-0.5,0.3-1.1,0.6-1.7,0.8c-0.6,0.2-1.3,0.3-1.9,0.3c-0.9,0-1.7-0.2-2.5-0.5c-0.8-0.3-1.4-0.8-2-1.4c-0.6-0.6-1-1.3-1.3-2.1
				c-0.3-0.8-0.5-1.6-0.5-2.5V42c0-0.4,0.2-0.6,0.6-0.6c0.4,0,0.6,0.2,0.6,0.6v5.9c0,0.8,0.1,1.5,0.4,2.1c0.2,0.7,0.6,1.3,1,1.8
				c0.5,0.5,1,0.9,1.6,1.2c0.6,0.3,1.3,0.4,2.1,0.4c0.8,0,1.5-0.1,2.2-0.4c0.7-0.3,1.3-0.7,1.8-1.2c0.5-0.5,0.9-1.1,1.2-1.8
				c0.3-0.7,0.5-1.4,0.5-2.1c0-0.1,0-0.4,0-0.8c0-0.4,0-1,0-1.8c0-0.8,0-1.9,0-3.4c0-0.4,0.2-0.6,0.6-0.6c0.4,0,0.6,0.2,0.6,0.6
				v11.3v0.1V54c0,1.1-0.2,2-0.6,2.9c-0.4,0.8-1,1.5-1.7,2c-0.7,0.5-1.6,0.8-2.6,1c-1,0.1-2.1,0.1-3.2-0.2c-0.2-0.1-0.4-0.2-0.4-0.4
				C173,59.1,173,58.9,173.1,58.8z"/>
			<path class="st10" d="M175.8,60.3c-0.8,0-1.5-0.1-2.4-0.3c-0.5-0.1-0.6-0.4-0.7-0.6c-0.1-0.3-0.1-0.5,0-0.8
				c0.1-0.2,0.3-0.4,0.6-0.5c0.2-0.1,0.5-0.1,0.7,0c0.8,0.2,1.6,0.3,2.3,0.2c0.8-0.1,1.4-0.3,2-0.7c0.6-0.4,1-0.9,1.4-1.5
				c0.4-0.6,0.5-1.4,0.5-2.3v-1.5c0,0-0.1,0.1-0.1,0.1c-0.4,0.4-0.9,0.8-1.4,1.2c-0.5,0.3-1.1,0.6-1.8,0.8c-0.6,0.2-1.3,0.3-2,0.3
				c-1,0-1.8-0.2-2.7-0.5c-0.8-0.4-1.5-0.9-2.1-1.5c-0.6-0.6-1.1-1.4-1.4-2.2c-0.3-0.8-0.5-1.7-0.5-2.7V42c0-0.6,0.4-1,1-1
				c0.6,0,1,0.4,1,1v5.9c0,0.7,0.1,1.4,0.3,2c0.2,0.6,0.5,1.2,1,1.6c0.4,0.5,0.9,0.8,1.5,1.1c1.2,0.5,2.7,0.5,3.9,0
				c0.6-0.3,1.2-0.6,1.7-1.1c0.5-0.5,0.9-1,1.2-1.6c0.3-0.6,0.4-1.3,0.4-2V42c0-0.6,0.4-1,1-1c0.6,0,1,0.4,1,1v12
				c0,1.1-0.2,2.1-0.7,3c-0.5,0.9-1.1,1.6-1.9,2.2c-0.8,0.5-1.7,0.9-2.8,1.1C176.5,60.3,176.2,60.3,175.8,60.3z M173.6,58.9
				C173.6,58.9,173.6,58.9,173.6,58.9c-0.1,0-0.1,0-0.1,0.1l0,0c0,0,0,0.1,0,0.1c0,0,0.1,0.1,0.2,0.1c1.1,0.3,2.1,0.4,3.1,0.2
				c0.9-0.1,1.8-0.4,2.4-0.9c0.7-0.5,1.2-1.1,1.6-1.9c0.4-0.8,0.6-1.7,0.6-2.7V42c0-0.2,0-0.2-0.2-0.2c-0.1,0-0.2,0-0.2,0.2v5.9
				c0,0.8-0.2,1.6-0.5,2.3c-0.3,0.7-0.8,1.4-1.3,1.9c-0.6,0.5-1.2,1-1.9,1.3c-1.5,0.6-3.2,0.6-4.6,0c-0.7-0.3-1.3-0.7-1.8-1.3
				c-0.5-0.5-0.9-1.2-1.1-1.9c-0.3-0.7-0.4-1.5-0.4-2.3V42c0-0.2,0-0.2-0.2-0.2c-0.1,0-0.2,0-0.2,0.2v5.9c0,0.8,0.1,1.7,0.4,2.4
				c0.3,0.7,0.7,1.4,1.2,2c0.5,0.6,1.1,1,1.9,1.3c0.7,0.3,1.5,0.5,2.3,0.5c0.6,0,1.2-0.1,1.8-0.3c0.6-0.2,1.1-0.4,1.6-0.7
				c0.5-0.3,0.9-0.7,1.2-1c0.3-0.4,0.6-0.8,0.7-1.2l0.8,0.1V54c0,1-0.2,1.9-0.6,2.7c-0.4,0.7-1,1.3-1.7,1.8
				c-0.7,0.4-1.5,0.7-2.4,0.8c-0.9,0.1-1.8,0-2.7-0.3L173.6,58.9C173.7,58.9,173.6,58.9,173.6,58.9z"/>
		</g>
		<g>
			<path class="st10" d="M202.2,40.9c-0.5-0.8-1.1-1.4-1.7-1.7c-0.6-0.4-1.4-0.6-2.3-0.6c-0.5,0-0.9,0.1-1.4,0.2
				c-0.5,0.1-0.9,0.4-1.2,0.6c-0.4,0.3-0.7,0.6-0.9,1c-0.2,0.4-0.4,0.8-0.4,1.3c0,0.5,0.1,0.9,0.4,1.3c0.3,0.4,0.6,0.7,1,0.9
				c0.4,0.3,0.8,0.5,1.3,0.7c0.5,0.2,0.9,0.3,1.3,0.5c0.6,0.2,1.2,0.5,1.9,0.7c0.6,0.3,1.2,0.6,1.7,1c0.5,0.4,1,0.8,1.3,1.4
				c0.3,0.5,0.5,1.1,0.5,1.8c0,0.6-0.1,1.3-0.4,1.8c-0.3,0.6-0.7,1-1.2,1.5c-0.5,0.4-1.1,0.7-1.8,1c-0.7,0.2-1.4,0.4-2.2,0.4
				c-0.6,0-1.3-0.1-1.8-0.2c-0.6-0.2-1.1-0.4-1.5-0.6c-0.5-0.3-0.8-0.6-1.2-0.9c-0.3-0.4-0.6-0.7-0.7-1.1c-0.1-0.2-0.1-0.4-0.1-0.5
				c0-0.1,0.1-0.3,0.2-0.4c0.1-0.1,0.3-0.1,0.4-0.1c0.2,0,0.3,0.1,0.3,0.3c0.1,0.3,0.3,0.6,0.6,0.9c0.3,0.3,0.6,0.6,1,0.8
				c0.4,0.2,0.8,0.4,1.3,0.6c0.5,0.2,1,0.2,1.6,0.2c0.6,0,1.1-0.1,1.6-0.2c0.5-0.2,1-0.4,1.5-0.7c0.4-0.3,0.8-0.7,1-1.1
				c0.3-0.5,0.4-0.9,0.4-1.5c0-0.5-0.2-0.9-0.4-1.3c-0.3-0.4-0.6-0.8-1.1-1.1c-0.4-0.3-0.9-0.6-1.4-0.8c-0.5-0.2-1-0.4-1.5-0.6
				c-0.7-0.2-1.3-0.5-1.9-0.7c-0.6-0.3-1.1-0.6-1.6-0.9c-0.5-0.3-0.8-0.7-1.1-1.2c-0.3-0.5-0.4-1-0.4-1.6c0-0.6,0.1-1.2,0.4-1.7
				c0.3-0.5,0.7-1,1.1-1.3c0.5-0.4,1-0.6,1.6-0.9c0.6-0.2,1.2-0.3,1.8-0.3c0.6,0,1.2,0.1,1.7,0.2c0.5,0.2,0.9,0.4,1.3,0.6
				c0.4,0.3,0.7,0.6,1.1,0.9c0.3,0.3,0.6,0.7,0.8,1.1c0.1,0.1,0.1,0.3,0.1,0.4c0,0.1-0.1,0.2-0.3,0.3c-0.1,0.1-0.3,0.1-0.4,0.1
				C202.4,41.1,202.3,41,202.2,40.9z"/>
			<path class="st10" d="M198.1,54.9c-0.7,0-1.3-0.1-1.9-0.2c-0.6-0.2-1.1-0.4-1.6-0.7c-0.5-0.3-0.9-0.6-1.3-1
				c-0.3-0.4-0.6-0.8-0.8-1.2c-0.1-0.2-0.2-0.5-0.2-0.6c0-0.3,0.1-0.5,0.4-0.7c0.2-0.1,0.5-0.2,0.7-0.1c0.3,0.1,0.5,0.3,0.6,0.5
				c0.1,0.3,0.3,0.5,0.5,0.8c0.2,0.3,0.5,0.5,0.9,0.7c0.3,0.2,0.8,0.4,1.2,0.5c0.9,0.3,2,0.3,3,0c0.5-0.1,0.9-0.4,1.3-0.6
				c0.4-0.3,0.7-0.6,0.9-1c0.2-0.4,0.3-0.8,0.3-1.3c0-0.4-0.1-0.8-0.4-1.1c-0.3-0.4-0.6-0.7-1-1c-0.4-0.3-0.8-0.6-1.3-0.8
				c-0.5-0.2-1-0.4-1.4-0.5c-0.7-0.2-1.4-0.5-2-0.7c-0.6-0.3-1.2-0.6-1.7-1c-0.5-0.4-0.9-0.8-1.2-1.3c-0.3-0.5-0.4-1.1-0.4-1.8
				c0-0.7,0.2-1.3,0.5-1.9c0.3-0.6,0.7-1,1.2-1.4c0.5-0.4,1.1-0.7,1.7-0.9c1.3-0.4,2.7-0.4,3.8-0.1c0.5,0.2,1,0.4,1.4,0.7
				c0.4,0.3,0.8,0.6,1.1,1c0.3,0.4,0.6,0.7,0.9,1.1c0.2,0.2,0.2,0.5,0.1,0.7c-0.1,0.2-0.2,0.4-0.4,0.5c-0.3,0.2-0.6,0.2-0.7,0.1
				c-0.2-0.1-0.4-0.2-0.5-0.4l0,0c-0.5-0.7-1-1.3-1.6-1.6c-0.5-0.3-1.2-0.5-2.1-0.5c-0.4,0-0.8,0.1-1.3,0.2
				c-0.4,0.1-0.8,0.3-1.1,0.6c-0.3,0.2-0.6,0.5-0.8,0.9c-0.2,0.3-0.3,0.7-0.3,1.1c0,0.4,0.1,0.7,0.3,1c0.2,0.3,0.5,0.6,0.9,0.8
				c0.4,0.3,0.8,0.5,1.2,0.6c0.4,0.2,0.9,0.3,1.2,0.5c0.6,0.2,1.3,0.5,1.9,0.8c0.7,0.3,1.3,0.6,1.8,1c0.6,0.4,1,0.9,1.4,1.5
				c0.4,0.6,0.6,1.3,0.6,2c0,0.7-0.1,1.4-0.4,2c-0.3,0.6-0.7,1.1-1.3,1.6c-0.5,0.4-1.2,0.8-1.9,1C199.7,54.7,198.9,54.9,198.1,54.9z
				 M193.2,51C193.2,51,193.1,51,193.2,51L193.2,51c-0.1,0.1-0.1,0.2,0,0.4c0.1,0.3,0.4,0.7,0.7,1c0.3,0.3,0.6,0.6,1.1,0.9
				c0.4,0.3,0.9,0.5,1.4,0.6c0.5,0.1,1.1,0.2,1.7,0.2c0.8,0,1.5-0.1,2.1-0.3c0.6-0.2,1.2-0.5,1.7-0.9c0.5-0.4,0.8-0.8,1.1-1.3
				c0.2-0.5,0.4-1,0.3-1.6c0-0.6-0.2-1.1-0.5-1.6c-0.3-0.5-0.7-0.9-1.2-1.3c-0.5-0.4-1.1-0.7-1.7-1c-0.6-0.3-1.2-0.5-1.8-0.7
				c-0.4-0.1-0.8-0.3-1.3-0.5c-0.5-0.2-0.9-0.4-1.3-0.7c-0.4-0.3-0.8-0.6-1.1-1c-0.3-0.4-0.5-0.9-0.5-1.5c0-0.5,0.1-1,0.4-1.5
				c0.3-0.4,0.6-0.8,1-1.1c0.4-0.3,0.8-0.5,1.3-0.7c0.5-0.2,1-0.2,1.5-0.2c1,0,1.8,0.2,2.5,0.6c0.6,0.4,1.3,1,1.8,1.9
				c0.1,0.1,0.1,0.1,0.1,0.1c0.1-0.1,0.1-0.1,0.2-0.2c-0.3-0.4-0.5-0.7-0.8-1.1c-0.3-0.3-0.6-0.6-1-0.8c-0.4-0.2-0.8-0.4-1.2-0.6
				c-0.9-0.3-2.1-0.3-3.2,0.1c-0.6,0.2-1,0.5-1.5,0.8c-0.4,0.3-0.8,0.7-1,1.2c-0.3,0.5-0.4,1-0.4,1.5c0,0.5,0.1,1,0.3,1.4
				c0.2,0.4,0.6,0.8,1,1.1c0.4,0.3,0.9,0.6,1.5,0.9c0.6,0.3,1.2,0.5,1.9,0.7c0.5,0.1,1,0.3,1.5,0.6c0.5,0.2,1,0.5,1.5,0.9
				c0.5,0.3,0.8,0.7,1.1,1.2c0.3,0.5,0.5,1,0.5,1.5c0,0.6-0.1,1.2-0.4,1.7c-0.3,0.5-0.7,0.9-1.2,1.3c-0.5,0.3-1,0.6-1.6,0.8
				c-1.2,0.4-2.4,0.3-3.5,0c-0.5-0.2-1-0.4-1.4-0.6c-0.4-0.3-0.8-0.5-1-0.9C193.6,51.8,193.4,51.4,193.2,51
				C193.2,51,193.2,51,193.2,51z"/>
		</g>
		<g>
			<path class="st10" d="M216.9,43.8c-0.5-0.4-1-0.8-1.6-1c-0.6-0.2-1.3-0.4-2-0.4c-0.8,0-1.5,0.1-2.1,0.4c-0.7,0.3-1.2,0.7-1.7,1.2
				c-0.5,0.5-0.9,1.1-1.1,1.8c-0.3,0.7-0.4,1.4-0.4,2.1c0,0.8,0.1,1.5,0.4,2.1c0.3,0.7,0.7,1.3,1.1,1.8c0.5,0.5,1.1,0.9,1.7,1.2
				c0.7,0.3,1.4,0.4,2.1,0.4c0.7,0,1.3-0.1,2-0.4c0.6-0.2,1.2-0.6,1.7-1.1c0.1-0.1,0.2-0.2,0.4-0.2c0.1,0,0.3,0.1,0.4,0.2
				c0.1,0.1,0.2,0.3,0.2,0.4c0,0.2-0.1,0.3-0.2,0.4c-0.2,0.2-0.5,0.4-0.8,0.6c-0.3,0.2-0.6,0.4-1,0.5c-0.4,0.2-0.8,0.3-1.2,0.4
				c-0.5,0.1-0.9,0.1-1.5,0.1c-0.9,0-1.7-0.2-2.5-0.5c-0.8-0.3-1.5-0.8-2.1-1.4c-0.6-0.6-1.1-1.3-1.4-2.1c-0.3-0.8-0.5-1.6-0.5-2.5
				s0.2-1.7,0.5-2.5c0.3-0.8,0.8-1.5,1.4-2.1c0.6-0.6,1.3-1.1,2.1-1.4c0.8-0.3,1.6-0.5,2.5-0.5c0.8,0,1.5,0.1,2.4,0.4
				c0.8,0.2,1.5,0.6,2.1,1.2c0.1,0.1,0.2,0.3,0.2,0.4c0,0.2-0.1,0.3-0.2,0.4c-0.1,0.1-0.3,0.2-0.4,0.2
				C217.1,43.9,217,43.9,216.9,43.8z"/>
			<path class="st10" d="M213.3,54.9c-1,0-1.9-0.2-2.7-0.5c-0.8-0.4-1.6-0.9-2.2-1.5c-0.6-0.6-1.1-1.4-1.5-2.2
				c-0.4-0.8-0.5-1.7-0.5-2.7c0-1,0.2-1.9,0.5-2.7c0.4-0.8,0.9-1.6,1.5-2.2c0.6-0.6,1.4-1.1,2.2-1.5c1.5-0.7,3.3-0.7,5.2-0.2
				c0.9,0.3,1.6,0.7,2.2,1.3l0,0c0.2,0.2,0.2,0.4,0.2,0.6c0,0.3-0.1,0.5-0.3,0.7l0,0c-0.5,0.4-1,0.3-1.3,0c-0.4-0.4-0.9-0.7-1.5-0.9
				c-1.2-0.5-2.6-0.4-3.8,0.1c-0.6,0.3-1.1,0.6-1.6,1.1c-0.4,0.5-0.8,1-1.1,1.6c-0.3,0.6-0.4,1.3-0.4,2c0,0.7,0.1,1.4,0.4,2
				c0.3,0.6,0.6,1.2,1.1,1.6c0.4,0.5,1,0.8,1.6,1.1c1.1,0.5,2.5,0.5,3.8,0.1c0.6-0.2,1.1-0.6,1.5-1c0.3-0.3,0.8-0.4,1.3,0l0.1,0.1
				c0.2,0.2,0.2,0.4,0.2,0.6c0,0.3-0.1,0.5-0.3,0.7c-0.3,0.2-0.5,0.4-0.8,0.6c-0.3,0.2-0.7,0.4-1.1,0.6c-0.4,0.2-0.8,0.3-1.3,0.4
				C214.4,54.8,213.9,54.9,213.3,54.9z M213.3,41.8c-0.8,0-1.6,0.2-2.4,0.5c-0.7,0.3-1.4,0.8-2,1.3c-0.6,0.6-1,1.2-1.3,2
				c-0.3,0.7-0.5,1.5-0.5,2.4s0.2,1.6,0.5,2.4c0.3,0.7,0.8,1.4,1.3,2c0.6,0.6,1.2,1,2,1.3c0.7,0.3,1.5,0.5,2.4,0.5
				c0.5,0,1,0,1.4-0.1c0.4-0.1,0.8-0.2,1.2-0.4c0.4-0.2,0.7-0.3,0.9-0.5c0.3-0.2,0.5-0.4,0.7-0.5c0,0,0,0,0-0.1c0,0,0,0,0-0.1
				c-0.1,0-0.1,0-0.1,0c-0.1,0-0.1,0-0.1,0c-0.5,0.5-1.1,0.9-1.8,1.2c-1.5,0.6-3.1,0.5-4.4-0.1c-0.7-0.3-1.3-0.7-1.8-1.3
				c-0.5-0.5-0.9-1.2-1.2-1.9c-0.3-0.7-0.4-1.5-0.4-2.3s0.2-1.6,0.4-2.3c0.3-0.7,0.7-1.4,1.2-1.9c0.5-0.5,1.1-1,1.8-1.3
				c1.3-0.6,3-0.6,4.4-0.1c0.7,0.3,1.3,0.6,1.8,1.1l0,0c0,0,0.1,0,0.1,0c0,0,0.1,0,0.1-0.1c0,0,0-0.1,0-0.1c0,0,0-0.1-0.1-0.1
				c-0.5-0.5-1.1-0.9-1.9-1.1C214.8,41.9,214,41.8,213.3,41.8z"/>
		</g>
		<g>
			<path class="st10" d="M233.5,47.9c0-0.8-0.1-1.5-0.4-2.1c-0.3-0.7-0.6-1.3-1.1-1.8c-0.5-0.5-1-0.9-1.6-1.2
				c-0.6-0.3-1.3-0.4-2.1-0.4c-0.7,0-1.5,0.2-2.1,0.5c-0.7,0.3-1.3,0.7-1.8,1.2c-0.5,0.5-1,1.1-1.3,1.8c-0.3,0.7-0.5,1.4-0.5,2.1
				v5.9c0,0.2,0,0.3-0.1,0.4c-0.1,0.1-0.2,0.2-0.4,0.2c-0.2,0-0.3-0.1-0.4-0.2c-0.1-0.1-0.1-0.2-0.1-0.4V37.8c0-0.1,0.1-0.3,0.2-0.4
				s0.2-0.2,0.4-0.2c0.1,0,0.3,0.1,0.4,0.2c0.1,0.1,0.2,0.2,0.2,0.4v7.1c0.1-0.3,0.4-0.7,0.7-1.1c0.3-0.4,0.8-0.8,1.3-1.1
				c0.5-0.4,1.1-0.6,1.7-0.9c0.6-0.2,1.3-0.4,2.1-0.4c0.9,0,1.7,0.2,2.5,0.5c0.8,0.3,1.4,0.8,2,1.4c0.6,0.6,1,1.3,1.3,2.1
				c0.3,0.8,0.5,1.6,0.5,2.5v6c0,0.2,0,0.3-0.1,0.4c-0.1,0.1-0.2,0.2-0.4,0.2c-0.2,0-0.3-0.1-0.4-0.2c-0.1-0.1-0.1-0.2-0.1-0.4V47.9
				z"/>
			<path class="st10" d="M234,54.9c-0.3,0-0.5-0.1-0.7-0.3c-0.2-0.2-0.3-0.4-0.3-0.7v-5.9c0-0.7-0.1-1.4-0.4-2
				c-0.2-0.6-0.6-1.2-1-1.6c-0.4-0.5-0.9-0.8-1.5-1.1c-1.2-0.5-2.6-0.5-3.9,0c-0.6,0.3-1.2,0.7-1.7,1.2c-0.5,0.5-0.9,1-1.2,1.7
				c-0.3,0.6-0.4,1.3-0.4,2v5.9c0,0.3-0.1,0.5-0.3,0.7c-0.4,0.4-1,0.4-1.4,0c-0.2-0.2-0.3-0.4-0.3-0.7V37.8c0-0.2,0.1-0.5,0.3-0.7
				c0.4-0.4,1-0.4,1.3,0c0.2,0.2,0.3,0.4,0.3,0.7v5.7c0.4-0.4,0.8-0.8,1.3-1.2c0.5-0.4,1.1-0.7,1.8-0.9c0.7-0.2,1.4-0.4,2.2-0.4
				c1,0,1.8,0.2,2.7,0.5c0.8,0.4,1.5,0.9,2.1,1.5c0.6,0.6,1.1,1.4,1.4,2.2c0.3,0.8,0.5,1.7,0.5,2.7v6c0,0.3-0.1,0.5-0.3,0.7
				C234.5,54.8,234.3,54.9,234,54.9z M228.3,42c0.8,0,1.6,0.2,2.3,0.5c0.7,0.3,1.3,0.7,1.8,1.3c0.5,0.5,0.9,1.2,1.1,1.9
				c0.3,0.7,0.4,1.5,0.4,2.3v5.9c0,0.1,0,0.1,0,0.1c0,0,0,0,0.1,0c0.1,0,0.1,0,0.1,0c0,0,0-0.1,0-0.1v-6c0-0.8-0.1-1.7-0.4-2.4
				c-0.3-0.7-0.7-1.4-1.2-1.9c-0.5-0.5-1.1-1-1.9-1.3c-0.7-0.3-1.5-0.5-2.3-0.5c-0.7,0-1.3,0.1-1.9,0.3c-0.6,0.2-1.2,0.5-1.6,0.8
				c-0.5,0.3-0.9,0.7-1.2,1.1c-0.3,0.4-0.5,0.7-0.6,1l-0.8-0.1v-7.1c0,0,0-0.1,0-0.1c-0.1-0.1-0.1-0.1-0.2,0c0,0,0,0.1,0,0.1v16.1
				c0,0.1,0,0.1,0,0.1c0,0,0,0,0.1,0c0.1,0,0.1,0,0.1,0c0,0,0-0.1,0-0.1V48c0-0.8,0.2-1.6,0.5-2.3c0.3-0.7,0.8-1.4,1.4-1.9
				c0.6-0.5,1.2-1,2-1.3C226.7,42.2,227.5,42,228.3,42z"/>
		</g>
		<g>
			<path class="st10" d="M237.7,47.9c0-0.9,0.2-1.7,0.5-2.5c0.3-0.8,0.8-1.5,1.4-2.1c0.6-0.6,1.3-1.1,2.1-1.4
				c0.8-0.3,1.6-0.5,2.5-0.5s1.7,0.2,2.5,0.5c0.8,0.3,1.5,0.8,2.1,1.4c0.6,0.6,1.1,1.3,1.4,2.1s0.5,1.6,0.5,2.5
				c0,0.9-0.2,1.7-0.5,2.5c-0.3,0.8-0.8,1.5-1.4,2.1c-0.6,0.6-1.3,1.1-2.1,1.4c-0.8,0.3-1.6,0.5-2.5,0.5s-1.7-0.2-2.5-0.5
				c-0.8-0.3-1.5-0.8-2.1-1.4c-0.6-0.6-1.1-1.3-1.4-2.1C237.9,49.7,237.7,48.8,237.7,47.9z M238.9,47.9c0,0.8,0.1,1.5,0.4,2.1
				c0.3,0.7,0.7,1.3,1.1,1.8c0.5,0.5,1.1,0.9,1.7,1.2c0.7,0.3,1.4,0.4,2.1,0.4c0.8,0,1.5-0.1,2.1-0.4c0.7-0.3,1.2-0.7,1.7-1.2
				c0.5-0.5,0.9-1.1,1.1-1.8c0.3-0.7,0.4-1.4,0.4-2.1c0-0.8-0.1-1.5-0.4-2.1c-0.3-0.7-0.7-1.3-1.1-1.8c-0.5-0.5-1.1-0.9-1.7-1.2
				c-0.7-0.3-1.4-0.4-2.1-0.4c-0.8,0-1.5,0.1-2.1,0.4c-0.7,0.3-1.2,0.7-1.7,1.2c-0.5,0.5-0.9,1.1-1.1,1.8
				C239,46.4,238.9,47.2,238.9,47.9z"/>
			<path class="st10" d="M244.3,54.9c-1,0-1.9-0.2-2.7-0.5c-0.8-0.4-1.6-0.9-2.2-1.5c-0.6-0.6-1.1-1.4-1.5-2.2
				c-0.4-0.8-0.5-1.7-0.5-2.7c0-1,0.2-1.9,0.5-2.7c0.4-0.8,0.9-1.6,1.5-2.2c0.6-0.6,1.4-1.1,2.2-1.5c1.7-0.7,3.7-0.7,5.4,0
				c0.8,0.4,1.6,0.9,2.2,1.5c0.6,0.6,1.1,1.4,1.5,2.2c0.4,0.8,0.5,1.7,0.5,2.7s-0.2,1.9-0.5,2.7c-0.4,0.8-0.9,1.6-1.5,2.2
				c-0.6,0.6-1.4,1.1-2.2,1.5C246.1,54.7,245.2,54.9,244.3,54.9z M244.3,41.8c-0.8,0-1.6,0.2-2.4,0.5c-0.7,0.3-1.4,0.8-2,1.3
				c-0.6,0.6-1,1.2-1.3,2c-0.3,0.7-0.5,1.5-0.5,2.4c0,0.8,0.2,1.6,0.5,2.4c0.3,0.7,0.8,1.4,1.3,2c0.6,0.6,1.2,1,2,1.3
				c1.5,0.6,3.3,0.6,4.8,0c0.7-0.3,1.4-0.8,2-1.3c0.6-0.6,1-1.2,1.3-2c0.3-0.7,0.5-1.5,0.5-2.4s-0.2-1.6-0.5-2.4
				c-0.3-0.7-0.8-1.4-1.3-2c-0.6-0.6-1.2-1-2-1.3C245.9,41.9,245.1,41.8,244.3,41.8z M244.3,53.9c-0.8,0-1.6-0.2-2.3-0.5
				c-0.7-0.3-1.3-0.7-1.8-1.3c-0.5-0.5-0.9-1.2-1.2-1.9c-0.3-0.7-0.4-1.5-0.4-2.3c0-0.8,0.2-1.6,0.4-2.3c0.3-0.7,0.7-1.4,1.2-1.9
				c0.5-0.5,1.1-1,1.8-1.3c1.4-0.6,3.2-0.6,4.6,0c0.7,0.3,1.3,0.7,1.8,1.3c0.5,0.5,0.9,1.2,1.2,1.9c0.3,0.7,0.4,1.5,0.4,2.3
				c0,0.8-0.2,1.6-0.4,2.3c-0.3,0.7-0.7,1.4-1.2,1.9c-0.5,0.5-1.1,1-1.8,1.3C245.8,53.7,245.1,53.9,244.3,53.9z M244.3,42.8
				c-0.7,0-1.4,0.1-2,0.4c-0.6,0.3-1.1,0.6-1.6,1.1c-0.4,0.5-0.8,1-1.1,1.6c-0.3,0.6-0.4,1.3-0.4,2c0,0.7,0.1,1.4,0.4,2
				c0.3,0.6,0.6,1.2,1.1,1.6c0.4,0.5,1,0.8,1.6,1.1c1.2,0.5,2.7,0.5,3.9,0c0.6-0.3,1.1-0.6,1.6-1.1c0.4-0.5,0.8-1,1.1-1.6
				c0.3-0.6,0.4-1.3,0.4-2c0-0.7-0.1-1.4-0.4-2c-0.3-0.6-0.6-1.2-1.1-1.6c-0.4-0.5-1-0.8-1.6-1.1C245.6,42.9,245,42.8,244.3,42.8z"
				/>
		</g>
		<g>
			<path class="st10" d="M253.3,47.9c0-0.9,0.2-1.7,0.5-2.5c0.3-0.8,0.8-1.5,1.4-2.1c0.6-0.6,1.3-1.1,2.1-1.4
				c0.8-0.3,1.6-0.5,2.5-0.5c0.9,0,1.7,0.2,2.5,0.5c0.8,0.3,1.5,0.8,2.1,1.4c0.6,0.6,1.1,1.3,1.4,2.1s0.5,1.6,0.5,2.5
				c0,0.9-0.2,1.7-0.5,2.5c-0.3,0.8-0.8,1.5-1.4,2.1c-0.6,0.6-1.3,1.1-2.1,1.4c-0.8,0.3-1.6,0.5-2.5,0.5c-0.9,0-1.7-0.2-2.5-0.5
				c-0.8-0.3-1.5-0.8-2.1-1.4c-0.6-0.6-1.1-1.3-1.4-2.1C253.5,49.7,253.3,48.8,253.3,47.9z M254.5,47.9c0,0.8,0.1,1.5,0.4,2.1
				c0.3,0.7,0.7,1.3,1.1,1.8c0.5,0.5,1.1,0.9,1.7,1.2c0.7,0.3,1.4,0.4,2.1,0.4c0.8,0,1.5-0.1,2.1-0.4c0.7-0.3,1.2-0.7,1.7-1.2
				c0.5-0.5,0.9-1.1,1.1-1.8c0.3-0.7,0.4-1.4,0.4-2.1c0-0.8-0.1-1.5-0.4-2.1c-0.3-0.7-0.7-1.3-1.1-1.8c-0.5-0.5-1.1-0.9-1.7-1.2
				c-0.7-0.3-1.4-0.4-2.1-0.4c-0.8,0-1.5,0.1-2.1,0.4c-0.7,0.3-1.2,0.7-1.7,1.2c-0.5,0.5-0.9,1.1-1.1,1.8
				C254.6,46.4,254.5,47.2,254.5,47.9z"/>
			<path class="st10" d="M259.9,54.9c-1,0-1.9-0.2-2.7-0.5c-0.8-0.4-1.6-0.9-2.2-1.5c-0.6-0.6-1.1-1.4-1.5-2.2
				c-0.4-0.8-0.5-1.7-0.5-2.7c0-1,0.2-1.9,0.5-2.7c0.4-0.8,0.9-1.6,1.5-2.2c0.6-0.6,1.4-1.1,2.2-1.5c1.7-0.7,3.7-0.7,5.4,0
				c0.8,0.4,1.6,0.9,2.2,1.5c0.6,0.6,1.1,1.4,1.5,2.2c0.4,0.8,0.5,1.7,0.5,2.7s-0.2,1.9-0.5,2.7c-0.4,0.8-0.9,1.6-1.5,2.2
				c-0.6,0.6-1.4,1.1-2.2,1.5C261.7,54.7,260.8,54.9,259.9,54.9z M259.9,41.8c-0.8,0-1.6,0.2-2.4,0.5c-0.7,0.3-1.4,0.8-2,1.3
				c-0.6,0.6-1,1.2-1.3,2c-0.3,0.7-0.5,1.5-0.5,2.4c0,0.8,0.2,1.6,0.5,2.4c0.3,0.7,0.8,1.4,1.3,2c0.6,0.6,1.2,1,2,1.3
				c1.5,0.6,3.3,0.6,4.8,0c0.7-0.3,1.4-0.8,2-1.3c0.6-0.6,1-1.2,1.3-2c0.3-0.7,0.5-1.5,0.5-2.4s-0.2-1.6-0.5-2.4
				c-0.3-0.7-0.8-1.4-1.3-2c-0.6-0.6-1.2-1-2-1.3C261.5,41.9,260.7,41.8,259.9,41.8z M259.9,53.9c-0.8,0-1.6-0.2-2.3-0.5
				c-0.7-0.3-1.3-0.7-1.8-1.3c-0.5-0.5-0.9-1.2-1.2-1.9c-0.3-0.7-0.4-1.5-0.4-2.3c0-0.8,0.2-1.6,0.4-2.3c0.3-0.7,0.7-1.4,1.2-1.9
				c0.5-0.5,1.1-1,1.8-1.3c1.4-0.6,3.2-0.6,4.6,0c0.7,0.3,1.3,0.7,1.8,1.3c0.5,0.5,0.9,1.2,1.2,1.9c0.3,0.7,0.4,1.5,0.4,2.3
				c0,0.8-0.2,1.6-0.4,2.3c-0.3,0.7-0.7,1.4-1.2,1.9c-0.5,0.5-1.1,1-1.8,1.3C261.5,53.7,260.7,53.9,259.9,53.9z M259.9,42.8
				c-0.7,0-1.4,0.1-2,0.4c-0.6,0.3-1.1,0.6-1.6,1.1c-0.4,0.5-0.8,1-1.1,1.6c-0.3,0.6-0.4,1.3-0.4,2c0,0.7,0.1,1.4,0.4,2
				c0.3,0.6,0.6,1.2,1.1,1.6c0.4,0.5,1,0.8,1.6,1.1c1.2,0.5,2.7,0.5,3.9,0c0.6-0.3,1.1-0.6,1.6-1.1c0.4-0.5,0.8-1,1.1-1.6
				c0.3-0.6,0.4-1.3,0.4-2c0-0.7-0.1-1.4-0.4-2c-0.3-0.6-0.6-1.2-1.1-1.6c-0.4-0.5-1-0.8-1.6-1.1C261.2,42.9,260.6,42.8,259.9,42.8z
				"/>
		</g>
		<g>
			<path class="st10" d="M269.9,37.4c0.1,0,0.3,0.1,0.4,0.2c0.1,0.1,0.2,0.2,0.2,0.4v15.9c0,0.1-0.1,0.3-0.2,0.4
				c-0.1,0.1-0.2,0.2-0.4,0.2c-0.1,0-0.3-0.1-0.4-0.2c-0.1-0.1-0.2-0.2-0.2-0.4V38c0-0.1,0.1-0.3,0.2-0.4S269.7,37.4,269.9,37.4z"/>
			<path class="st10" d="M269.9,54.9c-0.2,0-0.5-0.1-0.7-0.3c-0.2-0.2-0.3-0.4-0.3-0.7V38c0-0.2,0.1-0.5,0.3-0.7
				c0.4-0.4,1-0.4,1.3,0c0.2,0.2,0.3,0.4,0.3,0.7v15.9c0,0.2-0.1,0.5-0.3,0.7C270.3,54.8,270.1,54.9,269.9,54.9z M269.9,37.8
				C269.8,37.8,269.8,37.8,269.9,37.8c-0.1,0.1-0.1,0.1-0.1,0.1v15.9c0,0,0,0.1,0,0.1c0.1,0.1,0.1,0.1,0.2,0c0,0,0-0.1,0-0.1V38
				C270,37.9,270,37.9,269.9,37.8C269.9,37.8,269.9,37.8,269.9,37.8z"/>
		</g>
	</g>
	<g>
		<path class="st11" d="M89.9,6h3.5v10.7h13.3V6h3.5v25.8h-3.5V19.7H93.4v12.1h-3.5V6z"/>
		<path class="st11" d="M123.3,6h4l9.4,25.8h-3.8l-2.6-7.7H120l-2.8,7.7h-3.6L123.3,6z M129.1,21.2l-3.9-11.4L121,21.2H129.1z"/>
		<path class="st11" d="M140.3,6H152c1.9,0,3.5,0.3,4.8,0.9c2.4,1.1,3.6,3.1,3.6,6.1c0,1.5-0.3,2.8-1,3.8c-0.6,1-1.5,1.8-2.7,2.4
			c1,0.4,1.8,1,2.3,1.6c0.5,0.7,0.8,1.8,0.9,3.3l0.1,3.5c0,1,0.1,1.7,0.2,2.2c0.2,0.8,0.6,1.3,1.1,1.6v0.6h-4.3
			c-0.1-0.2-0.2-0.5-0.3-0.9c-0.1-0.4-0.1-1-0.2-2l-0.2-4.3c-0.1-1.7-0.7-2.8-1.8-3.4c-0.6-0.3-1.7-0.5-3.1-0.5h-7.7v11.1h-3.5V6z
			 M151.6,17.8c1.6,0,2.9-0.3,3.8-1c0.9-0.7,1.4-1.8,1.4-3.6c0-1.8-0.6-3.1-2-3.8c-0.7-0.4-1.6-0.5-2.8-0.5h-8.3v8.8H151.6z"/>
		<path class="st11" d="M165.8,6h5l7.4,21.9L185.6,6h5v25.8h-3.3V16.6c0-0.5,0-1.4,0-2.6c0-1.2,0-2.5,0-3.9l-7.4,21.8h-3.5L169,10
			v0.8c0,0.6,0,1.6,0.1,2.9c0,1.3,0.1,2.2,0.1,2.9v15.3h-3.3V6z"/>
		<path class="st11" d="M217.2,9.7c1.7,2.3,2.6,5.2,2.6,8.8c0,3.9-1,7.1-2.9,9.6c-2.3,3-5.6,4.5-9.8,4.5c-4,0-7.1-1.3-9.4-3.9
			c-2-2.5-3-5.7-3-9.6c0-3.5,0.9-6.5,2.6-9c2.2-3.2,5.5-4.8,9.9-4.8C211.6,5.3,215,6.7,217.2,9.7z M214.1,26.1
			c1.4-2.2,2.1-4.8,2.1-7.6c0-3-0.8-5.5-2.4-7.3c-1.6-1.9-3.8-2.8-6.5-2.8c-2.7,0-4.9,0.9-6.5,2.8c-1.7,1.8-2.5,4.5-2.5,8.1
			c0,2.9,0.7,5.3,2.2,7.2c1.4,2,3.8,2.9,7,2.9C210.5,29.5,212.7,28.4,214.1,26.1z"/>
		<path class="st11" d="M223.9,6h4.1l12.9,20.9V6h3.3v25.8h-3.9L227.3,11v20.9h-3.3V6z"/>
		<path class="st11" d="M247.9,6h4.1l7.4,12.4L266.9,6h4.1l-9.8,15.4v10.4h-3.5V21.4L247.9,6z"/>
	</g>
</g>
</svg>
