<?xml version="1.0" encoding="utf-8"?>
<!-- Generator: Adobe Illustrator 15.1.0, SVG Export Plug-In . SVG Version: 6.00 Build 0)  -->
<!DOCTYPE svg PUBLIC "-//W3C//DTD SVG 1.1//EN" "http://www.w3.org/Graphics/SVG/1.1/DTD/svg11.dtd">
<svg version="1.1" id="Layer_1" xmlns="http://www.w3.org/2000/svg" xmlns:xlink="http://www.w3.org/1999/xlink" x="0px" y="0px"
	 width="226px" height="64px" viewBox="0 0 226 64" enable-background="new 0 0 226 64" xml:space="preserve">
<g>
	<path fill="#2FA9E0" d="M26.371,13.766c-0.346-0.203-0.7-0.408-1.062-0.615c-0.36-0.205-0.726-0.413-1.099-0.622
		c-0.369-0.207-0.745-0.415-1.125-0.624l-0.005-0.004c-0.002,0-0.004-0.002-0.006-0.003c-0.002,0-0.004-0.002-0.006-0.002
		c-0.002-0.002-0.004-0.004-0.006-0.005c-0.072-0.039-0.127-0.081-0.167-0.124c-0.04-0.043-0.067-0.088-0.079-0.134
		c-0.013-0.046-0.013-0.093-0.001-0.14c0.012-0.047,0.035-0.095,0.067-0.144c0,0,0,0,0-0.001l0-0.002c0.001,0,0.002,0,0.002,0
		c0,0,0,0,0,0c0.005-0.008,0.012-0.018,0.018-0.025c0.006-0.008,0.012-0.016,0.019-0.025c0.007-0.007,0.013-0.015,0.021-0.024
		c0.007-0.009,0.014-0.018,0.022-0.025c0.098-0.104,0.236-0.209,0.397-0.311c0.161-0.101,0.344-0.199,0.535-0.289
		c0.19-0.089,0.387-0.172,0.574-0.242c0.188-0.071,0.365-0.129,0.518-0.174c0.009-0.002,0.019-0.004,0.027-0.007
		c0.009-0.002,0.017-0.004,0.026-0.007c0.009-0.002,0.017-0.005,0.026-0.007c0.009-0.003,0.017-0.004,0.025-0.006
		c0.001,0,0.003-0.001,0.005-0.001c0-0.001,0.002-0.001,0.004-0.001c0.002,0,0.003-0.001,0.005-0.001
		c0.001-0.001,0.002-0.002,0.004-0.002c0.006-0.001,0.012-0.003,0.018-0.004c0.006-0.001,0.012-0.003,0.019-0.004
		c0.005-0.002,0.011-0.003,0.017-0.004c0.005-0.001,0.012-0.001,0.017-0.003l0.01-0.003c0.002-0.001,0.005-0.002,0.009-0.002
		l0.01-0.001c0.003-0.001,0.005-0.001,0.009-0.002c0.002-0.001,0.005-0.001,0.007-0.001c0.002,0,0.005-0.001,0.006-0.001
		c0.002-0.001,0.004-0.001,0.007-0.001c0.002-0.001,0.003-0.001,0.006-0.001c0.004-0.001,0.009-0.002,0.014-0.004
		c0.004,0,0.01-0.002,0.013-0.003c0.006-0.002,0.01-0.003,0.015-0.004c0.005-0.002,0.009-0.002,0.014-0.005
		c-0.151,0.031-0.302,0.065-0.452,0.103c-0.149,0.038-0.297,0.078-0.444,0.123c-0.146,0.046-0.29,0.093-0.432,0.144
		c-0.142,0.052-0.282,0.106-0.417,0.164c-0.089,0.032-0.202,0.08-0.325,0.138c-0.123,0.059-0.257,0.129-0.387,0.206
		c-0.13,0.077-0.255,0.159-0.364,0.243c-0.108,0.085-0.197,0.17-0.254,0.253c-0.011,0.015-0.021,0.031-0.029,0.045
		s-0.015,0.03-0.021,0.045c-0.006,0.015-0.011,0.029-0.013,0.043c-0.003,0.015-0.004,0.029-0.004,0.042
		c-0.011,0.416-0.022,0.842-0.041,1.269c-0.017,0.434-0.039,0.868-0.068,1.294c-0.029,0.431-0.065,0.855-0.11,1.259
		c-0.045,0.408-0.1,0.796-0.166,1.154c-0.02,0.085-0.042,0.17-0.063,0.253c-0.023,0.084-0.046,0.167-0.068,0.25
		c-0.023,0.082-0.047,0.165-0.069,0.247c-0.022,0.083-0.045,0.164-0.066,0.247L21.5,17.696l-0.083,0.188
		c-0.016,0.036-0.034,0.071-0.051,0.105c-0.018,0.034-0.036,0.068-0.056,0.101c-0.018,0.034-0.038,0.068-0.058,0.101
		c-0.02,0.033-0.04,0.066-0.06,0.098l-0.008,0.012l-0.076,0.102c-0.01,0.013-0.022,0.031-0.038,0.049
		c-0.015,0.02-0.033,0.042-0.052,0.065c-0.019,0.023-0.038,0.045-0.055,0.066s-0.034,0.042-0.046,0.057l-0.158,0.135l-0.073,0.046
		c-0.008,0.006-0.018,0.011-0.029,0.017c-0.009,0.006-0.021,0.013-0.033,0.019c-0.012,0.008-0.024,0.015-0.036,0.021
		c-0.014,0.007-0.026,0.015-0.039,0.021l-0.29,0.124l-0.062,0.024l-0.059,0.02c-0.046,0.018-0.094,0.036-0.142,0.052
		c-0.049,0.019-0.098,0.034-0.147,0.052c-0.049,0.017-0.1,0.033-0.151,0.05c-0.05,0.017-0.101,0.033-0.153,0.05l-0.097,0.029
		l-0.143,0.037c-0.057,0.014-0.116,0.028-0.174,0.042c-0.059,0.014-0.12,0.027-0.18,0.041c-0.061,0.013-0.122,0.027-0.183,0.04
		c-0.062,0.014-0.125,0.027-0.187,0.042l-0.749,0.179l-0.077,0.017l-0.361,0.069c-0.599,0.116-1.209,0.232-1.834,0.35
		c-0.162,0.03-0.324,0.06-0.487,0.09c-0.47,0.088-0.949,0.175-1.438,0.264c-0.66,0.121-1.34,0.241-2.044,0.363
		c-0.703,0.124-1.431,0.248-2.188,0.376c-0.26,0.042-0.514,0.123-0.758,0.234c-0.245,0.112-0.481,0.253-0.707,0.417
		c-0.225,0.164-0.439,0.349-0.639,0.548c-0.202,0.199-0.388,0.412-0.557,0.628c-0.115,0.148-0.223,0.297-0.322,0.445
		c-0.098,0.15-0.189,0.296-0.268,0.44c-0.08,0.143-0.149,0.283-0.208,0.416c-0.059,0.133-0.106,0.258-0.141,0.373
		c-0.045,0.093-0.087,0.216-0.122,0.358c-0.036,0.143-0.064,0.304-0.082,0.474c-0.017,0.169-0.021,0.347-0.009,0.518
		c0.013,0.173,0.043,0.34,0.094,0.49c0.026,0.069,0.055,0.136,0.088,0.197c0.036,0.062,0.076,0.117,0.124,0.166
		c0.046,0.049,0.099,0.092,0.157,0.126c0.059,0.034,0.125,0.061,0.197,0.079c0.056,0.013,0.118,0.021,0.182,0.023
		c0.065,0.001,0.135-0.004,0.208-0.017c0.075-0.012,0.154-0.03,0.237-0.056c0.085-0.026,0.173-0.061,0.266-0.102
		c0.688-0.298,1.36-0.586,2.017-0.866c0.654-0.279,1.292-0.549,1.912-0.808c0.618-0.259,1.218-0.507,1.799-0.744
		c0.58-0.237,1.139-0.463,1.678-0.677c0.242-0.096,0.478-0.189,0.711-0.28c0.232-0.092,0.46-0.181,0.685-0.268
		c0.223-0.085,0.442-0.169,0.657-0.25c0.214-0.081,0.424-0.16,0.629-0.236c0.67-0.25,1.29-0.477,1.864-0.688
		c0.042-0.016,0.083-0.031,0.124-0.047c0.525-0.192,1.011-0.374,1.462-0.547c0.484-0.188,0.929-0.368,1.336-0.549
		c0.406-0.181,0.775-0.362,1.112-0.553c0.271-0.153,0.517-0.319,0.746-0.502c0.228-0.182,0.438-0.382,0.638-0.601
		c0.2-0.219,0.388-0.458,0.575-0.72c0.185-0.262,0.366-0.544,0.551-0.855c0.042-0.07,0.084-0.142,0.126-0.214
		c0.042-0.073,0.084-0.146,0.127-0.222c0.042-0.076,0.085-0.152,0.129-0.23c0.043-0.078,0.087-0.158,0.131-0.238
		c0.097-0.186,0.197-0.379,0.297-0.579c0.102-0.198,0.202-0.402,0.306-0.612c0.102-0.209,0.206-0.423,0.31-0.642
		c0.104-0.217,0.209-0.438,0.314-0.663C27.056,14.172,26.718,13.97,26.371,13.766z"/>
	<path fill="#F8B427" d="M20.099,45.632c0-0.834,0.003-1.639,0.009-2.412c0.006-0.762,0.015-1.498,0.027-2.203
		c0.013-0.693,0.03-1.362,0.05-2.001c0.021-0.63,0.044-1.23,0.074-1.804c0.012-0.249,0.026-0.492,0.04-0.731
		c0.015-0.236,0.03-0.469,0.045-0.692c0.016-0.226,0.032-0.445,0.051-0.659c0.017-0.213,0.036-0.42,0.056-0.621
		c0.062-0.67,0.127-1.277,0.186-1.834c0.028-0.261,0.054-0.511,0.077-0.75c0.026-0.266,0.049-0.519,0.067-0.76
		c0.034-0.454,0.051-0.87,0.041-1.254c-0.01-0.38-0.046-0.73-0.121-1.057c-0.066-0.326-0.182-0.621-0.352-0.899
		c-0.168-0.276-0.389-0.538-0.666-0.799c-0.273-0.258-0.603-0.518-0.988-0.789c-0.383-0.271-0.82-0.553-1.315-0.862
		c-0.206-0.125-0.422-0.253-0.645-0.385c-0.222-0.131-0.453-0.266-0.69-0.403c-0.237-0.137-0.481-0.277-0.731-0.418
		c-0.248-0.141-0.503-0.284-0.762-0.429c-0.539,0.214-1.099,0.44-1.678,0.677c-0.581,0.237-1.181,0.485-1.799,0.744
		c-0.621,0.259-1.258,0.529-1.912,0.808c-0.656,0.279-1.329,0.568-2.017,0.866c-0.092,0.042-0.181,0.076-0.266,0.102
		c-0.083,0.026-0.162,0.044-0.237,0.056c-0.073,0.012-0.143,0.018-0.208,0.017c-0.064-0.002-0.126-0.01-0.182-0.023
		c-0.073-0.018-0.138-0.044-0.197-0.079c-0.059-0.035-0.111-0.077-0.157-0.126c-0.047-0.049-0.088-0.104-0.124-0.166
		c-0.034-0.061-0.062-0.128-0.088-0.197c0.019,0.076,0.042,0.149,0.072,0.217c0.03,0.069,0.064,0.133,0.105,0.188
		c0.042,0.056,0.092,0.104,0.147,0.142c0.056,0.037,0.121,0.064,0.193,0.077c0.696,0.138,1.405,0.279,2.109,0.422
		c0.708,0.144,1.41,0.291,2.088,0.439c0.683,0.15,1.34,0.301,1.954,0.455c0.617,0.154,1.189,0.309,1.696,0.465
		c0.119,0.042,0.24,0.082,0.36,0.122c0.12,0.041,0.24,0.081,0.359,0.122c0.118,0.041,0.233,0.082,0.346,0.123
		c0.112,0.042,0.221,0.085,0.323,0.127l0.029,0.012l0.226,0.124l0.488,0.295l0.015,0.009l0.113,0.091
		c0.013,0.011,0.03,0.027,0.049,0.046c0.019,0.02,0.04,0.041,0.061,0.063c0.021,0.022,0.042,0.045,0.062,0.066
		c0.02,0.021,0.038,0.041,0.053,0.057l0.093,0.176l0.018,0.075c0.001,0.009,0.003,0.019,0.006,0.03
		c0.001,0.011,0.003,0.023,0.005,0.035c0.001,0.012,0.003,0.025,0.005,0.038c0.001,0.013,0.003,0.026,0.005,0.039l0.001,0.277
		l0.003,0.057l-0.006,0.054c-0.006,0.045-0.013,0.092-0.021,0.139c-0.008,0.047-0.017,0.096-0.027,0.144
		c-0.007,0.038-0.016,0.077-0.024,0.115c-0.002,0.011-0.004,0.022-0.007,0.032c-0.011,0.05-0.022,0.099-0.034,0.151l-0.025,0.095
		l-0.045,0.134c-0.017,0.055-0.038,0.111-0.06,0.168c-0.022,0.058-0.045,0.116-0.068,0.173c-0.022,0.06-0.045,0.116-0.066,0.174
		c-0.021,0.058-0.04,0.114-0.056,0.171c-0.018,0.056-0.037,0.116-0.058,0.175c-0.02,0.06-0.041,0.119-0.063,0.18
		c-0.021,0.06-0.045,0.12-0.067,0.183c-0.023,0.062-0.046,0.126-0.069,0.188l-0.03,0.076l-0.154,0.352
		c-0.25,0.58-0.514,1.183-0.789,1.807c-0.28,0.633-0.574,1.29-0.884,1.979c-0.315,0.697-0.646,1.423-0.998,2.188
		c-0.356,0.776-0.733,1.591-1.133,2.45c-0.241,0.502-0.271,1.011-0.155,1.502c0.119,0.495,0.388,0.973,0.742,1.406
		c0.358,0.436,0.803,0.827,1.268,1.149c0.468,0.321,0.954,0.567,1.385,0.715c0.157,0.082,0.398,0.171,0.691,0.246
		c0.293,0.074,0.64,0.141,1.005,0.179c0.367,0.041,0.753,0.053,1.125,0.026c0.372-0.026,0.73-0.093,1.041-0.215
		c0.007-0.001,0.013-0.005,0.019-0.007c0.006-0.003,0.012-0.005,0.019-0.008c0.006-0.002,0.012-0.004,0.018-0.008
		c0.007-0.003,0.012-0.005,0.018-0.007c0.086-0.036,0.167-0.078,0.244-0.125c0.076-0.046,0.147-0.096,0.213-0.151
		c0.065-0.055,0.126-0.115,0.18-0.181c0.054-0.067,0.101-0.137,0.141-0.213c0.001-0.004,0.002-0.007,0.004-0.01
		c0.001-0.001,0.003-0.004,0.003-0.007c0.002-0.003,0.003-0.006,0.005-0.011l0.003-0.006c0.006-0.01,0.011-0.021,0.016-0.033
		c0.005-0.011,0.01-0.021,0.015-0.032c0.004-0.012,0.01-0.023,0.014-0.034c0.005-0.011,0.009-0.023,0.013-0.035
		c0.015-0.041,0.028-0.084,0.04-0.128c0.01-0.045,0.021-0.091,0.027-0.139c0.007-0.047,0.013-0.096,0.016-0.146
		C20.099,45.736,20.1,45.683,20.099,45.632z"/>
	<path fill="#F06025" d="M51.773,38.062c-0.031-0.159-0.087-0.31-0.172-0.444c-0.085-0.134-0.201-0.252-0.352-0.351
		c-0.15-0.099-0.334-0.177-0.559-0.23c-0.015-0.002-0.03-0.006-0.046-0.009c-0.015-0.004-0.03-0.008-0.046-0.009
		c-0.016-0.005-0.032-0.007-0.048-0.01S50.518,37.003,50.502,37c-0.876-0.155-1.731-0.31-2.561-0.462
		c-0.825-0.152-1.626-0.306-2.401-0.456c-0.772-0.151-1.518-0.3-2.235-0.447c-0.714-0.147-1.401-0.293-2.059-0.438
		c-0.306-0.068-0.607-0.134-0.901-0.202c-0.293-0.066-0.581-0.133-0.861-0.198c-0.28-0.065-0.553-0.131-0.818-0.196
		c-0.266-0.065-0.525-0.13-0.777-0.195c-0.801-0.195-1.531-0.385-2.203-0.56c-0.669-0.176-1.282-0.336-1.85-0.472
		c-0.059-0.016-0.116-0.027-0.176-0.041c-0.498-0.117-0.965-0.216-1.405-0.29c-0.492-0.079-0.954-0.129-1.4-0.139
		c-0.448-0.025-0.888-0.004-1.342,0.068c-0.453,0.072-0.921,0.194-1.423,0.364c-0.503,0.169-1.044,0.392-1.639,0.662
		c-0.598,0.269-1.255,0.591-1.991,0.963c-0.302,0.156-0.616,0.319-0.943,0.491c-0.328,0.174-0.667,0.354-1.018,0.543
		c-0.353,0.188-0.715,0.384-1.088,0.584c-0.374,0.205-0.758,0.414-1.151,0.632c-0.029,0.573-0.053,1.174-0.074,1.804
		c-0.021,0.639-0.038,1.308-0.05,2.001c-0.012,0.705-0.021,1.441-0.027,2.203c-0.006,0.773-0.009,1.578-0.009,2.412
		c0.001,0.051,0,0.104-0.002,0.153c-0.003,0.051-0.009,0.1-0.016,0.146c-0.006,0.048-0.017,0.094-0.027,0.139
		c-0.012,0.044-0.024,0.087-0.04,0.128c-0.004,0.012-0.008,0.024-0.013,0.035c-0.004,0.011-0.009,0.022-0.014,0.034
		c-0.005,0.011-0.01,0.021-0.015,0.032c-0.005,0.012-0.01,0.023-0.016,0.033l-0.003,0.006c-0.002,0.005-0.003,0.008-0.005,0.011
		c0,0.003-0.002,0.006-0.003,0.007c-0.002,0.003-0.003,0.006-0.004,0.01c-0.041,0.076-0.087,0.146-0.141,0.213
		c-0.054,0.065-0.114,0.126-0.18,0.181c-0.066,0.056-0.137,0.105-0.213,0.151c-0.076,0.047-0.158,0.089-0.244,0.125
		c-0.005,0.002-0.011,0.004-0.018,0.007c-0.006,0.004-0.012,0.006-0.018,0.008c-0.007,0.003-0.012,0.005-0.019,0.008
		c-0.006,0.002-0.012,0.006-0.019,0.007c0.061-0.021,0.12-0.043,0.175-0.065c0.056-0.026,0.109-0.053,0.16-0.081
		c0.05-0.029,0.098-0.062,0.142-0.097c0.044-0.035,0.083-0.071,0.121-0.112c0.73-0.775,1.461-1.55,2.177-2.304
		c0.707-0.745,1.4-1.468,2.069-2.153c0.661-0.675,1.297-1.312,1.898-1.894c0.594-0.577,1.155-1.097,1.671-1.546
		c0.127-0.112,0.254-0.22,0.379-0.327c0.125-0.104,0.249-0.211,0.372-0.311c0.124-0.1,0.245-0.197,0.364-0.29
		c0.12-0.094,0.237-0.185,0.353-0.271l0.034-0.021l0.292-0.18l0.663-0.391l0.021-0.011l0.181-0.078
		c0.022-0.01,0.053-0.021,0.087-0.033c0.036-0.012,0.076-0.025,0.117-0.038c0.04-0.015,0.083-0.027,0.122-0.04
		c0.039-0.012,0.075-0.023,0.103-0.032l0.283-0.04l0.111,0.004c0.012,0,0.026,0.002,0.042,0.002
		c0.016,0.001,0.033,0.002,0.049,0.003c0.017,0.001,0.035,0.002,0.053,0.003c0.018,0,0.036,0,0.054-0.001l0.026,0.002l0.344,0.043
		l0.079,0.011l0.068,0.019c0.059,0.017,0.117,0.035,0.176,0.053c0.061,0.019,0.119,0.038,0.179,0.059
		c0.06,0.019,0.12,0.041,0.181,0.062c0.061,0.021,0.122,0.044,0.183,0.066l0.115,0.044l0.158,0.074
		c0.065,0.031,0.129,0.06,0.193,0.087c0.064,0.029,0.129,0.057,0.193,0.084c0.064,0.026,0.128,0.054,0.196,0.083
		c0.065,0.026,0.132,0.057,0.2,0.088l0.841,0.397l0.087,0.044l0.391,0.218c0.645,0.332,1.311,0.683,2,1.052
		c0.697,0.374,1.419,0.766,2.17,1.18c0.759,0.418,1.549,0.855,2.372,1.314c0.833,0.466,1.701,0.952,2.607,1.462
		c0.532,0.312,1.142,0.426,1.774,0.402c0.632-0.025,1.287-0.19,1.906-0.439c0.619-0.248,1.203-0.576,1.701-0.931
		c0.497-0.352,0.909-0.729,1.189-1.071c0.103-0.089,0.219-0.216,0.338-0.373c0.12-0.155,0.244-0.342,0.36-0.543
		c0.115-0.201,0.224-0.422,0.317-0.646c0.092-0.225,0.167-0.457,0.214-0.687c0.006-0.03,0.013-0.057,0.017-0.086
		c0.005-0.029,0.01-0.059,0.014-0.086c0.004-0.029,0.008-0.058,0.011-0.087c0.004-0.028,0.006-0.055,0.009-0.084
		C51.811,38.395,51.804,38.223,51.773,38.062z"/>
	<g>
		<path fill="#ED4296" d="M54.229,19.476c-0.05-0.265-0.144-0.532-0.266-0.79c-0.121-0.255-0.27-0.5-0.43-0.722
			c-0.159-0.219-0.33-0.415-0.498-0.572c-0.052-0.068-0.192-0.22-0.392-0.423c-0.198-0.201-0.455-0.451-0.744-0.717
			c-0.285-0.264-0.602-0.542-0.925-0.806c-0.318-0.26-0.643-0.505-0.948-0.704c0.017,0.018,0.034,0.036,0.05,0.054
			c0.017,0.017,0.033,0.036,0.05,0.053c0.016,0.019,0.032,0.038,0.047,0.055c0.017,0.019,0.032,0.037,0.048,0.056
			c0.011,0.012,0.021,0.024,0.033,0.037c0.01,0.012,0.021,0.025,0.031,0.038c0.011,0.013,0.021,0.027,0.032,0.039
			c0.011,0.013,0.021,0.027,0.031,0.041c0.082,0.106,0.161,0.222,0.232,0.343c0.072,0.122,0.137,0.25,0.189,0.379
			c0.052,0.129,0.09,0.261,0.111,0.389c0.021,0.129,0.023,0.256,0,0.375c0,0.007-0.001,0.014-0.003,0.02
			c-0.001,0.007-0.002,0.013-0.004,0.02c-0.002,0.007-0.003,0.014-0.005,0.02c-0.001,0.006-0.003,0.013-0.004,0.02
			c0,0.002,0,0.004-0.002,0.005c-0.001,0.003-0.001,0.005-0.002,0.007c-0.001,0.001-0.002,0.004-0.002,0.006
			c0,0.002,0,0.004-0.001,0.006c-0.028,0.085-0.068,0.165-0.125,0.238c-0.056,0.074-0.129,0.142-0.22,0.2
			c-0.091,0.059-0.201,0.109-0.332,0.15c-0.13,0.04-0.28,0.07-0.453,0.088c-0.135,0.017-0.269,0.034-0.402,0.049
			c-0.133,0.018-0.268,0.033-0.4,0.049c-0.133,0.016-0.267,0.034-0.399,0.048c-0.132,0.017-0.264,0.032-0.396,0.048
			c-0.415,0.477-0.794,0.921-1.154,1.344c-0.364,0.427-0.706,0.83-1.043,1.216c-0.34,0.39-0.676,0.763-1.023,1.127
			c-0.35,0.369-0.712,0.729-1.104,1.088c-0.442,0.416-0.863,0.797-1.257,1.155c-0.396,0.359-0.766,0.693-1.099,1.01
			c-0.336,0.319-0.636,0.622-0.893,0.917c-0.259,0.297-0.474,0.587-0.638,0.881c-0.029,0.046-0.057,0.091-0.083,0.138
			c-0.026,0.046-0.05,0.093-0.073,0.139c-0.024,0.047-0.045,0.094-0.067,0.142c-0.021,0.047-0.04,0.095-0.059,0.143
			c-0.097,0.262-0.157,0.534-0.185,0.827c-0.027,0.295-0.021,0.612,0.017,0.959c0.037,0.351,0.105,0.732,0.2,1.156
			c0.061,0.279,0.135,0.58,0.22,0.898c0.044,0.17,0.092,0.346,0.143,0.529c0.077,0.27,0.16,0.556,0.25,0.856
			c0.09,0.301,0.186,0.616,0.287,0.944c0.103,0.332,0.21,0.679,0.323,1.034c0.115,0.361,0.233,0.733,0.356,1.117
			c0.658,0.145,1.345,0.29,2.059,0.438c0.718,0.147,1.463,0.296,2.235,0.447c0.775,0.15,1.576,0.304,2.401,0.456
			c0.83,0.152,1.685,0.307,2.561,0.462c0.015,0.003,0.032,0.006,0.048,0.009s0.032,0.005,0.048,0.01
			c0.016,0.001,0.031,0.005,0.046,0.009c0.016,0.003,0.031,0.007,0.046,0.009c0.225,0.054,0.409,0.132,0.559,0.23
			c0.15,0.099,0.266,0.217,0.352,0.351c0.085,0.135,0.142,0.285,0.172,0.444c0.03,0.161,0.037,0.333,0.022,0.511
			c0.002-0.01,0.004-0.017,0.007-0.025c0.001-0.01,0.003-0.017,0.005-0.025c0.003-0.009,0.003-0.018,0.006-0.026
			c0-0.008,0.003-0.016,0.005-0.024c0.023-0.112,0.041-0.225,0.048-0.336c0.009-0.109,0.008-0.215-0.004-0.318
			c-0.013-0.102-0.036-0.198-0.074-0.288c-0.037-0.091-0.088-0.17-0.155-0.242c-0.643-0.708-1.281-1.412-1.898-2.1
			c-0.606-0.674-1.193-1.333-1.744-1.96c-0.539-0.619-1.043-1.209-1.496-1.759c-0.146-0.177-0.286-0.349-0.42-0.519
			c-0.278-0.348-0.532-0.677-0.755-0.985c-0.085-0.113-0.165-0.224-0.242-0.335c-0.078-0.109-0.152-0.217-0.223-0.324
			c-0.07-0.105-0.138-0.21-0.202-0.312c-0.064-0.101-0.125-0.202-0.184-0.301l-0.014-0.026l-0.101-0.237
			c-0.017-0.045-0.035-0.089-0.054-0.134c-0.02-0.045-0.04-0.089-0.06-0.135c-0.02-0.044-0.04-0.089-0.059-0.133
			c-0.019-0.044-0.036-0.088-0.051-0.13l-0.007-0.018l-0.028-0.137c-0.003-0.017-0.005-0.04-0.007-0.065
			c-0.003-0.027-0.004-0.056-0.005-0.086c-0.002-0.031-0.003-0.061-0.004-0.089c-0.002-0.028-0.002-0.056-0.003-0.076l0.044-0.194
			l0.037-0.071c0.004-0.008,0.01-0.018,0.015-0.027c0.004-0.011,0.009-0.022,0.014-0.033c0.005-0.012,0.009-0.023,0.014-0.035
			c0.005-0.012,0.01-0.024,0.015-0.036l0.163-0.228l0.035-0.048l0.042-0.04c0.035-0.035,0.072-0.067,0.108-0.101
			c0.038-0.034,0.076-0.068,0.116-0.101s0.079-0.067,0.121-0.1c0.041-0.034,0.082-0.067,0.124-0.101l0.08-0.062l0.123-0.083
			l0.571-0.409c0.049-0.036,0.102-0.07,0.154-0.106c0.054-0.035,0.106-0.071,0.161-0.105c0.055-0.036,0.109-0.072,0.164-0.107
			c0.057-0.035,0.112-0.071,0.168-0.108l0.069-0.042l0.328-0.188c0.498-0.31,1.018-0.623,1.556-0.941
			c0.536-0.317,1.089-0.639,1.66-0.967c0.568-0.327,1.15-0.661,1.746-1.001c0.592-0.34,1.198-0.687,1.812-1.043
			c0.103-0.055,0.192-0.117,0.272-0.184c0.079-0.067,0.148-0.139,0.205-0.215c0.059-0.076,0.107-0.157,0.146-0.24
			c0.039-0.084,0.067-0.172,0.088-0.262C54.286,20.003,54.28,19.742,54.229,19.476z"/>
	</g>
	<path fill="#6AA643" d="M50.88,16.226c-0.021-0.128-0.059-0.26-0.111-0.389c-0.052-0.129-0.117-0.257-0.189-0.379
		c-0.071-0.121-0.15-0.237-0.232-0.343c-0.01-0.014-0.02-0.028-0.031-0.041c-0.011-0.012-0.021-0.026-0.032-0.039
		c-0.01-0.013-0.021-0.026-0.031-0.038c-0.012-0.013-0.022-0.025-0.033-0.037c-0.017-0.019-0.031-0.037-0.048-0.056
		c-0.016-0.017-0.032-0.036-0.047-0.055c-0.017-0.017-0.034-0.036-0.05-0.053c-0.017-0.018-0.034-0.036-0.05-0.054
		c-0.132-0.138-0.274-0.272-0.427-0.401c-0.152-0.13-0.312-0.253-0.484-0.37c-0.17-0.117-0.352-0.228-0.542-0.329
		c-0.19-0.102-0.389-0.196-0.598-0.279c-0.101-0.049-0.25-0.112-0.426-0.174c-0.174-0.06-0.375-0.122-0.58-0.169
		c-0.205-0.048-0.414-0.082-0.606-0.092s-0.37,0.005-0.511,0.058c-0.65,0.23-1.311,0.459-1.966,0.685
		c-0.66,0.228-1.315,0.449-1.954,0.66c-0.643,0.212-1.268,0.414-1.863,0.597c-0.055,0.016-0.106,0.032-0.162,0.049
		c-0.537,0.163-1.048,0.312-1.523,0.441c-0.125,0.031-0.25,0.06-0.372,0.088c-0.125,0.029-0.246,0.057-0.368,0.084
		c-0.121,0.026-0.241,0.053-0.361,0.08c-0.119,0.027-0.238,0.054-0.356,0.082l-0.032,0.006l-0.281,0.04
		c-0.053,0.008-0.105,0.014-0.157,0.02c-0.052,0.005-0.103,0.01-0.154,0.015c-0.051,0.004-0.102,0.007-0.151,0.012
		c-0.05,0.003-0.099,0.008-0.149,0.011l-0.018,0l-0.163,0.004c-0.019,0.001-0.044,0.001-0.075,0.001
		c-0.032-0.001-0.066-0.002-0.101-0.002c-0.035-0.001-0.071-0.002-0.103-0.003c-0.034,0-0.065-0.001-0.089-0.002l-0.223-0.035
		l-0.078-0.025c-0.009-0.003-0.019-0.006-0.03-0.009c-0.011-0.004-0.023-0.008-0.036-0.012c-0.011-0.005-0.023-0.009-0.037-0.014
		c-0.012-0.004-0.024-0.009-0.037-0.014l-0.235-0.125l-0.049-0.025l-0.042-0.025c-0.035-0.021-0.069-0.042-0.105-0.064
		c-0.034-0.022-0.069-0.045-0.104-0.069c-0.034-0.022-0.068-0.046-0.102-0.071c-0.034-0.023-0.068-0.047-0.103-0.072l-0.06-0.048
		l-0.083-0.07c-0.032-0.029-0.064-0.058-0.096-0.089c-0.032-0.03-0.063-0.061-0.096-0.092c-0.032-0.032-0.064-0.063-0.096-0.095
		c-0.031-0.032-0.065-0.062-0.097-0.093c-0.034-0.029-0.068-0.059-0.102-0.088c-0.034-0.031-0.067-0.062-0.101-0.093
		c-0.034-0.032-0.067-0.062-0.1-0.094c-0.034-0.032-0.069-0.063-0.104-0.096l-0.038-0.039l-0.171-0.187
		c-0.28-0.303-0.562-0.61-0.843-0.922c-0.28-0.309-0.559-0.624-0.842-0.944c-0.28-0.318-0.562-0.644-0.85-0.976
		c-0.283-0.329-0.57-0.666-0.861-1.012c-0.161-0.198-0.441-0.332-0.788-0.415c-0.347-0.083-0.761-0.118-1.195-0.116
		c-0.434,0.002-0.888,0.039-1.312,0.098c-0.425,0.059-0.821,0.139-1.14,0.227c-0.004,0.003-0.009,0.003-0.014,0.005
		c-0.005,0.001-0.009,0.002-0.015,0.004c-0.003,0.001-0.009,0.003-0.013,0.003c-0.005,0.001-0.009,0.003-0.014,0.004
		c-0.003,0-0.004,0-0.006,0.001c-0.002,0-0.005,0-0.007,0.001c-0.001,0-0.004,0.001-0.006,0.001c-0.002,0-0.005,0-0.007,0.001
		c-0.003,0-0.005,0-0.009,0.002l-0.01,0.001c-0.003,0-0.006,0.001-0.009,0.002l-0.01,0.003c-0.005,0.002-0.012,0.002-0.017,0.003
		c-0.006,0.001-0.012,0.002-0.017,0.004c-0.006,0.001-0.012,0.003-0.019,0.004c-0.006,0.001-0.012,0.003-0.018,0.004
		c-0.002,0-0.003,0-0.004,0.002c-0.002,0-0.003,0-0.005,0.001c-0.001,0-0.003,0-0.004,0.001c-0.002,0-0.004,0.001-0.005,0.001
		c-0.008,0.002-0.017,0.003-0.025,0.006c-0.009,0.002-0.017,0.005-0.026,0.007c-0.009,0.002-0.018,0.004-0.026,0.007
		c-0.008,0.003-0.018,0.005-0.027,0.007c-0.153,0.045-0.33,0.104-0.518,0.174c-0.187,0.07-0.383,0.153-0.574,0.242
		c-0.191,0.089-0.375,0.188-0.535,0.289c-0.161,0.102-0.299,0.207-0.397,0.311c-0.008,0.008-0.015,0.017-0.022,0.025
		c-0.007,0.009-0.014,0.017-0.021,0.024c-0.007,0.009-0.013,0.017-0.019,0.025c-0.006,0.007-0.013,0.017-0.018,0.025c0,0,0,0,0,0
		c0,0,0,0-0.002,0l0,0.002c0,0,0,0,0,0.001c-0.033,0.049-0.055,0.097-0.067,0.144c-0.011,0.047-0.011,0.094,0.001,0.14
		c0.012,0.045,0.039,0.09,0.079,0.134c0.04,0.043,0.095,0.085,0.167,0.124c0.002,0.001,0.004,0.003,0.006,0.005
		c0.001,0,0.004,0.001,0.006,0.002c0.002,0.001,0.003,0.002,0.006,0.003l0.005,0.004c0.38,0.209,0.756,0.417,1.125,0.624
		c0.373,0.208,0.739,0.417,1.099,0.622c0.362,0.207,0.717,0.413,1.062,0.615c0.347,0.204,0.685,0.406,1.013,0.604
		c0.173,0.105,0.344,0.21,0.512,0.313c0.167,0.104,0.332,0.207,0.492,0.307c0.161,0.104,0.318,0.204,0.472,0.304
		c0.153,0.1,0.303,0.198,0.448,0.295c0.431,0.286,0.828,0.556,1.205,0.809c0.378,0.255,0.734,0.491,1.078,0.707
		c0.345,0.219,0.677,0.417,1.007,0.593c0.333,0.178,0.661,0.334,0.998,0.466c0.336,0.135,0.691,0.234,1.079,0.303
		c0.388,0.071,0.807,0.112,1.271,0.131c0.466,0.018,0.975,0.014,1.542-0.007c0.567-0.021,1.193-0.058,1.891-0.104
		c0.587-0.051,1.221-0.108,1.891-0.171c0.167-0.016,0.336-0.032,0.508-0.049c0.519-0.051,1.058-0.104,1.614-0.163
		c0.74-0.077,1.511-0.16,2.303-0.249c0.793-0.087,1.609-0.182,2.438-0.281c0.132-0.016,0.264-0.031,0.396-0.048
		c0.132-0.015,0.266-0.032,0.399-0.048c0.132-0.016,0.267-0.031,0.4-0.049c0.133-0.016,0.267-0.032,0.402-0.049
		c0.173-0.018,0.323-0.049,0.453-0.088c0.13-0.041,0.24-0.091,0.33-0.15c0.092-0.059,0.166-0.126,0.222-0.2
		c0.057-0.074,0.098-0.153,0.125-0.238l0.005-0.019c0.001-0.001,0.001-0.003,0.002-0.005c0.001-0.007,0.003-0.014,0.004-0.02
		c0.002-0.006,0.003-0.013,0.005-0.02c0.001-0.006,0.003-0.013,0.004-0.02c0.002-0.006,0.003-0.013,0.003-0.02
		C50.903,16.481,50.901,16.355,50.88,16.226z"/>
	<g>
		<g>
			<path fill="#00C1F2" d="M19.264,14.015c-0.124-0.388-0.368-0.731-0.709-1.007c-0.337-0.274-0.772-0.485-1.279-0.614
				c-0.505-0.129-1.084-0.177-1.719-0.125c-0.634,0.052-1.327,0.204-2.06,0.478c-0.311,0.117-0.604,0.249-0.88,0.391
				c-0.276,0.144-0.535,0.298-0.772,0.462c-0.239,0.164-0.458,0.335-0.657,0.515c-0.199,0.18-0.375,0.365-0.529,0.553
				c-0.083,0.102-0.157,0.203-0.226,0.306c-0.106,0.158-0.198,0.314-0.27,0.473c-0.121,0.261-0.194,0.521-0.215,0.77
				c-0.021,0.25,0.011,0.49,0.101,0.713c0.09,0.223,0.239,0.426,0.45,0.603c0.365,0.313,0.833,0.543,1.361,0.698
				c0.299,0.088,0.617,0.151,0.948,0.194c0.256,0.033,0.518,0.054,0.784,0.061c0.611,0.018,1.236-0.028,1.832-0.126
				c0.596-0.099,1.161-0.247,1.654-0.434c0.209-0.08,0.406-0.17,0.589-0.269c0.181-0.099,0.349-0.206,0.502-0.319
				c0.153-0.115,0.292-0.235,0.417-0.363c0.125-0.128,0.235-0.262,0.332-0.401c0.13-0.188,0.234-0.384,0.313-0.59
				c0.078-0.204,0.131-0.416,0.159-0.632c0.028-0.216,0.032-0.437,0.011-0.66C19.378,14.466,19.333,14.241,19.264,14.015z"/>
		</g>
		<g>
			<path fill="#EC2225" d="M39.177,48.566c-0.056-1.007-0.312-1.942-0.702-2.782c-0.384-0.828-0.9-1.566-1.49-2.203
				c-0.582-0.626-1.237-1.152-1.913-1.564c-0.668-0.408-1.36-0.702-2.022-0.871c-0.667-0.148-1.324-0.155-1.965-0.036
				c-0.279,0.054-0.555,0.132-0.827,0.232c-0.354,0.131-0.702,0.301-1.042,0.509c-0.604,0.372-1.187,0.868-1.737,1.479
				c-0.556,0.616-1.082,1.356-1.563,2.211c-0.033,0.059-0.064,0.115-0.095,0.173c-0.032,0.06-0.062,0.116-0.091,0.176
				c-0.03,0.06-0.059,0.117-0.086,0.178c-0.028,0.06-0.055,0.118-0.081,0.178c-0.364,0.83-0.578,1.706-0.629,2.577
				c-0.052,0.886,0.066,1.769,0.366,2.59c0.306,0.832,0.802,1.602,1.501,2.243c0.709,0.653,1.623,1.172,2.753,1.488
				c1.026,0.303,2.07,0.372,3.076,0.251c1.005-0.121,1.965-0.435,2.825-0.892c0.022-0.013,0.042-0.025,0.065-0.037
				c0.827-0.451,1.559-1.036,2.145-1.714c0.596-0.685,1.041-1.464,1.291-2.291c0.048-0.153,0.087-0.31,0.12-0.467
				c0.033-0.154,0.059-0.312,0.077-0.472c0.019-0.158,0.03-0.316,0.033-0.476C39.191,48.888,39.188,48.728,39.177,48.566z"/>
		</g>
		<g>
			<path fill="#F6912F" d="M12.16,31.844c-0.193-0.257-0.45-0.48-0.764-0.67c-0.422-0.254-0.949-0.446-1.566-0.575
				c-0.614-0.127-1.32-0.191-2.104-0.188c-0.591,0.003-1.202,0.079-1.807,0.219c-0.604,0.142-1.206,0.351-1.779,0.62
				c-0.576,0.271-1.126,0.603-1.627,0.992c-0.503,0.391-0.958,0.842-1.338,1.346c-0.116,0.154-0.227,0.315-0.328,0.479
				c-0.103,0.166-0.198,0.339-0.284,0.515c-0.087,0.176-0.165,0.356-0.234,0.545C0.259,35.311,0.2,35.503,0.15,35.698
				c-0.223,0.851-0.189,1.627,0.045,2.298c0.238,0.682,0.684,1.248,1.275,1.669c0.165,0.117,0.34,0.221,0.525,0.312
				c0.489,0.245,1.044,0.405,1.643,0.465c0.829,0.079,1.73-0.031,2.635-0.365c0.606-0.221,1.182-0.496,1.72-0.814
				c0.535-0.316,1.031-0.673,1.485-1.056c0.452-0.377,0.86-0.78,1.22-1.193c0.358-0.409,0.67-0.828,0.931-1.244
				c0.13-0.205,0.248-0.41,0.353-0.613c0.105-0.201,0.196-0.4,0.273-0.596c0.079-0.194,0.144-0.383,0.195-0.566
				c0.051-0.183,0.089-0.36,0.113-0.531c0.059-0.504-0.021-0.95-0.223-1.333C12.289,32.029,12.229,31.935,12.16,31.844z"/>
		</g>
		<g>
			<path fill="#ED4296" d="M61.871,28.562c-0.216-0.577-0.557-1.127-0.999-1.621c-0.437-0.486-0.97-0.917-1.579-1.263
				c-0.602-0.342-1.277-0.604-2.006-0.755c-0.876-0.189-1.736-0.253-2.551-0.222c-0.813,0.031-1.587,0.158-2.291,0.354
				c-0.708,0.195-1.349,0.46-1.895,0.768c-0.548,0.31-1,0.665-1.326,1.036c-0.057,0.07-0.11,0.14-0.158,0.212
				c-0.048,0.072-0.093,0.145-0.131,0.219c-0.039,0.074-0.074,0.148-0.104,0.225c-0.03,0.076-0.055,0.153-0.077,0.23
				c-0.094,0.348-0.098,0.713-0.013,1.09c0.022,0.106,0.054,0.212,0.09,0.32c0.098,0.279,0.241,0.563,0.428,0.853
				c0.263,0.404,0.614,0.815,1.052,1.228c0.442,0.418,0.972,0.837,1.587,1.254c0.747,0.503,1.597,0.903,2.487,1.176
				c0.898,0.272,1.834,0.412,2.736,0.398c0.905-0.019,1.772-0.192,2.532-0.542c0.713-0.33,1.324-0.815,1.781-1.464
				c0.027-0.04,0.057-0.078,0.084-0.119c0.083-0.126,0.157-0.254,0.224-0.383c0.065-0.129,0.123-0.26,0.171-0.391
				c0.049-0.132,0.089-0.266,0.121-0.398c0.032-0.133,0.055-0.268,0.071-0.402C62.177,29.76,62.088,29.147,61.871,28.562z"/>
		</g>
		<g>
			<path fill="#6AA643" d="M42.945,9.36c-0.124-0.226-0.305-0.446-0.551-0.65c-0.245-0.203-0.551-0.392-0.925-0.562
				c-0.594-0.269-1.263-0.434-1.946-0.509c-0.177-0.019-0.355-0.032-0.535-0.039c-0.506-0.021-1.014,0.004-1.501,0.071
				c-0.66,0.091-1.286,0.261-1.82,0.495c-0.538,0.237-0.984,0.542-1.281,0.905c-0.033,0.038-0.063,0.076-0.092,0.114
				c-0.03,0.038-0.057,0.077-0.084,0.116c-0.026,0.039-0.052,0.078-0.076,0.117s-0.046,0.078-0.068,0.117
				c-0.184,0.337-0.273,0.68-0.284,1.018c-0.01,0.34,0.061,0.674,0.196,0.987c0.134,0.318,0.335,0.615,0.583,0.879
				c0.251,0.266,0.549,0.496,0.875,0.676c0.374,0.203,0.802,0.334,1.265,0.4c0.467,0.064,0.969,0.061,1.492-0.006
				c0.424-0.054,0.861-0.151,1.301-0.284c0.103-0.032,0.206-0.064,0.308-0.1c0.543-0.187,1.086-0.431,1.616-0.723
				c0.197-0.111,0.381-0.229,0.548-0.354c0.167-0.125,0.317-0.255,0.451-0.39s0.25-0.274,0.348-0.416s0.178-0.287,0.238-0.433
				c0.099-0.239,0.146-0.482,0.137-0.724C43.131,9.826,43.068,9.589,42.945,9.36z"/>
		</g>
	</g>
	<g>
		<path fill="#ED4296" d="M54.229,19.476c-0.05-0.265-0.144-0.532-0.266-0.79c-0.121-0.255-0.27-0.5-0.43-0.722
			c-0.159-0.219-0.33-0.415-0.498-0.572c-0.052-0.068-0.192-0.22-0.392-0.423c-0.198-0.201-0.455-0.451-0.744-0.717
			c-0.285-0.264-0.602-0.542-0.925-0.806c-0.318-0.26-0.643-0.505-0.948-0.704c0.017,0.018,0.034,0.036,0.05,0.054
			c0.017,0.017,0.033,0.036,0.05,0.053c0.016,0.019,0.032,0.038,0.047,0.055c0.017,0.019,0.032,0.037,0.048,0.056
			c0.011,0.012,0.021,0.024,0.033,0.037c0.01,0.012,0.021,0.025,0.031,0.038c0.011,0.013,0.021,0.027,0.032,0.039
			c0.011,0.013,0.021,0.027,0.031,0.041c0.082,0.106,0.161,0.222,0.232,0.343c0.072,0.122,0.137,0.25,0.189,0.379
			c0.052,0.129,0.09,0.261,0.111,0.389c0.021,0.129,0.023,0.256,0,0.375c0,0.007-0.001,0.014-0.003,0.02
			c-0.001,0.007-0.002,0.013-0.004,0.02c-0.002,0.007-0.003,0.014-0.005,0.02c-0.001,0.006-0.003,0.013-0.004,0.02
			c0,0.002,0,0.004-0.002,0.005c-0.001,0.003-0.001,0.005-0.002,0.007c-0.001,0.001-0.002,0.004-0.002,0.006
			c0,0.002,0,0.004-0.001,0.006c-0.028,0.085-0.068,0.165-0.125,0.238c-0.056,0.074-0.129,0.142-0.22,0.2
			c-0.091,0.059-0.201,0.109-0.332,0.15c-0.13,0.04-0.28,0.07-0.453,0.088c-0.135,0.017-0.269,0.034-0.402,0.049
			c-0.133,0.018-0.268,0.033-0.4,0.049c-0.133,0.016-0.267,0.034-0.399,0.048c-0.132,0.017-0.264,0.032-0.396,0.048
			c-0.415,0.477-0.794,0.921-1.154,1.344c-0.364,0.427-0.706,0.83-1.043,1.216c-0.34,0.39-0.676,0.763-1.023,1.127
			c-0.35,0.369-0.712,0.729-1.104,1.088c-0.442,0.416-0.863,0.797-1.257,1.155c-0.396,0.359-0.766,0.693-1.099,1.01
			c-0.336,0.319-0.636,0.622-0.893,0.917c-0.259,0.297-0.474,0.587-0.638,0.881c-0.029,0.046-0.057,0.091-0.083,0.138
			c-0.026,0.046-0.05,0.093-0.073,0.139c-0.024,0.047-0.045,0.094-0.067,0.142c-0.021,0.047-0.04,0.095-0.059,0.143
			c-0.097,0.262-0.157,0.534-0.185,0.827c-0.027,0.295-0.021,0.612,0.017,0.959c0.037,0.351,0.105,0.732,0.2,1.156
			c0.061,0.279,0.135,0.58,0.22,0.898c2.014-0.276,4.15-0.175,6.189,0.232c-0.278-0.348-0.532-0.677-0.755-0.985
			c-0.085-0.113-0.165-0.224-0.242-0.335c-0.078-0.109-0.152-0.217-0.223-0.324c-0.07-0.105-0.138-0.21-0.202-0.312
			c-0.064-0.101-0.125-0.202-0.184-0.301l-0.014-0.026l-0.101-0.237c-0.017-0.045-0.035-0.089-0.054-0.134
			c-0.02-0.045-0.04-0.089-0.06-0.135c-0.02-0.044-0.04-0.089-0.059-0.133c-0.019-0.044-0.036-0.088-0.051-0.13l-0.007-0.018
			l-0.028-0.137c-0.003-0.017-0.005-0.04-0.007-0.065c-0.003-0.027-0.004-0.056-0.005-0.086c-0.002-0.031-0.003-0.061-0.004-0.089
			c-0.002-0.028-0.002-0.056-0.003-0.076l0.044-0.194l0.037-0.071c0.004-0.008,0.01-0.018,0.015-0.027
			c0.004-0.011,0.009-0.022,0.014-0.033c0.005-0.012,0.009-0.023,0.014-0.035c0.005-0.012,0.01-0.024,0.015-0.036l0.163-0.228
			l0.035-0.048l0.042-0.04c0.035-0.035,0.072-0.067,0.108-0.101c0.038-0.034,0.076-0.068,0.116-0.101s0.079-0.067,0.121-0.1
			c0.041-0.034,0.082-0.067,0.124-0.101l0.08-0.062l0.123-0.083l0.571-0.409c0.049-0.036,0.102-0.07,0.154-0.106
			c0.054-0.035,0.106-0.071,0.161-0.105c0.055-0.036,0.109-0.072,0.164-0.107c0.057-0.035,0.112-0.071,0.168-0.108l0.069-0.042
			l0.328-0.188c0.498-0.31,1.018-0.623,1.556-0.941c0.536-0.317,1.089-0.639,1.66-0.967c0.568-0.327,1.15-0.661,1.746-1.001
			c0.592-0.34,1.198-0.687,1.812-1.043c0.103-0.055,0.192-0.117,0.272-0.184c0.079-0.067,0.148-0.139,0.205-0.215
			c0.059-0.076,0.107-0.157,0.146-0.24c0.039-0.084,0.067-0.172,0.088-0.262C54.286,20.003,54.28,19.742,54.229,19.476z"/>
	</g>
	<g>
		<path fill="#EE5DA1" d="M51.863,37.816c-0.013-0.102-0.036-0.198-0.074-0.288c-0.037-0.091-0.088-0.17-0.155-0.242
			c-0.643-0.708-1.281-1.412-1.898-2.1c-0.606-0.674-1.193-1.333-1.744-1.96c-0.539-0.619-1.043-1.209-1.496-1.759
			c-0.146-0.177-0.286-0.349-0.42-0.519c-2.039-0.408-4.175-0.508-6.189-0.232c0.044,0.17,0.092,0.346,0.143,0.529
			c0.077,0.27,0.16,0.556,0.25,0.856c0.09,0.301,0.186,0.616,0.287,0.944c0.103,0.332,0.21,0.679,0.323,1.034
			c0.115,0.361,0.233,0.733,0.356,1.117c0.658,0.145,1.345,0.29,2.059,0.438c0.718,0.147,1.463,0.296,2.235,0.447
			c0.775,0.15,1.576,0.304,2.401,0.456c0.83,0.152,1.685,0.307,2.561,0.462c0.015,0.003,0.032,0.006,0.048,0.009
			s0.032,0.005,0.048,0.01c0.016,0.001,0.031,0.005,0.046,0.009c0.016,0.003,0.031,0.007,0.046,0.009
			c0.225,0.054,0.409,0.132,0.559,0.23c0.15,0.099,0.266,0.217,0.352,0.351c0.085,0.135,0.142,0.285,0.172,0.444
			c0.03,0.161,0.037,0.333,0.022,0.511c0.002-0.01,0.004-0.017,0.007-0.025c0.001-0.01,0.003-0.017,0.005-0.025
			c0.003-0.009,0.003-0.018,0.006-0.026c0-0.008,0.003-0.016,0.005-0.024c0.023-0.112,0.041-0.225,0.048-0.336
			C51.876,38.025,51.875,37.92,51.863,37.816z"/>
	</g>
	<g>
		<path fill="#EE5DA1" d="M50.102,28.531c-0.322,0.047-0.745,0.084-1.12,0.257c0.112,0.323,0.278,0.651,0.494,0.986
			c0.304,0.466,0.71,0.941,1.216,1.418c0.511,0.482,1.123,0.967,1.833,1.448c0.862,0.581,1.844,1.044,2.874,1.359
			c1.037,0.314,2.118,0.477,3.161,0.459c1.046-0.021,2.048-0.221,2.926-0.625c0.824-0.382,1.53-0.943,2.058-1.692
			C59.588,29.701,54.874,28.363,50.102,28.531z"/>
	</g>
	<g>
		<path fill="#ED4296" d="M63.9,31.562c0.076-0.149,0.142-0.301,0.198-0.452c0.057-0.153,0.102-0.306,0.138-0.46
			c0.038-0.154,0.064-0.309,0.083-0.464c0.082-0.7-0.02-1.408-0.271-2.084c-0.249-0.666-0.644-1.303-1.153-1.873
			c-0.504-0.562-1.122-1.06-1.825-1.46c-0.695-0.396-1.477-0.698-2.318-0.871c-1.013-0.219-2.007-0.293-2.948-0.257
			c-0.939,0.036-1.833,0.182-2.647,0.408c-0.818,0.226-1.559,0.533-2.189,0.889c-0.634,0.358-1.156,0.768-1.533,1.196
			c-0.065,0.081-0.127,0.162-0.183,0.246c-0.055,0.083-0.106,0.167-0.151,0.253c-0.044,0.086-0.085,0.172-0.119,0.26
			c-0.035,0.088-0.064,0.177-0.088,0.267c-0.109,0.401-0.113,0.824-0.017,1.259c0.027,0.122,0.063,0.245,0.106,0.37
			c0.375-0.173,0.798-0.209,1.12-0.257c4.772-0.168,9.487,1.17,13.442,3.61c0.032-0.045,0.065-0.09,0.097-0.137
			C63.737,31.859,63.823,31.712,63.9,31.562z"/>
	</g>
	<g>
		<path fill="#EC2225" d="M51.773,38.062c-0.031-0.159-0.087-0.31-0.172-0.444c-0.085-0.134-0.201-0.252-0.352-0.351
			c-0.15-0.099-0.334-0.177-0.559-0.23c-0.015-0.002-0.03-0.006-0.046-0.009c-0.015-0.004-0.03-0.008-0.046-0.009
			c-0.016-0.005-0.032-0.007-0.048-0.01S50.518,37.003,50.502,37c-0.876-0.155-1.731-0.31-2.561-0.462
			c-0.825-0.152-1.626-0.306-2.401-0.456c-0.772-0.151-1.518-0.3-2.235-0.447c-0.714-0.147-1.401-0.293-2.059-0.438
			c-0.306-0.068-0.607-0.134-0.901-0.202c-0.293-0.066-0.581-0.133-0.861-0.198c-0.28-0.065-0.553-0.131-0.818-0.196
			c-0.266-0.065-0.525-0.13-0.777-0.195c-0.801-0.195-1.531-0.385-2.203-0.56c-0.669-0.176-1.282-0.336-1.85-0.472
			c-0.059-0.016-0.116-0.027-0.176-0.041c-1.037,0.897-1.88,2.033-2.449,3.431l0.344,0.043l0.079,0.011l0.068,0.019
			c0.059,0.017,0.117,0.035,0.176,0.053c0.061,0.019,0.119,0.038,0.179,0.059c0.06,0.019,0.12,0.041,0.181,0.062
			c0.061,0.021,0.122,0.044,0.183,0.066l0.115,0.044l0.158,0.074c0.065,0.031,0.129,0.06,0.193,0.087
			c0.064,0.029,0.129,0.057,0.193,0.084c0.064,0.026,0.128,0.054,0.196,0.083c0.065,0.026,0.132,0.057,0.2,0.088l0.841,0.397
			l0.087,0.044l0.391,0.218c0.645,0.332,1.311,0.683,2,1.052c0.697,0.374,1.419,0.766,2.17,1.18
			c0.759,0.418,1.549,0.855,2.372,1.314c0.833,0.466,1.701,0.952,2.607,1.462c0.532,0.312,1.142,0.426,1.774,0.402
			c0.632-0.025,1.287-0.19,1.906-0.439c0.619-0.248,1.203-0.576,1.701-0.931c0.497-0.352,0.909-0.729,1.189-1.071
			c0.103-0.089,0.219-0.216,0.338-0.373c0.12-0.155,0.244-0.342,0.36-0.543c0.115-0.201,0.224-0.422,0.317-0.646
			c0.092-0.225,0.167-0.457,0.214-0.687c0.006-0.03,0.013-0.057,0.017-0.086c0.005-0.029,0.01-0.059,0.014-0.086
			c0.004-0.029,0.008-0.058,0.011-0.087c0.004-0.028,0.006-0.055,0.009-0.084C51.811,38.395,51.804,38.223,51.773,38.062z"/>
	</g>
	<g>
		<path fill="#F06025" d="M30.854,32.904c-0.448-0.025-0.888-0.004-1.342,0.068c-0.453,0.072-0.921,0.194-1.423,0.364
			c-0.503,0.169-1.044,0.392-1.639,0.662c-0.598,0.269-1.255,0.591-1.991,0.963c-0.302,0.156-0.616,0.319-0.943,0.491
			c-0.328,0.174-0.667,0.354-1.018,0.543c-0.353,0.188-0.715,0.384-1.088,0.584c-0.374,0.205-0.758,0.414-1.151,0.632
			c-0.029,0.573-0.053,1.174-0.074,1.804c-0.021,0.639-0.038,1.308-0.05,2.001c-0.012,0.705-0.021,1.441-0.027,2.203
			c-0.006,0.773-0.009,1.578-0.009,2.412c0.001,0.051,0,0.104-0.002,0.153c-0.003,0.051-0.009,0.1-0.016,0.146
			c-0.006,0.048-0.017,0.094-0.027,0.139c-0.012,0.044-0.024,0.087-0.04,0.128c-0.004,0.012-0.008,0.024-0.013,0.035
			c-0.004,0.011-0.009,0.022-0.014,0.034c-0.005,0.011-0.01,0.021-0.015,0.032c-0.005,0.012-0.01,0.023-0.016,0.033
			c-0.001,0.003-0.002,0.005-0.003,0.006c-0.002,0.005-0.003,0.008-0.005,0.011c0,0.003-0.002,0.006-0.003,0.007
			c-0.002,0.003-0.003,0.006-0.004,0.01c-0.041,0.076-0.087,0.146-0.141,0.213c-0.054,0.065-0.114,0.126-0.18,0.181
			c-0.066,0.056-0.137,0.105-0.213,0.151c-0.076,0.047-0.158,0.089-0.244,0.125c-0.005,0.002-0.011,0.004-0.018,0.007
			c-0.006,0.004-0.012,0.006-0.018,0.008c-0.007,0.003-0.012,0.005-0.019,0.008c-0.006,0.002-0.012,0.006-0.019,0.007
			c0.061-0.021,0.12-0.043,0.175-0.065c0.056-0.026,0.109-0.053,0.16-0.081c0.05-0.029,0.098-0.062,0.142-0.097
			c0.044-0.035,0.083-0.071,0.121-0.112c0.73-0.775,1.461-1.55,2.177-2.304c0.707-0.745,1.4-1.468,2.069-2.153
			c0.661-0.675,1.297-1.312,1.898-1.894c0.594-0.577,1.155-1.097,1.671-1.546c0.127-0.112,0.254-0.22,0.379-0.327
			c0.125-0.104,0.249-0.211,0.372-0.311c0.124-0.1,0.245-0.197,0.364-0.29c0.12-0.094,0.237-0.185,0.353-0.271l0.034-0.021
			l0.292-0.18l0.663-0.391l0.021-0.011l0.181-0.078c0.022-0.01,0.053-0.021,0.087-0.033c0.036-0.012,0.076-0.025,0.117-0.038
			c0.04-0.015,0.083-0.027,0.122-0.04c0.039-0.012,0.075-0.023,0.103-0.032l0.283-0.04l0.111,0.004c0.012,0,0.026,0.002,0.042,0.002
			c0.016,0.001,0.033,0.002,0.049,0.003c0.017,0.001,0.035,0.002,0.053,0.003c0.018,0,0.036,0,0.054-0.001l0.026,0.002
			c0.569-1.397,1.413-2.533,2.449-3.431c-0.498-0.117-0.965-0.216-1.405-0.29C31.763,32.964,31.301,32.914,30.854,32.904z"/>
	</g>
	<g>
		<path fill="#EC2225" d="M39.177,48.566c-0.056-1.007-0.312-1.942-0.702-2.782c-0.384-0.828-0.9-1.566-1.49-2.203
			c-0.582-0.626-1.237-1.152-1.913-1.564c-0.668-0.408-1.36-0.702-2.022-0.871c-0.667-0.148-1.324-0.155-1.965-0.036
			c-0.279,0.054-0.555,0.132-0.827,0.232c-0.042,4.614,2.436,9.25,5.263,13.124c0.827-0.451,1.559-1.036,2.145-1.714
			c0.596-0.685,1.041-1.464,1.291-2.291c0.048-0.153,0.087-0.31,0.12-0.467c0.033-0.154,0.059-0.312,0.077-0.472
			c0.019-0.158,0.03-0.316,0.033-0.476C39.191,48.888,39.188,48.728,39.177,48.566z"/>
	</g>
	<g>
		<path fill="#F06025" d="M29.216,41.851c-0.604,0.372-1.187,0.868-1.737,1.479c-0.556,0.616-1.082,1.356-1.563,2.211
			c-0.033,0.059-0.064,0.115-0.095,0.173c-0.032,0.06-0.062,0.116-0.091,0.176c-0.03,0.06-0.059,0.117-0.086,0.178
			c-0.028,0.06-0.055,0.118-0.081,0.178c-0.364,0.83-0.578,1.706-0.629,2.577c-0.052,0.886,0.066,1.769,0.366,2.59
			c0.306,0.832,0.802,1.602,1.501,2.243c0.709,0.653,1.623,1.172,2.753,1.488c1.026,0.303,2.07,0.372,3.076,0.251
			c1.005-0.121,1.965-0.435,2.825-0.892c0.022-0.013,0.042-0.025,0.065-0.037c-2.827-3.874-5.304-8.51-5.263-13.124
			C29.904,41.473,29.557,41.643,29.216,41.851z"/>
	</g>
	<g>
		<path fill="#F6912F" d="M17.448,31.351c-0.282,0.008-0.566,0.02-0.854,0.033c-0.002,0.011-0.004,0.022-0.007,0.032
			c-0.011,0.05-0.022,0.099-0.034,0.151l-0.025,0.095l-0.045,0.134c-0.017,0.055-0.038,0.111-0.06,0.168
			c-0.022,0.058-0.045,0.116-0.068,0.173c-0.022,0.06-0.045,0.116-0.066,0.174c-0.021,0.058-0.04,0.114-0.056,0.171
			c-0.018,0.056-0.037,0.116-0.058,0.175c-0.02,0.06-0.041,0.119-0.063,0.18c-0.021,0.06-0.045,0.12-0.067,0.183
			c-0.023,0.062-0.046,0.126-0.069,0.188l-0.03,0.076l-0.154,0.352c-0.25,0.58-0.514,1.183-0.789,1.807
			c-0.28,0.633-0.574,1.29-0.884,1.979c-0.315,0.697-0.646,1.423-0.998,2.188c-0.356,0.776-0.733,1.591-1.133,2.45
			c-0.241,0.502-0.271,1.011-0.155,1.502c0.119,0.495,0.388,0.973,0.742,1.406c0.358,0.436,0.803,0.827,1.268,1.149
			c0.468,0.321,0.954,0.567,1.385,0.715c0.157,0.082,0.398,0.171,0.691,0.246c0.293,0.074,0.64,0.141,1.005,0.179
			c0.367,0.041,0.753,0.053,1.125,0.026c0.372-0.026,0.73-0.093,1.041-0.215c0.007-0.001,0.013-0.005,0.019-0.007
			c0.006-0.003,0.012-0.005,0.019-0.008c0.006-0.002,0.012-0.004,0.018-0.008c0.007-0.003,0.012-0.005,0.018-0.007
			c0.086-0.036,0.167-0.078,0.244-0.125c0.076-0.046,0.147-0.096,0.213-0.151c0.065-0.055,0.126-0.115,0.18-0.181
			c0.054-0.067,0.101-0.137,0.141-0.213c0.001-0.004,0.002-0.007,0.004-0.01c0.001-0.001,0.003-0.004,0.003-0.007
			c0.002-0.003,0.003-0.006,0.005-0.011c0.001-0.001,0.002-0.003,0.003-0.006c0.006-0.01,0.011-0.021,0.016-0.033
			c0.005-0.011,0.01-0.021,0.015-0.032c0.004-0.012,0.01-0.023,0.014-0.034c0.005-0.011,0.009-0.023,0.013-0.035
			c0.015-0.041,0.028-0.084,0.04-0.128c0.01-0.045,0.021-0.091,0.027-0.139c0.007-0.047,0.013-0.096,0.016-0.146
			c0.002-0.049,0.003-0.103,0.002-0.153c0-0.834,0.003-1.639,0.009-2.412c0.006-0.762,0.015-1.498,0.027-2.203
			c0.013-0.693,0.03-1.362,0.05-2.001c0.021-0.63,0.044-1.23,0.074-1.804c0.012-0.249,0.026-0.492,0.04-0.731
			c0.015-0.236,0.03-0.469,0.045-0.692c0.016-0.226,0.032-0.445,0.051-0.659c0.017-0.213,0.036-0.42,0.056-0.621
			c0.062-0.67,0.127-1.277,0.186-1.834c0.028-0.261,0.054-0.511,0.077-0.75C19.633,31.706,18.542,31.339,17.448,31.351z"/>
	</g>
	<g>
		<path fill="#F8B427" d="M20.822,29.91c-0.01-0.38-0.046-0.73-0.121-1.057c-0.066-0.326-0.182-0.621-0.352-0.899
			c-0.168-0.276-0.389-0.538-0.666-0.799c-0.273-0.258-0.603-0.518-0.988-0.789c-0.383-0.271-0.82-0.553-1.315-0.862
			c-0.206-0.125-0.422-0.253-0.645-0.385c-0.222-0.131-0.453-0.266-0.69-0.403c-0.237-0.137-0.481-0.277-0.731-0.418
			c-0.248-0.141-0.503-0.284-0.762-0.429c-0.539,0.214-1.099,0.44-1.678,0.677c-0.581,0.237-1.181,0.485-1.799,0.744
			c-0.621,0.259-1.258,0.529-1.912,0.808c-0.656,0.279-1.329,0.568-2.017,0.866c-0.092,0.042-0.181,0.076-0.266,0.102
			c-0.083,0.026-0.162,0.044-0.237,0.056c-0.073,0.012-0.143,0.018-0.208,0.017c-0.064-0.002-0.126-0.01-0.182-0.023
			c-0.073-0.018-0.138-0.044-0.197-0.079c-0.059-0.035-0.111-0.077-0.157-0.126c-0.047-0.049-0.088-0.104-0.124-0.166
			c-0.034-0.061-0.062-0.128-0.088-0.197c0.019,0.076,0.042,0.149,0.072,0.217c0.03,0.069,0.064,0.133,0.105,0.188
			c0.042,0.056,0.092,0.104,0.147,0.142c0.056,0.037,0.121,0.064,0.193,0.077c0.696,0.138,1.405,0.279,2.109,0.422
			c0.708,0.144,1.41,0.291,2.088,0.439c0.683,0.15,1.34,0.301,1.954,0.455c0.617,0.154,1.189,0.309,1.696,0.465
			c0.119,0.042,0.24,0.082,0.36,0.122c0.12,0.041,0.24,0.081,0.359,0.122c0.118,0.041,0.233,0.082,0.346,0.123
			c0.112,0.042,0.221,0.085,0.323,0.127l0.029,0.012l0.226,0.124l0.488,0.295l0.015,0.009l0.113,0.091
			c0.013,0.011,0.03,0.027,0.049,0.046c0.019,0.02,0.04,0.041,0.061,0.063c0.021,0.022,0.042,0.045,0.062,0.066
			c0.02,0.021,0.038,0.041,0.053,0.057l0.093,0.176l0.018,0.075c0.001,0.009,0.003,0.019,0.006,0.03
			c0.001,0.011,0.003,0.023,0.005,0.035c0.001,0.012,0.003,0.025,0.005,0.038c0.001,0.013,0.003,0.026,0.005,0.039l0.001,0.277
			l0.003,0.057l-0.006,0.054c-0.006,0.045-0.013,0.092-0.021,0.139c-0.008,0.047-0.017,0.096-0.027,0.144
			c-0.007,0.038-0.016,0.077-0.024,0.115c0.287-0.013,0.572-0.024,0.854-0.033c1.094-0.011,2.185,0.355,3.266,0.573
			c0.026-0.266,0.049-0.519,0.067-0.76C20.814,30.71,20.832,30.294,20.822,29.91z"/>
	</g>
	<g>
		<path fill="#F6912F" d="M2.408,38.293c-0.249,0.532-0.377,1.1-0.412,1.684c0.489,0.245,1.044,0.405,1.643,0.465
			c0.829,0.079,1.73-0.031,2.635-0.365c0.606-0.221,1.182-0.496,1.72-0.814c0.535-0.316,1.031-0.673,1.485-1.056
			c0.452-0.377,0.86-0.78,1.22-1.193c0.358-0.409,0.67-0.828,0.931-1.244c0.13-0.205,0.248-0.41,0.353-0.613
			c0.105-0.201,0.196-0.4,0.273-0.596c0.079-0.194,0.144-0.383,0.195-0.566c0.051-0.183,0.089-0.36,0.113-0.531
			c0.059-0.504-0.021-0.95-0.223-1.333c-0.052-0.1-0.113-0.194-0.182-0.285C8.038,32.568,4.16,34.274,2.408,38.293z"/>
	</g>
	<g>
		<path fill="#F8B427" d="M11.396,31.174c-0.422-0.254-0.949-0.446-1.566-0.575c-0.614-0.127-1.32-0.191-2.104-0.188
			c-0.591,0.003-1.202,0.079-1.807,0.219c-0.604,0.142-1.206,0.351-1.779,0.62c-0.576,0.271-1.126,0.603-1.627,0.992
			c-0.503,0.391-0.958,0.842-1.338,1.346c-0.116,0.154-0.227,0.315-0.328,0.479c-0.103,0.166-0.198,0.339-0.284,0.515
			c-0.087,0.176-0.165,0.356-0.234,0.545C0.259,35.311,0.2,35.503,0.15,35.698c-0.223,0.851-0.189,1.627,0.045,2.298
			c0.238,0.682,0.684,1.248,1.275,1.669c0.165,0.117,0.34,0.221,0.525,0.312c0.035-0.584,0.163-1.151,0.412-1.684
			c1.752-4.019,5.63-5.725,9.752-6.449C11.967,31.587,11.71,31.363,11.396,31.174z"/>
	</g>
	<g>
		<path fill="#00C1F2" d="M20.685,21.552c0.484-0.188,0.929-0.368,1.336-0.549c0.406-0.181,0.775-0.362,1.112-0.553
			c0.271-0.153,0.517-0.319,0.746-0.502c0.228-0.182,0.438-0.382,0.638-0.601c0.2-0.219,0.388-0.458,0.575-0.72
			c0.185-0.262,0.366-0.544,0.551-0.855c0.042-0.07,0.084-0.142,0.126-0.214c0.042-0.073,0.084-0.146,0.127-0.222
			c0.042-0.076,0.085-0.152,0.129-0.23c0.043-0.078,0.087-0.158,0.131-0.238c0.097-0.186,0.197-0.379,0.297-0.579
			c0.102-0.198,0.202-0.402,0.306-0.612c0.102-0.209,0.206-0.423,0.31-0.642c0.104-0.217,0.209-0.438,0.314-0.663
			c-0.328-0.199-0.666-0.401-1.013-0.604c-0.346-0.203-0.7-0.408-1.062-0.615c-0.36-0.205-0.726-0.413-1.099-0.622
			c-0.369-0.207-0.745-0.415-1.125-0.624c-0.002-0.001-0.003-0.002-0.005-0.004c-0.002,0-0.004-0.002-0.006-0.003
			c-0.002,0-0.004-0.002-0.006-0.002c-0.002-0.002-0.004-0.004-0.006-0.005c-0.072-0.039-0.127-0.081-0.167-0.124
			c-0.04-0.043-0.067-0.088-0.079-0.134c-0.013-0.046-0.013-0.093-0.001-0.14c0.012-0.047,0.035-0.095,0.067-0.144c0,0,0,0,0-0.001
			c0-0.001,0-0.001,0-0.002c0.001,0,0.002,0,0.002,0c0,0,0,0,0,0c0.005-0.008,0.012-0.018,0.018-0.025
			c0.006-0.008,0.012-0.016,0.019-0.025c0.007-0.007,0.013-0.015,0.021-0.024c0.007-0.009,0.014-0.018,0.022-0.025
			c0.098-0.104,0.236-0.209,0.397-0.311c0.161-0.101,0.344-0.199,0.535-0.289c0.19-0.089,0.387-0.172,0.574-0.242
			c0.188-0.071,0.365-0.129,0.518-0.174c0.009-0.002,0.019-0.004,0.027-0.007c0.009-0.002,0.017-0.004,0.026-0.007
			c0.009-0.002,0.017-0.005,0.026-0.007c0.009-0.003,0.017-0.004,0.025-0.006c0.001,0,0.003-0.001,0.005-0.001
			c0-0.001,0.002-0.001,0.004-0.001c0.002,0,0.003-0.001,0.005-0.001c0.001-0.001,0.002-0.002,0.004-0.002
			c0.006-0.001,0.012-0.003,0.018-0.004c0.006-0.001,0.012-0.003,0.019-0.004c0.005-0.002,0.011-0.003,0.017-0.004
			c0.005-0.001,0.012-0.001,0.017-0.003c0.003-0.001,0.006-0.002,0.01-0.003c0.002-0.001,0.005-0.002,0.009-0.002
			c0.003,0,0.007,0,0.01-0.001c0.003-0.001,0.005-0.001,0.009-0.002c0.002-0.001,0.005-0.001,0.007-0.001
			c0.002,0,0.005-0.001,0.006-0.001c0.002-0.001,0.004-0.001,0.007-0.001c0.002-0.001,0.003-0.001,0.006-0.001
			c0.004-0.001,0.009-0.002,0.014-0.004c0.004,0,0.01-0.002,0.013-0.003c0.006-0.002,0.01-0.003,0.015-0.004
			c0.005-0.002,0.009-0.002,0.014-0.005c-0.151,0.031-0.302,0.065-0.452,0.103c-0.149,0.038-0.297,0.078-0.444,0.123
			c-0.146,0.046-0.29,0.093-0.432,0.144c-0.142,0.052-0.282,0.106-0.417,0.164c-0.089,0.032-0.202,0.08-0.325,0.138
			c-0.123,0.059-0.257,0.129-0.387,0.206c-0.13,0.077-0.255,0.159-0.364,0.243c-0.108,0.085-0.197,0.17-0.254,0.253
			c-0.011,0.015-0.021,0.031-0.029,0.045s-0.015,0.03-0.021,0.045c-0.006,0.015-0.011,0.029-0.013,0.043
			c-0.003,0.015-0.004,0.029-0.004,0.042c-0.011,0.416-0.022,0.842-0.041,1.269c-0.017,0.434-0.039,0.868-0.068,1.294
			c-0.029,0.431-0.065,0.855-0.11,1.259c-0.045,0.408-0.1,0.796-0.166,1.154c-0.02,0.085-0.042,0.17-0.063,0.253
			c-0.023,0.084-0.046,0.167-0.068,0.25c-0.023,0.082-0.047,0.165-0.069,0.247c-0.022,0.083-0.045,0.164-0.066,0.247L21.5,17.696
			l-0.083,0.188c-0.016,0.036-0.034,0.071-0.051,0.105c-0.018,0.034-0.036,0.068-0.056,0.101c-0.018,0.034-0.038,0.068-0.058,0.101
			c-0.02,0.033-0.04,0.066-0.06,0.098l-0.008,0.012l-0.076,0.102c-0.01,0.013-0.022,0.031-0.038,0.049
			c-0.015,0.02-0.033,0.042-0.052,0.065c-0.019,0.023-0.038,0.045-0.055,0.066s-0.034,0.042-0.046,0.057l-0.158,0.135l-0.073,0.046
			c-0.008,0.006-0.018,0.011-0.029,0.017c-0.009,0.006-0.021,0.013-0.033,0.019c-0.012,0.008-0.024,0.015-0.036,0.021
			c-0.014,0.007-0.026,0.015-0.039,0.021l-0.29,0.124l-0.062,0.024l-0.059,0.02c-0.046,0.018-0.094,0.036-0.142,0.052
			c-0.049,0.019-0.098,0.034-0.147,0.052c-0.049,0.017-0.1,0.033-0.151,0.05c-0.05,0.017-0.101,0.033-0.153,0.05l-0.097,0.029
			l-0.143,0.037c-0.057,0.014-0.116,0.028-0.174,0.042c-0.059,0.014-0.12,0.027-0.18,0.041c-0.061,0.013-0.122,0.027-0.183,0.04
			c-0.062,0.014-0.125,0.027-0.187,0.042l-0.749,0.179l-0.077,0.017l-0.361,0.069c-0.599,0.116-1.209,0.232-1.834,0.35
			c-0.162,0.03-0.324,0.06-0.487,0.09c1.279,0.802,2.68,1.405,4.147,1.896C19.747,21.907,20.233,21.726,20.685,21.552z"/>
	</g>
	<g>
		<path fill="#2FA9E0" d="M11.593,20.83c-0.703,0.124-1.431,0.248-2.188,0.376c-0.26,0.042-0.514,0.123-0.758,0.234
			c-0.245,0.112-0.481,0.253-0.707,0.417c-0.225,0.164-0.439,0.349-0.639,0.548c-0.202,0.199-0.388,0.412-0.557,0.628
			c-0.115,0.148-0.223,0.297-0.322,0.445c-0.098,0.15-0.189,0.296-0.268,0.44c-0.08,0.143-0.149,0.283-0.208,0.416
			c-0.059,0.133-0.106,0.258-0.141,0.373c-0.045,0.093-0.087,0.216-0.122,0.358c-0.036,0.143-0.064,0.304-0.082,0.474
			c-0.017,0.169-0.021,0.347-0.009,0.518c0.013,0.173,0.043,0.34,0.094,0.49c0.026,0.069,0.055,0.136,0.088,0.197
			c0.036,0.062,0.076,0.117,0.124,0.166c0.046,0.049,0.099,0.092,0.157,0.126c0.059,0.034,0.125,0.061,0.197,0.079
			c0.056,0.013,0.118,0.021,0.182,0.023c0.065,0.001,0.135-0.004,0.208-0.017c0.075-0.012,0.154-0.03,0.237-0.056
			c0.085-0.026,0.173-0.061,0.266-0.102c0.688-0.298,1.36-0.586,2.017-0.866c0.654-0.279,1.292-0.549,1.912-0.808
			c0.618-0.259,1.218-0.507,1.799-0.744c0.58-0.237,1.139-0.463,1.678-0.677c0.242-0.096,0.478-0.189,0.711-0.28
			c0.232-0.092,0.46-0.181,0.685-0.268c0.223-0.085,0.442-0.169,0.657-0.25c0.214-0.081,0.424-0.16,0.629-0.236
			c0.67-0.25,1.29-0.477,1.864-0.688c0.042-0.016,0.083-0.031,0.124-0.047c-1.467-0.491-2.868-1.094-4.147-1.896
			c-0.47,0.088-0.949,0.175-1.438,0.264C12.977,20.587,12.297,20.708,11.593,20.83z"/>
	</g>
	<g>
		<path fill="#00C1F2" d="M12.807,18.422c0.256,0.033,0.518,0.054,0.784,0.061c0.611,0.018,1.236-0.028,1.832-0.126
			c0.596-0.099,1.161-0.247,1.654-0.434c0.209-0.08,0.406-0.17,0.589-0.269c0.181-0.099,0.349-0.206,0.502-0.319
			c0.153-0.115,0.292-0.235,0.417-0.363c0.125-0.128,0.235-0.262,0.332-0.401c0.13-0.188,0.234-0.384,0.313-0.59
			c0.078-0.204,0.131-0.416,0.159-0.632c0.028-0.216,0.032-0.437,0.011-0.66c-0.021-0.223-0.066-0.448-0.135-0.674
			c-0.124-0.388-0.368-0.731-0.709-1.007c-0.337-0.274-0.772-0.485-1.279-0.614c-0.505-0.129-1.084-0.177-1.719-0.125
			c-0.634,0.052-1.327,0.204-2.06,0.478c-0.311,0.117-0.604,0.249-0.88,0.391c-0.276,0.144-0.535,0.298-0.772,0.462
			c-0.239,0.164-0.458,0.335-0.657,0.515c-0.199,0.18-0.375,0.365-0.529,0.553c-0.083,0.102-0.157,0.203-0.226,0.306
			c0.054,0.269,0.164,0.545,0.34,0.829C11.366,16.813,12.05,17.677,12.807,18.422z"/>
	</g>
	<g>
		<path fill="#2FA9E0" d="M9.947,16.215c-0.021,0.25,0.011,0.49,0.101,0.713c0.09,0.223,0.239,0.426,0.45,0.603
			c0.365,0.313,0.833,0.543,1.361,0.698c0.299,0.088,0.617,0.151,0.948,0.194c-0.756-0.745-1.44-1.609-2.034-2.622
			c-0.176-0.284-0.287-0.56-0.34-0.829c-0.106,0.158-0.198,0.314-0.27,0.473C10.041,15.706,9.968,15.966,9.947,16.215z"/>
	</g>
	<g>
		<path fill="#85B840" d="M50.88,16.226c-0.021-0.128-0.059-0.26-0.111-0.389c-0.052-0.129-0.117-0.257-0.189-0.379
			c-0.071-0.121-0.15-0.237-0.232-0.343c-0.01-0.014-0.02-0.028-0.031-0.041c-0.011-0.012-0.021-0.026-0.032-0.039
			c-0.01-0.013-0.021-0.026-0.031-0.038c-0.012-0.013-0.022-0.025-0.033-0.037c-0.017-0.019-0.031-0.037-0.048-0.056
			c-0.016-0.017-0.032-0.036-0.047-0.055c-0.017-0.017-0.034-0.036-0.05-0.053c-0.017-0.018-0.034-0.036-0.05-0.054
			c-0.132-0.138-0.274-0.272-0.427-0.401c-0.152-0.13-0.312-0.253-0.484-0.37c-0.17-0.117-0.352-0.228-0.542-0.329
			c-0.19-0.102-0.389-0.196-0.598-0.279c-0.101-0.049-0.25-0.112-0.426-0.174c-0.174-0.06-0.375-0.122-0.58-0.169
			c-0.205-0.048-0.414-0.082-0.606-0.092s-0.37,0.005-0.511,0.058c-0.65,0.23-1.311,0.459-1.966,0.685
			c-0.66,0.228-1.315,0.449-1.954,0.66c-0.643,0.212-1.268,0.414-1.863,0.597c-0.055,0.016-0.106,0.032-0.162,0.049
			c0.43,1.167,1.076,2.286,1.867,3.29c0.519-0.051,1.058-0.104,1.614-0.163c0.74-0.077,1.511-0.16,2.303-0.249
			c0.793-0.087,1.609-0.182,2.438-0.281c0.132-0.016,0.264-0.031,0.396-0.048c0.132-0.015,0.266-0.032,0.399-0.048
			c0.132-0.016,0.267-0.031,0.4-0.049c0.133-0.016,0.267-0.032,0.402-0.049c0.173-0.018,0.323-0.049,0.453-0.088
			c0.13-0.041,0.24-0.091,0.33-0.15c0.092-0.059,0.166-0.126,0.222-0.2c0.057-0.074,0.098-0.153,0.125-0.238
			c0-0.002,0-0.003,0.001-0.006c0-0.002,0.001-0.004,0.002-0.006c0.001-0.002,0.001-0.004,0.002-0.007
			c0.001-0.001,0.001-0.003,0.002-0.005c0.001-0.007,0.003-0.014,0.004-0.02c0.002-0.006,0.003-0.013,0.005-0.02
			c0.001-0.006,0.003-0.013,0.004-0.02c0.002-0.006,0.003-0.013,0.003-0.02C50.903,16.481,50.901,16.355,50.88,16.226z"/>
	</g>
	<g>
		<path fill="#6AA643" d="M38.384,15.418c-0.125,0.031-0.25,0.06-0.372,0.088c-0.125,0.029-0.246,0.057-0.368,0.084
			c-0.121,0.026-0.241,0.053-0.361,0.08c-0.119,0.027-0.238,0.054-0.356,0.082l-0.032,0.006l-0.281,0.04
			c-0.053,0.008-0.105,0.014-0.157,0.02c-0.052,0.005-0.103,0.01-0.154,0.015c-0.051,0.004-0.102,0.007-0.151,0.012
			c-0.05,0.003-0.099,0.008-0.149,0.011l-0.018,0l-0.163,0.004c-0.019,0.001-0.044,0.001-0.075,0.001
			c-0.032-0.001-0.066-0.002-0.101-0.002c-0.035-0.001-0.071-0.002-0.103-0.003c-0.034,0-0.065-0.001-0.089-0.002l-0.223-0.035
			l-0.078-0.025c-0.009-0.003-0.019-0.006-0.03-0.009c-0.011-0.004-0.023-0.008-0.036-0.012c-0.011-0.005-0.023-0.009-0.037-0.014
			c-0.012-0.004-0.024-0.009-0.037-0.014l-0.235-0.125l-0.049-0.025l-0.042-0.025c-0.035-0.021-0.069-0.042-0.105-0.064
			c-0.034-0.022-0.069-0.045-0.104-0.069c-0.034-0.022-0.068-0.046-0.102-0.071c-0.034-0.023-0.068-0.047-0.103-0.072l-0.06-0.048
			l-0.083-0.07c-0.032-0.029-0.064-0.058-0.096-0.089c-0.032-0.03-0.063-0.061-0.096-0.092c-0.032-0.032-0.064-0.063-0.096-0.095
			c-0.031-0.032-0.065-0.062-0.097-0.093c-0.034-0.029-0.068-0.059-0.102-0.088c-0.034-0.031-0.067-0.062-0.101-0.093
			c-0.034-0.032-0.067-0.062-0.1-0.094c-0.034-0.032-0.069-0.063-0.104-0.096l-0.038-0.039l-0.171-0.187
			c-0.28-0.303-0.562-0.61-0.843-0.922c-0.28-0.309-0.559-0.624-0.842-0.944c-0.28-0.318-0.562-0.644-0.85-0.976
			c-0.283-0.329-0.57-0.666-0.861-1.012c-0.161-0.198-0.441-0.332-0.788-0.415c-0.347-0.083-0.761-0.118-1.195-0.116
			c-0.434,0.002-0.888,0.039-1.312,0.098c-0.425,0.059-0.821,0.139-1.14,0.227c-0.004,0.003-0.009,0.003-0.014,0.005
			c-0.005,0.001-0.009,0.002-0.015,0.004c-0.003,0.001-0.009,0.003-0.013,0.003c-0.005,0.001-0.009,0.003-0.014,0.004
			c-0.003,0-0.004,0-0.006,0.001c-0.002,0-0.005,0-0.007,0.001c-0.001,0-0.004,0.001-0.006,0.001c-0.002,0-0.005,0-0.007,0.001
			c-0.003,0-0.005,0-0.009,0.002c-0.003,0.001-0.006,0.001-0.01,0.001c-0.003,0-0.006,0.001-0.009,0.002
			c-0.004,0-0.007,0.001-0.01,0.003c-0.005,0.002-0.012,0.002-0.017,0.003c-0.006,0.001-0.012,0.002-0.017,0.004
			c-0.006,0.001-0.012,0.003-0.019,0.004c-0.006,0.001-0.012,0.003-0.018,0.004c-0.002,0-0.003,0-0.004,0.002
			c-0.002,0-0.003,0-0.005,0.001c-0.001,0-0.003,0-0.004,0.001c-0.002,0-0.004,0.001-0.005,0.001
			c-0.008,0.002-0.017,0.003-0.025,0.006c-0.009,0.002-0.017,0.005-0.026,0.007c-0.009,0.002-0.018,0.004-0.026,0.007
			c-0.008,0.003-0.018,0.005-0.027,0.007c-0.153,0.045-0.33,0.104-0.518,0.174c-0.187,0.07-0.383,0.153-0.574,0.242
			c-0.191,0.089-0.375,0.188-0.535,0.289c-0.161,0.102-0.299,0.207-0.397,0.311c-0.008,0.008-0.015,0.017-0.022,0.025
			c-0.007,0.009-0.014,0.017-0.021,0.024c-0.007,0.009-0.013,0.017-0.019,0.025c-0.006,0.007-0.013,0.017-0.018,0.025c0,0,0,0,0,0
			c0,0,0,0-0.002,0c0,0,0,0.001,0,0.002c0,0,0,0,0,0.001c-0.033,0.049-0.055,0.097-0.067,0.144c-0.011,0.047-0.011,0.094,0.001,0.14
			c0.012,0.045,0.039,0.09,0.079,0.134c0.04,0.043,0.095,0.085,0.167,0.124c0.002,0.001,0.004,0.003,0.006,0.005
			c0.001,0,0.004,0.001,0.006,0.002c0.002,0.001,0.003,0.002,0.006,0.003c0.002,0.001,0.003,0.003,0.005,0.004
			c0.38,0.209,0.756,0.417,1.125,0.624c0.373,0.208,0.739,0.417,1.099,0.622c0.362,0.207,0.717,0.413,1.062,0.615
			c0.347,0.204,0.685,0.406,1.013,0.604c0.173,0.105,0.344,0.21,0.512,0.313c0.167,0.104,0.332,0.207,0.492,0.307
			c0.161,0.104,0.318,0.204,0.472,0.304c0.153,0.1,0.303,0.198,0.448,0.295c0.431,0.286,0.828,0.556,1.205,0.809
			c0.378,0.255,0.734,0.491,1.078,0.707c0.345,0.219,0.677,0.417,1.007,0.593c0.333,0.178,0.661,0.334,0.998,0.466
			c0.336,0.135,0.691,0.234,1.079,0.303c0.388,0.071,0.807,0.112,1.271,0.131c0.466,0.018,0.975,0.014,1.542-0.007
			c0.567-0.021,1.193-0.058,1.891-0.104c0.587-0.051,1.221-0.108,1.891-0.171c0.167-0.016,0.336-0.032,0.508-0.049
			c-0.791-1.004-1.437-2.123-1.867-3.29C39.371,15.14,38.859,15.29,38.384,15.418z"/>
	</g>
	<g>
		<path fill="#6AA643" d="M38.988,7.6c-0.506-0.021-1.014,0.004-1.501,0.071c-0.66,0.091-1.286,0.261-1.82,0.495
			c-0.538,0.237-0.984,0.542-1.281,0.905c-0.033,0.038-0.063,0.076-0.092,0.114c-0.03,0.038-0.057,0.077-0.084,0.116
			c-0.026,0.039-0.052,0.078-0.076,0.117s-0.046,0.078-0.068,0.117c-0.184,0.337-0.273,0.68-0.284,1.018
			c-0.01,0.34,0.061,0.674,0.196,0.987c0.134,0.318,0.335,0.615,0.583,0.879c0.251,0.266,0.549,0.496,0.875,0.676
			c0.374,0.203,0.802,0.334,1.265,0.4c0.467,0.064,0.969,0.061,1.492-0.006c0.424-0.054,0.861-0.151,1.301-0.284
			c-0.117-1.665,0.34-3.522-0.232-5.025C39.186,7.973,39.093,7.779,38.988,7.6z"/>
	</g>
	<g>
		<path fill="#85B840" d="M41.417,12.381c0.197-0.111,0.381-0.229,0.548-0.354c0.167-0.125,0.317-0.255,0.451-0.39
			s0.25-0.274,0.348-0.416s0.178-0.287,0.238-0.433c0.099-0.239,0.146-0.482,0.137-0.724c-0.009-0.239-0.072-0.476-0.195-0.704
			c-0.124-0.226-0.305-0.446-0.551-0.65c-0.245-0.203-0.551-0.392-0.925-0.562c-0.594-0.269-1.263-0.434-1.946-0.509
			c-0.177-0.019-0.355-0.032-0.535-0.039c0.105,0.179,0.198,0.373,0.273,0.579c0.572,1.502,0.115,3.36,0.232,5.025
			c0.103-0.032,0.206-0.064,0.308-0.1C40.344,12.917,40.887,12.673,41.417,12.381z"/>
	</g>
</g>
<g>
	<path fill="#FFFFFF" d="M76.333,20.427h2.792v9.12h10.993v-9.12h2.821v21.745h-2.821v-9.833H79.126v9.833h-2.792V20.427z"/>
	<path fill="#FFFFFF" d="M103.695,20.427h3.505l7.932,21.745h-3.267l-2.347-6.329h-8.171l-2.108,6.329h-3.267L103.695,20.427z
		 M108.595,33.289l-3.028-9.12l-3.537,9.12H108.595z"/>
	<path fill="#FFFFFF" d="M118.164,20.427h11.02c1.526,0,2.822,0.495,3.891,1.485c1.071,0.99,1.715,2.365,1.933,4.129
		c0,0.357-0.02,0.738-0.061,1.144c-0.039,0.407-0.117,0.817-0.237,1.232c-0.178,0.556-0.475,1.095-0.89,1.62
		c-0.416,0.525-1.031,0.985-1.844,1.382c1.089,0.534,1.788,1.232,2.096,2.094c0.309,0.862,0.469,1.748,0.489,2.658
		c0,0.06,0,0.125,0,0.193c0,0.067,0,0.135,0,0.192c0,0.119,0,0.245,0,0.372c0,0.13,0,0.263,0,0.401
		c-0.021,0.852,0.014,1.647,0.104,2.391c0.089,0.743,0.439,1.324,1.054,1.739v0.712h-3.505c-0.139-0.396-0.244-0.801-0.312-1.218
		c-0.07-0.417-0.115-0.842-0.133-1.276c-0.021-0.199-0.037-0.405-0.045-0.624c-0.012-0.218-0.017-0.426-0.017-0.624
		c0-0.061,0-0.114,0-0.164c0-0.051,0-0.104,0-0.163c-0.038-1.267-0.207-2.406-0.504-3.416c-0.298-1.01-1.287-1.635-2.972-1.872
		h-7.247v9.357h-2.821V20.427z M128.471,30.23c0.062,0.02,0.118,0.029,0.178,0.029c0.061,0,0.12,0,0.18,0
		c0.91,0,1.681-0.375,2.301-1.127c0.625-0.754,0.946-1.585,0.966-2.496c0-0.02,0-0.034,0-0.045c0-0.01,0-0.024,0-0.044
		s0-0.035,0-0.045s0-0.024,0-0.045c-0.02-0.812-0.362-1.568-1.026-2.272c-0.661-0.702-1.765-1.104-3.312-1.203h-6.771v7.249H128.471
		z"/>
	<path fill="#FFFFFF" d="M139.226,20.427h4.188l6.092,18.24l6.09-18.24h4.215v21.745h-3.057V24.853L150.9,42.172h-2.794
		l-5.852-17.081v17.081h-3.029V20.427z"/>
	<path fill="#FFFFFF" d="M162.902,29.442c0.038-0.347,0.1-0.698,0.179-1.054c0.455-2.04,1.557-3.916,3.312-5.629
		c1.751-1.714,4.085-2.571,6.994-2.571c0.357,0,0.715,0.014,1.072,0.045c0.356,0.029,0.712,0.084,1.068,0.163
		c2.039,0.376,3.92,1.411,5.644,3.104c1.725,1.693,2.634,4.333,2.735,7.918c0,3.051-0.936,5.719-2.809,8.006
		c-1.872,2.287-4.68,3.431-8.422,3.431c-3.27,0-5.724-1.159-7.367-3.476c-1.645-2.317-2.466-5.288-2.466-8.912
		C162.843,30.13,162.861,29.789,162.902,29.442z M165.871,33.468c0.101,0.575,0.258,1.159,0.478,1.753
		c0.415,1.188,1.109,2.293,2.079,3.312s2.386,1.609,4.248,1.768c0.14,0.02,0.271,0.035,0.399,0.045
		c0.13,0.009,0.263,0.015,0.401,0.015c1.962,0,3.714-0.837,5.257-2.511c1.548-1.675,2.262-4.214,2.14-7.62
		c-0.117-1.981-0.841-3.723-2.167-5.229c-1.327-1.504-3.101-2.257-5.319-2.257c-0.257,0-0.515,0.016-0.77,0.044
		c-0.259,0.029-0.518,0.074-0.775,0.135c-1.542,0.317-2.959,1.188-4.247,2.614s-1.931,3.546-1.931,6.358
		C165.705,32.369,165.773,32.894,165.871,33.468z"/>
	<path fill="#FFFFFF" d="M187.203,20.427h3.507l10.753,17.527V20.427h2.821v21.745h-3.297l-10.992-17.319v17.319h-2.792V20.427z"/>
	<path fill="#FFFFFF" d="M215.009,33.766l-8.408-13.339h3.508l6.326,10.516l6.062-10.516H226l-8.17,13.339v8.406h-2.821V33.766z"/>
</g>
</svg>
