<?xml version="1.0" encoding="utf-8"?>
<!-- Generator: Adobe Illustrator 15.1.0, SVG Export Plug-In . SVG Version: 6.00 Build 0)  -->
<!DOCTYPE svg PUBLIC "-//W3C//DTD SVG 1.1//EN" "http://www.w3.org/Graphics/SVG/1.1/DTD/svg11.dtd">
<svg version="1.1" id="Layer_1" xmlns="http://www.w3.org/2000/svg" xmlns:xlink="http://www.w3.org/1999/xlink" x="0px" y="0px"
	 width="226px" height="64px" viewBox="0 0 226 64" enable-background="new 0 0 226 64" xml:space="preserve">
<g>
	<path fill="#2FA9E0" d="M32.447,12.661c-0.369-0.217-0.748-0.437-1.135-0.658c-0.385-0.219-0.776-0.441-1.174-0.664
		c-0.395-0.221-0.796-0.444-1.202-0.667l-0.007-0.003c-0.002-0.001-0.003-0.002-0.006-0.003c-0.002-0.001-0.004-0.003-0.005-0.003
		c-0.003-0.002-0.005-0.003-0.007-0.005c-0.076-0.042-0.135-0.086-0.178-0.132c-0.043-0.047-0.071-0.095-0.084-0.143
		c-0.013-0.05-0.013-0.1-0.001-0.15c0.013-0.051,0.038-0.102,0.072-0.153c0-0.001,0-0.001,0-0.002l0-0.001c0.002,0,0.002,0,0.002,0
		c0,0,0,0,0,0c0.006-0.009,0.013-0.019,0.02-0.027c0.006-0.009,0.013-0.018,0.02-0.026c0.008-0.008,0.015-0.017,0.022-0.026
		s0.015-0.019,0.024-0.027c0.105-0.111,0.252-0.224,0.424-0.333c0.172-0.108,0.369-0.212,0.572-0.308
		c0.203-0.096,0.414-0.184,0.613-0.259c0.201-0.076,0.39-0.139,0.553-0.187c0.009-0.002,0.02-0.005,0.029-0.007
		c0.009-0.004,0.018-0.005,0.027-0.008c0.01-0.003,0.019-0.005,0.028-0.008c0.01-0.003,0.018-0.004,0.027-0.007
		c0.001,0,0.003-0.001,0.005-0.001C31.087,8.85,31.09,8.85,31.091,8.85c0.002,0,0.004-0.001,0.005-0.001
		c0.003-0.001,0.004-0.002,0.005-0.002c0.006-0.001,0.013-0.003,0.02-0.005c0.006-0.001,0.012-0.002,0.02-0.004
		c0.006-0.002,0.012-0.003,0.019-0.005c0.005-0.001,0.012-0.002,0.018-0.003l0.011-0.003c0.003-0.001,0.007-0.001,0.01-0.003
		l0.01-0.002c0.004-0.001,0.006-0.001,0.01-0.001c0.002-0.001,0.005-0.001,0.007-0.002c0.002-0.001,0.005-0.002,0.007-0.002
		c0.002,0,0.005,0,0.007,0c0.003-0.001,0.004-0.001,0.007-0.002c0.005-0.002,0.01-0.003,0.015-0.004
		c0.004,0,0.009-0.002,0.014-0.003c0.006-0.002,0.01-0.003,0.016-0.005c0.005-0.001,0.01-0.001,0.014-0.004
		c-0.161,0.033-0.323,0.069-0.482,0.109c-0.16,0.04-0.318,0.084-0.474,0.132c-0.157,0.048-0.31,0.1-0.462,0.154
		c-0.151,0.056-0.301,0.112-0.446,0.175c-0.095,0.034-0.215,0.085-0.347,0.147c-0.131,0.063-0.274,0.139-0.414,0.22
		c-0.139,0.083-0.273,0.171-0.389,0.261c-0.116,0.09-0.211,0.182-0.272,0.27c-0.011,0.016-0.021,0.033-0.03,0.048
		c-0.008,0.016-0.016,0.032-0.022,0.047c-0.006,0.017-0.011,0.032-0.014,0.047c-0.003,0.015-0.005,0.031-0.005,0.044
		c-0.011,0.444-0.024,0.9-0.043,1.357c-0.018,0.463-0.042,0.927-0.072,1.383c-0.031,0.46-0.07,0.913-0.119,1.344
		c-0.048,0.438-0.107,0.853-0.177,1.234c-0.021,0.091-0.044,0.182-0.067,0.271c-0.024,0.09-0.049,0.179-0.074,0.268
		c-0.024,0.088-0.049,0.176-0.073,0.265c-0.024,0.087-0.049,0.175-0.071,0.264l-0.008,0.022l-0.088,0.201
		c-0.017,0.038-0.036,0.076-0.055,0.112c-0.019,0.037-0.039,0.074-0.06,0.109c-0.02,0.037-0.041,0.072-0.062,0.107
		c-0.021,0.035-0.042,0.071-0.063,0.104l-0.008,0.014l-0.082,0.109c-0.01,0.015-0.023,0.033-0.04,0.054
		c-0.017,0.021-0.036,0.045-0.056,0.069c-0.02,0.024-0.04,0.048-0.059,0.071c-0.019,0.022-0.037,0.043-0.05,0.061l-0.168,0.144
		l-0.079,0.049c-0.009,0.006-0.019,0.012-0.03,0.018c-0.01,0.006-0.023,0.014-0.035,0.021c-0.013,0.007-0.026,0.015-0.04,0.022
		c-0.013,0.007-0.026,0.015-0.04,0.022l-0.31,0.131l-0.066,0.026l-0.062,0.021c-0.049,0.02-0.1,0.039-0.152,0.056
		c-0.053,0.02-0.104,0.037-0.157,0.056c-0.053,0.018-0.107,0.035-0.161,0.053c-0.054,0.018-0.108,0.036-0.164,0.054l-0.104,0.03
		l-0.152,0.039c-0.061,0.016-0.124,0.031-0.186,0.045c-0.064,0.014-0.128,0.029-0.193,0.043c-0.064,0.015-0.13,0.029-0.195,0.042
		c-0.066,0.015-0.133,0.029-0.2,0.044l-0.799,0.191l-0.082,0.019l-0.386,0.073c-0.641,0.124-1.292,0.247-1.96,0.374
		c-0.173,0.031-0.346,0.063-0.521,0.097c-0.502,0.093-1.014,0.187-1.537,0.282c-0.706,0.128-1.432,0.256-2.185,0.388
		c-0.752,0.131-1.529,0.266-2.338,0.401c-0.278,0.045-0.549,0.132-0.811,0.251c-0.262,0.12-0.514,0.271-0.755,0.446
		c-0.241,0.175-0.469,0.373-0.683,0.585c-0.215,0.212-0.415,0.44-0.596,0.671c-0.124,0.159-0.238,0.318-0.344,0.477
		c-0.105,0.159-0.201,0.316-0.287,0.47c-0.085,0.153-0.16,0.302-0.222,0.444c-0.063,0.143-0.113,0.277-0.151,0.399
		c-0.048,0.1-0.093,0.231-0.131,0.383c-0.039,0.151-0.069,0.324-0.088,0.506c-0.018,0.18-0.021,0.37-0.009,0.553
		c0.014,0.185,0.046,0.363,0.101,0.523c0.027,0.075,0.059,0.146,0.095,0.211c0.038,0.066,0.082,0.125,0.131,0.177
		c0.05,0.053,0.105,0.098,0.169,0.136c0.062,0.037,0.133,0.064,0.21,0.083c0.061,0.014,0.125,0.022,0.195,0.024
		c0.069,0.001,0.145-0.004,0.223-0.017c0.08-0.013,0.164-0.033,0.253-0.06c0.09-0.028,0.185-0.065,0.284-0.109
		c0.735-0.318,1.454-0.627,2.156-0.925c0.698-0.298,1.38-0.587,2.043-0.863c0.659-0.277,1.301-0.542,1.923-0.796
		c0.619-0.252,1.217-0.494,1.793-0.723c0.258-0.103,0.511-0.203,0.76-0.3c0.248-0.098,0.492-0.193,0.731-0.285
		c0.238-0.091,0.472-0.181,0.702-0.268c0.229-0.085,0.453-0.17,0.673-0.251c0.715-0.268,1.378-0.51,1.993-0.735
		c0.045-0.018,0.088-0.033,0.132-0.05c0.561-0.206,1.081-0.4,1.563-0.585c0.518-0.201,0.993-0.394,1.427-0.587
		c0.434-0.193,0.829-0.388,1.189-0.591c0.289-0.163,0.551-0.34,0.797-0.537c0.243-0.194,0.468-0.408,0.683-0.642
		c0.213-0.234,0.415-0.49,0.615-0.77c0.197-0.28,0.391-0.583,0.588-0.914c0.045-0.075,0.089-0.152,0.135-0.229
		c0.044-0.078,0.09-0.157,0.136-0.238c0.045-0.081,0.092-0.163,0.138-0.247c0.046-0.083,0.093-0.167,0.14-0.254
		c0.104-0.199,0.21-0.405,0.317-0.618c0.108-0.211,0.216-0.431,0.327-0.655c0.109-0.224,0.221-0.452,0.332-0.686
		c0.111-0.232,0.223-0.469,0.335-0.709C33.179,13.094,32.818,12.878,32.447,12.661z"/>
	<path fill="#F8B427" d="M25.744,46.72c0-0.891,0.003-1.751,0.009-2.578c0.006-0.814,0.016-1.601,0.03-2.354
		c0.014-0.743,0.031-1.455,0.054-2.139c0.022-0.673,0.047-1.315,0.078-1.928c0.014-0.267,0.028-0.527,0.043-0.784
		c0.015-0.25,0.031-0.499,0.048-0.738c0.017-0.24,0.035-0.475,0.055-0.704c0.018-0.227,0.038-0.448,0.06-0.665
		c0.065-0.715,0.136-1.363,0.198-1.96c0.03-0.278,0.058-0.545,0.083-0.802c0.027-0.283,0.053-0.553,0.071-0.811
		c0.036-0.486,0.054-0.93,0.043-1.34c-0.011-0.408-0.05-0.781-0.13-1.131c-0.07-0.347-0.194-0.663-0.375-0.96
		c-0.18-0.295-0.415-0.575-0.711-0.854c-0.292-0.276-0.644-0.553-1.056-0.843c-0.408-0.288-0.876-0.59-1.406-0.92
		c-0.219-0.134-0.45-0.271-0.688-0.412c-0.239-0.141-0.484-0.285-0.738-0.431c-0.253-0.147-0.514-0.297-0.781-0.448
		c-0.265-0.151-0.538-0.304-0.815-0.458c-0.576,0.229-1.174,0.471-1.793,0.723c-0.622,0.254-1.264,0.519-1.923,0.796
		c-0.663,0.276-1.345,0.565-2.043,0.863c-0.702,0.298-1.421,0.607-2.156,0.925c-0.099,0.044-0.194,0.081-0.284,0.109
		c-0.089,0.027-0.173,0.047-0.253,0.06c-0.078,0.013-0.153,0.018-0.223,0.017c-0.07-0.001-0.134-0.01-0.195-0.024
		c-0.077-0.019-0.148-0.047-0.21-0.083c-0.063-0.038-0.119-0.083-0.169-0.136c-0.049-0.052-0.093-0.111-0.131-0.177
		c-0.036-0.065-0.068-0.136-0.095-0.211c0.02,0.081,0.044,0.16,0.077,0.233c0.031,0.074,0.068,0.142,0.113,0.2
		c0.045,0.06,0.097,0.111,0.157,0.152c0.06,0.039,0.129,0.067,0.206,0.082c0.744,0.147,1.502,0.298,2.255,0.451
		c0.756,0.154,1.506,0.311,2.231,0.469c0.729,0.16,1.433,0.321,2.088,0.485c0.659,0.165,1.271,0.331,1.812,0.498
		c0.128,0.044,0.257,0.087,0.386,0.13c0.128,0.043,0.257,0.086,0.384,0.13c0.126,0.043,0.25,0.087,0.37,0.132
		c0.12,0.044,0.236,0.09,0.346,0.136l0.031,0.013l0.242,0.132l0.521,0.315l0.016,0.01l0.121,0.097
		c0.014,0.012,0.031,0.03,0.052,0.05c0.02,0.021,0.042,0.043,0.065,0.066c0.022,0.024,0.044,0.049,0.065,0.071
		c0.021,0.023,0.041,0.043,0.057,0.06l0.1,0.188l0.018,0.08c0.002,0.009,0.003,0.02,0.006,0.032
		c0.001,0.012,0.004,0.024,0.006,0.038c0.002,0.012,0.004,0.026,0.005,0.04c0.002,0.014,0.004,0.027,0.005,0.042l0.001,0.296
		l0.003,0.061l-0.005,0.058c-0.007,0.048-0.014,0.098-0.023,0.148c-0.007,0.05-0.017,0.103-0.027,0.153
		c-0.009,0.041-0.018,0.082-0.026,0.123c-0.002,0.012-0.004,0.024-0.007,0.035c-0.011,0.053-0.023,0.105-0.036,0.161l-0.027,0.101
		l-0.049,0.144c-0.018,0.059-0.041,0.12-0.063,0.179c-0.024,0.062-0.049,0.124-0.073,0.185c-0.024,0.062-0.048,0.125-0.07,0.187
		c-0.023,0.061-0.043,0.122-0.06,0.181c-0.019,0.061-0.04,0.125-0.062,0.188c-0.021,0.064-0.044,0.127-0.067,0.192
		c-0.023,0.063-0.048,0.128-0.072,0.195c-0.025,0.066-0.049,0.134-0.074,0.201l-0.032,0.08l-0.164,0.376
		c-0.269,0.62-0.549,1.265-0.844,1.932c-0.299,0.678-0.613,1.38-0.944,2.114c-0.336,0.745-0.691,1.521-1.066,2.338
		c-0.381,0.832-0.784,1.702-1.211,2.62c-0.258,0.537-0.291,1.081-0.166,1.604c0.127,0.53,0.416,1.041,0.793,1.505
		c0.383,0.464,0.859,0.885,1.355,1.226c0.5,0.345,1.019,0.609,1.48,0.766c0.168,0.088,0.425,0.183,0.739,0.263
		c0.313,0.08,0.683,0.152,1.073,0.191c0.392,0.045,0.805,0.057,1.202,0.028c0.398-0.028,0.781-0.099,1.112-0.229
		c0.007,0,0.014-0.005,0.02-0.009c0.007-0.002,0.014-0.002,0.021-0.008c0.006-0.002,0.013-0.004,0.02-0.007
		c0.006-0.004,0.013-0.006,0.019-0.008c0.091-0.039,0.179-0.084,0.26-0.134c0.081-0.049,0.157-0.103,0.228-0.162
		c0.069-0.058,0.134-0.123,0.192-0.192c0.057-0.072,0.107-0.146,0.15-0.229c0.002-0.002,0.003-0.006,0.005-0.01
		c0.001-0.002,0.004-0.004,0.004-0.008c0.002-0.003,0.003-0.005,0.005-0.011l0.003-0.006c0.006-0.011,0.011-0.022,0.017-0.035
		c0.006-0.013,0.011-0.024,0.017-0.035c0.004-0.012,0.01-0.026,0.014-0.037c0.005-0.01,0.009-0.024,0.014-0.036
		c0.016-0.044,0.03-0.091,0.042-0.138c0.012-0.048,0.022-0.097,0.029-0.148c0.008-0.049,0.014-0.103,0.017-0.155
		C25.744,46.831,25.745,46.775,25.744,46.72z"/>
	<path fill="#F06025" d="M59.598,38.628c-0.033-0.17-0.093-0.33-0.184-0.474c-0.091-0.144-0.215-0.271-0.376-0.376
		c-0.16-0.104-0.357-0.188-0.597-0.244c-0.017-0.004-0.033-0.008-0.049-0.011c-0.016-0.004-0.032-0.01-0.049-0.01
		c-0.017-0.006-0.034-0.008-0.051-0.011c-0.017-0.004-0.035-0.006-0.052-0.008c-0.937-0.166-1.85-0.33-2.737-0.495
		c-0.881-0.164-1.738-0.326-2.566-0.488c-0.825-0.162-1.622-0.32-2.388-0.477c-0.763-0.157-1.498-0.313-2.201-0.468
		c-0.327-0.073-0.649-0.146-0.963-0.218c-0.313-0.069-0.621-0.14-0.92-0.211c-0.299-0.07-0.591-0.14-0.875-0.209
		c-0.285-0.07-0.562-0.14-0.83-0.21c-0.856-0.207-1.636-0.41-2.354-0.598c-0.715-0.187-1.37-0.356-1.977-0.505
		c-0.064-0.016-0.125-0.028-0.188-0.043c-0.532-0.125-1.032-0.231-1.502-0.308c-0.526-0.088-1.021-0.14-1.496-0.149
		c-0.479-0.027-0.95-0.005-1.436,0.073c-0.484,0.078-0.984,0.205-1.521,0.386c-0.538,0.183-1.115,0.421-1.752,0.708
		c-0.64,0.29-1.342,0.633-2.128,1.031c-0.322,0.166-0.658,0.343-1.008,0.525c-0.351,0.187-0.713,0.378-1.087,0.579
		c-0.376,0.203-0.764,0.41-1.163,0.626c-0.4,0.218-0.811,0.441-1.231,0.675c-0.031,0.612-0.056,1.255-0.078,1.928
		c-0.022,0.684-0.04,1.396-0.054,2.139c-0.014,0.754-0.023,1.54-0.03,2.354c-0.006,0.827-0.009,1.688-0.009,2.578
		c0.001,0.056,0,0.111-0.003,0.165c-0.002,0.053-0.009,0.106-0.017,0.155c-0.007,0.052-0.017,0.101-0.029,0.148
		c-0.012,0.047-0.026,0.094-0.042,0.138c-0.004,0.012-0.008,0.026-0.014,0.036c-0.004,0.011-0.01,0.025-0.014,0.037
		c-0.006,0.011-0.011,0.022-0.017,0.035c-0.005,0.013-0.011,0.024-0.017,0.035l-0.003,0.006c-0.002,0.006-0.003,0.008-0.005,0.011
		c0,0.004-0.003,0.006-0.004,0.008c-0.001,0.004-0.003,0.008-0.005,0.01c-0.043,0.083-0.094,0.156-0.15,0.229
		c-0.058,0.069-0.122,0.135-0.192,0.192c-0.071,0.06-0.147,0.113-0.228,0.162c-0.082,0.05-0.169,0.095-0.26,0.134
		c-0.006,0.002-0.012,0.004-0.019,0.008c-0.006,0.003-0.013,0.005-0.02,0.007c-0.007,0.006-0.013,0.006-0.021,0.008
		c-0.006,0.004-0.013,0.009-0.02,0.009c0.065-0.021,0.128-0.046,0.188-0.07c0.06-0.026,0.116-0.056,0.171-0.086
		c0.053-0.031,0.104-0.065,0.152-0.103c0.047-0.037,0.089-0.076,0.128-0.121c0.781-0.827,1.562-1.655,2.328-2.462
		c0.755-0.796,1.497-1.57,2.212-2.301c0.706-0.723,1.386-1.404,2.029-2.026c0.635-0.613,1.234-1.172,1.786-1.652
		c0.136-0.119,0.271-0.233,0.405-0.349c0.134-0.111,0.267-0.224,0.397-0.331c0.132-0.106,0.261-0.211,0.388-0.31
		c0.129-0.101,0.254-0.197,0.378-0.289l0.037-0.022l0.312-0.193l0.708-0.417l0.023-0.012l0.193-0.085
		c0.024-0.01,0.057-0.022,0.094-0.034c0.039-0.013,0.082-0.027,0.125-0.041c0.043-0.015,0.089-0.029,0.13-0.041
		c0.041-0.013,0.079-0.027,0.11-0.037l0.302-0.043l0.119,0.006c0.013,0,0.028,0.002,0.044,0.002c0.018,0,0.035,0.002,0.053,0.002
		c0.018,0.002,0.037,0.002,0.057,0.004c0.019,0,0.039,0,0.058-0.002l0.028,0.004l0.368,0.046l0.084,0.01l0.073,0.021
		c0.063,0.017,0.125,0.037,0.188,0.056c0.064,0.021,0.127,0.041,0.191,0.062c0.063,0.022,0.128,0.045,0.193,0.07
		c0.065,0.021,0.13,0.045,0.195,0.069l0.123,0.047l0.169,0.08c0.069,0.031,0.138,0.063,0.206,0.093
		c0.069,0.03,0.139,0.06,0.207,0.088c0.069,0.031,0.138,0.058,0.209,0.091c0.07,0.028,0.141,0.062,0.213,0.092l0.899,0.426
		l0.093,0.047l0.417,0.233c0.69,0.354,1.401,0.729,2.139,1.123c0.744,0.4,1.517,0.821,2.32,1.263
		c0.812,0.445,1.655,0.911,2.535,1.404c0.89,0.496,1.818,1.018,2.787,1.562c0.569,0.333,1.22,0.456,1.896,0.43
		c0.676-0.027,1.375-0.201,2.037-0.469c0.661-0.265,1.285-0.615,1.819-0.995c0.531-0.376,0.971-0.778,1.271-1.146
		c0.109-0.095,0.234-0.229,0.362-0.398c0.128-0.166,0.261-0.365,0.385-0.581c0.123-0.213,0.24-0.449,0.338-0.689
		s0.179-0.488,0.229-0.732c0.006-0.033,0.014-0.062,0.018-0.093c0.005-0.03,0.011-0.063,0.016-0.092
		c0.004-0.031,0.008-0.062,0.012-0.093c0.004-0.031,0.006-0.06,0.008-0.091C59.638,38.985,59.63,38.801,59.598,38.628z"/>
	<g>
		<path fill="#ED4296" d="M62.222,18.763c-0.053-0.282-0.153-0.568-0.284-0.843c-0.13-0.274-0.29-0.536-0.46-0.772
			c-0.169-0.234-0.353-0.443-0.532-0.611c-0.055-0.073-0.206-0.236-0.419-0.452c-0.212-0.215-0.486-0.481-0.795-0.766
			c-0.305-0.282-0.644-0.581-0.989-0.862c-0.34-0.278-0.687-0.54-1.013-0.752c0.018,0.019,0.036,0.038,0.054,0.058
			c0.017,0.019,0.035,0.039,0.053,0.057c0.018,0.02,0.034,0.04,0.051,0.059c0.018,0.02,0.034,0.039,0.051,0.059
			c0.012,0.012,0.022,0.025,0.035,0.04c0.012,0.013,0.023,0.027,0.034,0.041c0.012,0.013,0.022,0.028,0.034,0.042
			c0.012,0.014,0.022,0.03,0.034,0.043c0.087,0.113,0.172,0.237,0.248,0.367c0.077,0.129,0.146,0.266,0.202,0.405
			c0.056,0.139,0.097,0.278,0.118,0.416c0.022,0.139,0.025,0.274,0.001,0.401c-0.001,0.008-0.002,0.015-0.003,0.021
			c-0.001,0.007-0.003,0.014-0.004,0.021c-0.003,0.007-0.004,0.015-0.006,0.021c-0.001,0.008-0.004,0.015-0.004,0.021
			c-0.001,0.003-0.001,0.005-0.003,0.006c-0.001,0.003-0.001,0.005-0.002,0.007c-0.001,0.002-0.002,0.004-0.002,0.006
			c-0.001,0.002-0.001,0.005-0.001,0.007c-0.029,0.091-0.072,0.176-0.134,0.254c-0.061,0.08-0.138,0.151-0.236,0.214
			c-0.098,0.063-0.214,0.117-0.354,0.161c-0.139,0.042-0.3,0.075-0.484,0.094c-0.145,0.019-0.287,0.036-0.429,0.053
			c-0.143,0.018-0.287,0.035-0.429,0.052c-0.142,0.018-0.284,0.036-0.425,0.051c-0.142,0.019-0.282,0.035-0.424,0.052
			c-0.444,0.51-0.85,0.984-1.234,1.437c-0.388,0.456-0.754,0.887-1.114,1.3c-0.365,0.417-0.723,0.815-1.095,1.205
			c-0.374,0.394-0.761,0.779-1.18,1.163c-0.472,0.444-0.922,0.852-1.343,1.234c-0.424,0.384-0.819,0.741-1.174,1.08
			c-0.359,0.341-0.679,0.664-0.955,0.98c-0.275,0.317-0.506,0.628-0.682,0.942c-0.031,0.049-0.061,0.098-0.089,0.146
			c-0.028,0.049-0.053,0.1-0.078,0.149c-0.026,0.05-0.049,0.1-0.072,0.15c-0.021,0.051-0.042,0.102-0.062,0.153
			c-0.105,0.28-0.169,0.57-0.198,0.884c-0.029,0.316-0.021,0.654,0.018,1.025c0.039,0.375,0.112,0.783,0.213,1.236
			c0.065,0.299,0.146,0.619,0.236,0.96c0.047,0.182,0.098,0.369,0.152,0.565c0.083,0.289,0.172,0.595,0.268,0.915
			c0.096,0.322,0.199,0.661,0.306,1.011c0.11,0.355,0.225,0.725,0.346,1.104c0.122,0.386,0.249,0.784,0.38,1.194
			c0.704,0.154,1.438,0.311,2.201,0.468c0.767,0.156,1.563,0.314,2.388,0.477c0.828,0.162,1.685,0.324,2.566,0.488
			c0.887,0.165,1.801,0.329,2.737,0.495c0.017,0.002,0.035,0.004,0.052,0.008c0.018,0.003,0.035,0.005,0.051,0.011
			c0.017,0,0.033,0.006,0.049,0.01c0.017,0.003,0.032,0.007,0.049,0.011c0.24,0.056,0.437,0.14,0.597,0.244
			c0.161,0.104,0.285,0.232,0.376,0.376c0.091,0.144,0.151,0.304,0.184,0.474c0.032,0.173,0.04,0.357,0.023,0.546
			c0.003-0.01,0.005-0.016,0.007-0.026c0.002-0.01,0.005-0.019,0.006-0.028c0.003-0.009,0.004-0.019,0.006-0.027
			c0-0.008,0.004-0.016,0.006-0.026c0.025-0.119,0.044-0.24,0.052-0.357c0.009-0.116,0.008-0.229-0.004-0.341
			c-0.014-0.108-0.038-0.213-0.079-0.308c-0.04-0.097-0.094-0.183-0.166-0.259c-0.687-0.757-1.369-1.511-2.029-2.245
			c-0.648-0.721-1.275-1.423-1.864-2.097c-0.576-0.659-1.115-1.291-1.6-1.879c-0.155-0.189-0.305-0.374-0.448-0.555
			c-0.298-0.371-0.569-0.724-0.807-1.053c-0.09-0.121-0.176-0.239-0.259-0.358c-0.083-0.117-0.162-0.232-0.239-0.345
			c-0.075-0.114-0.146-0.225-0.215-0.334c-0.068-0.109-0.133-0.216-0.196-0.321l-0.015-0.028l-0.108-0.254
			c-0.018-0.047-0.037-0.095-0.057-0.144c-0.021-0.047-0.042-0.095-0.064-0.144c-0.021-0.048-0.043-0.096-0.062-0.143
			c-0.02-0.048-0.039-0.094-0.055-0.139l-0.006-0.019l-0.03-0.147c-0.003-0.018-0.005-0.042-0.008-0.07
			c-0.002-0.028-0.004-0.06-0.005-0.091c-0.002-0.033-0.003-0.064-0.004-0.095c-0.002-0.031-0.002-0.06-0.003-0.082l0.048-0.207
			l0.039-0.077c0.005-0.008,0.011-0.018,0.016-0.028c0.004-0.011,0.01-0.023,0.014-0.035c0.006-0.012,0.01-0.024,0.016-0.038
			c0.005-0.012,0.011-0.025,0.017-0.038l0.173-0.244l0.038-0.052l0.045-0.042c0.037-0.037,0.076-0.073,0.116-0.108
			c0.041-0.036,0.082-0.071,0.123-0.107c0.042-0.036,0.084-0.071,0.129-0.107c0.043-0.037,0.088-0.072,0.133-0.108l0.085-0.065
			l0.131-0.089l0.611-0.438c0.052-0.038,0.108-0.075,0.166-0.113c0.056-0.037,0.113-0.075,0.171-0.112
			c0.058-0.038,0.117-0.077,0.176-0.114c0.061-0.038,0.119-0.076,0.18-0.115l0.073-0.045l0.351-0.2
			c0.533-0.331,1.088-0.666,1.663-1.007c0.572-0.338,1.165-0.683,1.775-1.033c0.606-0.35,1.229-0.707,1.866-1.07
			c0.632-0.364,1.28-0.734,1.937-1.115c0.109-0.059,0.205-0.125,0.292-0.196c0.084-0.072,0.157-0.149,0.218-0.23
			c0.062-0.082,0.114-0.167,0.156-0.257c0.041-0.09,0.071-0.184,0.093-0.28C62.283,19.327,62.277,19.047,62.222,18.763z"/>
	</g>
	<path fill="#6AA643" d="M58.643,15.289c-0.021-0.137-0.062-0.277-0.118-0.416c-0.055-0.139-0.125-0.275-0.202-0.405
		c-0.076-0.13-0.161-0.254-0.248-0.367c-0.011-0.014-0.021-0.029-0.034-0.043c-0.012-0.014-0.022-0.028-0.034-0.042
		c-0.011-0.014-0.022-0.028-0.034-0.041c-0.013-0.015-0.023-0.028-0.035-0.04c-0.018-0.02-0.034-0.039-0.051-0.059
		c-0.018-0.019-0.034-0.039-0.051-0.059c-0.018-0.018-0.036-0.038-0.053-0.057c-0.019-0.02-0.037-0.039-0.054-0.058
		c-0.141-0.146-0.293-0.291-0.457-0.429c-0.162-0.139-0.334-0.271-0.518-0.396c-0.182-0.125-0.376-0.244-0.579-0.352
		c-0.202-0.108-0.415-0.209-0.639-0.297c-0.108-0.053-0.268-0.12-0.456-0.186c-0.187-0.065-0.401-0.13-0.619-0.181
		c-0.219-0.052-0.442-0.089-0.648-0.099c-0.206-0.011-0.396,0.005-0.546,0.062c-0.695,0.245-1.4,0.491-2.102,0.732
		c-0.704,0.243-1.404,0.479-2.088,0.706c-0.688,0.226-1.355,0.441-1.991,0.638c-0.059,0.017-0.114,0.035-0.173,0.052
		c-0.573,0.174-1.12,0.334-1.627,0.472c-0.134,0.033-0.268,0.065-0.398,0.095c-0.132,0.03-0.263,0.061-0.393,0.089
		c-0.129,0.028-0.258,0.057-0.386,0.085c-0.127,0.029-0.254,0.058-0.38,0.088l-0.035,0.006l-0.3,0.042
		c-0.057,0.008-0.113,0.015-0.168,0.021c-0.055,0.006-0.11,0.011-0.164,0.016c-0.055,0.004-0.109,0.008-0.162,0.013
		c-0.054,0.003-0.106,0.007-0.159,0.012l-0.019,0l-0.174,0.004c-0.021,0-0.047,0-0.08,0c-0.034,0-0.07-0.001-0.108-0.002
		c-0.037-0.001-0.076-0.002-0.11-0.003c-0.036-0.001-0.069-0.002-0.094-0.003l-0.238-0.036l-0.083-0.027
		c-0.009-0.004-0.021-0.006-0.032-0.01c-0.013-0.004-0.025-0.009-0.038-0.013s-0.026-0.01-0.039-0.014
		c-0.013-0.005-0.026-0.01-0.04-0.015l-0.25-0.133l-0.053-0.028l-0.045-0.027c-0.037-0.021-0.074-0.044-0.112-0.067
		c-0.037-0.024-0.074-0.049-0.11-0.074c-0.036-0.024-0.073-0.049-0.109-0.075c-0.037-0.025-0.073-0.051-0.11-0.078l-0.065-0.051
		l-0.088-0.074c-0.035-0.031-0.069-0.063-0.103-0.096c-0.034-0.032-0.068-0.065-0.102-0.099c-0.034-0.034-0.069-0.067-0.103-0.101
		c-0.034-0.035-0.069-0.067-0.104-0.1c-0.036-0.03-0.072-0.062-0.109-0.094c-0.036-0.033-0.071-0.065-0.107-0.099
		c-0.036-0.034-0.072-0.066-0.107-0.101c-0.037-0.033-0.073-0.068-0.11-0.102l-0.041-0.042l-0.183-0.2
		c-0.3-0.324-0.601-0.652-0.901-0.985c-0.299-0.33-0.598-0.667-0.899-1.009c-0.3-0.34-0.602-0.688-0.909-1.043
		c-0.302-0.351-0.609-0.712-0.921-1.082c-0.173-0.211-0.471-0.355-0.842-0.443c-0.371-0.089-0.813-0.126-1.278-0.124
		c-0.463,0.001-0.948,0.041-1.402,0.104c-0.454,0.062-0.877,0.148-1.219,0.243C31.3,8.799,31.295,8.8,31.29,8.801
		c-0.005,0.001-0.01,0.002-0.016,0.005c-0.004,0.001-0.01,0.003-0.014,0.003c-0.005,0.001-0.01,0.002-0.015,0.004
		c-0.003,0.001-0.004,0.001-0.007,0.002c-0.002,0-0.005,0-0.007,0c-0.001,0-0.005,0.001-0.007,0.002c-0.002,0-0.005,0-0.007,0.002
		c-0.004,0-0.006,0-0.01,0.001l-0.01,0.002c-0.003,0.001-0.007,0.002-0.01,0.003l-0.011,0.003c-0.005,0.001-0.012,0.002-0.018,0.003
		c-0.007,0.002-0.013,0.003-0.019,0.005c-0.007,0.001-0.013,0.002-0.02,0.004c-0.007,0.002-0.013,0.003-0.02,0.005
		c-0.001,0-0.002,0.001-0.005,0.002c-0.001,0-0.003,0-0.005,0.001c-0.001,0-0.003,0-0.004,0.001c-0.001,0-0.004,0.001-0.005,0.001
		c-0.009,0.003-0.018,0.004-0.027,0.007c-0.009,0.002-0.018,0.004-0.028,0.008c-0.01,0.002-0.018,0.004-0.027,0.008
		c-0.009,0.002-0.02,0.005-0.029,0.007c-0.163,0.048-0.353,0.111-0.553,0.187c-0.199,0.075-0.41,0.164-0.613,0.259
		c-0.204,0.095-0.4,0.2-0.572,0.308c-0.172,0.109-0.319,0.222-0.424,0.333c-0.009,0.009-0.017,0.018-0.024,0.027
		s-0.015,0.018-0.022,0.026c-0.007,0.009-0.014,0.017-0.02,0.026c-0.007,0.008-0.014,0.018-0.02,0.027c0,0,0,0,0,0c0,0,0,0-0.002,0
		l0,0.001c0,0.001,0,0.001,0,0.002c-0.034,0.052-0.059,0.102-0.072,0.153c-0.012,0.05-0.012,0.1,0.001,0.15
		c0.013,0.048,0.041,0.096,0.084,0.143c0.043,0.046,0.102,0.091,0.178,0.132c0.002,0.002,0.004,0.003,0.007,0.005
		c0.001,0,0.003,0.002,0.005,0.003c0.002,0.001,0.004,0.002,0.006,0.003l0.007,0.003c0.406,0.223,0.807,0.445,1.202,0.667
		c0.398,0.223,0.789,0.445,1.174,0.664c0.387,0.221,0.766,0.441,1.135,0.658c0.371,0.217,0.732,0.434,1.082,0.646
		c0.186,0.113,0.369,0.225,0.548,0.334c0.179,0.112,0.354,0.222,0.526,0.33c0.171,0.109,0.34,0.218,0.503,0.323
		c0.164,0.107,0.325,0.212,0.479,0.316c0.46,0.305,0.885,0.594,1.288,0.864c0.405,0.273,0.785,0.525,1.152,0.756
		c0.368,0.233,0.724,0.445,1.076,0.634c0.355,0.189,0.706,0.356,1.067,0.498c0.359,0.145,0.738,0.25,1.152,0.324
		c0.414,0.076,0.863,0.12,1.359,0.139c0.498,0.021,1.042,0.016,1.647-0.006c0.607-0.023,1.276-0.062,2.021-0.113
		c0.628-0.054,1.305-0.115,2.021-0.183c0.179-0.017,0.361-0.034,0.543-0.053c0.554-0.053,1.13-0.111,1.725-0.173
		c0.791-0.083,1.615-0.17,2.462-0.266c0.847-0.093,1.72-0.194,2.605-0.3c0.142-0.017,0.282-0.033,0.424-0.052
		c0.141-0.015,0.283-0.033,0.425-0.051c0.142-0.017,0.286-0.034,0.429-0.052c0.142-0.018,0.285-0.035,0.429-0.053
		c0.184-0.019,0.345-0.052,0.484-0.094c0.14-0.044,0.256-0.098,0.353-0.161c0.099-0.063,0.176-0.134,0.237-0.214
		c0.062-0.079,0.104-0.163,0.134-0.254l0.005-0.021c0.001-0.001,0.001-0.003,0.003-0.006c0-0.007,0.003-0.014,0.004-0.021
		c0.001-0.006,0.003-0.014,0.006-0.021c0.001-0.007,0.003-0.014,0.004-0.021c0.001-0.007,0.002-0.014,0.003-0.021
		C58.668,15.563,58.666,15.428,58.643,15.289z"/>
	<g>
		<g>
			<path fill="#00C1F2" d="M24.851,12.926c-0.132-0.415-0.394-0.781-0.758-1.077c-0.361-0.293-0.826-0.519-1.368-0.657
				c-0.539-0.138-1.159-0.188-1.836-0.133c-0.678,0.055-1.418,0.217-2.202,0.51c-0.333,0.125-0.646,0.266-0.941,0.418
				c-0.295,0.153-0.571,0.318-0.826,0.494c-0.255,0.174-0.489,0.359-0.701,0.55c-0.213,0.192-0.401,0.391-0.566,0.592
				c-0.087,0.107-0.167,0.217-0.241,0.326c-0.114,0.169-0.212,0.337-0.289,0.505c-0.13,0.279-0.208,0.557-0.23,0.824
				c-0.022,0.268,0.012,0.524,0.108,0.762c0.096,0.237,0.255,0.456,0.48,0.644c0.39,0.335,0.89,0.58,1.455,0.746
				c0.32,0.093,0.66,0.162,1.013,0.207c0.273,0.036,0.554,0.058,0.837,0.065c0.652,0.019,1.32-0.03,1.958-0.135
				c0.637-0.105,1.24-0.263,1.767-0.462c0.225-0.086,0.434-0.183,0.629-0.288c0.194-0.106,0.374-0.22,0.538-0.342
				c0.164-0.122,0.312-0.25,0.445-0.389c0.133-0.136,0.251-0.279,0.355-0.429c0.139-0.2,0.25-0.411,0.334-0.63
				c0.083-0.218,0.141-0.444,0.17-0.676c0.031-0.231,0.034-0.466,0.012-0.706C24.973,13.408,24.925,13.167,24.851,12.926z"/>
		</g>
		<g>
			<path fill="#EC2225" d="M46.135,49.856c-0.06-1.077-0.334-2.075-0.751-2.974c-0.41-0.885-0.961-1.676-1.593-2.354
				c-0.622-0.67-1.322-1.232-2.044-1.674c-0.713-0.435-1.453-0.749-2.161-0.93c-0.712-0.158-1.416-0.166-2.101-0.039
				c-0.298,0.058-0.593,0.142-0.883,0.249c-0.379,0.14-0.75,0.322-1.113,0.544c-0.646,0.397-1.269,0.928-1.857,1.582
				c-0.594,0.659-1.155,1.449-1.671,2.363c-0.034,0.062-0.068,0.123-0.101,0.185c-0.034,0.062-0.065,0.125-0.097,0.187
				c-0.033,0.063-0.062,0.127-0.093,0.189c-0.03,0.065-0.058,0.127-0.086,0.19c-0.389,0.887-0.618,1.823-0.673,2.755
				c-0.055,0.946,0.071,1.891,0.392,2.767c0.327,0.892,0.857,1.712,1.604,2.4c0.758,0.697,1.735,1.25,2.942,1.591
				c1.097,0.322,2.213,0.396,3.288,0.267c1.074-0.129,2.1-0.464,3.019-0.952c0.023-0.015,0.045-0.027,0.069-0.041
				c0.884-0.482,1.667-1.106,2.293-1.831c0.637-0.733,1.112-1.564,1.38-2.451c0.051-0.16,0.093-0.329,0.127-0.497
				c0.036-0.164,0.063-0.332,0.083-0.503c0.02-0.168,0.031-0.339,0.035-0.509C46.151,50.199,46.146,50.029,46.135,49.856z"/>
		</g>
		<g>
			<path fill="#F6912F" d="M17.258,31.982c-0.206-0.275-0.48-0.514-0.816-0.716c-0.451-0.271-1.015-0.478-1.674-0.615
				c-0.657-0.136-1.411-0.204-2.249-0.202c-0.633,0.003-1.285,0.084-1.931,0.234c-0.646,0.151-1.289,0.374-1.901,0.663
				c-0.616,0.29-1.204,0.644-1.739,1.06c-0.538,0.418-1.024,0.901-1.431,1.439c-0.124,0.164-0.242,0.336-0.351,0.511
				c-0.11,0.179-0.211,0.361-0.304,0.548c-0.092,0.189-0.176,0.384-0.25,0.585c-0.074,0.199-0.138,0.404-0.189,0.614
				c-0.239,0.909-0.203,1.738,0.048,2.455c0.254,0.727,0.73,1.334,1.362,1.784c0.176,0.125,0.364,0.235,0.562,0.332
				c0.522,0.263,1.117,0.436,1.757,0.497c0.886,0.086,1.85-0.033,2.816-0.391c0.648-0.235,1.263-0.529,1.837-0.87
				c0.572-0.339,1.103-0.721,1.588-1.127c0.482-0.404,0.919-0.835,1.304-1.276c0.383-0.438,0.716-0.885,0.996-1.328
				c0.139-0.22,0.265-0.441,0.376-0.657c0.112-0.216,0.209-0.429,0.292-0.637c0.084-0.209,0.153-0.41,0.208-0.605
				c0.055-0.194,0.095-0.384,0.121-0.566c0.062-0.54-0.022-1.018-0.238-1.426C17.396,32.181,17.331,32.079,17.258,31.982z"/>
		</g>
		<g>
			<path fill="#ED4296" d="M70.391,28.475c-0.231-0.617-0.596-1.205-1.067-1.733c-0.467-0.519-1.038-0.98-1.688-1.35
				c-0.644-0.366-1.366-0.645-2.145-0.806c-0.937-0.202-1.856-0.271-2.727-0.238c-0.868,0.033-1.695,0.168-2.448,0.378
				c-0.758,0.209-1.443,0.492-2.026,0.821c-0.586,0.332-1.069,0.71-1.417,1.107c-0.061,0.075-0.117,0.151-0.168,0.227
				c-0.052,0.078-0.099,0.155-0.14,0.234c-0.041,0.079-0.079,0.159-0.111,0.24c-0.033,0.082-0.059,0.164-0.081,0.247
				c-0.101,0.372-0.105,0.762-0.015,1.165c0.023,0.113,0.058,0.227,0.097,0.342c0.104,0.298,0.257,0.603,0.458,0.911
				c0.281,0.432,0.656,0.871,1.124,1.312c0.473,0.447,1.039,0.895,1.697,1.34c0.797,0.538,1.705,0.967,2.657,1.257
				c0.96,0.291,1.959,0.441,2.924,0.425c0.967-0.019,1.895-0.203,2.706-0.577c0.763-0.353,1.416-0.872,1.904-1.565
				c0.029-0.042,0.061-0.083,0.089-0.127c0.089-0.135,0.169-0.271,0.24-0.409c0.069-0.138,0.131-0.278,0.182-0.418
				c0.052-0.142,0.095-0.284,0.129-0.426s0.059-0.286,0.076-0.429C70.717,29.755,70.623,29.1,70.391,28.475z"/>
		</g>
		<g>
			<path fill="#6AA643" d="M50.162,7.952c-0.132-0.242-0.326-0.477-0.589-0.695c-0.261-0.217-0.589-0.419-0.989-0.6
				c-0.635-0.288-1.35-0.464-2.079-0.544c-0.19-0.02-0.381-0.033-0.573-0.042c-0.542-0.022-1.084,0.004-1.605,0.076
				c-0.705,0.098-1.374,0.278-1.945,0.529c-0.575,0.253-1.051,0.578-1.369,0.966c-0.035,0.041-0.068,0.082-0.1,0.123
				c-0.031,0.041-0.061,0.082-0.09,0.124c-0.027,0.042-0.055,0.083-0.081,0.125c-0.025,0.041-0.049,0.083-0.073,0.125
				c-0.196,0.361-0.292,0.728-0.303,1.088c-0.011,0.364,0.065,0.721,0.21,1.055c0.143,0.341,0.358,0.658,0.623,0.94
				c0.268,0.283,0.586,0.529,0.936,0.721c0.399,0.218,0.856,0.358,1.351,0.428c0.5,0.068,1.036,0.064,1.594-0.008
				c0.454-0.058,0.921-0.161,1.392-0.304c0.109-0.033,0.219-0.069,0.329-0.106c0.581-0.199,1.162-0.459,1.727-0.772
				c0.211-0.119,0.407-0.246,0.586-0.379c0.178-0.133,0.339-0.272,0.482-0.417c0.143-0.145,0.268-0.292,0.373-0.445
				c0.104-0.152,0.189-0.307,0.254-0.463c0.106-0.255,0.157-0.515,0.147-0.773C50.362,8.449,50.293,8.195,50.162,7.952z"/>
		</g>
	</g>
	<g>
		<path fill="#ED4296" d="M62.222,18.763c-0.053-0.282-0.153-0.568-0.284-0.843c-0.13-0.274-0.29-0.536-0.46-0.772
			c-0.169-0.234-0.353-0.443-0.532-0.611c-0.055-0.073-0.206-0.236-0.419-0.452c-0.212-0.215-0.486-0.481-0.795-0.766
			c-0.305-0.282-0.644-0.581-0.989-0.862c-0.34-0.278-0.687-0.54-1.013-0.752c0.018,0.019,0.036,0.038,0.054,0.058
			c0.017,0.019,0.035,0.039,0.053,0.057c0.018,0.02,0.034,0.04,0.051,0.059c0.018,0.02,0.034,0.039,0.051,0.059
			c0.012,0.012,0.022,0.025,0.035,0.04c0.012,0.013,0.023,0.027,0.034,0.041c0.012,0.013,0.022,0.028,0.034,0.042
			c0.012,0.014,0.022,0.03,0.034,0.043c0.087,0.113,0.172,0.237,0.248,0.367c0.077,0.129,0.146,0.266,0.202,0.405
			c0.056,0.139,0.097,0.278,0.118,0.416c0.022,0.139,0.025,0.274,0.001,0.401c-0.001,0.008-0.002,0.015-0.003,0.021
			c-0.001,0.007-0.003,0.014-0.004,0.021c-0.003,0.007-0.004,0.015-0.006,0.021c-0.001,0.008-0.004,0.015-0.004,0.021
			c-0.001,0.003-0.001,0.005-0.003,0.006c-0.001,0.003-0.001,0.005-0.002,0.007c-0.001,0.002-0.002,0.004-0.002,0.006
			c-0.001,0.002-0.001,0.005-0.001,0.007c-0.029,0.091-0.072,0.176-0.134,0.254c-0.061,0.08-0.138,0.151-0.236,0.214
			c-0.098,0.063-0.214,0.117-0.354,0.161c-0.139,0.042-0.3,0.075-0.484,0.094c-0.145,0.019-0.287,0.036-0.429,0.053
			c-0.143,0.018-0.287,0.035-0.429,0.052c-0.142,0.018-0.284,0.036-0.425,0.051c-0.142,0.019-0.282,0.035-0.424,0.052
			c-0.444,0.51-0.85,0.984-1.234,1.437c-0.388,0.456-0.754,0.887-1.114,1.3c-0.365,0.417-0.723,0.815-1.095,1.205
			c-0.374,0.394-0.761,0.779-1.18,1.163c-0.472,0.444-0.922,0.852-1.343,1.234c-0.424,0.384-0.819,0.741-1.174,1.08
			c-0.359,0.341-0.679,0.664-0.955,0.98c-0.275,0.317-0.506,0.628-0.682,0.942c-0.031,0.049-0.061,0.098-0.089,0.146
			c-0.028,0.049-0.053,0.1-0.078,0.149c-0.026,0.05-0.049,0.1-0.072,0.15c-0.021,0.051-0.042,0.102-0.062,0.153
			c-0.105,0.28-0.169,0.57-0.198,0.884c-0.029,0.316-0.021,0.654,0.018,1.025c0.039,0.375,0.112,0.783,0.213,1.236
			c0.065,0.299,0.146,0.619,0.236,0.96c2.152-0.295,4.436-0.188,6.614,0.248c-0.298-0.371-0.569-0.724-0.807-1.053
			c-0.09-0.121-0.176-0.239-0.259-0.358c-0.083-0.117-0.162-0.232-0.239-0.345c-0.075-0.114-0.146-0.225-0.215-0.334
			c-0.068-0.109-0.133-0.216-0.196-0.321l-0.015-0.028l-0.108-0.254c-0.018-0.047-0.037-0.095-0.057-0.144
			c-0.021-0.047-0.042-0.095-0.064-0.144c-0.021-0.048-0.043-0.096-0.062-0.143c-0.02-0.048-0.039-0.094-0.055-0.139l-0.006-0.019
			l-0.03-0.147c-0.003-0.018-0.005-0.042-0.008-0.07c-0.002-0.028-0.004-0.06-0.005-0.091c-0.002-0.033-0.003-0.064-0.004-0.095
			c-0.002-0.031-0.002-0.06-0.003-0.082l0.048-0.207l0.039-0.077c0.005-0.008,0.011-0.018,0.016-0.028
			c0.004-0.011,0.01-0.023,0.014-0.035c0.006-0.012,0.01-0.024,0.016-0.038c0.005-0.012,0.011-0.025,0.017-0.038l0.173-0.244
			l0.038-0.052l0.045-0.042c0.037-0.037,0.076-0.073,0.116-0.108c0.041-0.036,0.082-0.071,0.123-0.107
			c0.042-0.036,0.084-0.071,0.129-0.107c0.043-0.037,0.088-0.072,0.133-0.108l0.085-0.065l0.131-0.089l0.611-0.438
			c0.052-0.038,0.108-0.075,0.166-0.113c0.056-0.037,0.113-0.075,0.171-0.112c0.058-0.038,0.117-0.077,0.176-0.114
			c0.061-0.038,0.119-0.076,0.18-0.115l0.073-0.045l0.351-0.2c0.533-0.331,1.088-0.666,1.663-1.007
			c0.572-0.338,1.165-0.683,1.775-1.033c0.606-0.35,1.229-0.707,1.866-1.07c0.632-0.364,1.28-0.734,1.937-1.115
			c0.109-0.059,0.205-0.125,0.292-0.196c0.084-0.072,0.157-0.149,0.218-0.23c0.062-0.082,0.114-0.167,0.156-0.257
			c0.041-0.09,0.071-0.184,0.093-0.28C62.283,19.327,62.277,19.047,62.222,18.763z"/>
	</g>
	<g>
		<path fill="#EE5DA1" d="M59.694,38.367c-0.014-0.108-0.038-0.213-0.079-0.308c-0.04-0.097-0.094-0.183-0.166-0.259
			c-0.687-0.757-1.369-1.511-2.029-2.245c-0.648-0.721-1.275-1.423-1.864-2.097c-0.576-0.659-1.115-1.291-1.6-1.879
			c-0.155-0.189-0.305-0.374-0.448-0.555c-2.179-0.436-4.462-0.543-6.614-0.248c0.047,0.182,0.098,0.369,0.152,0.565
			c0.083,0.289,0.172,0.595,0.268,0.915c0.096,0.322,0.199,0.661,0.306,1.011c0.11,0.355,0.225,0.725,0.346,1.104
			c0.122,0.386,0.249,0.784,0.38,1.194c0.704,0.154,1.438,0.311,2.201,0.468c0.767,0.156,1.563,0.314,2.388,0.477
			c0.828,0.162,1.685,0.324,2.566,0.488c0.887,0.165,1.801,0.329,2.737,0.495c0.017,0.002,0.035,0.004,0.052,0.008
			c0.018,0.003,0.035,0.005,0.051,0.011c0.017,0,0.033,0.006,0.049,0.01c0.017,0.003,0.032,0.007,0.049,0.011
			c0.24,0.056,0.437,0.14,0.597,0.244c0.161,0.104,0.285,0.232,0.376,0.376c0.091,0.144,0.151,0.304,0.184,0.474
			c0.032,0.173,0.04,0.357,0.023,0.546c0.003-0.01,0.005-0.016,0.007-0.026c0.002-0.01,0.005-0.019,0.006-0.028
			c0.003-0.009,0.004-0.019,0.006-0.027c0-0.008,0.004-0.016,0.006-0.026c0.025-0.119,0.044-0.24,0.052-0.357
			C59.708,38.592,59.707,38.479,59.694,38.367z"/>
	</g>
	<g>
		<path fill="#EE5DA1" d="M57.812,28.441c-0.345,0.051-0.796,0.091-1.197,0.275c0.12,0.345,0.297,0.696,0.528,1.053
			c0.325,0.499,0.76,1.006,1.3,1.516c0.546,0.516,1.2,1.033,1.96,1.548c0.922,0.621,1.972,1.116,3.072,1.45
			c1.108,0.341,2.264,0.512,3.378,0.493c1.118-0.022,2.189-0.236,3.128-0.667c0.88-0.408,1.634-1.009,2.198-1.81
			C67.951,29.692,62.912,28.262,57.812,28.441z"/>
	</g>
	<g>
		<path fill="#ED4296" d="M72.56,31.681c0.081-0.16,0.151-0.321,0.211-0.483c0.06-0.163,0.109-0.327,0.148-0.492
			c0.039-0.165,0.068-0.33,0.087-0.495c0.088-0.748-0.021-1.505-0.29-2.228c-0.265-0.712-0.688-1.393-1.232-2.001
			c-0.539-0.601-1.2-1.134-1.95-1.561c-0.743-0.423-1.578-0.746-2.479-0.932c-1.083-0.233-2.145-0.313-3.15-0.275
			c-1.004,0.039-1.96,0.195-2.83,0.438c-0.874,0.241-1.667,0.569-2.34,0.95c-0.678,0.383-1.235,0.82-1.638,1.278
			c-0.071,0.086-0.136,0.174-0.195,0.263c-0.06,0.089-0.114,0.179-0.162,0.271c-0.048,0.091-0.091,0.184-0.128,0.277
			c-0.038,0.094-0.068,0.189-0.095,0.285c-0.117,0.429-0.121,0.881-0.017,1.346c0.028,0.13,0.067,0.261,0.113,0.395
			c0.401-0.185,0.853-0.224,1.197-0.275c5.1-0.179,10.14,1.251,14.367,3.86c0.035-0.049,0.07-0.097,0.104-0.147
			C72.386,31.999,72.477,31.841,72.56,31.681z"/>
	</g>
	<g>
		<path fill="#EC2225" d="M59.598,38.628c-0.033-0.17-0.093-0.33-0.184-0.474c-0.091-0.144-0.215-0.271-0.376-0.376
			c-0.16-0.104-0.357-0.188-0.597-0.244c-0.017-0.004-0.033-0.008-0.049-0.011c-0.016-0.004-0.032-0.01-0.049-0.01
			c-0.017-0.006-0.034-0.008-0.051-0.011c-0.017-0.004-0.035-0.006-0.052-0.008c-0.937-0.166-1.85-0.33-2.737-0.495
			c-0.881-0.164-1.738-0.326-2.566-0.488c-0.825-0.162-1.622-0.32-2.388-0.477c-0.763-0.157-1.498-0.313-2.201-0.468
			c-0.327-0.073-0.649-0.146-0.963-0.218c-0.313-0.069-0.621-0.14-0.92-0.211c-0.299-0.07-0.591-0.14-0.875-0.209
			c-0.285-0.07-0.562-0.14-0.83-0.21c-0.856-0.207-1.636-0.41-2.354-0.598c-0.715-0.187-1.37-0.356-1.977-0.505
			c-0.064-0.016-0.125-0.028-0.188-0.043c-1.108,0.961-2.01,2.174-2.618,3.668l0.368,0.046l0.084,0.01l0.073,0.021
			c0.063,0.017,0.125,0.037,0.188,0.056c0.064,0.021,0.127,0.041,0.191,0.062c0.063,0.022,0.128,0.045,0.193,0.07
			c0.065,0.021,0.13,0.045,0.195,0.069l0.123,0.047l0.169,0.08c0.069,0.031,0.138,0.063,0.206,0.093
			c0.069,0.03,0.139,0.06,0.207,0.088c0.069,0.031,0.138,0.058,0.209,0.091c0.07,0.028,0.141,0.062,0.213,0.092l0.899,0.426
			l0.093,0.047l0.417,0.233c0.69,0.354,1.401,0.729,2.139,1.123c0.744,0.4,1.517,0.821,2.32,1.263
			c0.812,0.445,1.655,0.911,2.535,1.404c0.89,0.496,1.818,1.018,2.787,1.562c0.569,0.333,1.22,0.456,1.896,0.43
			c0.676-0.027,1.375-0.201,2.037-0.469c0.661-0.265,1.285-0.615,1.819-0.995c0.531-0.376,0.971-0.778,1.271-1.146
			c0.109-0.095,0.234-0.229,0.362-0.398c0.128-0.166,0.261-0.365,0.385-0.581c0.123-0.213,0.24-0.449,0.338-0.689
			s0.179-0.488,0.229-0.732c0.006-0.033,0.014-0.062,0.018-0.093c0.005-0.03,0.011-0.063,0.016-0.092
			c0.004-0.031,0.008-0.062,0.012-0.093c0.004-0.031,0.006-0.06,0.008-0.091C59.638,38.985,59.63,38.801,59.598,38.628z"/>
	</g>
	<g>
		<path fill="#F06025" d="M37.24,33.117c-0.479-0.027-0.95-0.005-1.436,0.073c-0.484,0.078-0.984,0.205-1.521,0.386
			c-0.538,0.183-1.115,0.421-1.752,0.708c-0.64,0.29-1.342,0.633-2.128,1.031c-0.322,0.166-0.658,0.343-1.008,0.525
			c-0.351,0.187-0.713,0.378-1.087,0.579c-0.376,0.203-0.764,0.41-1.163,0.626c-0.4,0.218-0.811,0.441-1.231,0.675
			c-0.031,0.612-0.056,1.255-0.078,1.928c-0.022,0.684-0.04,1.396-0.054,2.139c-0.014,0.754-0.023,1.54-0.03,2.354
			c-0.006,0.827-0.009,1.688-0.009,2.578c0.001,0.056,0,0.111-0.003,0.165c-0.002,0.053-0.009,0.106-0.017,0.155
			c-0.007,0.052-0.017,0.101-0.029,0.148c-0.012,0.047-0.026,0.094-0.042,0.138c-0.004,0.012-0.008,0.026-0.014,0.036
			c-0.004,0.011-0.01,0.025-0.014,0.037c-0.006,0.011-0.011,0.022-0.017,0.035c-0.005,0.013-0.011,0.024-0.017,0.035
			c-0.001,0.004-0.002,0.006-0.003,0.006c-0.002,0.006-0.003,0.008-0.005,0.011c0,0.004-0.003,0.006-0.004,0.008
			c-0.001,0.004-0.003,0.008-0.005,0.01c-0.043,0.083-0.094,0.156-0.15,0.229c-0.058,0.069-0.122,0.135-0.192,0.192
			c-0.071,0.06-0.147,0.113-0.228,0.162c-0.082,0.05-0.169,0.095-0.26,0.134c-0.006,0.002-0.012,0.004-0.019,0.008
			c-0.006,0.003-0.013,0.005-0.02,0.007c-0.007,0.006-0.013,0.006-0.021,0.008c-0.006,0.004-0.013,0.009-0.02,0.009
			c0.065-0.021,0.128-0.046,0.188-0.07c0.06-0.026,0.116-0.056,0.171-0.086c0.053-0.031,0.104-0.065,0.152-0.103
			c0.047-0.037,0.089-0.076,0.128-0.121c0.781-0.827,1.562-1.655,2.328-2.462c0.755-0.796,1.497-1.57,2.212-2.301
			c0.706-0.723,1.386-1.404,2.029-2.026c0.635-0.613,1.234-1.172,1.786-1.652c0.136-0.119,0.271-0.233,0.405-0.349
			c0.134-0.111,0.267-0.224,0.397-0.331c0.132-0.106,0.261-0.211,0.388-0.31c0.129-0.101,0.254-0.197,0.378-0.289l0.037-0.022
			l0.312-0.193l0.708-0.417l0.023-0.012l0.193-0.085c0.024-0.01,0.057-0.022,0.094-0.034c0.039-0.013,0.082-0.027,0.125-0.041
			c0.043-0.015,0.089-0.029,0.13-0.041c0.041-0.013,0.079-0.027,0.11-0.037l0.302-0.043l0.119,0.006
			c0.013,0,0.028,0.002,0.044,0.002c0.018,0,0.035,0.002,0.053,0.002c0.018,0.002,0.037,0.002,0.057,0.004
			c0.019,0,0.039,0,0.058-0.002l0.028,0.004c0.608-1.494,1.51-2.707,2.618-3.668c-0.532-0.125-1.032-0.231-1.502-0.308
			C38.21,33.179,37.716,33.127,37.24,33.117z"/>
	</g>
	<g>
		<path fill="#EC2225" d="M46.135,49.856c-0.06-1.077-0.334-2.075-0.751-2.974c-0.41-0.885-0.961-1.676-1.593-2.354
			c-0.622-0.67-1.322-1.232-2.044-1.674c-0.713-0.435-1.453-0.749-2.161-0.93c-0.712-0.158-1.416-0.166-2.101-0.039
			c-0.298,0.058-0.593,0.142-0.883,0.249c-0.044,4.933,2.604,9.886,5.625,14.026c0.884-0.482,1.667-1.106,2.293-1.831
			c0.637-0.733,1.112-1.564,1.38-2.451c0.051-0.16,0.093-0.329,0.127-0.497c0.036-0.164,0.063-0.332,0.083-0.503
			c0.02-0.168,0.031-0.339,0.035-0.509C46.151,50.199,46.146,50.029,46.135,49.856z"/>
	</g>
	<g>
		<path fill="#F06025" d="M35.489,42.679c-0.646,0.397-1.269,0.928-1.857,1.582c-0.594,0.659-1.155,1.449-1.671,2.363
			c-0.034,0.062-0.068,0.123-0.101,0.185c-0.034,0.062-0.065,0.125-0.097,0.187c-0.033,0.063-0.062,0.127-0.093,0.189
			c-0.03,0.065-0.058,0.127-0.086,0.19c-0.389,0.887-0.618,1.823-0.673,2.755c-0.055,0.946,0.071,1.891,0.392,2.767
			c0.327,0.892,0.857,1.712,1.604,2.4c0.758,0.697,1.735,1.25,2.942,1.591c1.097,0.322,2.213,0.396,3.288,0.267
			c1.074-0.129,2.1-0.464,3.019-0.952c0.023-0.015,0.045-0.027,0.069-0.041c-3.021-4.141-5.668-9.094-5.625-14.026
			C36.223,42.274,35.852,42.457,35.489,42.679z"/>
	</g>
	<g>
		<path fill="#F6912F" d="M22.911,31.456c-0.301,0.009-0.605,0.021-0.913,0.035c-0.002,0.012-0.004,0.024-0.007,0.035
			c-0.011,0.053-0.023,0.105-0.036,0.161l-0.027,0.101l-0.049,0.144c-0.018,0.059-0.041,0.12-0.063,0.179
			c-0.024,0.062-0.049,0.124-0.073,0.185c-0.024,0.062-0.048,0.125-0.07,0.187c-0.023,0.061-0.043,0.122-0.06,0.181
			c-0.019,0.061-0.04,0.125-0.062,0.188c-0.021,0.064-0.044,0.127-0.067,0.192c-0.023,0.063-0.048,0.128-0.072,0.195
			c-0.025,0.066-0.049,0.134-0.074,0.201l-0.032,0.08l-0.164,0.376c-0.269,0.62-0.549,1.265-0.844,1.932
			c-0.299,0.678-0.613,1.38-0.944,2.114c-0.336,0.745-0.691,1.521-1.066,2.338c-0.381,0.832-0.784,1.702-1.211,2.62
			c-0.258,0.537-0.291,1.081-0.166,1.604c0.127,0.53,0.416,1.041,0.793,1.505c0.383,0.464,0.859,0.885,1.355,1.226
			c0.5,0.345,1.019,0.609,1.48,0.766c0.168,0.088,0.425,0.183,0.739,0.263c0.313,0.08,0.683,0.152,1.073,0.191
			c0.392,0.045,0.805,0.057,1.202,0.028c0.398-0.028,0.781-0.099,1.112-0.229c0.007,0,0.014-0.005,0.02-0.009
			c0.007-0.002,0.014-0.002,0.021-0.008c0.006-0.002,0.013-0.004,0.02-0.007c0.006-0.004,0.013-0.006,0.019-0.008
			c0.091-0.039,0.179-0.084,0.26-0.134c0.081-0.049,0.157-0.103,0.228-0.162c0.069-0.058,0.134-0.123,0.192-0.192
			c0.057-0.072,0.107-0.146,0.15-0.229c0.002-0.002,0.003-0.006,0.005-0.01c0.001-0.002,0.004-0.004,0.004-0.008
			c0.002-0.003,0.003-0.005,0.005-0.011c0.001,0,0.002-0.002,0.003-0.006c0.006-0.011,0.011-0.022,0.017-0.035
			c0.006-0.013,0.011-0.024,0.017-0.035c0.004-0.012,0.01-0.026,0.014-0.037c0.005-0.01,0.009-0.024,0.014-0.036
			c0.016-0.044,0.03-0.091,0.042-0.138c0.012-0.048,0.022-0.097,0.029-0.148c0.008-0.049,0.014-0.103,0.017-0.155
			c0.003-0.054,0.004-0.109,0.003-0.165c0-0.891,0.003-1.751,0.009-2.578c0.006-0.814,0.016-1.601,0.03-2.354
			c0.014-0.743,0.031-1.455,0.054-2.139c0.022-0.673,0.047-1.315,0.078-1.928c0.014-0.267,0.028-0.527,0.043-0.784
			c0.015-0.25,0.031-0.499,0.048-0.738c0.017-0.24,0.035-0.475,0.055-0.704c0.018-0.227,0.038-0.448,0.06-0.665
			c0.065-0.715,0.136-1.363,0.198-1.96c0.03-0.278,0.058-0.545,0.083-0.802C25.245,31.835,24.08,31.443,22.911,31.456z"/>
	</g>
	<g>
		<path fill="#F8B427" d="M26.516,29.916c-0.011-0.408-0.05-0.781-0.13-1.131c-0.07-0.347-0.194-0.663-0.375-0.96
			c-0.18-0.295-0.415-0.575-0.711-0.854c-0.292-0.276-0.644-0.553-1.056-0.843c-0.408-0.288-0.876-0.59-1.406-0.92
			c-0.219-0.134-0.45-0.271-0.688-0.412c-0.239-0.141-0.484-0.285-0.738-0.431c-0.253-0.147-0.514-0.297-0.781-0.448
			c-0.265-0.151-0.538-0.304-0.815-0.458c-0.576,0.229-1.174,0.471-1.793,0.723c-0.622,0.254-1.264,0.519-1.923,0.796
			c-0.663,0.276-1.345,0.565-2.043,0.863c-0.702,0.298-1.421,0.607-2.156,0.925c-0.099,0.044-0.194,0.081-0.284,0.109
			c-0.089,0.027-0.173,0.047-0.253,0.06c-0.078,0.013-0.153,0.018-0.223,0.017c-0.07-0.001-0.134-0.01-0.195-0.024
			c-0.077-0.019-0.148-0.047-0.21-0.083c-0.063-0.038-0.119-0.083-0.169-0.136c-0.049-0.052-0.093-0.111-0.131-0.177
			c-0.036-0.065-0.068-0.136-0.095-0.211c0.02,0.081,0.044,0.16,0.077,0.233c0.031,0.074,0.068,0.142,0.113,0.2
			c0.045,0.06,0.097,0.111,0.157,0.152c0.06,0.039,0.129,0.067,0.206,0.082c0.744,0.147,1.502,0.298,2.255,0.451
			c0.756,0.154,1.506,0.311,2.231,0.469c0.729,0.16,1.433,0.321,2.088,0.485c0.659,0.165,1.271,0.331,1.812,0.498
			c0.128,0.044,0.257,0.087,0.386,0.13c0.128,0.043,0.257,0.086,0.384,0.13c0.126,0.043,0.25,0.087,0.37,0.132
			c0.12,0.044,0.236,0.09,0.346,0.136l0.031,0.013l0.242,0.132l0.521,0.315l0.016,0.01l0.121,0.097
			c0.014,0.012,0.031,0.03,0.052,0.05c0.02,0.021,0.042,0.043,0.065,0.066c0.022,0.024,0.044,0.049,0.065,0.071
			c0.021,0.023,0.041,0.043,0.057,0.06l0.1,0.188l0.018,0.08c0.002,0.009,0.003,0.02,0.006,0.032
			c0.001,0.012,0.004,0.024,0.006,0.038c0.002,0.012,0.004,0.026,0.005,0.04c0.002,0.014,0.004,0.027,0.005,0.042l0.001,0.296
			l0.003,0.061l-0.005,0.058c-0.007,0.048-0.014,0.098-0.023,0.148c-0.007,0.05-0.017,0.103-0.027,0.153
			c-0.009,0.041-0.018,0.082-0.026,0.123c0.307-0.014,0.611-0.025,0.913-0.035c1.169-0.013,2.334,0.38,3.491,0.612
			c0.027-0.283,0.053-0.553,0.071-0.811C26.508,30.77,26.527,30.326,26.516,29.916z"/>
	</g>
	<g>
		<path fill="#F6912F" d="M6.835,38.877c-0.266,0.568-0.403,1.174-0.441,1.798c0.522,0.263,1.117,0.436,1.757,0.497
			c0.886,0.086,1.85-0.033,2.816-0.391c0.648-0.235,1.263-0.529,1.837-0.87c0.572-0.339,1.103-0.721,1.588-1.127
			c0.482-0.404,0.919-0.835,1.304-1.276c0.383-0.438,0.716-0.885,0.996-1.328c0.139-0.22,0.265-0.441,0.376-0.657
			c0.112-0.216,0.209-0.429,0.292-0.637c0.084-0.209,0.153-0.41,0.208-0.605c0.055-0.194,0.095-0.384,0.121-0.566
			c0.062-0.54-0.022-1.018-0.238-1.426c-0.056-0.107-0.121-0.208-0.194-0.305C12.853,32.757,8.708,34.58,6.835,38.877z"/>
	</g>
	<g>
		<path fill="#F8B427" d="M16.441,31.267c-0.451-0.271-1.015-0.478-1.674-0.615c-0.657-0.136-1.411-0.204-2.249-0.202
			c-0.633,0.003-1.285,0.084-1.931,0.234c-0.646,0.151-1.289,0.374-1.901,0.663c-0.616,0.29-1.204,0.644-1.739,1.06
			c-0.538,0.418-1.024,0.901-1.431,1.439c-0.124,0.164-0.242,0.336-0.351,0.511c-0.11,0.179-0.211,0.361-0.304,0.548
			c-0.092,0.189-0.176,0.384-0.25,0.585c-0.074,0.199-0.138,0.404-0.189,0.614c-0.239,0.909-0.203,1.738,0.048,2.455
			c0.254,0.727,0.73,1.334,1.362,1.784c0.176,0.125,0.364,0.235,0.562,0.332c0.038-0.624,0.175-1.229,0.441-1.798
			c1.873-4.297,6.018-6.12,10.423-6.895C17.052,31.708,16.777,31.469,16.441,31.267z"/>
	</g>
	<g>
		<path fill="#00C1F2" d="M26.37,20.982c0.518-0.201,0.993-0.394,1.427-0.587c0.434-0.193,0.829-0.388,1.189-0.591
			c0.289-0.163,0.551-0.34,0.797-0.537c0.243-0.194,0.468-0.408,0.683-0.642c0.213-0.234,0.415-0.49,0.615-0.77
			c0.197-0.28,0.391-0.583,0.588-0.914c0.045-0.075,0.089-0.152,0.135-0.229c0.044-0.078,0.09-0.157,0.136-0.238
			c0.045-0.081,0.092-0.163,0.138-0.247c0.046-0.083,0.093-0.167,0.14-0.254c0.104-0.199,0.21-0.405,0.317-0.618
			c0.108-0.211,0.216-0.431,0.327-0.655c0.109-0.224,0.221-0.452,0.332-0.686c0.111-0.232,0.223-0.469,0.335-0.709
			c-0.35-0.212-0.711-0.428-1.082-0.646c-0.369-0.217-0.748-0.437-1.135-0.658c-0.385-0.219-0.776-0.441-1.174-0.664
			c-0.395-0.221-0.796-0.444-1.202-0.667c-0.002-0.001-0.004-0.002-0.007-0.003c-0.002-0.001-0.003-0.002-0.006-0.003
			c-0.002-0.001-0.004-0.003-0.005-0.003c-0.003-0.002-0.005-0.003-0.007-0.005c-0.076-0.042-0.135-0.086-0.178-0.132
			c-0.043-0.047-0.071-0.095-0.084-0.143c-0.013-0.05-0.013-0.1-0.001-0.15c0.013-0.051,0.038-0.102,0.072-0.153
			c0-0.001,0-0.001,0-0.002c0-0.001,0-0.001,0-0.001c0.002,0,0.002,0,0.002,0c0,0,0,0,0,0c0.006-0.009,0.013-0.019,0.02-0.027
			c0.006-0.009,0.013-0.018,0.02-0.026c0.008-0.008,0.015-0.017,0.022-0.026s0.015-0.019,0.024-0.027
			c0.105-0.111,0.252-0.224,0.424-0.333c0.172-0.108,0.369-0.212,0.572-0.308c0.203-0.096,0.414-0.184,0.613-0.259
			c0.201-0.076,0.39-0.139,0.553-0.187c0.009-0.002,0.02-0.005,0.029-0.007c0.009-0.004,0.018-0.005,0.027-0.008
			c0.01-0.003,0.019-0.005,0.028-0.008c0.01-0.003,0.018-0.004,0.027-0.007c0.001,0,0.003-0.001,0.005-0.001
			C31.087,8.85,31.09,8.85,31.091,8.85c0.002,0,0.004-0.001,0.005-0.001c0.003-0.001,0.004-0.002,0.005-0.002
			c0.006-0.001,0.013-0.003,0.02-0.005c0.006-0.001,0.012-0.002,0.02-0.004c0.006-0.002,0.012-0.003,0.019-0.005
			c0.005-0.001,0.012-0.002,0.018-0.003c0.004-0.001,0.007-0.002,0.011-0.003c0.003-0.001,0.007-0.001,0.01-0.003
			c0.003,0,0.007,0,0.01-0.002c0.004-0.001,0.006-0.001,0.01-0.001c0.002-0.001,0.005-0.001,0.007-0.002
			c0.002-0.001,0.005-0.002,0.007-0.002c0.002,0,0.005,0,0.007,0c0.003-0.001,0.004-0.001,0.007-0.002
			c0.005-0.002,0.01-0.003,0.015-0.004c0.004,0,0.009-0.002,0.014-0.003c0.006-0.002,0.01-0.003,0.016-0.005
			c0.005-0.001,0.01-0.001,0.014-0.004c-0.161,0.033-0.323,0.069-0.482,0.109c-0.16,0.04-0.318,0.084-0.474,0.132
			c-0.157,0.048-0.31,0.1-0.462,0.154c-0.151,0.056-0.301,0.112-0.446,0.175c-0.095,0.034-0.215,0.085-0.347,0.147
			c-0.131,0.063-0.274,0.139-0.414,0.22c-0.139,0.083-0.273,0.171-0.389,0.261c-0.116,0.09-0.211,0.182-0.272,0.27
			c-0.011,0.016-0.021,0.033-0.03,0.048c-0.008,0.016-0.016,0.032-0.022,0.047c-0.006,0.017-0.011,0.032-0.014,0.047
			c-0.003,0.015-0.005,0.031-0.005,0.044c-0.011,0.444-0.024,0.9-0.043,1.357c-0.018,0.463-0.042,0.927-0.072,1.383
			c-0.031,0.46-0.07,0.913-0.119,1.344c-0.048,0.438-0.107,0.853-0.177,1.234c-0.021,0.091-0.044,0.182-0.067,0.271
			c-0.024,0.09-0.049,0.179-0.074,0.268c-0.024,0.088-0.049,0.176-0.073,0.265c-0.024,0.087-0.049,0.175-0.071,0.264l-0.008,0.022
			l-0.088,0.201c-0.017,0.038-0.036,0.076-0.055,0.112c-0.019,0.037-0.039,0.074-0.06,0.109c-0.02,0.037-0.041,0.072-0.062,0.107
			c-0.021,0.035-0.042,0.071-0.063,0.104l-0.008,0.014l-0.082,0.109c-0.01,0.015-0.023,0.033-0.04,0.054
			c-0.017,0.021-0.036,0.045-0.056,0.069c-0.02,0.024-0.04,0.048-0.059,0.071c-0.019,0.022-0.037,0.043-0.05,0.061l-0.168,0.144
			l-0.079,0.049c-0.009,0.006-0.019,0.012-0.03,0.018c-0.01,0.006-0.023,0.014-0.035,0.021c-0.013,0.007-0.026,0.015-0.04,0.022
			c-0.013,0.007-0.026,0.015-0.04,0.022l-0.31,0.131l-0.066,0.026l-0.062,0.021c-0.049,0.02-0.1,0.039-0.152,0.056
			c-0.053,0.02-0.104,0.037-0.157,0.056c-0.053,0.018-0.107,0.035-0.161,0.053c-0.054,0.018-0.108,0.036-0.164,0.054l-0.104,0.03
			l-0.152,0.039c-0.061,0.016-0.124,0.031-0.186,0.045c-0.064,0.014-0.128,0.029-0.193,0.043c-0.064,0.015-0.13,0.029-0.195,0.042
			c-0.066,0.015-0.133,0.029-0.2,0.044l-0.799,0.191l-0.082,0.019l-0.386,0.073c-0.641,0.124-1.292,0.247-1.96,0.374
			c-0.173,0.031-0.346,0.063-0.521,0.097c1.368,0.856,2.864,1.501,4.433,2.026C25.367,21.361,25.888,21.167,26.37,20.982z"/>
	</g>
	<g>
		<path fill="#2FA9E0" d="M16.652,20.211c-0.752,0.131-1.529,0.266-2.338,0.401c-0.278,0.045-0.549,0.132-0.811,0.251
			c-0.262,0.12-0.514,0.271-0.755,0.446c-0.241,0.175-0.469,0.373-0.683,0.585c-0.215,0.212-0.415,0.44-0.596,0.671
			c-0.124,0.159-0.238,0.318-0.344,0.477c-0.105,0.159-0.201,0.316-0.287,0.47c-0.085,0.153-0.16,0.302-0.222,0.444
			c-0.063,0.143-0.113,0.277-0.151,0.399c-0.048,0.1-0.093,0.231-0.131,0.383c-0.039,0.151-0.069,0.324-0.088,0.506
			c-0.018,0.18-0.021,0.37-0.009,0.553c0.014,0.185,0.046,0.363,0.101,0.523c0.027,0.075,0.059,0.146,0.095,0.211
			c0.038,0.066,0.082,0.125,0.131,0.177c0.05,0.053,0.105,0.098,0.169,0.136c0.062,0.037,0.133,0.064,0.21,0.083
			c0.061,0.014,0.125,0.022,0.195,0.024c0.069,0.001,0.145-0.004,0.223-0.017c0.08-0.013,0.164-0.033,0.253-0.06
			c0.09-0.028,0.185-0.065,0.284-0.109c0.735-0.318,1.454-0.627,2.156-0.925c0.698-0.298,1.38-0.587,2.043-0.863
			c0.659-0.277,1.301-0.542,1.923-0.796c0.619-0.252,1.217-0.494,1.793-0.723c0.258-0.103,0.511-0.203,0.76-0.3
			c0.248-0.098,0.492-0.193,0.731-0.285c0.238-0.091,0.472-0.181,0.702-0.268c0.229-0.085,0.453-0.17,0.673-0.251
			c0.715-0.268,1.378-0.51,1.993-0.735c0.045-0.018,0.088-0.033,0.132-0.05c-1.568-0.525-3.065-1.17-4.433-2.026
			c-0.502,0.093-1.014,0.187-1.537,0.282C18.131,19.951,17.405,20.079,16.652,20.211z"/>
	</g>
	<g>
		<path fill="#00C1F2" d="M17.95,17.637c0.273,0.036,0.554,0.058,0.837,0.065c0.652,0.019,1.32-0.03,1.958-0.135
			c0.637-0.105,1.24-0.263,1.767-0.462c0.225-0.086,0.434-0.183,0.629-0.288c0.194-0.106,0.374-0.22,0.538-0.342
			c0.164-0.122,0.312-0.25,0.445-0.389c0.133-0.136,0.251-0.279,0.355-0.429c0.139-0.2,0.25-0.411,0.334-0.63
			c0.083-0.218,0.141-0.444,0.17-0.676c0.031-0.231,0.034-0.466,0.012-0.706c-0.023-0.238-0.071-0.479-0.145-0.72
			c-0.132-0.415-0.394-0.781-0.758-1.077c-0.361-0.293-0.826-0.519-1.368-0.657c-0.539-0.138-1.159-0.188-1.836-0.133
			c-0.678,0.055-1.418,0.217-2.202,0.51c-0.333,0.125-0.646,0.266-0.941,0.418c-0.295,0.153-0.571,0.318-0.826,0.494
			c-0.255,0.174-0.489,0.359-0.701,0.55c-0.213,0.192-0.401,0.391-0.566,0.592c-0.087,0.107-0.167,0.217-0.241,0.326
			c0.058,0.288,0.175,0.583,0.364,0.886C16.41,15.917,17.141,16.84,17.95,17.637z"/>
	</g>
	<g>
		<path fill="#2FA9E0" d="M14.893,15.278c-0.022,0.268,0.012,0.524,0.108,0.762c0.096,0.237,0.255,0.456,0.48,0.644
			c0.39,0.335,0.89,0.58,1.455,0.746c0.32,0.093,0.66,0.162,1.013,0.207c-0.809-0.796-1.54-1.719-2.174-2.801
			c-0.188-0.303-0.306-0.598-0.364-0.886c-0.114,0.169-0.212,0.337-0.289,0.505C14.993,14.733,14.915,15.011,14.893,15.278z"/>
	</g>
	<g>
		<path fill="#85B840" d="M58.643,15.289c-0.021-0.137-0.062-0.277-0.118-0.416c-0.055-0.139-0.125-0.275-0.202-0.405
			c-0.076-0.13-0.161-0.254-0.248-0.367c-0.011-0.014-0.021-0.029-0.034-0.043c-0.012-0.014-0.022-0.028-0.034-0.042
			c-0.011-0.014-0.022-0.028-0.034-0.041c-0.013-0.015-0.023-0.028-0.035-0.04c-0.018-0.02-0.034-0.039-0.051-0.059
			c-0.018-0.019-0.034-0.039-0.051-0.059c-0.018-0.018-0.036-0.038-0.053-0.057c-0.019-0.02-0.037-0.039-0.054-0.058
			c-0.141-0.146-0.293-0.291-0.457-0.429c-0.162-0.139-0.334-0.271-0.518-0.396c-0.182-0.125-0.376-0.244-0.579-0.352
			c-0.202-0.108-0.415-0.209-0.639-0.297c-0.108-0.053-0.268-0.12-0.456-0.186c-0.187-0.065-0.401-0.13-0.619-0.181
			c-0.219-0.052-0.442-0.089-0.648-0.099c-0.206-0.011-0.396,0.005-0.546,0.062c-0.695,0.245-1.4,0.491-2.102,0.732
			c-0.704,0.243-1.404,0.479-2.088,0.706c-0.688,0.226-1.355,0.441-1.991,0.638c-0.059,0.017-0.114,0.035-0.173,0.052
			c0.46,1.248,1.15,2.443,1.996,3.516c0.554-0.053,1.13-0.111,1.725-0.173c0.791-0.083,1.615-0.17,2.462-0.266
			c0.847-0.093,1.72-0.194,2.605-0.3c0.142-0.017,0.282-0.033,0.424-0.052c0.141-0.015,0.283-0.033,0.425-0.051
			c0.142-0.017,0.286-0.034,0.429-0.052c0.142-0.018,0.285-0.035,0.429-0.053c0.184-0.019,0.345-0.052,0.484-0.094
			c0.14-0.044,0.256-0.098,0.353-0.161c0.099-0.063,0.176-0.134,0.237-0.214c0.062-0.079,0.104-0.163,0.134-0.254
			c0-0.002,0-0.005,0.001-0.007c0-0.001,0.001-0.004,0.002-0.006c0-0.002,0-0.004,0.002-0.007c0.001-0.001,0.001-0.003,0.003-0.006
			c0-0.007,0.003-0.014,0.004-0.021c0.001-0.006,0.003-0.014,0.006-0.021c0.001-0.007,0.003-0.014,0.004-0.021
			c0.001-0.007,0.002-0.014,0.003-0.021C58.668,15.563,58.666,15.428,58.643,15.289z"/>
	</g>
	<g>
		<path fill="#6AA643" d="M45.288,14.426c-0.134,0.033-0.268,0.065-0.398,0.095c-0.132,0.03-0.263,0.061-0.393,0.089
			c-0.129,0.028-0.258,0.057-0.386,0.085c-0.127,0.029-0.254,0.058-0.38,0.088l-0.035,0.006l-0.3,0.042
			c-0.057,0.008-0.113,0.015-0.168,0.021c-0.055,0.006-0.11,0.011-0.164,0.016c-0.055,0.004-0.109,0.008-0.162,0.013
			c-0.054,0.003-0.106,0.007-0.159,0.012l-0.019,0l-0.174,0.004c-0.021,0-0.047,0-0.08,0c-0.034,0-0.07-0.001-0.108-0.002
			c-0.037-0.001-0.076-0.002-0.11-0.003c-0.036-0.001-0.069-0.002-0.094-0.003l-0.238-0.036l-0.083-0.027
			c-0.009-0.004-0.021-0.006-0.032-0.01c-0.013-0.004-0.025-0.009-0.038-0.013s-0.026-0.01-0.039-0.014
			c-0.013-0.005-0.026-0.01-0.04-0.015l-0.25-0.133l-0.053-0.028l-0.045-0.027c-0.037-0.021-0.074-0.044-0.112-0.067
			c-0.037-0.024-0.074-0.049-0.11-0.074c-0.036-0.024-0.073-0.049-0.109-0.075c-0.037-0.025-0.073-0.051-0.11-0.078l-0.065-0.051
			l-0.088-0.074c-0.035-0.031-0.069-0.063-0.103-0.096c-0.034-0.032-0.068-0.065-0.102-0.099c-0.034-0.034-0.069-0.067-0.103-0.101
			c-0.034-0.035-0.069-0.067-0.104-0.1c-0.036-0.03-0.072-0.062-0.109-0.094c-0.036-0.033-0.071-0.065-0.107-0.099
			c-0.036-0.034-0.072-0.066-0.107-0.101c-0.037-0.033-0.073-0.068-0.11-0.102l-0.041-0.042l-0.183-0.2
			c-0.3-0.324-0.601-0.652-0.901-0.985c-0.299-0.33-0.598-0.667-0.899-1.009c-0.3-0.34-0.602-0.688-0.909-1.043
			c-0.302-0.351-0.609-0.712-0.921-1.082c-0.173-0.211-0.471-0.355-0.842-0.443c-0.371-0.089-0.813-0.126-1.278-0.124
			c-0.463,0.001-0.948,0.041-1.402,0.104c-0.454,0.062-0.877,0.148-1.219,0.243C31.3,8.799,31.295,8.8,31.29,8.801
			c-0.005,0.001-0.01,0.002-0.016,0.005c-0.004,0.001-0.01,0.003-0.014,0.003c-0.005,0.001-0.01,0.002-0.015,0.004
			c-0.003,0.001-0.004,0.001-0.007,0.002c-0.002,0-0.005,0-0.007,0c-0.001,0-0.005,0.001-0.007,0.002c-0.002,0-0.005,0-0.007,0.002
			c-0.004,0-0.006,0-0.01,0.001c-0.003,0.001-0.006,0.002-0.01,0.002c-0.003,0.001-0.007,0.002-0.01,0.003
			c-0.003,0-0.006,0.001-0.011,0.003c-0.005,0.001-0.012,0.002-0.018,0.003c-0.007,0.002-0.013,0.003-0.019,0.005
			c-0.007,0.001-0.013,0.002-0.02,0.004c-0.007,0.002-0.013,0.003-0.02,0.005c-0.001,0-0.002,0.001-0.005,0.002
			c-0.001,0-0.003,0-0.005,0.001c-0.001,0-0.003,0-0.004,0.001c-0.001,0-0.004,0.001-0.005,0.001
			c-0.009,0.003-0.018,0.004-0.027,0.007c-0.009,0.002-0.018,0.004-0.028,0.008c-0.01,0.002-0.018,0.004-0.027,0.008
			c-0.009,0.002-0.02,0.005-0.029,0.007c-0.163,0.048-0.353,0.111-0.553,0.187c-0.199,0.075-0.41,0.164-0.613,0.259
			c-0.204,0.095-0.4,0.2-0.572,0.308c-0.172,0.109-0.319,0.222-0.424,0.333c-0.009,0.009-0.017,0.018-0.024,0.027
			s-0.015,0.018-0.022,0.026c-0.007,0.009-0.014,0.017-0.02,0.026c-0.007,0.008-0.014,0.018-0.02,0.027c0,0,0,0,0,0c0,0,0,0-0.002,0
			c0,0,0,0,0,0.001c0,0.001,0,0.001,0,0.002c-0.034,0.052-0.059,0.102-0.072,0.153c-0.012,0.05-0.012,0.1,0.001,0.15
			c0.013,0.048,0.041,0.096,0.084,0.143c0.043,0.046,0.102,0.091,0.178,0.132c0.002,0.002,0.004,0.003,0.007,0.005
			c0.001,0,0.003,0.002,0.005,0.003c0.002,0.001,0.004,0.002,0.006,0.003c0.003,0.001,0.004,0.002,0.007,0.003
			c0.406,0.223,0.807,0.445,1.202,0.667c0.398,0.223,0.789,0.445,1.174,0.664c0.387,0.221,0.766,0.441,1.135,0.658
			c0.371,0.217,0.732,0.434,1.082,0.646c0.186,0.113,0.369,0.225,0.548,0.334c0.179,0.112,0.354,0.222,0.526,0.33
			c0.171,0.109,0.34,0.218,0.503,0.323c0.164,0.107,0.325,0.212,0.479,0.316c0.46,0.305,0.885,0.594,1.288,0.864
			c0.405,0.273,0.785,0.525,1.152,0.756c0.368,0.233,0.724,0.445,1.076,0.634c0.355,0.189,0.706,0.356,1.067,0.498
			c0.359,0.145,0.738,0.25,1.152,0.324c0.414,0.076,0.863,0.12,1.359,0.139c0.498,0.021,1.042,0.016,1.647-0.006
			c0.607-0.023,1.276-0.062,2.021-0.113c0.628-0.054,1.305-0.115,2.021-0.183c0.179-0.017,0.361-0.034,0.543-0.053
			c-0.846-1.073-1.536-2.269-1.996-3.516C46.342,14.129,45.795,14.289,45.288,14.426z"/>
	</g>
	<g>
		<path fill="#6AA643" d="M45.933,6.07c-0.542-0.022-1.084,0.004-1.605,0.076c-0.705,0.098-1.374,0.278-1.945,0.529
			c-0.575,0.253-1.051,0.578-1.369,0.966c-0.035,0.041-0.068,0.082-0.1,0.123c-0.031,0.041-0.061,0.082-0.09,0.124
			c-0.027,0.042-0.055,0.083-0.081,0.125c-0.025,0.041-0.049,0.083-0.073,0.125c-0.196,0.361-0.292,0.728-0.303,1.088
			c-0.011,0.364,0.065,0.721,0.21,1.055c0.143,0.341,0.358,0.658,0.623,0.94c0.268,0.283,0.586,0.529,0.936,0.721
			c0.399,0.218,0.856,0.358,1.351,0.428c0.5,0.068,1.036,0.064,1.594-0.008c0.454-0.058,0.921-0.161,1.392-0.304
			c-0.126-1.779,0.362-3.764-0.249-5.37C46.144,6.467,46.045,6.262,45.933,6.07z"/>
	</g>
	<g>
		<path fill="#85B840" d="M48.529,11.18c0.211-0.119,0.407-0.246,0.586-0.379c0.178-0.133,0.339-0.272,0.482-0.417
			c0.143-0.145,0.268-0.292,0.373-0.445c0.104-0.152,0.189-0.307,0.254-0.463c0.106-0.255,0.157-0.515,0.147-0.773
			c-0.009-0.255-0.077-0.509-0.209-0.752c-0.132-0.242-0.326-0.477-0.589-0.695c-0.261-0.217-0.589-0.419-0.989-0.6
			c-0.635-0.288-1.35-0.464-2.079-0.544c-0.19-0.02-0.381-0.033-0.573-0.042c0.112,0.192,0.211,0.397,0.292,0.619
			c0.611,1.605,0.123,3.59,0.249,5.37c0.109-0.033,0.219-0.069,0.329-0.106C47.382,11.753,47.963,11.493,48.529,11.18z"/>
	</g>
</g>
<g>
	<path d="M83.814,9.902h2.595v8.476h10.218V9.902h2.622v20.211h-2.622v-9.139H86.409v9.139h-2.595V9.902z"/>
	<path d="M109.246,9.902h3.258l7.372,20.211h-3.037l-2.182-5.882h-7.593l-1.96,5.882h-3.036L109.246,9.902z M113.798,21.858
		l-2.813-8.477l-3.288,8.477H113.798z"/>
	<path d="M122.693,9.902h10.242c1.418,0,2.621,0.46,3.615,1.38s1.594,2.199,1.797,3.838c0,0.332-0.02,0.685-0.057,1.062
		c-0.037,0.379-0.109,0.759-0.223,1.146c-0.164,0.516-0.439,1.018-0.826,1.506c-0.385,0.488-0.957,0.915-1.711,1.284
		c1.012,0.497,1.66,1.146,1.947,1.946c0.285,0.801,0.436,1.625,0.453,2.471c0,0.056,0,0.116,0,0.18s0,0.125,0,0.179
		c0,0.111,0,0.227,0,0.346c0,0.121,0,0.244,0,0.373c-0.018,0.791,0.014,1.532,0.098,2.222c0.082,0.69,0.408,1.23,0.98,1.616v0.663
		h-3.26c-0.127-0.368-0.225-0.746-0.289-1.132c-0.064-0.388-0.107-0.784-0.123-1.188c-0.02-0.184-0.033-0.376-0.041-0.579
		c-0.01-0.202-0.016-0.396-0.016-0.58c0-0.056,0-0.106,0-0.152c0-0.047,0-0.097,0-0.152c-0.035-1.178-0.195-2.236-0.469-3.175
		c-0.277-0.938-1.197-1.519-2.762-1.74h-6.736v8.698h-2.621V9.902z M132.271,19.014c0.057,0.019,0.111,0.027,0.166,0.027
		s0.111,0,0.168,0c0.844,0,1.561-0.349,2.139-1.048c0.58-0.7,0.879-1.472,0.896-2.319c0-0.019,0-0.031,0-0.042
		c0-0.009,0-0.022,0-0.041c0-0.019,0-0.032,0-0.042c0-0.009,0-0.023,0-0.042c-0.018-0.754-0.336-1.458-0.953-2.112
		c-0.615-0.652-1.643-1.026-3.078-1.118h-6.295v6.737H132.271z"/>
	<path d="M142.266,9.902h3.895l5.66,16.953l5.662-16.953h3.918v20.211h-2.842V14.016l-5.439,16.098h-2.598l-5.438-15.877v15.877
		h-2.818V9.902z"/>
	<path d="M164.273,18.282c0.037-0.322,0.094-0.649,0.166-0.98c0.424-1.896,1.449-3.64,3.078-5.232
		c1.629-1.592,3.797-2.389,6.502-2.389c0.332,0,0.664,0.013,0.996,0.042c0.33,0.028,0.66,0.079,0.992,0.151
		c1.896,0.35,3.645,1.312,5.244,2.885c1.604,1.574,2.449,4.028,2.543,7.359c0,2.835-0.869,5.314-2.611,7.441
		c-1.738,2.126-4.348,3.189-7.826,3.189c-3.039,0-5.318-1.078-6.848-3.23c-1.527-2.154-2.291-4.916-2.291-8.283
		C164.219,18.921,164.236,18.604,164.273,18.282z M167.033,22.023c0.094,0.534,0.238,1.077,0.443,1.629
		c0.385,1.105,1.031,2.131,1.932,3.078c0.902,0.948,2.219,1.496,3.949,1.644c0.129,0.019,0.252,0.033,0.373,0.042
		c0.119,0.009,0.244,0.014,0.371,0.014c1.824,0,3.453-0.778,4.887-2.333c1.438-1.555,2.102-3.916,1.99-7.082
		c-0.111-1.84-0.783-3.46-2.018-4.86c-1.232-1.398-2.881-2.098-4.941-2.098c-0.238,0-0.479,0.015-0.717,0.042
		c-0.24,0.026-0.48,0.068-0.721,0.125c-1.434,0.294-2.75,1.104-3.947,2.429c-1.197,1.326-1.793,3.295-1.793,5.909
		C166.879,21.002,166.943,21.49,167.033,22.023z"/>
	<path d="M186.861,9.902h3.258l9.992,16.29V9.902h2.625v20.211h-3.064l-10.217-16.098v16.098h-2.594V9.902z"/>
	<path d="M212.703,22.299l-7.814-12.397h3.26l5.881,9.773l5.631-9.773h3.258l-7.592,12.397v7.814h-2.623V22.299z"/>
	<path d="M92.007,41.702c0,0.713-0.134,1.357-0.404,1.93c-0.269,0.57-0.636,1.066-1.101,1.484c-0.465,0.418-1.011,0.738-1.637,0.961
		c-0.626,0.223-1.291,0.332-1.99,0.332h-2.223v2.707c0,0.109-0.041,0.203-0.122,0.283c-0.081,0.082-0.175,0.121-0.283,0.121
		s-0.202-0.039-0.284-0.121c-0.08-0.08-0.122-0.174-0.122-0.283V37.175c0-0.055-0.006-0.104-0.019-0.152
		c-0.013-0.045-0.013-0.09,0-0.131c0.013-0.039,0.047-0.068,0.101-0.092c0.054-0.02,0.148-0.029,0.283-0.029h2.667
		c0.699,0,1.364,0.123,1.99,0.373c0.625,0.252,1.171,0.594,1.637,1.033c0.465,0.436,0.832,0.959,1.101,1.564
		C91.874,40.347,92.007,41.003,92.007,41.702z M91.199,41.702c0-0.594-0.114-1.143-0.344-1.648
		c-0.229-0.504-0.539-0.938-0.928-1.303c-0.392-0.363-0.849-0.65-1.375-0.857c-0.524-0.211-1.083-0.312-1.676-0.312h-2.223v8.02
		h2.223c0.592,0,1.152-0.09,1.676-0.273c0.526-0.18,0.984-0.439,1.375-0.777c0.39-0.336,0.7-0.748,0.928-1.232
		C91.085,42.835,91.199,42.294,91.199,41.702z"/>
	<path d="M95.22,42.288c0.053-0.217,0.193-0.473,0.415-0.77c0.222-0.295,0.509-0.572,0.858-0.826c0.35-0.256,0.756-0.475,1.223-0.66
		c0.465-0.18,0.965-0.271,1.506-0.271c0.188,0,0.369,0.02,0.545,0.051c0.174,0.035,0.323,0.07,0.444,0.111
		c0.256,0.082,0.376,0.242,0.363,0.484c-0.025,0.123-0.083,0.215-0.172,0.285c-0.087,0.064-0.191,0.092-0.312,0.08
		c-0.175-0.016-0.334-0.055-0.476-0.123c-0.141-0.064-0.313-0.1-0.515-0.1c-0.524,0-1.02,0.109-1.484,0.334
		c-0.465,0.221-0.877,0.52-1.232,0.898c-0.358,0.377-0.641,0.816-0.849,1.324c-0.209,0.504-0.314,1.033-0.314,1.586v4.404
		c0,0.123-0.037,0.223-0.111,0.303c-0.074,0.082-0.171,0.121-0.292,0.121s-0.219-0.039-0.293-0.121
		c-0.074-0.08-0.112-0.18-0.112-0.303v-9.113c0-0.146,0.075-0.223,0.224-0.223c0.202,0,0.35,0.115,0.444,0.342
		c0.094,0.23,0.141,0.604,0.141,1.115V42.288z"/>
	<path d="M102.81,37.255c0-0.16,0.052-0.299,0.16-0.414c0.108-0.115,0.243-0.17,0.404-0.17c0.161,0,0.301,0.055,0.415,0.17
		c0.115,0.115,0.172,0.254,0.172,0.414c0,0.162-0.057,0.297-0.172,0.404c-0.114,0.109-0.253,0.164-0.415,0.164
		c-0.162,0-0.296-0.055-0.404-0.164C102.862,37.552,102.81,37.417,102.81,37.255z M103.383,39.741c0.109,0,0.203,0.041,0.284,0.121
		c0.081,0.08,0.122,0.176,0.122,0.283v8.971c0,0.109-0.041,0.203-0.122,0.283c-0.081,0.082-0.175,0.121-0.284,0.121
		c-0.107,0-0.202-0.039-0.283-0.121c-0.081-0.08-0.122-0.174-0.122-0.283v-8.971c0-0.107,0.041-0.203,0.122-0.283
		C103.182,39.782,103.276,39.741,103.383,39.741z"/>
	<path d="M107.748,41.925c0.039-0.229,0.139-0.473,0.293-0.729c0.155-0.256,0.37-0.49,0.647-0.707
		c0.275-0.217,0.616-0.391,1.019-0.525c0.405-0.135,0.876-0.203,1.416-0.203c0.889,0.014,1.579,0.25,2.069,0.709
		c0.493,0.457,0.832,1.057,1.023,1.797c0.064-0.256,0.182-0.529,0.342-0.818c0.162-0.289,0.389-0.557,0.678-0.809
		c0.289-0.25,0.643-0.457,1.061-0.625s0.908-0.254,1.475-0.254c0.658,0,1.207,0.129,1.637,0.385s0.775,0.604,1.031,1.041
		s0.432,0.953,0.527,1.545c0.092,0.594,0.141,1.227,0.141,1.9v4.465c0,0.123-0.037,0.223-0.113,0.303
		c-0.074,0.082-0.17,0.121-0.293,0.121c-0.121,0-0.219-0.039-0.293-0.121c-0.074-0.08-0.109-0.18-0.109-0.303v-4.445
		c0-0.566-0.031-1.1-0.094-1.605c-0.059-0.508-0.184-0.947-0.371-1.324c-0.189-0.377-0.459-0.674-0.809-0.889
		s-0.809-0.324-1.375-0.324c-0.553,0-1.025,0.111-1.424,0.334c-0.396,0.221-0.727,0.518-0.99,0.889
		c-0.262,0.371-0.459,0.805-0.586,1.303c-0.129,0.498-0.199,1.031-0.213,1.598v4.465c0,0.123-0.037,0.223-0.111,0.303
		c-0.074,0.082-0.17,0.121-0.293,0.121c-0.12,0-0.219-0.039-0.292-0.121c-0.075-0.08-0.109-0.18-0.109-0.303v-4.445
		c0-0.566-0.031-1.1-0.094-1.605c-0.059-0.508-0.181-0.947-0.363-1.324c-0.182-0.377-0.442-0.674-0.788-0.889
		c-0.344-0.215-0.798-0.324-1.364-0.324c-0.552,0-1.033,0.113-1.443,0.346c-0.412,0.229-0.752,0.535-1.02,0.918
		c-0.271,0.383-0.473,0.826-0.607,1.334c-0.135,0.504-0.202,1.033-0.202,1.586v4.404c0,0.123-0.037,0.223-0.112,0.303
		c-0.075,0.082-0.17,0.121-0.292,0.121c-0.121,0-0.221-0.039-0.293-0.121c-0.075-0.08-0.11-0.18-0.11-0.303v-9.113
		c0-0.146,0.073-0.223,0.219-0.223c0.203,0,0.352,0.115,0.446,0.342c0.093,0.23,0.142,0.604,0.142,1.115V41.925z"/>
	<path d="M132.379,46.954c-0.121,0.324-0.318,0.641-0.598,0.949c-0.275,0.312-0.602,0.588-0.979,0.832
		c-0.377,0.24-0.797,0.436-1.262,0.584s-0.947,0.223-1.445,0.223c-0.676,0-1.297-0.129-1.871-0.385
		c-0.57-0.254-1.066-0.605-1.482-1.051c-0.418-0.443-0.746-0.963-0.979-1.557c-0.236-0.592-0.357-1.225-0.357-1.898
		s0.121-1.307,0.357-1.898c0.232-0.594,0.561-1.111,0.979-1.557c0.416-0.443,0.912-0.795,1.482-1.051
		c0.574-0.256,1.195-0.385,1.871-0.385c0.551,0,1.068,0.088,1.545,0.264c0.479,0.176,0.906,0.393,1.285,0.656
		c0.375,0.262,0.689,0.543,0.939,0.838c0.248,0.297,0.42,0.574,0.514,0.83v-1.113c0-0.51,0.049-0.879,0.143-1.111
		c0.092-0.229,0.242-0.342,0.443-0.342c0.148,0,0.223,0.074,0.223,0.223v9.293c0,0.148-0.074,0.223-0.223,0.223
		c-0.201,0-0.352-0.113-0.443-0.344c-0.094-0.229-0.143-0.598-0.143-1.109V46.954z M124.277,44.651c0,0.566,0.09,1.102,0.271,1.607
		c0.182,0.504,0.441,0.945,0.779,1.324c0.336,0.377,0.74,0.672,1.213,0.889c0.469,0.215,0.988,0.322,1.555,0.322
		c0.564,0,1.107-0.107,1.627-0.322c0.518-0.217,0.969-0.512,1.354-0.889c0.383-0.379,0.689-0.82,0.92-1.324
		c0.23-0.506,0.342-1.041,0.342-1.607c0-0.553-0.117-1.082-0.352-1.586c-0.236-0.506-0.551-0.947-0.941-1.322
		c-0.389-0.381-0.84-0.68-1.354-0.9c-0.512-0.223-1.045-0.334-1.596-0.334c-0.566,0-1.086,0.109-1.555,0.324
		c-0.473,0.215-0.877,0.512-1.213,0.889c-0.338,0.377-0.598,0.816-0.779,1.324C124.367,43.552,124.277,44.085,124.277,44.651z"/>
	<path d="M137.229,42.288c0.055-0.217,0.191-0.473,0.414-0.77c0.223-0.295,0.508-0.572,0.861-0.826
		c0.35-0.256,0.756-0.475,1.221-0.66c0.463-0.18,0.967-0.271,1.506-0.271c0.188,0,0.369,0.02,0.545,0.051
		c0.174,0.035,0.324,0.07,0.445,0.111c0.256,0.082,0.375,0.242,0.363,0.484c-0.029,0.123-0.084,0.215-0.172,0.285
		c-0.088,0.064-0.191,0.092-0.312,0.08c-0.178-0.016-0.334-0.055-0.477-0.123c-0.141-0.064-0.312-0.1-0.516-0.1
		c-0.525,0-1.018,0.109-1.482,0.334c-0.467,0.221-0.877,0.52-1.234,0.898c-0.355,0.377-0.641,0.816-0.848,1.324
		c-0.211,0.504-0.314,1.033-0.314,1.586v4.404c0,0.123-0.037,0.223-0.109,0.303c-0.076,0.082-0.172,0.121-0.293,0.121
		c-0.123,0-0.221-0.039-0.295-0.121c-0.074-0.08-0.109-0.18-0.109-0.303v-9.113c0-0.146,0.072-0.223,0.221-0.223
		c0.203,0,0.35,0.115,0.445,0.342c0.094,0.23,0.141,0.604,0.141,1.115V42.288z"/>
	<path d="M147.857,52.753c0.053-0.107,0.135-0.176,0.244-0.211c0.105-0.035,0.213-0.023,0.32,0.029
		c0.635,0.203,1.256,0.271,1.871,0.203c0.611-0.066,1.158-0.25,1.635-0.543c0.479-0.299,0.863-0.707,1.152-1.225
		c0.291-0.52,0.436-1.137,0.436-1.85v-2.203c-0.121,0.336-0.322,0.66-0.596,0.971c-0.275,0.311-0.605,0.586-0.992,0.83
		c-0.381,0.242-0.803,0.434-1.262,0.572c-0.457,0.143-0.938,0.215-1.434,0.215c-0.676,0-1.299-0.129-1.871-0.385
		c-0.572-0.254-1.066-0.605-1.484-1.051c-0.416-0.443-0.744-0.963-0.979-1.557c-0.238-0.592-0.355-1.225-0.355-1.898v-4.445
		c0-0.297,0.141-0.445,0.424-0.445s0.424,0.148,0.424,0.445v4.445c0,0.566,0.092,1.102,0.273,1.607
		c0.182,0.504,0.443,0.945,0.779,1.324c0.336,0.377,0.74,0.672,1.213,0.889c0.471,0.215,0.988,0.322,1.555,0.322
		c0.564,0,1.107-0.107,1.627-0.322c0.518-0.217,0.973-0.512,1.365-0.889c0.389-0.379,0.697-0.82,0.928-1.324
		c0.23-0.506,0.344-1.041,0.344-1.607c0-0.107,0-0.301,0-0.576c0-0.277,0-0.713,0-1.312s0-1.451,0-2.557
		c0-0.297,0.143-0.445,0.424-0.445c0.283,0,0.426,0.148,0.426,0.445v8.426v0.041v0.484c0,0.795-0.158,1.506-0.477,2.133
		c-0.314,0.625-0.75,1.131-1.301,1.514c-0.553,0.385-1.203,0.631-1.951,0.738c-0.746,0.109-1.555,0.049-2.414-0.18
		c-0.176-0.055-0.289-0.145-0.336-0.264C147.799,52.976,147.803,52.862,147.857,52.753z"/>
	<path d="M170.285,39.358c-0.402-0.594-0.832-1.027-1.283-1.305c-0.449-0.275-1.02-0.422-1.707-0.436
		c-0.35,0-0.695,0.053-1.039,0.162s-0.65,0.264-0.92,0.465c-0.27,0.203-0.492,0.451-0.668,0.738
		c-0.174,0.289-0.262,0.604-0.262,0.939c0,0.363,0.098,0.678,0.293,0.939c0.195,0.264,0.438,0.496,0.727,0.697
		c0.289,0.203,0.604,0.373,0.941,0.516c0.336,0.141,0.652,0.26,0.947,0.354c0.461,0.162,0.922,0.348,1.396,0.557
		c0.471,0.207,0.906,0.457,1.301,0.748c0.4,0.289,0.723,0.629,0.971,1.018c0.25,0.393,0.379,0.836,0.396,1.336
		c0.01,0.484-0.086,0.938-0.295,1.354s-0.502,0.781-0.877,1.092c-0.379,0.309-0.824,0.551-1.336,0.727
		c-0.512,0.174-1.072,0.262-1.676,0.262c-0.486,0-0.939-0.057-1.355-0.172s-0.797-0.271-1.141-0.475
		c-0.346-0.201-0.633-0.434-0.869-0.697s-0.414-0.533-0.535-0.816c-0.068-0.148-0.105-0.277-0.111-0.387
		c-0.008-0.105,0.043-0.193,0.152-0.26c0.094-0.07,0.197-0.09,0.312-0.061c0.113,0.025,0.191,0.094,0.232,0.201
		c0.094,0.24,0.238,0.473,0.434,0.697c0.195,0.221,0.434,0.422,0.717,0.596c0.285,0.176,0.605,0.318,0.971,0.434
		c0.365,0.117,0.762,0.174,1.193,0.174c0.416,0,0.826-0.062,1.23-0.184c0.406-0.121,0.77-0.295,1.094-0.525
		c0.322-0.229,0.582-0.514,0.775-0.848c0.197-0.338,0.287-0.709,0.273-1.111c-0.012-0.365-0.125-0.697-0.334-1.002
		c-0.207-0.303-0.471-0.572-0.787-0.807c-0.316-0.236-0.662-0.441-1.041-0.617c-0.377-0.176-0.74-0.316-1.092-0.424
		c-0.51-0.162-0.988-0.34-1.434-0.537c-0.443-0.193-0.838-0.42-1.182-0.676c-0.346-0.256-0.613-0.555-0.809-0.898
		c-0.197-0.344-0.293-0.746-0.293-1.203s0.107-0.879,0.322-1.26c0.217-0.387,0.496-0.713,0.84-0.982s0.736-0.482,1.182-0.639
		c0.445-0.154,0.896-0.229,1.354-0.229c0.473,0,0.895,0.059,1.266,0.18c0.369,0.121,0.701,0.281,0.998,0.475
		c0.297,0.195,0.557,0.422,0.789,0.678c0.229,0.256,0.43,0.525,0.604,0.809c0.07,0.094,0.086,0.188,0.051,0.279
		c-0.033,0.098-0.098,0.18-0.191,0.244c-0.094,0.068-0.189,0.088-0.283,0.062C170.434,39.513,170.354,39.452,170.285,39.358z"/>
	<path d="M181.621,41.54c-0.35-0.322-0.758-0.576-1.223-0.758c-0.467-0.182-0.953-0.273-1.465-0.273
		c-0.564,0-1.094,0.109-1.586,0.324s-0.92,0.512-1.283,0.889s-0.648,0.816-0.859,1.324c-0.209,0.506-0.312,1.039-0.312,1.605
		s0.104,1.102,0.312,1.607c0.211,0.504,0.496,0.945,0.859,1.324c0.363,0.377,0.791,0.672,1.283,0.889
		c0.492,0.215,1.021,0.322,1.586,0.322c0.5,0,0.99-0.092,1.475-0.273c0.486-0.182,0.904-0.447,1.256-0.797
		c0.08-0.08,0.18-0.121,0.301-0.121c0.094,0,0.195,0.041,0.303,0.121c0.08,0.107,0.121,0.209,0.121,0.303
		c0,0.121-0.041,0.223-0.121,0.303c-0.16,0.135-0.354,0.271-0.576,0.414s-0.471,0.273-0.748,0.393
		c-0.275,0.123-0.58,0.221-0.918,0.293c-0.338,0.076-0.701,0.113-1.092,0.113c-0.672,0-1.307-0.129-1.898-0.385
		c-0.592-0.254-1.111-0.605-1.555-1.051c-0.445-0.443-0.795-0.963-1.053-1.557c-0.256-0.592-0.383-1.225-0.383-1.898
		s0.127-1.307,0.383-1.898c0.258-0.594,0.607-1.111,1.053-1.557c0.443-0.443,0.963-0.795,1.555-1.051s1.227-0.385,1.898-0.385
		c0.566,0,1.152,0.092,1.758,0.271c0.605,0.186,1.119,0.482,1.537,0.902c0.08,0.105,0.119,0.207,0.119,0.301
		c0,0.123-0.039,0.225-0.119,0.305c-0.111,0.082-0.211,0.121-0.305,0.121C181.803,41.661,181.703,41.622,181.621,41.54z"/>
	<path d="M194.352,44.651c0-0.566-0.094-1.1-0.283-1.605c-0.189-0.508-0.455-0.947-0.799-1.324c-0.342-0.377-0.754-0.674-1.23-0.889
		c-0.48-0.215-1.002-0.324-1.568-0.324c-0.553,0-1.086,0.113-1.605,0.346c-0.52,0.229-0.977,0.535-1.375,0.918
		c-0.396,0.383-0.713,0.826-0.947,1.334c-0.238,0.504-0.355,1.033-0.355,1.586v4.404c0,0.123-0.037,0.223-0.111,0.303
		c-0.074,0.082-0.172,0.121-0.293,0.121s-0.221-0.039-0.293-0.121c-0.072-0.08-0.111-0.18-0.111-0.303V37.073
		c0-0.107,0.041-0.201,0.121-0.281c0.082-0.084,0.176-0.121,0.283-0.121s0.203,0.037,0.283,0.121c0.08,0.08,0.121,0.174,0.121,0.281
		v5.275c0.094-0.256,0.268-0.533,0.516-0.83c0.248-0.295,0.561-0.576,0.939-0.838c0.377-0.264,0.807-0.48,1.285-0.656
		c0.477-0.176,0.99-0.264,1.543-0.264c0.672,0,1.297,0.129,1.869,0.385c0.574,0.256,1.068,0.604,1.486,1.041
		c0.416,0.438,0.744,0.953,0.98,1.545c0.234,0.594,0.354,1.227,0.354,1.9v4.465c0,0.123-0.037,0.223-0.111,0.303
		c-0.076,0.082-0.172,0.121-0.293,0.121c-0.123,0-0.219-0.039-0.295-0.121c-0.074-0.08-0.109-0.18-0.109-0.303V44.651z"/>
	<path d="M197.889,44.632c0-0.674,0.127-1.307,0.381-1.9c0.258-0.592,0.607-1.109,1.051-1.555c0.447-0.445,0.965-0.797,1.557-1.053
		c0.594-0.256,1.227-0.383,1.9-0.383c0.672,0,1.307,0.127,1.9,0.383c0.592,0.256,1.111,0.607,1.555,1.053s0.793,0.963,1.049,1.555
		c0.258,0.594,0.387,1.227,0.387,1.9c0,0.672-0.129,1.307-0.387,1.898c-0.256,0.592-0.605,1.113-1.049,1.557
		c-0.443,0.445-0.963,0.797-1.555,1.049c-0.594,0.258-1.229,0.385-1.9,0.385c-0.674,0-1.307-0.127-1.9-0.385
		c-0.592-0.252-1.109-0.604-1.557-1.049c-0.443-0.443-0.793-0.965-1.051-1.557C198.016,45.938,197.889,45.304,197.889,44.632z
		 M198.734,44.632c0,0.564,0.104,1.102,0.314,1.607c0.209,0.504,0.494,0.945,0.859,1.322c0.361,0.377,0.789,0.674,1.283,0.889
		c0.492,0.215,1.02,0.322,1.586,0.322s1.096-0.107,1.586-0.322c0.492-0.215,0.92-0.512,1.285-0.889
		c0.361-0.377,0.648-0.818,0.857-1.322c0.209-0.506,0.312-1.043,0.312-1.607c0-0.566-0.104-1.102-0.312-1.607
		c-0.209-0.504-0.496-0.945-0.857-1.322c-0.365-0.377-0.793-0.676-1.285-0.889c-0.49-0.217-1.02-0.324-1.586-0.324
		s-1.094,0.107-1.586,0.324c-0.494,0.213-0.922,0.512-1.283,0.889c-0.365,0.377-0.65,0.818-0.859,1.322
		C198.838,43.53,198.734,44.065,198.734,44.632z"/>
	<path d="M209.91,44.632c0-0.674,0.127-1.307,0.383-1.9c0.256-0.592,0.605-1.109,1.051-1.555c0.443-0.445,0.965-0.797,1.557-1.053
		c0.594-0.256,1.225-0.383,1.898-0.383c0.676,0,1.307,0.127,1.9,0.383s1.109,0.607,1.557,1.053c0.445,0.445,0.795,0.963,1.051,1.555
		c0.254,0.594,0.381,1.227,0.381,1.9c0,0.672-0.127,1.307-0.381,1.898c-0.256,0.592-0.605,1.113-1.051,1.557
		c-0.447,0.445-0.963,0.797-1.557,1.049c-0.594,0.258-1.225,0.385-1.9,0.385c-0.674,0-1.305-0.127-1.898-0.385
		c-0.592-0.252-1.113-0.604-1.557-1.049c-0.445-0.443-0.795-0.965-1.051-1.557S209.91,45.304,209.91,44.632z M210.76,44.632
		c0,0.564,0.102,1.102,0.312,1.607c0.209,0.504,0.494,0.945,0.855,1.322c0.365,0.377,0.793,0.674,1.285,0.889
		c0.49,0.215,1.021,0.322,1.586,0.322c0.566,0,1.094-0.107,1.586-0.322s0.92-0.512,1.281-0.889c0.367-0.377,0.654-0.818,0.861-1.322
		c0.211-0.506,0.314-1.043,0.314-1.607c0-0.566-0.104-1.102-0.314-1.607c-0.207-0.504-0.494-0.945-0.861-1.322
		c-0.361-0.377-0.789-0.676-1.281-0.889c-0.492-0.217-1.02-0.324-1.586-0.324c-0.564,0-1.096,0.107-1.586,0.324
		c-0.492,0.213-0.92,0.512-1.285,0.889c-0.361,0.377-0.646,0.818-0.855,1.322C210.861,43.53,210.76,44.065,210.76,44.632z"/>
	<path d="M222.6,36.792c0.107,0,0.203,0.041,0.283,0.121s0.121,0.174,0.121,0.281v11.922c0,0.109-0.041,0.203-0.121,0.283
		c-0.08,0.082-0.176,0.121-0.283,0.121s-0.203-0.039-0.283-0.121c-0.08-0.08-0.119-0.174-0.119-0.283V37.194
		c0-0.107,0.039-0.201,0.119-0.281S222.492,36.792,222.6,36.792z"/>
</g>
</svg>
